<svg width="16" height="16" viewBox="0 0 16 16" fill="none" xmlns="http://www.w3.org/2000/svg">
<path d="M0 16V3.65714H3.65714V0H12.3429V7.31429H16V16H9.14286V12.3429H6.85714V16H0ZM1.37143 14.6286H3.65714V12.3429H1.37143V14.6286ZM1.37143 10.9714H3.65714V8.68571H1.37143V10.9714ZM1.37143 7.31429H3.65714V5.02857H1.37143V7.31429ZM5.02857 10.9714H7.31429V8.68571H5.02857V10.9714ZM5.02857 7.31429H7.31429V5.02857H5.02857V7.31429ZM5.02857 3.65714H7.31429V1.37143H5.02857V3.65714ZM8.68571 10.9714H10.9714V8.68571H8.68571V10.9714ZM8.68571 7.31429H10.9714V5.02857H8.68571V7.31429ZM8.68571 3.65714H10.9714V1.37143H8.68571V3.65714ZM12.3429 14.6286H14.6286V12.3429H12.3429V14.6286ZM12.3429 10.9714H14.6286V8.68571H12.3429V10.9714Z" fill="#4CA771"/>
</svg>
