<svg width="460" height="436" viewBox="0 0 460 436" fill="none" xmlns="http://www.w3.org/2000/svg">
<rect x="1.32812" y="0.1875" width="77.8833" height="38.4359" rx="19.218" fill="#D3E9F4"/>
<path d="M32.0545 14.9662C30.6012 14.9662 29.8745 15.4462 29.8745 16.4062C29.8745 16.8329 30.0545 17.1596 30.4145 17.3862C30.7745 17.6129 31.6145 17.9396 32.9345 18.3662C34.2679 18.7929 35.2012 19.2796 35.7345 19.8262C36.2679 20.3596 36.5345 21.1862 36.5345 22.3062C36.5345 23.7329 36.1012 24.8129 35.2345 25.5462C34.3679 26.2796 33.2345 26.6463 31.8345 26.6463C30.7945 26.6463 29.5212 26.4863 28.0145 26.1662L27.2945 26.0262L27.5745 23.8862C29.3612 24.1262 30.7279 24.2462 31.6745 24.2462C33.0879 24.2462 33.7945 23.6596 33.7945 22.4862C33.7945 22.0596 33.6279 21.7262 33.2945 21.4862C32.9745 21.2462 32.3279 20.9862 31.3545 20.7062C29.8079 20.2662 28.7145 19.7462 28.0745 19.1462C27.4479 18.5329 27.1345 17.6862 27.1345 16.6062C27.1345 15.2462 27.5479 14.2329 28.3745 13.5662C29.2012 12.8996 30.3345 12.5662 31.7745 12.5662C32.7612 12.5662 34.0145 12.6996 35.5345 12.9662L36.2545 13.1062L36.0345 15.2862C34.1545 15.0729 32.8279 14.9662 32.0545 14.9662ZM38.7534 26.4062V12.8062H41.5134V26.4062H38.7534ZM49.4761 22.4462H47.2361V26.4062H44.4761V12.8062H49.4761C52.7028 12.8062 54.3161 14.3796 54.3161 17.5262C54.3161 19.1129 53.9028 20.3329 53.0761 21.1862C52.2628 22.0262 51.0628 22.4462 49.4761 22.4462ZM47.2361 20.0862H49.4561C50.8294 20.0862 51.5161 19.2329 51.5161 17.5262C51.5161 16.6862 51.3494 16.0862 51.0161 15.7262C50.6828 15.3529 50.1628 15.1662 49.4561 15.1662H47.2361V20.0862Z" fill="#023373"/>
<path d="M121.582 26.4062H113.962V12.5662H115.502V25.0262H121.582V26.4062ZM129.414 16.4062H130.914V26.4062H129.414V25.7062C128.414 26.3063 127.428 26.6063 126.454 26.6063C125.094 26.6063 124.188 26.2529 123.734 25.5462C123.294 24.8396 123.074 23.5329 123.074 21.6262V16.4062H124.574V21.6062C124.574 23.0596 124.701 24.0329 124.954 24.5262C125.208 25.0196 125.781 25.2662 126.674 25.2662C127.114 25.2662 127.561 25.2062 128.014 25.0863C128.468 24.9529 128.814 24.8262 129.054 24.7062L129.414 24.5262V16.4062ZM135.299 26.4062H133.799V16.4062H135.279V17.1062C136.279 16.5062 137.253 16.2062 138.199 16.2062C139.439 16.2062 140.306 16.5462 140.799 17.2262C141.239 16.9596 141.806 16.7262 142.499 16.5262C143.206 16.3129 143.826 16.2062 144.359 16.2062C145.693 16.2062 146.586 16.5662 147.039 17.2862C147.506 17.9929 147.739 19.2729 147.739 21.1263V26.4062H146.239V21.1662C146.239 19.7796 146.106 18.8329 145.839 18.3262C145.573 17.8062 145.006 17.5462 144.139 17.5462C143.699 17.5462 143.246 17.6129 142.779 17.7462C142.313 17.8662 141.953 17.9862 141.699 18.1062L141.319 18.2862C141.493 18.7262 141.579 19.6996 141.579 21.2062V26.4062H140.079V21.2462C140.079 19.8062 139.946 18.8329 139.679 18.3262C139.426 17.8062 138.859 17.5462 137.979 17.5462C137.553 17.5462 137.113 17.6129 136.659 17.7462C136.219 17.8662 135.879 17.9862 135.639 18.1062L135.299 18.2862V26.4062ZM150.518 30.8463V16.4062H151.998V17.1262C153.011 16.5129 154.011 16.2062 154.998 16.2062C156.265 16.2062 157.185 16.6129 157.758 17.4262C158.331 18.2262 158.618 19.5529 158.618 21.4062C158.618 23.2596 158.278 24.5929 157.598 25.4062C156.931 26.2063 155.818 26.6063 154.258 26.6063C153.445 26.6063 152.698 26.5329 152.018 26.3862V30.8463H150.518ZM154.778 17.5462C154.378 17.5462 153.945 17.6129 153.478 17.7462C153.025 17.8796 152.665 18.0129 152.398 18.1462L152.018 18.3462V25.0863C152.965 25.2329 153.685 25.3062 154.178 25.3062C155.258 25.3062 156.011 24.9996 156.438 24.3862C156.878 23.7729 157.098 22.7729 157.098 21.3862C157.098 19.9996 156.898 19.0129 156.498 18.4262C156.111 17.8396 155.538 17.5462 154.778 17.5462ZM164.205 17.5462C162.752 17.5462 162.025 18.0529 162.025 19.0662C162.025 19.5329 162.192 19.8662 162.525 20.0662C162.858 20.2529 163.618 20.4529 164.805 20.6662C165.992 20.8662 166.832 21.1529 167.325 21.5262C167.818 21.8996 168.065 22.5996 168.065 23.6262C168.065 24.6529 167.732 25.4062 167.065 25.8862C166.412 26.3663 165.452 26.6063 164.185 26.6063C163.358 26.6063 162.385 26.5129 161.265 26.3262L160.665 26.2262L160.745 24.9262C162.265 25.1529 163.412 25.2662 164.185 25.2662C164.958 25.2662 165.545 25.1462 165.945 24.9062C166.358 24.6529 166.565 24.2396 166.565 23.6662C166.565 23.0796 166.392 22.6862 166.045 22.4862C165.698 22.2729 164.938 22.0729 163.765 21.8862C162.592 21.6996 161.758 21.4262 161.265 21.0662C160.772 20.7062 160.525 20.0396 160.525 19.0662C160.525 18.0929 160.865 17.3729 161.545 16.9062C162.238 16.4396 163.098 16.2062 164.125 16.2062C164.938 16.2062 165.958 16.2996 167.185 16.4862L167.745 16.5862L167.705 17.8662C166.225 17.6529 165.058 17.5462 164.205 17.5462ZM176.602 16.4062H178.102V26.4062H176.602V25.7062C175.602 26.3063 174.615 26.6063 173.642 26.6063C172.282 26.6063 171.375 26.2529 170.922 25.5462C170.482 24.8396 170.262 23.5329 170.262 21.6262V16.4062H171.762V21.6062C171.762 23.0596 171.889 24.0329 172.142 24.5262C172.395 25.0196 172.969 25.2662 173.862 25.2662C174.302 25.2662 174.749 25.2062 175.202 25.0863C175.655 24.9529 176.002 24.8262 176.242 24.7062L176.602 24.5262V16.4062ZM182.487 26.4062H180.987V16.4062H182.467V17.1062C183.467 16.5062 184.44 16.2062 185.387 16.2062C186.627 16.2062 187.494 16.5462 187.987 17.2262C188.427 16.9596 188.994 16.7262 189.687 16.5262C190.394 16.3129 191.014 16.2062 191.547 16.2062C192.88 16.2062 193.774 16.5662 194.227 17.2862C194.694 17.9929 194.927 19.2729 194.927 21.1263V26.4062H193.427V21.1662C193.427 19.7796 193.294 18.8329 193.027 18.3262C192.76 17.8062 192.194 17.5462 191.327 17.5462C190.887 17.5462 190.434 17.6129 189.967 17.7462C189.5 17.8662 189.14 17.9862 188.887 18.1062L188.507 18.2862C188.68 18.7262 188.767 19.6996 188.767 21.2062V26.4062H187.267V21.2462C187.267 19.8062 187.134 18.8329 186.867 18.3262C186.614 17.8062 186.047 17.5462 185.167 17.5462C184.74 17.5462 184.3 17.6129 183.847 17.7462C183.407 17.8662 183.067 17.9862 182.827 18.1062L182.487 18.2862V26.4062Z" fill="#333333"/>
<rect x="1.32812" y="51.0703" width="458.67" height="82.6673" rx="12" fill="#00313A"/>
<path d="M201.581 91.7344L196.541 82.9343V81.761H197.127C198.07 81.761 198.861 81.6721 199.501 81.4943C200.159 81.3165 200.674 81.0232 201.048 80.6143C201.421 80.2054 201.643 79.6454 201.714 78.9343H196.541V77.2276H201.688C201.563 76.5698 201.314 76.0365 200.941 75.6276C200.568 75.2009 200.061 74.8898 199.421 74.6942C198.799 74.4987 198.034 74.4009 197.127 74.4009H196.541V72.6942H207.581V74.4009H202.541C202.95 74.7387 203.288 75.1387 203.554 75.6009C203.821 76.0631 203.99 76.6054 204.061 77.2276H207.581V78.9343H204.114C203.99 80.2321 203.492 81.2454 202.621 81.9743C201.768 82.6854 200.63 83.1387 199.207 83.3343L204.301 91.7344H201.581ZM224.485 91.7344H211.645V88.2244L215.875 83.9344C217.375 82.3944 218.415 81.2144 218.995 80.3944C219.595 79.5744 219.895 78.7044 219.895 77.7844C219.895 76.8444 219.645 76.1844 219.145 75.8044C218.665 75.4244 217.975 75.2344 217.075 75.2344C215.735 75.2344 214.275 75.3544 212.695 75.5944L211.975 75.6844L211.765 72.4744C213.725 71.8744 215.755 71.5744 217.855 71.5744C222.055 71.5744 224.155 73.4644 224.155 77.2444C224.155 78.7244 223.835 80.0044 223.195 81.0844C222.555 82.1644 221.395 83.4744 219.715 85.0144L216.265 88.1344H224.485V91.7344ZM228.762 91.7344V86.7544H233.082V91.7344H228.762ZM250.238 75.6244C248.198 75.3244 246.428 75.1744 244.928 75.1744C242.088 75.1744 240.668 76.7144 240.668 79.7944L241.298 79.6144C242.618 79.2344 243.668 79.0444 244.448 79.0444C246.708 79.0444 248.408 79.5644 249.548 80.6044C250.688 81.6444 251.258 83.2644 251.258 85.4644C251.258 87.6444 250.618 89.2944 249.338 90.4144C248.058 91.5344 246.198 92.0944 243.758 92.0944C241.338 92.0944 239.508 91.2144 238.268 89.4544C237.028 87.6744 236.408 85.0644 236.408 81.6244C236.408 78.1844 237.118 75.6544 238.538 74.0344C239.958 72.3944 241.998 71.5744 244.658 71.5744C246.218 71.5744 247.888 71.7944 249.668 72.2344L250.598 72.4444L250.238 75.6244ZM244.088 82.6444C243.148 82.6444 242.168 82.8144 241.148 83.1544L240.638 83.3044C240.638 86.7644 241.758 88.4944 243.998 88.4944C244.958 88.4944 245.698 88.2344 246.218 87.7144C246.738 87.1744 246.998 86.4244 246.998 85.4644C246.998 83.5844 246.028 82.6444 244.088 82.6444ZM266.575 91.7344H254.965V71.3344H259.105V88.0744H266.575V91.7344Z" fill="white"/>
<path d="M40.2527 91.7344L35.2127 82.9343V81.761H35.7994C36.7416 81.761 37.5327 81.6721 38.1727 81.4943C38.8305 81.3165 39.3461 81.0232 39.7194 80.6143C40.0927 80.2054 40.3149 79.6454 40.3861 78.9343H35.2127V77.2276H40.3594C40.2349 76.5698 39.9861 76.0365 39.6127 75.6276C39.2394 75.2009 38.7327 74.8898 38.0927 74.6942C37.4705 74.4987 36.706 74.4009 35.7994 74.4009H35.2127V72.6942H46.2528V74.4009H41.2127C41.6216 74.7387 41.9594 75.1387 42.2261 75.6009C42.4927 76.0631 42.6616 76.6054 42.7327 77.2276H46.2528V78.9343H42.7861C42.6616 80.2321 42.1639 81.2454 41.2927 81.9743C40.4394 82.6854 39.3016 83.1387 37.8794 83.3343L42.9727 91.7344H40.2527ZM63.0665 71.9344V75.5344H54.2165L53.7065 79.8244C54.9465 79.3444 56.1265 79.1044 57.2465 79.1044C61.5265 79.1044 63.6665 81.0944 63.6665 85.0744C63.6665 87.3144 63.0765 89.0444 61.8965 90.2644C60.7165 91.4844 59.0465 92.0944 56.8865 92.0944C55.9665 92.0944 54.9165 92.0044 53.7365 91.8244C52.5765 91.6444 51.6465 91.4544 50.9465 91.2544L49.8665 90.9844L50.3165 87.9244C52.7365 88.3044 54.7565 88.4944 56.3765 88.4944C57.3565 88.4944 58.1065 88.2344 58.6265 87.7144C59.1465 87.1944 59.4065 86.4544 59.4065 85.4944C59.4065 84.5144 59.1865 83.8044 58.7465 83.3644C58.3065 82.9244 57.6865 82.7044 56.8865 82.7044C55.5465 82.7044 54.3665 82.8344 53.3465 83.0944L52.8965 83.2144L50.4365 82.6444L50.9765 71.9344H63.0665ZM67.4337 91.7344V86.7544H71.7537V91.7344H67.4337ZM83.6294 91.7344V88.4644H75.2294V85.3144L80.1194 71.9344H84.6794L79.3694 84.8644H83.6294V79.3144H87.7694V84.8644H89.6594V88.4644H87.7694V91.7344H83.6294ZM105.247 91.7344H93.6365V71.3344H97.7765V88.0744H105.247V91.7344Z" fill="white"/>
<path d="M350.909 91.7344L345.869 82.9343V81.761H346.456C347.398 81.761 348.189 81.6721 348.829 81.4943C349.487 81.3165 350.002 81.0232 350.376 80.6143C350.749 80.2054 350.971 79.6454 351.042 78.9343H345.869V77.2276H351.016C350.891 76.5698 350.642 76.0365 350.269 75.6276C349.896 75.2009 349.389 74.8898 348.749 74.6942C348.127 74.4987 347.362 74.4009 346.456 74.4009H345.869V72.6942H356.909V74.4009H351.869C352.278 74.7387 352.616 75.1387 352.882 75.6009C353.149 76.0631 353.318 76.6054 353.389 77.2276H356.909V78.9343H353.442C353.318 80.2321 352.82 81.2454 351.949 81.9743C351.096 82.6854 349.958 83.1387 348.536 83.3343L353.629 91.7344H350.909ZM362.143 73.0144C363.443 72.0544 365.183 71.5744 367.363 71.5744C369.543 71.5744 371.303 72.0544 372.643 73.0144C373.983 73.9744 374.653 75.3044 374.653 77.0044C374.653 78.1644 374.513 79.0344 374.233 79.6144C373.953 80.1944 373.373 80.8344 372.493 81.5344C373.373 82.2744 374.003 82.9744 374.383 83.6344C374.763 84.2944 374.953 85.2044 374.953 86.3644C374.953 88.3244 374.253 89.7744 372.853 90.7144C371.453 91.6344 369.623 92.0944 367.363 92.0944C362.363 92.0944 359.863 90.2944 359.863 86.6944C359.863 85.4144 360.053 84.4244 360.433 83.7244C360.833 83.0044 361.473 82.2744 362.353 81.5344C361.513 80.8544 360.943 80.1944 360.643 79.5544C360.343 78.8944 360.193 78.0344 360.193 76.9744C360.193 75.2744 360.843 73.9544 362.143 73.0144ZM364.303 85.7344C364.303 87.4944 365.333 88.3744 367.393 88.3744C369.473 88.3744 370.513 87.4944 370.513 85.7344C370.513 84.6944 369.923 83.9444 368.743 83.4844H366.103C364.903 83.9444 364.303 84.6944 364.303 85.7344ZM367.423 75.2944C366.523 75.2944 365.833 75.4944 365.353 75.8944C364.873 76.2944 364.633 76.9044 364.633 77.7244C364.633 78.5444 365.123 79.2944 366.103 79.9744H368.743C369.723 79.2944 370.213 78.5144 370.213 77.6344C370.213 76.0744 369.283 75.2944 367.423 75.2944ZM378.09 91.7344V86.7544H382.41V91.7344H378.09ZM387.326 74.0344C388.626 72.3944 390.546 71.5744 393.086 71.5744C395.626 71.5744 397.536 72.3944 398.816 74.0344C400.116 75.6744 400.766 78.3144 400.766 81.9544C400.766 85.5744 400.126 88.1744 398.846 89.7544C397.566 91.3144 395.646 92.0944 393.086 92.0944C390.526 92.0944 388.606 91.3144 387.326 89.7544C386.046 88.1744 385.406 85.5744 385.406 81.9544C385.406 78.3144 386.046 75.6744 387.326 74.0344ZM396.506 81.8644C396.506 79.3844 396.246 77.6544 395.726 76.6744C395.206 75.6744 394.326 75.1744 393.086 75.1744C391.866 75.1744 390.986 75.6744 390.446 76.6744C389.926 77.6744 389.666 79.4044 389.666 81.8644C389.666 84.3244 389.936 86.0444 390.476 87.0244C391.016 88.0044 391.896 88.4944 393.116 88.4944C394.336 88.4944 395.206 88.0044 395.726 87.0244C396.246 86.0444 396.506 84.3244 396.506 81.8644ZM415.903 91.7344H404.293V71.3344H408.433V88.0744H415.903V91.7344Z" fill="white"/>
<path d="M190.465 101.67H191.745L193.633 111.654H194.097L196.353 101.766H197.793L200.049 111.654H200.513L202.401 101.67H203.665L201.425 112.742H199.169L197.073 103.286L194.977 112.742H192.721L190.465 101.67ZM210.436 111.75L210.9 111.702L210.932 112.646C209.716 112.817 208.676 112.902 207.812 112.902C206.66 112.902 205.844 112.572 205.364 111.91C204.884 111.238 204.644 110.198 204.644 108.79C204.644 105.985 205.759 104.582 207.988 104.582C209.066 104.582 209.871 104.886 210.404 105.494C210.938 106.092 211.204 107.036 211.204 108.326L211.14 109.238H205.86C205.86 110.124 206.02 110.78 206.34 111.206C206.66 111.633 207.215 111.846 208.004 111.846C208.804 111.846 209.615 111.814 210.436 111.75ZM210.004 108.278C210.004 107.297 209.844 106.604 209.524 106.198C209.215 105.793 208.703 105.59 207.988 105.59C207.284 105.59 206.751 105.804 206.388 106.23C206.036 106.657 205.855 107.34 205.844 108.278H210.004ZM218.722 107.158V111.254C218.754 111.649 219.064 111.884 219.65 111.958L219.602 112.902C218.76 112.902 218.125 112.689 217.698 112.262C216.738 112.689 215.778 112.902 214.818 112.902C214.082 112.902 213.522 112.694 213.138 112.278C212.754 111.862 212.562 111.265 212.562 110.486C212.562 109.708 212.76 109.137 213.154 108.774C213.549 108.401 214.168 108.172 215.01 108.086L217.522 107.846V107.158C217.522 106.614 217.405 106.225 217.17 105.99C216.936 105.756 216.616 105.638 216.21 105.638C215.357 105.638 214.472 105.692 213.554 105.798L213.058 105.846L213.01 104.934C214.184 104.7 215.224 104.582 216.13 104.582C217.037 104.582 217.693 104.79 218.098 105.206C218.514 105.622 218.722 106.273 218.722 107.158ZM213.794 110.422C213.794 111.404 214.2 111.894 215.01 111.894C215.736 111.894 216.45 111.772 217.154 111.526L217.522 111.398V108.758L215.154 108.982C214.674 109.025 214.328 109.164 214.114 109.398C213.901 109.633 213.794 109.974 213.794 110.422ZM221.186 112.742V101.254H222.386V112.742H221.186ZM228.937 105.782H226.393V109.606C226.393 110.524 226.457 111.126 226.585 111.414C226.724 111.702 227.044 111.846 227.545 111.846L228.969 111.75L229.049 112.742C228.334 112.86 227.79 112.918 227.417 112.918C226.585 112.918 226.009 112.716 225.689 112.31C225.369 111.905 225.209 111.132 225.209 109.99V105.782H224.073V104.742H225.209V102.294H226.393V104.742H228.937V105.782ZM231.602 112.742H230.402V101.254H231.602V105.19C232.456 104.785 233.277 104.582 234.066 104.582C235.133 104.582 235.848 104.87 236.21 105.446C236.584 106.022 236.77 107.046 236.77 108.518V112.742H235.57V108.55C235.57 107.441 235.458 106.684 235.234 106.278C235.021 105.862 234.562 105.654 233.858 105.654C233.186 105.654 232.536 105.777 231.906 106.022L231.602 106.134V112.742ZM247.104 108.182V107.078H250.16V112.518C248.816 112.774 247.616 112.902 246.56 112.902C244.949 112.902 243.829 112.438 243.2 111.51C242.581 110.582 242.272 109.153 242.272 107.222C242.272 105.281 242.581 103.846 243.2 102.918C243.829 101.98 244.939 101.51 246.528 101.51C247.52 101.51 248.549 101.617 249.616 101.83L250.16 101.926L250.112 102.95C248.789 102.726 247.643 102.614 246.672 102.614C245.445 102.614 244.619 102.972 244.192 103.686C243.765 104.39 243.552 105.569 243.552 107.222C243.552 108.865 243.765 110.044 244.192 110.758C244.619 111.462 245.44 111.814 246.656 111.814C247.403 111.814 248.165 111.74 248.944 111.59V108.182H247.104ZM258.019 107.158V111.254C258.051 111.649 258.361 111.884 258.947 111.958L258.899 112.902C258.057 112.902 257.422 112.689 256.995 112.262C256.035 112.689 255.075 112.902 254.115 112.902C253.379 112.902 252.819 112.694 252.435 112.278C252.051 111.862 251.859 111.265 251.859 110.486C251.859 109.708 252.057 109.137 252.451 108.774C252.846 108.401 253.465 108.172 254.307 108.086L256.819 107.846V107.158C256.819 106.614 256.702 106.225 256.467 105.99C256.233 105.756 255.913 105.638 255.507 105.638C254.654 105.638 253.769 105.692 252.851 105.798L252.355 105.846L252.307 104.934C253.481 104.7 254.521 104.582 255.427 104.582C256.334 104.582 256.99 104.79 257.395 105.206C257.811 105.622 258.019 106.273 258.019 107.158ZM253.091 110.422C253.091 111.404 253.497 111.894 254.307 111.894C255.033 111.894 255.747 111.772 256.451 111.526L256.819 111.398V108.758L254.451 108.982C253.971 109.025 253.625 109.164 253.411 109.398C253.198 109.633 253.091 109.974 253.091 110.422ZM260.387 112.742V104.742H261.587V112.742H260.387ZM260.387 102.934V101.542H261.587V102.934H260.387ZM265.087 112.742H263.887V104.742H265.071V105.302C265.935 104.822 266.762 104.582 267.551 104.582C268.618 104.582 269.332 104.87 269.695 105.446C270.068 106.022 270.255 107.046 270.255 108.518V112.742H269.071V108.55C269.071 107.441 268.959 106.684 268.735 106.278C268.522 105.862 268.058 105.654 267.343 105.654C267.002 105.654 266.639 105.708 266.255 105.814C265.882 105.91 265.594 106.006 265.391 106.102L265.087 106.246V112.742Z" fill="#C0E2BA"/>
<path d="M22.5991 102.774V101.67H30.5991V102.774H27.2231V112.742H26.0071V102.774H22.5991ZM30.1599 108.726C30.1599 107.265 30.4212 106.209 30.9439 105.558C31.4665 104.908 32.3465 104.582 33.5839 104.582C34.8319 104.582 35.7119 104.908 36.2239 105.558C36.7465 106.209 37.0079 107.265 37.0079 108.726C37.0079 110.188 36.7625 111.249 36.2719 111.91C35.7812 112.572 34.8852 112.902 33.5839 112.902C32.2825 112.902 31.3865 112.572 30.8959 111.91C30.4052 111.249 30.1599 110.188 30.1599 108.726ZM31.3919 108.71C31.3919 109.873 31.5305 110.689 31.8079 111.158C32.0959 111.628 32.6879 111.862 33.5839 111.862C34.4905 111.862 35.0825 111.633 35.3599 111.174C35.6372 110.705 35.7759 109.884 35.7759 108.71C35.7759 107.537 35.6212 106.732 35.3119 106.294C35.0025 105.846 34.4265 105.622 33.5839 105.622C32.7519 105.622 32.1759 105.846 31.8559 106.294C31.5465 106.732 31.3919 107.537 31.3919 108.71ZM43.0465 105.782H40.5025V109.606C40.5025 110.524 40.5665 111.126 40.6945 111.414C40.8331 111.702 41.1531 111.846 41.6545 111.846L43.0785 111.75L43.1585 112.742C42.4438 112.86 41.8998 112.918 41.5265 112.918C40.6945 112.918 40.1185 112.716 39.7985 112.31C39.4785 111.905 39.3185 111.132 39.3185 109.99V105.782H38.1825V104.742H39.3185V102.294H40.5025V104.742H43.0465V105.782ZM50.1599 107.158V111.254C50.1919 111.649 50.5012 111.884 51.0879 111.958L51.0399 112.902C50.1972 112.902 49.5625 112.689 49.1359 112.262C48.1759 112.689 47.2159 112.902 46.2559 112.902C45.5199 112.902 44.9599 112.694 44.5759 112.278C44.1919 111.862 43.9999 111.265 43.9999 110.486C43.9999 109.708 44.1972 109.137 44.5919 108.774C44.9865 108.401 45.6052 108.172 46.4479 108.086L48.9599 107.846V107.158C48.9599 106.614 48.8425 106.225 48.6079 105.99C48.3732 105.756 48.0532 105.638 47.6479 105.638C46.7945 105.638 45.9092 105.692 44.9919 105.798L44.4959 105.846L44.4479 104.934C45.6212 104.7 46.6612 104.582 47.5679 104.582C48.4745 104.582 49.1305 104.79 49.5359 105.206C49.9519 105.622 50.1599 106.273 50.1599 107.158ZM45.2319 110.422C45.2319 111.404 45.6372 111.894 46.4479 111.894C47.1732 111.894 47.8879 111.772 48.5919 111.526L48.9599 111.398V108.758L46.5919 108.982C46.1119 109.025 45.7652 109.164 45.5519 109.398C45.3385 109.633 45.2319 109.974 45.2319 110.422ZM52.6235 112.742V101.254H53.8235V112.742H52.6235ZM59.9542 112.742V101.67H61.1862V112.742H59.9542ZM64.8837 112.742H63.6837V104.742H64.8677V105.302C65.7317 104.822 66.5584 104.582 67.3477 104.582C68.4144 104.582 69.1291 104.87 69.4917 105.446C69.8651 106.022 70.0517 107.046 70.0517 108.518V112.742H68.8677V108.55C68.8677 107.441 68.7557 106.684 68.5317 106.278C68.3184 105.862 67.8544 105.654 67.1397 105.654C66.7984 105.654 66.4357 105.708 66.0517 105.814C65.6784 105.91 65.3904 106.006 65.1877 106.102L64.8837 106.246V112.742ZM71.4474 104.742H72.7274L74.5994 111.702H75.1914L77.1274 104.742H78.3594L76.1034 112.742H73.7034L71.4474 104.742ZM85.2019 111.75L85.6659 111.702L85.6979 112.646C84.4819 112.817 83.4419 112.902 82.5779 112.902C81.4259 112.902 80.6099 112.572 80.1299 111.91C79.6499 111.238 79.4099 110.198 79.4099 108.79C79.4099 105.985 80.5245 104.582 82.7539 104.582C83.8312 104.582 84.6365 104.886 85.1699 105.494C85.7032 106.092 85.9699 107.036 85.9699 108.326L85.9059 109.238H80.6259C80.6259 110.124 80.7859 110.78 81.1059 111.206C81.4259 111.633 81.9805 111.846 82.7699 111.846C83.5699 111.846 84.3805 111.814 85.2019 111.75ZM84.7699 108.278C84.7699 107.297 84.6099 106.604 84.2899 106.198C83.9805 105.793 83.4685 105.59 82.7539 105.59C82.0499 105.59 81.5165 105.804 81.1539 106.23C80.8019 106.657 80.6205 107.34 80.6099 108.278H84.7699ZM90.352 105.654C89.1893 105.654 88.608 106.06 88.608 106.87C88.608 107.244 88.7413 107.51 89.008 107.67C89.2746 107.82 89.8826 107.98 90.832 108.15C91.7813 108.31 92.4533 108.54 92.848 108.838C93.2426 109.137 93.44 109.697 93.44 110.518C93.44 111.34 93.1733 111.942 92.64 112.326C92.1173 112.71 91.3493 112.902 90.336 112.902C89.6746 112.902 88.896 112.828 88 112.678L87.52 112.598L87.584 111.558C88.8 111.74 89.7173 111.83 90.336 111.83C90.9546 111.83 91.424 111.734 91.744 111.542C92.0746 111.34 92.24 111.009 92.24 110.55C92.24 110.081 92.1013 109.766 91.824 109.606C91.5466 109.436 90.9386 109.276 90 109.126C89.0613 108.977 88.3946 108.758 88 108.47C87.6053 108.182 87.408 107.649 87.408 106.87C87.408 106.092 87.68 105.516 88.224 105.142C88.7786 104.769 89.4666 104.582 90.288 104.582C90.9386 104.582 91.7546 104.657 92.736 104.806L93.184 104.886L93.152 105.91C91.968 105.74 91.0346 105.654 90.352 105.654ZM99.4215 105.782H96.8775V109.606C96.8775 110.524 96.9415 111.126 97.0695 111.414C97.2081 111.702 97.5281 111.846 98.0295 111.846L99.4535 111.75L99.5335 112.742C98.8188 112.86 98.2748 112.918 97.9015 112.918C97.0695 112.918 96.4935 112.716 96.1735 112.31C95.8535 111.905 95.6935 111.132 95.6935 109.99V105.782H94.5575V104.742H95.6935V102.294H96.8775V104.742H99.4215V105.782ZM106.327 111.75L106.791 111.702L106.823 112.646C105.607 112.817 104.567 112.902 103.703 112.902C102.551 112.902 101.735 112.572 101.255 111.91C100.775 111.238 100.535 110.198 100.535 108.79C100.535 105.985 101.65 104.582 103.879 104.582C104.956 104.582 105.762 104.886 106.295 105.494C106.828 106.092 107.095 107.036 107.095 108.326L107.031 109.238H101.751C101.751 110.124 101.911 110.78 102.231 111.206C102.551 111.633 103.106 111.846 103.895 111.846C104.695 111.846 105.506 111.814 106.327 111.75ZM105.895 108.278C105.895 107.297 105.735 106.604 105.415 106.198C105.106 105.793 104.594 105.59 103.879 105.59C103.175 105.59 102.642 105.804 102.279 106.23C101.927 106.657 101.746 107.34 101.735 108.278H105.895ZM115.109 101.254V112.742H113.925V112.198C113.104 112.668 112.293 112.902 111.493 112.902C111.066 112.902 110.693 112.849 110.373 112.742C110.053 112.636 109.754 112.444 109.477 112.166C108.901 111.59 108.613 110.529 108.613 108.982C108.613 107.425 108.869 106.305 109.381 105.622C109.904 104.929 110.762 104.582 111.957 104.582C112.576 104.582 113.232 104.652 113.925 104.79V101.254H115.109ZM110.405 111.302C110.576 111.505 110.757 111.644 110.949 111.718C111.141 111.793 111.386 111.83 111.685 111.83C111.994 111.83 112.336 111.782 112.709 111.686C113.093 111.58 113.392 111.478 113.605 111.382L113.925 111.238V105.814C113.242 105.686 112.608 105.622 112.021 105.622C111.21 105.622 110.645 105.884 110.325 106.406C110.005 106.918 109.845 107.718 109.845 108.806C109.845 110.044 110.032 110.876 110.405 111.302Z" fill="#C0E2BA"/>
<path d="M321.743 112.742V101.67H328.479V102.758H322.975V106.582H327.519V107.654H322.975V111.654H328.479V112.742H321.743ZM329.579 104.742H330.891L332.843 107.878L334.795 104.742H336.107L333.563 108.71L336.091 112.742H334.779L332.843 109.622L330.891 112.742H329.579L332.091 108.742L329.579 104.742ZM337.613 116.294V104.742H338.797V105.318C339.608 104.828 340.408 104.582 341.197 104.582C342.211 104.582 342.947 104.908 343.405 105.558C343.864 106.198 344.093 107.26 344.093 108.742C344.093 110.225 343.821 111.292 343.277 111.942C342.744 112.582 341.853 112.902 340.605 112.902C339.955 112.902 339.357 112.844 338.813 112.726V116.294H337.613ZM341.021 105.654C340.701 105.654 340.355 105.708 339.981 105.814C339.619 105.921 339.331 106.028 339.117 106.134L338.813 106.294V111.686C339.571 111.804 340.147 111.862 340.541 111.862C341.405 111.862 342.008 111.617 342.349 111.126C342.701 110.636 342.877 109.836 342.877 108.726C342.877 107.617 342.717 106.828 342.397 106.358C342.088 105.889 341.629 105.654 341.021 105.654ZM351.491 111.75L351.955 111.702L351.987 112.646C350.771 112.817 349.731 112.902 348.867 112.902C347.715 112.902 346.899 112.572 346.419 111.91C345.939 111.238 345.699 110.198 345.699 108.79C345.699 105.985 346.814 104.582 349.043 104.582C350.12 104.582 350.926 104.886 351.459 105.494C351.992 106.092 352.259 107.036 352.259 108.326L352.195 109.238H346.915C346.915 110.124 347.075 110.78 347.395 111.206C347.715 111.633 348.27 111.846 349.059 111.846C349.859 111.846 350.67 111.814 351.491 111.75ZM351.059 108.278C351.059 107.297 350.899 106.604 350.579 106.198C350.27 105.793 349.758 105.59 349.043 105.59C348.339 105.59 347.806 105.804 347.443 106.23C347.091 106.657 346.91 107.34 346.899 108.278H351.059ZM357.121 104.582C357.473 104.582 358.07 104.646 358.913 104.774L359.297 104.822L359.249 105.798C358.396 105.702 357.766 105.654 357.361 105.654C356.454 105.654 355.836 105.873 355.505 106.31C355.185 106.737 355.025 107.537 355.025 108.71C355.025 109.873 355.174 110.684 355.473 111.142C355.782 111.601 356.417 111.83 357.377 111.83L359.265 111.686L359.313 112.678C358.321 112.828 357.58 112.902 357.089 112.902C355.841 112.902 354.977 112.582 354.497 111.942C354.028 111.302 353.793 110.225 353.793 108.71C353.793 107.185 354.049 106.118 354.561 105.51C355.073 104.892 355.926 104.582 357.121 104.582ZM365.242 105.782H362.698V109.606C362.698 110.524 362.762 111.126 362.89 111.414C363.029 111.702 363.349 111.846 363.85 111.846L365.274 111.75L365.354 112.742C364.639 112.86 364.095 112.918 363.722 112.918C362.89 112.918 362.314 112.716 361.994 112.31C361.674 111.905 361.514 111.132 361.514 109.99V105.782H360.378V104.742H361.514V102.294H362.698V104.742H365.242V105.782ZM372.147 111.75L372.611 111.702L372.643 112.646C371.427 112.817 370.387 112.902 369.523 112.902C368.371 112.902 367.555 112.572 367.075 111.91C366.595 111.238 366.355 110.198 366.355 108.79C366.355 105.985 367.47 104.582 369.699 104.582C370.777 104.582 371.582 104.886 372.115 105.494C372.649 106.092 372.915 107.036 372.915 108.326L372.851 109.238H367.571C367.571 110.124 367.731 110.78 368.051 111.206C368.371 111.633 368.926 111.846 369.715 111.846C370.515 111.846 371.326 111.814 372.147 111.75ZM371.715 108.278C371.715 107.297 371.555 106.604 371.235 106.198C370.926 105.793 370.414 105.59 369.699 105.59C368.995 105.59 368.462 105.804 368.099 106.23C367.747 106.657 367.566 107.34 367.555 108.278H371.715ZM380.929 101.254V112.742H379.745V112.198C378.924 112.668 378.113 112.902 377.313 112.902C376.887 112.902 376.513 112.849 376.193 112.742C375.873 112.636 375.575 112.444 375.297 112.166C374.721 111.59 374.433 110.529 374.433 108.982C374.433 107.425 374.689 106.305 375.201 105.622C375.724 104.929 376.583 104.582 377.777 104.582C378.396 104.582 379.052 104.652 379.745 104.79V101.254H380.929ZM376.225 111.302C376.396 111.505 376.577 111.644 376.769 111.718C376.961 111.793 377.207 111.83 377.505 111.83C377.815 111.83 378.156 111.782 378.529 111.686C378.913 111.58 379.212 111.478 379.425 111.382L379.745 111.238V105.814C379.063 105.686 378.428 105.622 377.841 105.622C377.031 105.622 376.465 105.884 376.145 106.406C375.825 106.918 375.665 107.718 375.665 108.806C375.665 110.044 375.852 110.876 376.225 111.302ZM386.002 112.742L389.042 101.67H391.73L394.77 112.742H393.554L392.754 109.894H388.018L387.218 112.742H386.002ZM389.97 102.726L388.29 108.79H392.482L390.802 102.726H389.97ZM397.501 112.742H396.301V104.742H397.485V105.302C398.285 104.822 399.064 104.582 399.821 104.582C400.813 104.582 401.506 104.854 401.901 105.398C402.253 105.185 402.706 104.998 403.261 104.838C403.826 104.668 404.322 104.582 404.749 104.582C405.816 104.582 406.53 104.87 406.893 105.446C407.266 106.012 407.453 107.036 407.453 108.518V112.742H406.253V108.55C406.253 107.441 406.146 106.684 405.933 106.278C405.72 105.862 405.266 105.654 404.573 105.654C404.221 105.654 403.858 105.708 403.485 105.814C403.112 105.91 402.824 106.006 402.621 106.102L402.317 106.246C402.456 106.598 402.525 107.377 402.525 108.582V112.742H401.325V108.614C401.325 107.462 401.218 106.684 401.005 106.278C400.802 105.862 400.349 105.654 399.645 105.654C399.304 105.654 398.952 105.708 398.589 105.814C398.237 105.91 397.965 106.006 397.773 106.102L397.501 106.246V112.742ZM409.324 108.726C409.324 107.265 409.585 106.209 410.108 105.558C410.631 104.908 411.511 104.582 412.748 104.582C413.996 104.582 414.876 104.908 415.388 105.558C415.911 106.209 416.172 107.265 416.172 108.726C416.172 110.188 415.927 111.249 415.436 111.91C414.945 112.572 414.049 112.902 412.748 112.902C411.447 112.902 410.551 112.572 410.06 111.91C409.569 111.249 409.324 110.188 409.324 108.726ZM410.556 108.71C410.556 109.873 410.695 110.689 410.972 111.158C411.26 111.628 411.852 111.862 412.748 111.862C413.655 111.862 414.247 111.633 414.524 111.174C414.801 110.705 414.94 109.884 414.94 108.71C414.94 107.537 414.785 106.732 414.476 106.294C414.167 105.846 413.591 105.622 412.748 105.622C411.916 105.622 411.34 105.846 411.02 106.294C410.711 106.732 410.556 107.537 410.556 108.71ZM423.121 104.742H424.321V112.742H423.121V112.182C422.321 112.662 421.532 112.902 420.753 112.902C419.665 112.902 418.94 112.62 418.577 112.054C418.225 111.489 418.049 110.444 418.049 108.918V104.742H419.249V108.902C419.249 110.065 419.35 110.844 419.553 111.238C419.756 111.633 420.214 111.83 420.929 111.83C421.281 111.83 421.638 111.782 422.001 111.686C422.364 111.58 422.641 111.478 422.833 111.382L423.121 111.238V104.742ZM427.829 112.742H426.629V104.742H427.813V105.302C428.677 104.822 429.504 104.582 430.293 104.582C431.36 104.582 432.074 104.87 432.437 105.446C432.81 106.022 432.997 107.046 432.997 108.518V112.742H431.813V108.55C431.813 107.441 431.701 106.684 431.477 106.278C431.264 105.862 430.8 105.654 430.085 105.654C429.744 105.654 429.381 105.708 428.997 105.814C428.624 105.91 428.336 106.006 428.133 106.102L427.829 106.246V112.742ZM439.32 105.782H436.776V109.606C436.776 110.524 436.84 111.126 436.968 111.414C437.107 111.702 437.427 111.846 437.928 111.846L439.352 111.75L439.432 112.742C438.717 112.86 438.173 112.918 437.8 112.918C436.968 112.918 436.392 112.716 436.072 112.31C435.752 111.905 435.592 111.132 435.592 109.99V105.782H434.456V104.742H435.592V102.294H436.776V104.742H439.32V105.782Z" fill="#C0E2BA"/>
<path d="M1.53 168.062V155.606H4.032L7.56 166.136L11.088 155.606H13.59V168.062H12.204V157.082H11.952L8.334 167.612H6.786L3.168 157.082H2.916V168.062H1.53ZM15.9293 163.544C15.9293 161.9 16.2233 160.712 16.8113 159.98C17.3993 159.248 18.3893 158.882 19.7813 158.882C21.1853 158.882 22.1753 159.248 22.7513 159.98C23.3393 160.712 23.6333 161.9 23.6333 163.544C23.6333 165.188 23.3573 166.382 22.8053 167.126C22.2533 167.871 21.2453 168.243 19.7813 168.243C18.3173 168.243 17.3093 167.871 16.7573 167.126C16.2053 166.382 15.9293 165.188 15.9293 163.544ZM17.3153 163.526C17.3153 164.834 17.4713 165.752 17.7833 166.28C18.1073 166.808 18.7733 167.072 19.7813 167.072C20.8013 167.072 21.4673 166.814 21.7793 166.298C22.0913 165.77 22.2473 164.846 22.2473 163.526C22.2473 162.206 22.0733 161.3 21.7253 160.808C21.3773 160.304 20.7293 160.052 19.7813 160.052C18.8453 160.052 18.1973 160.304 17.8373 160.808C17.4893 161.3 17.3153 162.206 17.3153 163.526ZM27.1851 168.062H25.8351V159.062H27.1671V159.692C28.1391 159.152 29.0691 158.882 29.9571 158.882C31.1571 158.882 31.9611 159.206 32.3691 159.854C32.7891 160.502 32.9991 161.654 32.9991 163.311V168.062H31.6671V163.346C31.6671 162.098 31.5411 161.246 31.2891 160.79C31.0491 160.322 30.5271 160.088 29.7231 160.088C29.3391 160.088 28.9311 160.148 28.4991 160.268C28.0791 160.376 27.7551 160.484 27.5271 160.592L27.1851 160.754V168.062ZM40.1123 160.232H37.2503V164.534C37.2503 165.566 37.3223 166.244 37.4663 166.568C37.6223 166.892 37.9823 167.054 38.5463 167.054L40.1483 166.946L40.2383 168.062C39.4343 168.195 38.8223 168.261 38.4023 168.261C37.4663 168.261 36.8183 168.033 36.4583 167.576C36.0983 167.12 35.9183 166.25 35.9183 164.966V160.232H34.6403V159.062H35.9183V156.308H37.2503V159.062H40.1123V160.232ZM43.1108 168.062H41.7608V155.138H43.1108V159.566C44.0708 159.11 44.9948 158.882 45.8828 158.882C47.0828 158.882 47.8868 159.206 48.2948 159.854C48.7148 160.502 48.9248 161.654 48.9248 163.311V168.062H47.5748V163.346C47.5748 162.098 47.4488 161.246 47.1968 160.79C46.9568 160.322 46.4408 160.088 45.6488 160.088C44.8928 160.088 44.1608 160.226 43.4528 160.502L43.1108 160.628V168.062ZM51.5368 168.062V155.138H52.8868V168.062H51.5368ZM54.7488 159.062H56.0988L58.3488 166.892H58.9428L61.2108 159.062H62.5608L58.8168 172.059H57.4668L58.6368 168.062H57.3048L54.7488 159.062ZM71.9231 156.632C70.1231 156.632 69.2231 157.31 69.2231 158.666C69.2231 159.422 69.4271 159.944 69.8351 160.232C70.2551 160.508 71.0951 160.79 72.3551 161.078C73.6271 161.354 74.5271 161.72 75.0551 162.176C75.5831 162.62 75.8471 163.358 75.8471 164.39C75.8471 166.946 74.5211 168.225 71.8691 168.225C70.9931 168.225 69.8951 168.123 68.5751 167.918L67.9271 167.828L68.0711 166.676C69.7031 166.892 70.9451 167 71.7971 167C73.5731 167 74.4611 166.166 74.4611 164.498C74.4611 163.826 74.2631 163.346 73.8671 163.058C73.4831 162.758 72.7571 162.506 71.6891 162.302C70.2851 162.002 69.2891 161.618 68.7011 161.15C68.1131 160.67 67.8191 159.872 67.8191 158.756C67.8191 156.524 69.1571 155.408 71.8331 155.408C72.7091 155.408 73.7591 155.498 74.9831 155.678L75.5951 155.768L75.4691 156.938C73.8011 156.734 72.6191 156.632 71.9231 156.632ZM78.2409 168.062V155.606H79.6269V168.062H78.2409ZM87.2246 163.868H84.0566V168.062H82.6706V155.606H87.2246C88.5806 155.606 89.5826 155.936 90.2306 156.596C90.8786 157.256 91.2026 158.264 91.2026 159.62C91.2026 162.452 89.8766 163.868 87.2246 163.868ZM84.0566 162.644H87.2066C88.9226 162.644 89.7806 161.636 89.7806 159.62C89.7806 158.66 89.5766 157.958 89.1686 157.514C88.7606 157.058 88.1066 156.83 87.2066 156.83H84.0566V162.644ZM96.1976 168.062L99.6176 155.606H102.642L106.062 168.062H104.694L103.794 164.858H98.4656L97.5656 168.062H96.1976ZM100.662 156.794L98.7716 163.616H103.488L101.598 156.794H100.662ZM109.134 168.062H107.784V159.062H109.116V159.692C110.016 159.152 110.892 158.882 111.744 158.882C112.86 158.882 113.64 159.188 114.084 159.8C114.48 159.56 114.99 159.35 115.614 159.17C116.25 158.978 116.808 158.882 117.288 158.882C118.488 158.882 119.292 159.206 119.7 159.854C120.12 160.49 120.33 161.642 120.33 163.311V168.062H118.98V163.346C118.98 162.098 118.86 161.246 118.62 160.79C118.38 160.322 117.87 160.088 117.09 160.088C116.694 160.088 116.286 160.148 115.866 160.268C115.446 160.376 115.122 160.484 114.894 160.592L114.552 160.754C114.708 161.15 114.786 162.026 114.786 163.382V168.062H113.436V163.418C113.436 162.122 113.316 161.246 113.076 160.79C112.848 160.322 112.338 160.088 111.546 160.088C111.162 160.088 110.766 160.148 110.358 160.268C109.962 160.376 109.656 160.484 109.44 160.592L109.134 160.754V168.062ZM122.435 163.544C122.435 161.9 122.729 160.712 123.317 159.98C123.905 159.248 124.895 158.882 126.287 158.882C127.691 158.882 128.681 159.248 129.257 159.98C129.845 160.712 130.139 161.9 130.139 163.544C130.139 165.188 129.863 166.382 129.311 167.126C128.759 167.871 127.751 168.243 126.287 168.243C124.823 168.243 123.815 167.871 123.263 167.126C122.711 166.382 122.435 165.188 122.435 163.544ZM123.821 163.526C123.821 164.834 123.977 165.752 124.289 166.28C124.613 166.808 125.279 167.072 126.287 167.072C127.307 167.072 127.973 166.814 128.285 166.298C128.597 165.77 128.753 164.846 128.753 163.526C128.753 162.206 128.579 161.3 128.231 160.808C127.883 160.304 127.235 160.052 126.287 160.052C125.351 160.052 124.703 160.304 124.343 160.808C123.995 161.3 123.821 162.206 123.821 163.526ZM137.957 159.062H139.307V168.062H137.957V167.432C137.057 167.973 136.169 168.243 135.293 168.243C134.069 168.243 133.253 167.924 132.845 167.288C132.449 166.652 132.251 165.476 132.251 163.76V159.062H133.601V163.742C133.601 165.05 133.715 165.926 133.943 166.37C134.171 166.814 134.687 167.036 135.491 167.036C135.887 167.036 136.289 166.982 136.697 166.875C137.105 166.754 137.417 166.64 137.633 166.532L137.957 166.37V159.062ZM143.253 168.062H141.903V159.062H143.235V159.692C144.207 159.152 145.137 158.882 146.025 158.882C147.225 158.882 148.029 159.206 148.437 159.854C148.857 160.502 149.067 161.654 149.067 163.311V168.062H147.735V163.346C147.735 162.098 147.609 161.246 147.357 160.79C147.117 160.322 146.595 160.088 145.791 160.088C145.407 160.088 144.999 160.148 144.567 160.268C144.147 160.376 143.823 160.484 143.595 160.592L143.253 160.754V168.062ZM156.181 160.232H153.319V164.534C153.319 165.566 153.391 166.244 153.535 166.568C153.691 166.892 154.051 167.054 154.615 167.054L156.217 166.946L156.307 168.062C155.503 168.195 154.891 168.261 154.471 168.261C153.535 168.261 152.887 168.033 152.527 167.576C152.167 167.12 151.987 166.25 151.987 164.966V160.232H150.709V159.062H151.987V156.308H153.319V159.062H156.181V160.232Z" fill="#023373"/>
<path d="M2.57613 255.078L5.13613 244.006H11.1681L10.9121 245.094H6.09613L5.10413 249.462H9.20013L8.94413 250.534H4.84813L3.79213 255.078H2.57613ZM10.1029 255.078L11.9429 247.078H13.1429L11.2869 255.078H10.1029ZM12.3109 245.414L12.6629 243.974H13.8629L13.5269 245.414H12.3109ZM18.4238 243.43C18.7864 243.43 19.1704 243.483 19.5758 243.59L19.7678 243.654L19.5438 244.582C19.1171 244.507 18.7171 244.47 18.3438 244.47C17.9704 244.47 17.6771 244.619 17.4638 244.918C17.2611 245.217 17.0691 245.713 16.8878 246.406L16.7278 247.078H18.8718L18.6158 248.118H16.5038L14.8878 255.078L13.9118 258.63H12.8717L15.3038 248.134H14.3918L14.6478 247.078H15.5278L15.7038 246.39C15.9598 245.302 16.2851 244.539 16.6798 244.102C17.0851 243.654 17.6664 243.43 18.4238 243.43ZM20.3373 253.462C20.3373 253.953 20.6039 254.198 21.1373 254.198L22.3693 254.102L22.2893 255.014C21.7346 255.163 21.2066 255.238 20.7053 255.238C20.2039 255.238 19.8093 255.105 19.5213 254.838C19.2333 254.571 19.0893 254.214 19.0893 253.766C19.0893 253.318 19.1746 252.753 19.3453 252.07L20.2733 248.118H19.2173L19.4893 247.078H20.5293L21.0893 244.71H22.2893L21.7133 247.078H23.9533L23.6973 248.118H21.4573L20.5293 252.134C20.4013 252.646 20.3373 253.089 20.3373 253.462ZM24.599 247.078H25.783L25.911 254.054H26.391L29.879 247.078H31.111L25.271 258.614H24.055L25.895 255.078H24.807L24.599 247.078ZM35.6203 245.094L35.8763 244.006H43.0283L42.7723 245.094H39.7963L37.4923 255.078H36.2763L38.5803 245.094H35.6203ZM47.0243 246.918C47.6429 246.918 48.1123 247.099 48.4323 247.462C48.7523 247.825 48.9123 248.283 48.9123 248.838C48.9123 249.393 48.8003 250.129 48.5763 251.046L47.6483 255.078H46.4643L47.3923 251.094C47.5843 250.219 47.6803 249.579 47.6803 249.174C47.6803 248.374 47.3229 247.974 46.6083 247.974C46.0856 247.974 45.4456 248.363 44.6883 249.142C44.5176 249.323 44.3789 249.478 44.2723 249.606L44.1283 249.782L42.9123 255.078H41.7122L44.3683 243.59H45.5683L44.4323 248.486C44.5283 248.369 44.6563 248.225 44.8163 248.054C44.9763 247.873 45.2803 247.638 45.7283 247.35C46.1869 247.062 46.6189 246.918 47.0243 246.918ZM54.1286 246.918C55.974 246.918 56.8966 247.825 56.8966 249.638C56.8966 250.63 56.7366 251.547 56.4166 252.39C56.1073 253.233 55.638 253.921 55.0086 254.454C54.3793 254.977 53.654 255.238 52.8326 255.238C51.0086 255.238 50.0966 254.363 50.0966 252.614C50.0966 251.078 50.4753 249.745 51.2326 248.614C52.0006 247.483 52.966 246.918 54.1286 246.918ZM52.8326 254.198C53.686 254.198 54.374 253.75 54.8966 252.854C55.43 251.947 55.6966 250.87 55.6966 249.622C55.6966 249.11 55.5633 248.705 55.2966 248.406C55.0406 248.107 54.6513 247.958 54.1286 247.958C53.2966 247.958 52.614 248.427 52.0806 249.366C51.558 250.294 51.2966 251.382 51.2966 252.63C51.2966 253.675 51.8086 254.198 52.8326 254.198ZM60.0029 255.238C59.3842 255.238 58.9149 255.057 58.5949 254.694C58.2749 254.331 58.1149 253.862 58.1149 253.286C58.1149 252.71 58.2215 251.995 58.4349 251.142L59.3789 247.078H60.5629L59.6349 251.062C59.4322 251.873 59.3309 252.513 59.3309 252.982C59.3309 253.782 59.6935 254.182 60.4189 254.182C60.7389 254.182 61.1015 254.033 61.5069 253.734C61.9229 253.435 62.2535 253.137 62.4989 252.838L62.8829 252.39L64.1149 247.078H65.2989L63.4589 255.078H62.2909L62.5789 253.686C62.4829 253.803 62.3549 253.947 62.1949 254.118C62.0455 254.289 61.7415 254.518 61.2829 254.806C60.8349 255.094 60.4082 255.238 60.0029 255.238ZM72.0356 248.182C71.0223 248.033 70.2063 247.958 69.5876 247.958C68.9796 247.958 68.5103 248.113 68.1796 248.422C67.849 248.721 67.6836 249.083 67.6836 249.51C67.6836 249.766 67.7796 249.958 67.9716 250.086C68.1636 250.214 68.6063 250.369 69.2996 250.55C70.0036 250.731 70.521 250.939 70.8516 251.174C71.1823 251.398 71.3476 251.782 71.3476 252.326C71.3476 253.265 71.0223 253.985 70.3716 254.486C69.721 254.987 68.8836 255.238 67.8596 255.238C67.177 255.238 66.457 255.142 65.6996 254.95L65.3316 254.87L65.5556 253.942C66.537 254.113 67.3476 254.198 67.9876 254.198C68.6383 254.198 69.1556 254.059 69.5396 253.782C69.9236 253.505 70.1156 253.099 70.1156 252.566C70.1156 252.267 70.0143 252.059 69.8116 251.942C69.609 251.814 69.1663 251.67 68.4836 251.51C67.8116 251.339 67.3103 251.137 66.9796 250.902C66.649 250.667 66.4836 250.299 66.4836 249.798C66.4836 248.945 66.7823 248.251 67.3796 247.718C67.977 247.185 68.729 246.918 69.6356 246.918C70.4356 246.918 71.193 247.003 71.9076 247.174L72.2756 247.254L72.0356 248.182ZM74.847 255.238C73.4817 255.238 72.799 254.443 72.799 252.854C72.799 251.969 72.9377 251.089 73.215 250.214C73.503 249.329 73.967 248.561 74.607 247.91C75.247 247.249 75.9883 246.918 76.831 246.918C77.4817 246.918 78.3723 247.014 79.503 247.206L80.111 247.318L78.895 252.518C78.7457 253.115 78.6177 253.819 78.511 254.63L78.447 255.046L77.279 255.094C77.4283 254.177 77.5243 253.606 77.567 253.382C77.5137 253.478 77.3537 253.665 77.087 253.942C76.831 254.209 76.6017 254.427 76.399 254.598C76.1963 254.758 75.951 254.907 75.663 255.046C75.375 255.174 75.103 255.238 74.847 255.238ZM78.719 248.182C77.9723 248.033 77.327 247.958 76.783 247.958C76.2497 247.958 75.759 248.235 75.311 248.79C74.863 249.334 74.5377 249.974 74.335 250.71C74.1323 251.435 74.031 252.086 74.031 252.662C74.031 253.238 74.1217 253.638 74.303 253.862C74.4843 254.086 74.7563 254.198 75.119 254.198C75.4817 254.198 75.8763 254.027 76.303 253.686C76.7403 253.334 77.103 252.982 77.391 252.63L77.807 252.102L78.719 248.182ZM85.727 246.918C86.3457 246.918 86.815 247.099 87.135 247.462C87.455 247.825 87.615 248.294 87.615 248.87C87.615 249.446 87.5083 250.161 87.295 251.014L86.351 255.078H85.167L86.095 251.094C86.2977 250.283 86.399 249.643 86.399 249.174C86.399 248.374 86.0363 247.974 85.311 247.974C84.991 247.974 84.623 248.123 84.207 248.422C83.8017 248.721 83.471 249.019 83.215 249.318L82.847 249.766L81.615 255.078H80.431L82.271 247.078H83.439L83.151 248.47C83.247 248.353 83.3697 248.209 83.519 248.038C83.679 247.867 83.983 247.638 84.431 247.35C84.8897 247.062 85.3217 246.918 85.727 246.918ZM90.7838 255.238C89.4398 255.238 88.7678 254.459 88.7678 252.902C88.7678 251.963 88.9171 251.046 89.2158 250.15C89.5144 249.254 89.9784 248.491 90.6078 247.862C91.2371 247.233 91.9571 246.918 92.7678 246.918C93.3118 246.918 93.9144 246.993 94.5758 247.142L94.8958 247.206L95.7438 243.59H96.9438L94.2718 255.078H93.1198L93.4238 253.654C93.3278 253.793 93.1678 253.969 92.9438 254.182C92.7304 254.385 92.5278 254.555 92.3358 254.694C91.8131 255.057 91.2958 255.238 90.7838 255.238ZM94.6878 248.198C93.9838 248.038 93.3438 247.958 92.7678 247.958C92.2024 247.958 91.7011 248.235 91.2638 248.79C90.8264 249.345 90.5064 249.99 90.3038 250.726C90.1011 251.462 89.9998 252.182 89.9998 252.886C89.9998 253.761 90.3838 254.198 91.1518 254.198C91.4718 254.198 91.8451 254.043 92.2718 253.734C92.6984 253.414 93.0504 253.094 93.3278 252.774L93.7278 252.31L94.6878 248.198Z" fill="#4CA771"/>
<rect x="1.32812" y="181.727" width="458.67" height="53.3338" rx="12" fill="#BFE3FF"/>
<path d="M210.144 199.294V203.134H200.704L200.16 207.71C201.483 207.198 202.742 206.942 203.936 206.942C208.502 206.942 210.784 209.065 210.784 213.31C210.784 215.699 210.155 217.545 208.896 218.846C207.638 220.147 205.856 220.798 203.552 220.798C202.571 220.798 201.451 220.702 200.192 220.51C198.955 220.318 197.963 220.115 197.216 219.902L196.064 219.614L196.544 216.35C199.126 216.755 201.28 216.958 203.008 216.958C204.054 216.958 204.854 216.681 205.408 216.126C205.963 215.571 206.24 214.782 206.24 213.758C206.24 212.713 206.006 211.955 205.536 211.486C205.067 211.017 204.406 210.782 203.552 210.782C202.123 210.782 200.864 210.921 199.776 211.198L199.296 211.326L196.672 210.718L197.248 199.294H210.144ZM215.187 201.534C216.573 199.785 218.621 198.91 221.331 198.91C224.04 198.91 226.077 199.785 227.443 201.534C228.829 203.283 229.523 206.099 229.523 209.982C229.523 213.843 228.84 216.617 227.475 218.302C226.109 219.966 224.061 220.798 221.331 220.798C218.6 220.798 216.552 219.966 215.187 218.302C213.821 216.617 213.139 213.843 213.139 209.982C213.139 206.099 213.821 203.283 215.187 201.534ZM224.979 209.886C224.979 207.241 224.701 205.395 224.147 204.35C223.592 203.283 222.653 202.75 221.331 202.75C220.029 202.75 219.091 203.283 218.515 204.35C217.96 205.417 217.683 207.262 217.683 209.886C217.683 212.51 217.971 214.345 218.547 215.39C219.123 216.435 220.061 216.958 221.363 216.958C222.664 216.958 223.592 216.435 224.147 215.39C224.701 214.345 224.979 212.51 224.979 209.886ZM233.093 201.534C234.48 199.785 236.528 198.91 239.237 198.91C241.946 198.91 243.984 199.785 245.349 201.534C246.736 203.283 247.429 206.099 247.429 209.982C247.429 213.843 246.746 216.617 245.381 218.302C244.016 219.966 241.968 220.798 239.237 220.798C236.506 220.798 234.458 219.966 233.093 218.302C231.728 216.617 231.045 213.843 231.045 209.982C231.045 206.099 231.728 203.283 233.093 201.534ZM242.885 209.886C242.885 207.241 242.608 205.395 242.053 204.35C241.498 203.283 240.56 202.75 239.237 202.75C237.936 202.75 236.997 203.283 236.421 204.35C235.866 205.417 235.589 207.262 235.589 209.886C235.589 212.51 235.877 214.345 236.453 215.39C237.029 216.435 237.968 216.958 239.269 216.958C240.57 216.958 241.498 216.435 242.053 215.39C242.608 214.345 242.885 212.51 242.885 209.886ZM250.999 201.534C252.386 199.785 254.434 198.91 257.143 198.91C259.852 198.91 261.89 199.785 263.255 201.534C264.642 203.283 265.335 206.099 265.335 209.982C265.335 213.843 264.652 216.617 263.287 218.302C261.922 219.966 259.874 220.798 257.143 220.798C254.412 220.798 252.364 219.966 250.999 218.302C249.634 216.617 248.951 213.843 248.951 209.982C248.951 206.099 249.634 203.283 250.999 201.534ZM260.791 209.886C260.791 207.241 260.514 205.395 259.959 204.35C259.404 203.283 258.466 202.75 257.143 202.75C255.842 202.75 254.903 203.283 254.327 204.35C253.772 205.417 253.495 207.262 253.495 209.886C253.495 212.51 253.783 214.345 254.359 215.39C254.935 216.435 255.874 216.958 257.175 216.958C258.476 216.958 259.404 216.435 259.959 215.39C260.514 214.345 260.791 212.51 260.791 209.886ZM268.905 201.534C270.292 199.785 272.34 198.91 275.049 198.91C277.759 198.91 279.796 199.785 281.161 201.534C282.548 203.283 283.241 206.099 283.241 209.982C283.241 213.843 282.559 216.617 281.193 218.302C279.828 219.966 277.78 220.798 275.049 220.798C272.319 220.798 270.271 219.966 268.905 218.302C267.54 216.617 266.857 213.843 266.857 209.982C266.857 206.099 267.54 203.283 268.905 201.534ZM278.697 209.886C278.697 207.241 278.42 205.395 277.865 204.35C277.311 203.283 276.372 202.75 275.049 202.75C273.748 202.75 272.809 203.283 272.233 204.35C271.679 205.417 271.401 207.262 271.401 209.886C271.401 212.51 271.689 214.345 272.265 215.39C272.841 216.435 273.78 216.958 275.081 216.958C276.383 216.958 277.311 216.435 277.865 215.39C278.42 214.345 278.697 212.51 278.697 209.886Z" fill="#023373"/>
<path d="M185.706 221.898L179.847 211.668V210.304H180.529C181.625 210.304 182.544 210.201 183.288 209.994C184.053 209.788 184.652 209.447 185.086 208.971C185.52 208.496 185.779 207.845 185.861 207.018H179.847V205.034H185.83C185.686 204.27 185.396 203.65 184.962 203.174C184.528 202.678 183.939 202.317 183.195 202.089C182.472 201.862 181.583 201.748 180.529 201.748H179.847V199.764H192.681V201.748H186.822C187.298 202.141 187.69 202.606 188 203.143C188.31 203.681 188.507 204.311 188.589 205.034H192.681V207.018H188.651C188.507 208.527 187.928 209.705 186.915 210.552C185.923 211.379 184.601 211.906 182.947 212.133L188.868 221.898H185.706Z" fill="#023373"/>
<path d="M1.53 295.734V283.278H9.108V284.502H2.916V288.804H8.028V290.01H2.916V294.51H9.108V295.734H1.53ZM10.3452 286.734H11.8212L14.0172 290.262L16.2132 286.734H17.6892L14.8272 291.198L17.6712 295.734H16.1952L14.0172 292.224L11.8212 295.734H10.3452L13.1712 291.234L10.3452 286.734ZM19.3839 299.73V286.734H20.7159V287.382C21.6279 286.83 22.5279 286.554 23.4159 286.554C24.5559 286.554 25.3839 286.92 25.8999 287.652C26.4159 288.372 26.6739 289.566 26.6739 291.234C26.6739 292.902 26.3679 294.102 25.7559 294.834C25.1559 295.554 24.1539 295.914 22.7499 295.914C22.0179 295.914 21.3459 295.848 20.7339 295.716V299.73H19.3839ZM23.2179 287.76C22.8579 287.76 22.4679 287.82 22.0479 287.94C21.6399 288.06 21.3159 288.18 21.0759 288.3L20.7339 288.48V294.546C21.5859 294.678 22.2339 294.744 22.6779 294.744C23.6499 294.744 24.3279 294.468 24.7119 293.916C25.1079 293.364 25.3059 292.464 25.3059 291.216C25.3059 289.968 25.1259 289.08 24.7659 288.552C24.4179 288.024 23.9019 287.76 23.2179 287.76ZM34.9961 294.618L35.5181 294.564L35.5541 295.626C34.1861 295.818 33.0161 295.914 32.0441 295.914C30.7481 295.914 29.8301 295.542 29.2901 294.798C28.7501 294.042 28.4801 292.872 28.4801 291.288C28.4801 288.132 29.7341 286.554 32.2421 286.554C33.4541 286.554 34.3601 286.896 34.9601 287.58C35.5601 288.252 35.8601 289.314 35.8601 290.766L35.7881 291.792H29.8481C29.8481 292.788 30.0281 293.526 30.3881 294.006C30.7481 294.486 31.3721 294.726 32.2601 294.726C33.1601 294.726 34.0721 294.69 34.9961 294.618ZM34.5101 290.712C34.5101 289.608 34.3301 288.828 33.9701 288.372C33.6221 287.916 33.0461 287.688 32.2421 287.688C31.4501 287.688 30.8501 287.928 30.4421 288.408C30.0461 288.888 29.8421 289.656 29.8301 290.712H34.5101ZM41.33 286.554C41.726 286.554 42.398 286.626 43.346 286.77L43.778 286.824L43.724 287.922C42.764 287.814 42.056 287.76 41.6 287.76C40.58 287.76 39.884 288.006 39.512 288.498C39.152 288.978 38.972 289.878 38.972 291.198C38.972 292.506 39.14 293.418 39.476 293.934C39.824 294.45 40.538 294.708 41.618 294.708L43.742 294.546L43.796 295.662C42.68 295.83 41.846 295.914 41.294 295.914C39.89 295.914 38.918 295.554 38.378 294.834C37.85 294.114 37.586 292.902 37.586 291.198C37.586 289.482 37.874 288.282 38.45 287.598C39.026 286.902 39.986 286.554 41.33 286.554ZM50.4658 287.904H47.6038V292.206C47.6038 293.238 47.6758 293.916 47.8198 294.24C47.9758 294.564 48.3358 294.726 48.8998 294.726L50.5018 294.618L50.5918 295.734C49.7878 295.866 49.1758 295.932 48.7558 295.932C47.8198 295.932 47.1718 295.704 46.8118 295.248C46.4518 294.792 46.2718 293.922 46.2718 292.638V287.904H44.9938V286.734H46.2718V283.98H47.6038V286.734H50.4658V287.904ZM58.2344 294.618L58.7564 294.564L58.7924 295.626C57.4244 295.818 56.2544 295.914 55.2824 295.914C53.9864 295.914 53.0684 295.542 52.5284 294.798C51.9884 294.042 51.7184 292.872 51.7184 291.288C51.7184 288.132 52.9724 286.554 55.4804 286.554C56.6924 286.554 57.5984 286.896 58.1984 287.58C58.7984 288.252 59.0984 289.314 59.0984 290.766L59.0264 291.792H53.0864C53.0864 292.788 53.2664 293.526 53.6264 294.006C53.9864 294.486 54.6104 294.726 55.4984 294.726C56.3984 294.726 57.3104 294.69 58.2344 294.618ZM57.7484 290.712C57.7484 289.608 57.5684 288.828 57.2084 288.372C56.8604 287.916 56.2844 287.688 55.4804 287.688C54.6884 287.688 54.0884 287.928 53.6804 288.408C53.2844 288.888 53.0804 289.656 53.0684 290.712H57.7484ZM68.1143 282.81V295.734H66.7823V295.122C65.8583 295.65 64.9463 295.914 64.0463 295.914C63.5663 295.914 63.1463 295.854 62.7863 295.734C62.4263 295.614 62.0903 295.398 61.7783 295.086C61.1303 294.438 60.8063 293.244 60.8063 291.504C60.8063 289.752 61.0943 288.492 61.6703 287.724C62.2583 286.944 63.2243 286.554 64.5683 286.554C65.2643 286.554 66.0023 286.632 66.7823 286.788V282.81H68.1143ZM62.8223 294.114C63.0143 294.342 63.2183 294.498 63.4343 294.582C63.6503 294.666 63.9263 294.708 64.2623 294.708C64.6103 294.708 64.9943 294.654 65.4143 294.546C65.8463 294.426 66.1823 294.312 66.4223 294.204L66.7823 294.042V287.94C66.0143 287.796 65.3003 287.724 64.6403 287.724C63.7283 287.724 63.0923 288.018 62.7323 288.606C62.3723 289.182 62.1923 290.082 62.1923 291.306C62.1923 292.698 62.4023 293.634 62.8223 294.114ZM74.6847 295.734V286.734H76.0167V287.958C77.0607 287.238 78.1587 286.764 79.3107 286.536V287.904C78.8067 288 78.2787 288.15 77.7267 288.354C77.1867 288.558 76.7727 288.738 76.4847 288.894L76.0347 289.128V295.734H74.6847ZM87.2613 289.452V294.06C87.2973 294.504 87.6453 294.768 88.3053 294.852L88.2513 295.914C87.3033 295.914 86.5893 295.674 86.1093 295.194C85.0293 295.674 83.9493 295.914 82.8693 295.914C82.0413 295.914 81.4113 295.68 80.9793 295.212C80.5473 294.744 80.3313 294.072 80.3313 293.196C80.3313 292.32 80.5533 291.678 80.9973 291.27C81.4413 290.85 82.1373 290.592 83.0853 290.496L85.9113 290.226V289.452C85.9113 288.84 85.7793 288.402 85.5153 288.138C85.2513 287.874 84.8913 287.742 84.4353 287.742C83.4753 287.742 82.4793 287.802 81.4473 287.922L80.8893 287.976L80.8353 286.95C82.1553 286.686 83.3253 286.554 84.3453 286.554C85.3653 286.554 86.1033 286.788 86.5593 287.256C87.0273 287.724 87.2613 288.456 87.2613 289.452ZM81.7173 293.124C81.7173 294.228 82.1733 294.78 83.0853 294.78C83.9013 294.78 84.7053 294.642 85.4973 294.366L85.9113 294.222V291.252L83.2473 291.504C82.7073 291.552 82.3173 291.708 82.0773 291.972C81.8373 292.236 81.7173 292.62 81.7173 293.124ZM94.5869 287.904H91.7249V292.206C91.7249 293.238 91.7969 293.916 91.9409 294.24C92.0969 294.564 92.4569 294.726 93.0209 294.726L94.6229 294.618L94.7129 295.734C93.9089 295.866 93.2969 295.932 92.8769 295.932C91.9409 295.932 91.2929 295.704 90.9329 295.248C90.5729 294.792 90.3929 293.922 90.3929 292.638V287.904H89.1149V286.734H90.3929V283.98H91.7249V286.734H94.5869V287.904ZM102.355 294.618L102.877 294.564L102.913 295.626C101.545 295.818 100.375 295.914 99.4035 295.914C98.1075 295.914 97.1895 295.542 96.6495 294.798C96.1095 294.042 95.8395 292.872 95.8395 291.288C95.8395 288.132 97.0935 286.554 99.6015 286.554C100.813 286.554 101.719 286.896 102.319 287.58C102.919 288.252 103.219 289.314 103.219 290.766L103.147 291.792H97.2075C97.2075 292.788 97.3875 293.526 97.7475 294.006C98.1075 294.486 98.7315 294.726 99.6195 294.726C100.519 294.726 101.431 294.69 102.355 294.618ZM101.869 290.712C101.869 289.608 101.689 288.828 101.329 288.372C100.981 287.916 100.405 287.688 99.6015 287.688C98.8095 287.688 98.2095 287.928 97.8015 288.408C97.4055 288.888 97.2015 289.656 97.1895 290.712H101.869ZM108.882 291.216C108.882 289.572 109.176 288.384 109.764 287.652C110.352 286.92 111.342 286.554 112.734 286.554C114.138 286.554 115.128 286.92 115.704 287.652C116.292 288.384 116.586 289.572 116.586 291.216C116.586 292.86 116.31 294.054 115.758 294.798C115.206 295.542 114.198 295.914 112.734 295.914C111.27 295.914 110.262 295.542 109.71 294.798C109.158 294.054 108.882 292.86 108.882 291.216ZM110.268 291.198C110.268 292.506 110.424 293.424 110.736 293.952C111.06 294.48 111.726 294.744 112.734 294.744C113.754 294.744 114.42 294.486 114.732 293.97C115.044 293.442 115.2 292.518 115.2 291.198C115.2 289.878 115.026 288.972 114.678 288.48C114.33 287.976 113.682 287.724 112.734 287.724C111.798 287.724 111.15 287.976 110.79 288.48C110.442 288.972 110.268 289.878 110.268 291.198ZM120.516 287.904V295.734H119.166V287.904H118.032V286.734H119.166V285.924C119.166 284.652 119.346 283.788 119.706 283.332C120.066 282.864 120.696 282.63 121.596 282.63L123.414 282.756L123.396 283.872C122.724 283.848 122.166 283.836 121.722 283.836C121.29 283.836 120.978 283.98 120.786 284.268C120.606 284.556 120.516 285.114 120.516 285.942V286.734H123.126V287.904H120.516ZM1.296 317.734V308.734H2.628V309.958C3.672 309.238 4.77 308.764 5.922 308.536V309.904C5.418 310 4.89 310.15 4.338 310.354C3.798 310.558 3.384 310.738 3.096 310.894L2.646 311.128V317.734H1.296ZM13.4629 316.618L13.9849 316.564L14.0209 317.626C12.6529 317.818 11.4829 317.914 10.5109 317.914C9.21488 317.914 8.29688 317.542 7.75688 316.798C7.21688 316.042 6.94688 314.872 6.94688 313.288C6.94688 310.132 8.20088 308.554 10.7089 308.554C11.9209 308.554 12.8269 308.896 13.4269 309.58C14.0269 310.252 14.3269 311.314 14.3269 312.766L14.2549 313.792H8.31488C8.31488 314.788 8.49488 315.526 8.85488 316.006C9.21488 316.486 9.83888 316.726 10.7269 316.726C11.6269 316.726 12.5389 316.69 13.4629 316.618ZM12.9769 312.712C12.9769 311.608 12.7969 310.828 12.4369 310.372C12.0889 309.916 11.5129 309.688 10.7089 309.688C9.91688 309.688 9.31688 309.928 8.90888 310.408C8.51288 310.888 8.30888 311.656 8.29688 312.712H12.9769ZM21.04 309.904H18.178V314.206C18.178 315.238 18.25 315.916 18.394 316.24C18.55 316.564 18.91 316.726 19.474 316.726L21.076 316.618L21.166 317.734C20.362 317.866 19.75 317.932 19.33 317.932C18.394 317.932 17.746 317.704 17.386 317.248C17.026 316.792 16.846 315.922 16.846 314.638V309.904H15.568V308.734H16.846V305.98H18.178V308.734H21.04V309.904ZM28.3046 308.734H29.6546V317.734H28.3046V317.104C27.4046 317.644 26.5166 317.914 25.6406 317.914C24.4166 317.914 23.6006 317.596 23.1926 316.96C22.7966 316.324 22.5986 315.148 22.5986 313.432V308.734H23.9486V313.414C23.9486 314.722 24.0626 315.598 24.2906 316.042C24.5186 316.486 25.0346 316.708 25.8386 316.708C26.2346 316.708 26.6366 316.654 27.0446 316.546C27.4526 316.426 27.7646 316.312 27.9806 316.204L28.3046 316.042V308.734ZM32.2511 317.734V308.734H33.5831V309.958C34.6271 309.238 35.7251 308.764 36.8771 308.536V309.904C36.3731 310 35.8451 310.15 35.2931 310.354C34.7531 310.558 34.3391 310.738 34.0511 310.894L33.6011 311.128V317.734H32.2511ZM39.8237 317.734H38.4737V308.734H39.8057V309.364C40.7777 308.824 41.7077 308.554 42.5957 308.554C43.7957 308.554 44.5997 308.878 45.0077 309.526C45.4277 310.174 45.6377 311.326 45.6377 312.982V317.734H44.3057V313.018C44.3057 311.77 44.1797 310.918 43.9277 310.462C43.6877 309.994 43.1657 309.76 42.3617 309.76C41.9777 309.76 41.5697 309.82 41.1377 309.94C40.7177 310.048 40.3937 310.156 40.1657 310.264L39.8237 310.426V317.734ZM50.9677 309.76C49.6597 309.76 49.0057 310.216 49.0057 311.128C49.0057 311.548 49.1557 311.848 49.4557 312.028C49.7557 312.196 50.4397 312.376 51.5077 312.568C52.5757 312.748 53.3317 313.006 53.7757 313.342C54.2197 313.678 54.4417 314.308 54.4417 315.232C54.4417 316.156 54.1417 316.834 53.5417 317.266C52.9537 317.698 52.0897 317.914 50.9497 317.914C50.2057 317.914 49.3297 317.83 48.3217 317.662L47.7817 317.572L47.8537 316.402C49.2217 316.606 50.2537 316.708 50.9497 316.708C51.6457 316.708 52.1737 316.6 52.5337 316.384C52.9057 316.156 53.0917 315.784 53.0917 315.268C53.0917 314.74 52.9357 314.386 52.6237 314.206C52.3117 314.014 51.6277 313.834 50.5717 313.666C49.5157 313.498 48.7657 313.252 48.3217 312.928C47.8777 312.604 47.6557 312.004 47.6557 311.128C47.6557 310.252 47.9617 309.604 48.5737 309.184C49.1977 308.764 49.9717 308.554 50.8957 308.554C51.6277 308.554 52.5457 308.638 53.6497 308.806L54.1537 308.896L54.1177 310.048C52.7857 309.856 51.7357 309.76 50.9677 309.76ZM61.958 319.984C60.71 317.176 60.086 314.62 60.086 312.316C60.086 311.164 60.242 309.916 60.554 308.572C60.866 307.216 61.178 306.154 61.49 305.386L61.958 304.234H63.254C62.834 305.338 62.444 306.706 62.084 308.338C61.724 309.958 61.544 311.284 61.544 312.316C61.544 313.336 61.688 314.488 61.976 315.772C62.264 317.044 62.552 318.064 62.84 318.832L63.254 319.984H61.958ZM66.7041 317.806L70.3941 305.476L71.2581 305.764L67.5681 318.058L66.7041 317.806ZM64.4181 308.158C64.4181 306.502 65.0781 305.674 66.3981 305.674C67.7181 305.674 68.3781 306.502 68.3781 308.158C68.3781 309.01 68.2041 309.646 67.8561 310.066C67.5081 310.486 67.0221 310.696 66.3981 310.696C65.7741 310.696 65.2881 310.486 64.9401 310.066C64.5921 309.646 64.4181 309.01 64.4181 308.158ZM65.5161 308.158C65.5161 309.238 65.8101 309.778 66.3981 309.778C66.9981 309.778 67.2981 309.238 67.2981 308.158C67.2981 307.618 67.2261 307.222 67.0821 306.97C66.9501 306.718 66.7221 306.592 66.3981 306.592C66.0861 306.592 65.8581 306.718 65.7141 306.97C65.5821 307.222 65.5161 307.618 65.5161 308.158ZM69.5481 315.358C69.5481 313.714 70.2021 312.892 71.5101 312.892C72.8301 312.892 73.4901 313.72 73.4901 315.376C73.4901 316.216 73.3161 316.852 72.9681 317.284C72.6201 317.704 72.1341 317.914 71.5101 317.914C70.8861 317.914 70.4001 317.704 70.0521 317.284C69.7161 316.852 69.5481 316.21 69.5481 315.358ZM70.6281 315.358C70.6281 316.45 70.9221 316.996 71.5101 316.996C71.8461 316.996 72.0801 316.864 72.2121 316.6C72.3441 316.336 72.4101 315.928 72.4101 315.376C72.4101 314.824 72.3441 314.428 72.2121 314.188C72.0801 313.936 71.8521 313.81 71.5281 313.81C71.2041 313.81 70.9701 313.936 70.8261 314.188C70.6941 314.428 70.6281 314.818 70.6281 315.358ZM84.0254 313.54H80.8574V317.734H79.4714V305.278H84.0254C85.3814 305.278 86.3834 305.608 87.0314 306.268C87.6794 306.928 88.0034 307.936 88.0034 309.292C88.0034 312.124 86.6774 313.54 84.0254 313.54ZM80.8574 312.316H84.0074C85.7234 312.316 86.5814 311.308 86.5814 309.292C86.5814 308.332 86.3774 307.63 85.9694 307.186C85.5614 306.73 84.9074 306.502 84.0074 306.502H80.8574V312.316ZM88.4808 317.734L91.9008 305.278H94.9248L98.3448 317.734H96.9768L96.0768 314.53H90.7488L89.8488 317.734H88.4808ZM92.9448 306.466L91.0548 313.288H95.7708L93.8808 306.466H92.9448ZM102.407 309.976C102.539 310.816 102.605 311.704 102.605 312.64C102.605 313.576 102.449 314.686 102.137 315.97C101.825 317.242 101.513 318.226 101.201 318.922L100.733 319.984H99.4375C99.8455 319.024 100.229 317.764 100.589 316.204C100.961 314.632 101.147 313.336 101.147 312.316C101.147 311.284 101.003 310.096 100.715 308.752C100.439 307.408 100.157 306.322 99.8695 305.494L99.4375 304.234H100.733C101.525 306.022 102.083 307.936 102.407 309.976Z" fill="#023373"/>
<path d="M241.562 284.52V283.278H250.562V284.52H246.764V295.734H245.396V284.52H241.562ZM252.099 295.734V286.734H253.449V295.734H252.099ZM252.099 284.7V283.134H253.449V284.7H252.099ZM257.386 295.734H256.036V286.734H257.368V287.364C258.268 286.824 259.144 286.554 259.996 286.554C261.112 286.554 261.892 286.86 262.336 287.472C262.732 287.232 263.242 287.022 263.866 286.842C264.502 286.65 265.06 286.554 265.54 286.554C266.74 286.554 267.544 286.878 267.952 287.526C268.372 288.162 268.582 289.314 268.582 290.982V295.734H267.232V291.018C267.232 289.77 267.112 288.918 266.872 288.462C266.632 287.994 266.122 287.76 265.342 287.76C264.946 287.76 264.538 287.82 264.118 287.94C263.698 288.048 263.374 288.156 263.146 288.264L262.804 288.426C262.96 288.822 263.038 289.698 263.038 291.054V295.734H261.688V291.09C261.688 289.794 261.568 288.918 261.328 288.462C261.1 287.994 260.59 287.76 259.798 287.76C259.414 287.76 259.018 287.82 258.61 287.94C258.214 288.048 257.908 288.156 257.692 288.264L257.386 288.426V295.734ZM277.203 294.618L277.725 294.564L277.761 295.626C276.393 295.818 275.223 295.914 274.251 295.914C272.955 295.914 272.037 295.542 271.497 294.798C270.957 294.042 270.687 292.872 270.687 291.288C270.687 288.132 271.941 286.554 274.449 286.554C275.661 286.554 276.567 286.896 277.167 287.58C277.767 288.252 278.067 289.314 278.067 290.766L277.995 291.792H272.055C272.055 292.788 272.235 293.526 272.595 294.006C272.955 294.486 273.579 294.726 274.467 294.726C275.367 294.726 276.279 294.69 277.203 294.618ZM276.717 290.712C276.717 289.608 276.537 288.828 276.177 288.372C275.829 287.916 275.253 287.688 274.449 287.688C273.657 287.688 273.057 287.928 272.649 288.408C272.253 288.888 272.049 289.656 272.037 290.712H276.717ZM292.082 295.734V290.1H285.746V295.734H284.36V283.278H285.746V288.858H292.082V283.278H293.45V295.734H292.082ZM295.789 291.216C295.789 289.572 296.083 288.384 296.671 287.652C297.259 286.92 298.249 286.554 299.641 286.554C301.045 286.554 302.035 286.92 302.611 287.652C303.199 288.384 303.493 289.572 303.493 291.216C303.493 292.86 303.217 294.054 302.665 294.798C302.113 295.542 301.105 295.914 299.641 295.914C298.177 295.914 297.169 295.542 296.617 294.798C296.065 294.054 295.789 292.86 295.789 291.216ZM297.175 291.198C297.175 292.506 297.331 293.424 297.643 293.952C297.967 294.48 298.633 294.744 299.641 294.744C300.661 294.744 301.327 294.486 301.639 293.97C301.951 293.442 302.107 292.518 302.107 291.198C302.107 289.878 301.933 288.972 301.585 288.48C301.237 287.976 300.589 287.724 299.641 287.724C298.705 287.724 298.057 287.976 297.697 288.48C297.349 288.972 297.175 289.878 297.175 291.198ZM305.694 295.734V286.734H307.026V287.958C308.07 287.238 309.168 286.764 310.32 286.536V287.904C309.816 288 309.288 288.15 308.736 288.354C308.196 288.558 307.782 288.738 307.494 288.894L307.044 289.128V295.734H305.694ZM311.917 295.734V286.734H313.267V295.734H311.917ZM311.917 284.7V283.134H313.267V284.7H311.917ZM315.315 287.94V286.734H321.993V287.94L316.953 294.528H321.993V295.734H315.315V294.528L320.355 287.94H315.315ZM323.597 291.216C323.597 289.572 323.891 288.384 324.479 287.652C325.067 286.92 326.057 286.554 327.449 286.554C328.853 286.554 329.843 286.92 330.419 287.652C331.007 288.384 331.301 289.572 331.301 291.216C331.301 292.86 331.025 294.054 330.473 294.798C329.921 295.542 328.913 295.914 327.449 295.914C325.985 295.914 324.977 295.542 324.425 294.798C323.873 294.054 323.597 292.86 323.597 291.216ZM324.983 291.198C324.983 292.506 325.139 293.424 325.451 293.952C325.775 294.48 326.441 294.744 327.449 294.744C328.469 294.744 329.135 294.486 329.447 293.97C329.759 293.442 329.915 292.518 329.915 291.198C329.915 289.878 329.741 288.972 329.393 288.48C329.045 287.976 328.397 287.724 327.449 287.724C326.513 287.724 325.865 287.976 325.505 288.48C325.157 288.972 324.983 289.878 324.983 291.198ZM334.853 295.734H333.503V286.734H334.835V287.364C335.807 286.824 336.737 286.554 337.625 286.554C338.825 286.554 339.629 286.878 340.037 287.526C340.457 288.174 340.667 289.326 340.667 290.982V295.734H339.335V291.018C339.335 289.77 339.209 288.918 338.957 288.462C338.717 287.994 338.195 287.76 337.391 287.76C337.007 287.76 336.599 287.82 336.167 287.94C335.747 288.048 335.423 288.156 335.195 288.264L334.853 288.426V295.734ZM244.118 319.984C242.87 317.176 242.246 314.62 242.246 312.316C242.246 311.164 242.402 309.916 242.714 308.572C243.026 307.216 243.338 306.154 243.65 305.386L244.118 304.234H245.414C244.994 305.338 244.604 306.706 244.244 308.338C243.884 309.958 243.704 311.284 243.704 312.316C243.704 313.336 243.848 314.488 244.136 315.772C244.424 317.044 244.712 318.064 245 318.832L245.414 319.984H244.118ZM255.722 314.602H253.724V317.734H252.5V314.602H249.728V317.734H248.504V314.602H246.506V313.45H248.504V310.102H246.506V308.95H248.504V305.746H249.728V308.95H252.5V305.746H253.724V308.95H255.722V310.102H253.724V313.45H255.722V314.602ZM252.5 313.45V310.102H249.728V313.45H252.5ZM261.002 313.216C261.002 311.572 261.296 310.384 261.884 309.652C262.472 308.92 263.462 308.554 264.854 308.554C266.258 308.554 267.248 308.92 267.824 309.652C268.412 310.384 268.706 311.572 268.706 313.216C268.706 314.86 268.43 316.054 267.878 316.798C267.326 317.542 266.318 317.914 264.854 317.914C263.39 317.914 262.382 317.542 261.83 316.798C261.278 316.054 261.002 314.86 261.002 313.216ZM262.388 313.198C262.388 314.506 262.544 315.424 262.856 315.952C263.18 316.48 263.846 316.744 264.854 316.744C265.874 316.744 266.54 316.486 266.852 315.97C267.164 315.442 267.32 314.518 267.32 313.198C267.32 311.878 267.146 310.972 266.798 310.48C266.45 309.976 265.802 309.724 264.854 309.724C263.918 309.724 263.27 309.976 262.91 310.48C262.562 310.972 262.388 311.878 262.388 313.198ZM272.635 309.904V317.734H271.285V309.904H270.151V308.734H271.285V307.924C271.285 306.652 271.465 305.788 271.825 305.332C272.185 304.864 272.815 304.63 273.715 304.63L275.533 304.756L275.515 305.872C274.843 305.848 274.285 305.836 273.841 305.836C273.409 305.836 273.097 305.98 272.905 306.268C272.725 306.556 272.635 307.114 272.635 307.942V308.734H275.245V309.904H272.635ZM285.069 317.734H283.683V312.496L279.705 305.278H281.271L284.367 311.11L287.463 305.278H289.029L285.069 312.496V317.734ZM295.361 316.618L295.883 316.564L295.919 317.626C294.551 317.818 293.381 317.914 292.409 317.914C291.113 317.914 290.195 317.542 289.655 316.798C289.115 316.042 288.845 314.872 288.845 313.288C288.845 310.132 290.099 308.554 292.607 308.554C293.819 308.554 294.725 308.896 295.325 309.58C295.925 310.252 296.225 311.314 296.225 312.766L296.153 313.792H290.213C290.213 314.788 290.393 315.526 290.753 316.006C291.113 316.486 291.737 316.726 292.625 316.726C293.525 316.726 294.437 316.69 295.361 316.618ZM294.875 312.712C294.875 311.608 294.695 310.828 294.335 310.372C293.987 309.916 293.411 309.688 292.607 309.688C291.815 309.688 291.215 309.928 290.807 310.408C290.411 310.888 290.207 311.656 290.195 312.712H294.875ZM304.683 311.452V316.06C304.719 316.504 305.067 316.768 305.727 316.852L305.673 317.914C304.725 317.914 304.011 317.674 303.531 317.194C302.451 317.674 301.371 317.914 300.291 317.914C299.463 317.914 298.833 317.68 298.401 317.212C297.969 316.744 297.753 316.072 297.753 315.196C297.753 314.32 297.975 313.678 298.419 313.27C298.863 312.85 299.559 312.592 300.507 312.496L303.333 312.226V311.452C303.333 310.84 303.201 310.402 302.937 310.138C302.673 309.874 302.313 309.742 301.857 309.742C300.897 309.742 299.901 309.802 298.869 309.922L298.311 309.976L298.257 308.95C299.577 308.686 300.747 308.554 301.767 308.554C302.787 308.554 303.525 308.788 303.981 309.256C304.449 309.724 304.683 310.456 304.683 311.452ZM299.139 315.124C299.139 316.228 299.595 316.78 300.507 316.78C301.323 316.78 302.127 316.642 302.919 316.366L303.333 316.222V313.252L300.669 313.504C300.129 313.552 299.739 313.708 299.499 313.972C299.259 314.236 299.139 314.62 299.139 315.124ZM307.347 317.734V308.734H308.679V309.958C309.723 309.238 310.821 308.764 311.973 308.536V309.904C311.469 310 310.941 310.15 310.389 310.354C309.849 310.558 309.435 310.738 309.147 310.894L308.697 311.128V317.734H307.347ZM316.395 309.76C315.087 309.76 314.433 310.216 314.433 311.128C314.433 311.548 314.583 311.848 314.883 312.028C315.183 312.196 315.867 312.376 316.935 312.568C318.003 312.748 318.759 313.006 319.203 313.342C319.647 313.678 319.869 314.308 319.869 315.232C319.869 316.156 319.569 316.834 318.969 317.266C318.381 317.698 317.517 317.914 316.377 317.914C315.633 317.914 314.757 317.83 313.749 317.662L313.209 317.572L313.281 316.402C314.649 316.606 315.681 316.708 316.377 316.708C317.073 316.708 317.601 316.6 317.961 316.384C318.333 316.156 318.519 315.784 318.519 315.268C318.519 314.74 318.363 314.386 318.051 314.206C317.739 314.014 317.055 313.834 315.999 313.666C314.943 313.498 314.193 313.252 313.749 312.928C313.305 312.604 313.083 312.004 313.083 311.128C313.083 310.252 313.389 309.604 314.001 309.184C314.625 308.764 315.399 308.554 316.323 308.554C317.055 308.554 317.973 308.638 319.077 308.806L319.581 308.896L319.545 310.048C318.213 309.856 317.163 309.76 316.395 309.76ZM324.189 309.976C324.321 310.816 324.387 311.704 324.387 312.64C324.387 313.576 324.231 314.686 323.919 315.97C323.607 317.242 323.295 318.226 322.983 318.922L322.515 319.984H321.219C321.627 319.024 322.011 317.764 322.371 316.204C322.743 314.632 322.929 313.336 322.929 312.316C322.929 311.284 322.785 310.096 322.497 308.752C322.221 307.408 321.939 306.322 321.651 305.494L321.219 304.234H322.515C323.307 306.022 323.865 307.936 324.189 309.976Z" fill="#023373"/>
<rect x="1.32812" y="328.406" width="218.668" height="53.3338" rx="12" fill="#BFE3FF"/>
<rect x="241.328" y="328.406" width="218.668" height="53.3338" rx="12" fill="#BFE3FF"/>
<path d="M100.796 345.677V366.797H96.3797V350.669L91.8037 353.613L89.7877 350.317L96.7637 345.677H100.796ZM121.102 366.797H107.406V363.053L111.918 358.477C113.518 356.834 114.627 355.576 115.246 354.701C115.886 353.826 116.206 352.898 116.206 351.917C116.206 350.914 115.939 350.21 115.406 349.805C114.894 349.4 114.158 349.197 113.198 349.197C111.769 349.197 110.211 349.325 108.526 349.581L107.758 349.677L107.534 346.253C109.625 345.613 111.79 345.293 114.03 345.293C118.51 345.293 120.75 347.309 120.75 351.341C120.75 352.92 120.409 354.285 119.726 355.437C119.043 356.589 117.806 357.986 116.014 359.629L112.334 362.957H121.102V366.797Z" fill="#023373"/>
<path d="M357.389 345.95V349.79H347.949L347.405 354.366C348.727 353.854 349.986 353.598 351.181 353.598C355.746 353.598 358.029 355.721 358.029 359.966C358.029 362.356 357.399 364.201 356.141 365.502C354.882 366.804 353.101 367.454 350.797 367.454C349.815 367.454 348.695 367.358 347.437 367.166C346.199 366.974 345.207 366.772 344.461 366.558L343.309 366.27L343.789 363.006C346.37 363.412 348.525 363.614 350.253 363.614C351.298 363.614 352.098 363.337 352.653 362.782C353.207 362.228 353.485 361.438 353.485 360.414C353.485 359.369 353.25 358.612 352.781 358.142C352.311 357.673 351.65 357.438 350.797 357.438C349.367 357.438 348.109 357.577 347.021 357.854L346.541 357.982L343.917 357.374L344.493 345.95H357.389Z" fill="#023373"/>
<line x1="3.99481" y1="413.755" x2="217.33" y2="413.755" stroke="#CCE3F5" stroke-width="5.33338" stroke-linecap="round"/>
<line x1="243.995" y1="413.74" x2="457.33" y2="413.74" stroke="#CCE3F5" stroke-width="5.33338" stroke-linecap="round"/>
<line x1="3.99481" y1="413.755" x2="131.996" y2="413.755" stroke="#4CA771" stroke-width="5.33338" stroke-linecap="round"/>
<line x1="243.995" y1="413.74" x2="371.996" y2="413.74" stroke="#4CA771" stroke-width="5.33338" stroke-linecap="round"/>
<g filter="url(#filter0_d_3776_7249)">
<circle cx="136.003" cy="413.745" r="10.6668" fill="#4CA771"/>
</g>
<g filter="url(#filter1_d_3776_7249)">
<circle cx="373.323" cy="413.745" r="10.6668" fill="#4CA771"/>
</g>
<defs>
<filter id="filter0_d_3776_7249" x="120.003" y="403.078" width="32.0027" height="32.0027" filterUnits="userSpaceOnUse" color-interpolation-filters="sRGB">
<feFlood flood-opacity="0" result="BackgroundImageFix"/>
<feColorMatrix in="SourceAlpha" type="matrix" values="0 0 0 0 0 0 0 0 0 0 0 0 0 0 0 0 0 0 127 0" result="hardAlpha"/>
<feOffset dy="5.33338"/>
<feGaussianBlur stdDeviation="2.66669"/>
<feComposite in2="hardAlpha" operator="out"/>
<feColorMatrix type="matrix" values="0 0 0 0 0 0 0 0 0 0 0 0 0 0 0 0 0 0 0.15 0"/>
<feBlend mode="normal" in2="BackgroundImageFix" result="effect1_dropShadow_3776_7249"/>
<feBlend mode="normal" in="SourceGraphic" in2="effect1_dropShadow_3776_7249" result="shape"/>
</filter>
<filter id="filter1_d_3776_7249" x="357.323" y="403.078" width="32.0027" height="32.0027" filterUnits="userSpaceOnUse" color-interpolation-filters="sRGB">
<feFlood flood-opacity="0" result="BackgroundImageFix"/>
<feColorMatrix in="SourceAlpha" type="matrix" values="0 0 0 0 0 0 0 0 0 0 0 0 0 0 0 0 0 0 127 0" result="hardAlpha"/>
<feOffset dy="5.33338"/>
<feGaussianBlur stdDeviation="2.66669"/>
<feComposite in2="hardAlpha" operator="out"/>
<feColorMatrix type="matrix" values="0 0 0 0 0 0 0 0 0 0 0 0 0 0 0 0 0 0 0.15 0"/>
<feBlend mode="normal" in2="BackgroundImageFix" result="effect1_dropShadow_3776_7249"/>
<feBlend mode="normal" in="SourceGraphic" in2="effect1_dropShadow_3776_7249" result="shape"/>
</filter>
</defs>
</svg>
