<svg width="56" height="56" viewBox="0 0 56 56" fill="none" xmlns="http://www.w3.org/2000/svg">
<path d="M36.4399 38.5013C37.3194 38.5013 38.0666 38.1931 38.6816 37.5768C39.298 36.9618 39.6061 36.2146 39.6061 35.3351C39.6061 34.4556 39.298 33.7084 38.6816 33.0934C38.0666 32.477 37.3194 32.1689 36.4399 32.1689C35.5604 32.1689 34.8132 32.477 34.1982 33.0934C33.5819 33.7084 33.2737 34.4556 33.2737 35.3351C33.2737 36.2146 33.5819 36.9618 34.1982 37.5768C34.8132 38.1931 35.5604 38.5013 36.4399 38.5013ZM36.4399 44.8338C37.5305 44.8338 38.5331 44.5784 39.4478 44.0675C40.3625 43.5581 41.1013 42.8813 41.6642 42.0369C40.8902 41.5796 40.0635 41.2278 39.184 40.9815C38.3045 40.7353 37.3898 40.6121 36.4399 40.6121C35.49 40.6121 34.5754 40.7353 33.6958 40.9815C32.8163 41.2278 31.9896 41.5796 31.2156 42.0369C31.7785 42.8813 32.5173 43.5581 33.432 44.0675C34.3467 44.5784 35.3493 44.8338 36.4399 44.8338ZM25.8858 47.9472C21.3124 46.7159 17.5305 44.0338 14.5402 39.9008C11.5499 35.7664 10.0547 31.1486 10.0547 26.0475V13.9103L25.8858 8L41.717 13.9103V25.8364C41.2244 25.6605 40.7059 25.4931 40.1613 25.334C39.6153 25.1764 39.0784 25.0449 38.5507 24.9393V16.1266L25.8858 11.3773L13.2209 16.1266V26.0475C13.2209 27.9121 13.4848 29.733 14.0125 31.5103C14.5402 33.2862 15.2705 34.9566 16.2035 36.5214C17.1351 38.0876 18.2433 39.4864 19.528 40.7177C20.8114 41.949 22.2095 42.934 23.7222 43.6728L23.775 43.6201C24.0564 44.394 24.4174 45.1328 24.8579 45.8364C25.2969 46.54 25.7979 47.1909 26.3608 47.7889C26.2904 47.8241 26.22 47.8508 26.1497 47.8691C26.0793 47.886 25.9914 47.9121 25.8858 47.9472ZM36.4399 48C33.8014 48 31.5583 47.0769 29.7106 45.2306C27.8644 43.3829 26.9412 41.1398 26.9412 38.5013C26.9412 35.8628 27.8644 33.6197 29.7106 31.772C31.5583 29.9258 33.8014 29.0026 36.4399 29.0026C39.0784 29.0026 41.3215 29.9258 43.1692 31.772C45.0155 33.6197 45.9386 35.8628 45.9386 38.5013C45.9386 41.1398 45.0155 43.3829 43.1692 45.2306C41.3215 47.0769 39.0784 48 36.4399 48Z" fill="#4CA771"/>
</svg>
