<svg width="61" height="61" viewBox="0 0 61 61" fill="none" xmlns="http://www.w3.org/2000/svg">
<path d="M0.781982 0.436035H2.85095V2.505H0.781982V0.436035ZM2.85095 0.436035H4.91991V2.505H2.85095V0.436035ZM4.91991 0.436035H6.98888V2.505H4.91991V0.436035ZM6.98888 0.436035H9.05784V2.505H6.98888V0.436035ZM9.05784 0.436035H11.1268V2.505H9.05784V0.436035ZM11.1268 0.436035H13.1958V2.505H11.1268V0.436035ZM13.1958 0.436035H15.2647V2.505H13.1958V0.436035ZM17.3337 0.436035H19.4027V2.505H17.3337V0.436035ZM19.4027 0.436035H21.4716V2.505H19.4027V0.436035ZM21.4716 0.436035H23.5406V2.505H21.4716V0.436035ZM23.5406 0.436035H25.6096V2.505H23.5406V0.436035ZM29.7475 0.436035H31.8165V2.505H29.7475V0.436035ZM31.8165 0.436035H33.8854V2.505H31.8165V0.436035ZM33.8854 0.436035H35.9544V2.505H33.8854V0.436035ZM35.9544 0.436035H38.0234V2.505H35.9544V0.436035ZM38.0234 0.436035H40.0923V2.505H38.0234V0.436035ZM40.0923 0.436035H42.1613V2.505H40.0923V0.436035ZM46.2992 0.436035H48.3682V2.505H46.2992V0.436035ZM48.3682 0.436035H50.4372V2.505H48.3682V0.436035ZM50.4372 0.436035H52.5061V2.505H50.4372V0.436035ZM52.5061 0.436035H54.5751V2.505H52.5061V0.436035ZM54.5751 0.436035H56.6441V2.505H54.5751V0.436035ZM56.6441 0.436035H58.713V2.505H56.6441V0.436035ZM58.713 0.436035H60.782V2.505H58.713V0.436035ZM0.781982 2.505H2.85095V4.57397H0.781982V2.505ZM13.1958 2.505H15.2647V4.57397H13.1958V2.505ZM17.3337 2.505H19.4027V4.57397H17.3337V2.505ZM19.4027 2.505H21.4716V4.57397H19.4027V2.505ZM38.0234 2.505H40.0923V4.57397H38.0234V2.505ZM40.0923 2.505H42.1613V4.57397H40.0923V2.505ZM46.2992 2.505H48.3682V4.57397H46.2992V2.505ZM58.713 2.505H60.782V4.57397H58.713V2.505ZM0.781982 4.57397H2.85095V6.64293H0.781982V4.57397ZM4.91991 4.57397H6.98888V6.64293H4.91991V4.57397ZM6.98888 4.57397H9.05784V6.64293H6.98888V4.57397ZM9.05784 4.57397H11.1268V6.64293H9.05784V4.57397ZM13.1958 4.57397H15.2647V6.64293H13.1958V4.57397ZM19.4027 4.57397H21.4716V6.64293H19.4027V4.57397ZM21.4716 4.57397H23.5406V6.64293H21.4716V4.57397ZM23.5406 4.57397H25.6096V6.64293H23.5406V4.57397ZM25.6096 4.57397H27.6785V6.64293H25.6096V4.57397ZM27.6785 4.57397H29.7475V6.64293H27.6785V4.57397ZM29.7475 4.57397H31.8165V6.64293H29.7475V4.57397ZM40.0923 4.57397H42.1613V6.64293H40.0923V4.57397ZM42.1613 4.57397H44.2303V6.64293H42.1613V4.57397ZM46.2992 4.57397H48.3682V6.64293H46.2992V4.57397ZM50.4372 4.57397H52.5061V6.64293H50.4372V4.57397ZM52.5061 4.57397H54.5751V6.64293H52.5061V4.57397ZM54.5751 4.57397H56.6441V6.64293H54.5751V4.57397ZM58.713 4.57397H60.782V6.64293H58.713V4.57397ZM0.781982 6.64293H2.85095V8.7119H0.781982V6.64293ZM4.91991 6.64293H6.98888V8.7119H4.91991V6.64293ZM6.98888 6.64293H9.05784V8.7119H6.98888V6.64293ZM9.05784 6.64293H11.1268V8.7119H9.05784V6.64293ZM13.1958 6.64293H15.2647V8.7119H13.1958V6.64293ZM19.4027 6.64293H21.4716V8.7119H19.4027V6.64293ZM25.6096 6.64293H27.6785V8.7119H25.6096V6.64293ZM27.6785 6.64293H29.7475V8.7119H27.6785V6.64293ZM33.8854 6.64293H35.9544V8.7119H33.8854V6.64293ZM35.9544 6.64293H38.0234V8.7119H35.9544V6.64293ZM40.0923 6.64293H42.1613V8.7119H40.0923V6.64293ZM42.1613 6.64293H44.2303V8.7119H42.1613V6.64293ZM46.2992 6.64293H48.3682V8.7119H46.2992V6.64293ZM50.4372 6.64293H52.5061V8.7119H50.4372V6.64293ZM52.5061 6.64293H54.5751V8.7119H52.5061V6.64293ZM54.5751 6.64293H56.6441V8.7119H54.5751V6.64293ZM58.713 6.64293H60.782V8.7119H58.713V6.64293ZM0.781982 8.7119H2.85095V10.7809H0.781982V8.7119ZM4.91991 8.7119H6.98888V10.7809H4.91991V8.7119ZM6.98888 8.7119H9.05784V10.7809H6.98888V8.7119ZM9.05784 8.7119H11.1268V10.7809H9.05784V8.7119ZM13.1958 8.7119H15.2647V10.7809H13.1958V8.7119ZM23.5406 8.7119H25.6096V10.7809H23.5406V8.7119ZM27.6785 8.7119H29.7475V10.7809H27.6785V8.7119ZM38.0234 8.7119H40.0923V10.7809H38.0234V8.7119ZM40.0923 8.7119H42.1613V10.7809H40.0923V8.7119ZM42.1613 8.7119H44.2303V10.7809H42.1613V8.7119ZM46.2992 8.7119H48.3682V10.7809H46.2992V8.7119ZM50.4372 8.7119H52.5061V10.7809H50.4372V8.7119ZM52.5061 8.7119H54.5751V10.7809H52.5061V8.7119ZM54.5751 8.7119H56.6441V10.7809H54.5751V8.7119ZM58.713 8.7119H60.782V10.7809H58.713V8.7119ZM0.781982 10.7809H2.85095V12.8498H0.781982V10.7809ZM13.1958 10.7809H15.2647V12.8498H13.1958V10.7809ZM19.4027 10.7809H21.4716V12.8498H19.4027V10.7809ZM21.4716 10.7809H23.5406V12.8498H21.4716V10.7809ZM27.6785 10.7809H29.7475V12.8498H27.6785V10.7809ZM31.8165 10.7809H33.8854V12.8498H31.8165V10.7809ZM38.0234 10.7809H40.0923V12.8498H38.0234V10.7809ZM42.1613 10.7809H44.2303V12.8498H42.1613V10.7809ZM46.2992 10.7809H48.3682V12.8498H46.2992V10.7809ZM58.713 10.7809H60.782V12.8498H58.713V10.7809ZM0.781982 12.8498H2.85095V14.9188H0.781982V12.8498ZM2.85095 12.8498H4.91991V14.9188H2.85095V12.8498ZM4.91991 12.8498H6.98888V14.9188H4.91991V12.8498ZM6.98888 12.8498H9.05784V14.9188H6.98888V12.8498ZM9.05784 12.8498H11.1268V14.9188H9.05784V12.8498ZM11.1268 12.8498H13.1958V14.9188H11.1268V12.8498ZM13.1958 12.8498H15.2647V14.9188H13.1958V12.8498ZM17.3337 12.8498H19.4027V14.9188H17.3337V12.8498ZM21.4716 12.8498H23.5406V14.9188H21.4716V12.8498ZM25.6096 12.8498H27.6785V14.9188H25.6096V12.8498ZM29.7475 12.8498H31.8165V14.9188H29.7475V12.8498ZM33.8854 12.8498H35.9544V14.9188H33.8854V12.8498ZM38.0234 12.8498H40.0923V14.9188H38.0234V12.8498ZM42.1613 12.8498H44.2303V14.9188H42.1613V12.8498ZM46.2992 12.8498H48.3682V14.9188H46.2992V12.8498ZM48.3682 12.8498H50.4372V14.9188H48.3682V12.8498ZM50.4372 12.8498H52.5061V14.9188H50.4372V12.8498ZM52.5061 12.8498H54.5751V14.9188H52.5061V12.8498ZM54.5751 12.8498H56.6441V14.9188H54.5751V12.8498ZM56.6441 12.8498H58.713V14.9188H56.6441V12.8498ZM58.713 12.8498H60.782V14.9188H58.713V12.8498ZM19.4027 14.9188H21.4716V16.9878H19.4027V14.9188ZM25.6096 14.9188H27.6785V16.9878H25.6096V14.9188ZM27.6785 14.9188H29.7475V16.9878H27.6785V14.9188ZM42.1613 14.9188H44.2303V16.9878H42.1613V14.9188ZM2.85095 16.9878H4.91991V19.0567H2.85095V16.9878ZM13.1958 16.9878H15.2647V19.0567H13.1958V16.9878ZM15.2647 16.9878H17.3337V19.0567H15.2647V16.9878ZM17.3337 16.9878H19.4027V19.0567H17.3337V16.9878ZM19.4027 16.9878H21.4716V19.0567H19.4027V16.9878ZM21.4716 16.9878H23.5406V19.0567H21.4716V16.9878ZM38.0234 16.9878H40.0923V19.0567H38.0234V16.9878ZM44.2303 16.9878H46.2992V19.0567H44.2303V16.9878ZM56.6441 16.9878H58.713V19.0567H56.6441V16.9878ZM58.713 16.9878H60.782V19.0567H58.713V16.9878ZM0.781982 19.0567H2.85095V21.1257H0.781982V19.0567ZM2.85095 19.0567H4.91991V21.1257H2.85095V19.0567ZM11.1268 19.0567H13.1958V21.1257H11.1268V19.0567ZM17.3337 19.0567H19.4027V21.1257H17.3337V19.0567ZM19.4027 19.0567H21.4716V21.1257H19.4027V19.0567ZM21.4716 19.0567H23.5406V21.1257H21.4716V19.0567ZM25.6096 19.0567H27.6785V21.1257H25.6096V19.0567ZM27.6785 19.0567H29.7475V21.1257H27.6785V19.0567ZM29.7475 19.0567H31.8165V21.1257H29.7475V19.0567ZM31.8165 19.0567H33.8854V21.1257H31.8165V19.0567ZM35.9544 19.0567H38.0234V21.1257H35.9544V19.0567ZM42.1613 19.0567H44.2303V21.1257H42.1613V19.0567ZM48.3682 19.0567H50.4372V21.1257H48.3682V19.0567ZM50.4372 19.0567H52.5061V21.1257H50.4372V19.0567ZM54.5751 19.0567H56.6441V21.1257H54.5751V19.0567ZM56.6441 19.0567H58.713V21.1257H56.6441V19.0567ZM2.85095 21.1257H4.91991V23.1947H2.85095V21.1257ZM6.98888 21.1257H9.05784V23.1947H6.98888V21.1257ZM11.1268 21.1257H13.1958V23.1947H11.1268V21.1257ZM13.1958 21.1257H15.2647V23.1947H13.1958V21.1257ZM21.4716 21.1257H23.5406V23.1947H21.4716V21.1257ZM23.5406 21.1257H25.6096V23.1947H23.5406V21.1257ZM29.7475 21.1257H31.8165V23.1947H29.7475V21.1257ZM33.8854 21.1257H35.9544V23.1947H33.8854V21.1257ZM42.1613 21.1257H44.2303V23.1947H42.1613V21.1257ZM44.2303 21.1257H46.2992V23.1947H44.2303V21.1257ZM46.2992 21.1257H48.3682V23.1947H46.2992V21.1257ZM50.4372 21.1257H52.5061V23.1947H50.4372V21.1257ZM52.5061 21.1257H54.5751V23.1947H52.5061V21.1257ZM0.781982 23.1947H2.85095V25.2636H0.781982V23.1947ZM2.85095 23.1947H4.91991V25.2636H2.85095V23.1947ZM6.98888 23.1947H9.05784V25.2636H6.98888V23.1947ZM17.3337 23.1947H19.4027V25.2636H17.3337V23.1947ZM21.4716 23.1947H23.5406V25.2636H21.4716V23.1947ZM25.6096 23.1947H27.6785V25.2636H25.6096V23.1947ZM27.6785 23.1947H29.7475V25.2636H27.6785V23.1947ZM29.7475 23.1947H31.8165V25.2636H29.7475V23.1947ZM31.8165 23.1947H33.8854V25.2636H31.8165V23.1947ZM38.0234 23.1947H40.0923V25.2636H38.0234V23.1947ZM40.0923 23.1947H42.1613V25.2636H40.0923V23.1947ZM42.1613 23.1947H44.2303V25.2636H42.1613V23.1947ZM46.2992 23.1947H48.3682V25.2636H46.2992V23.1947ZM48.3682 23.1947H50.4372V25.2636H48.3682V23.1947ZM52.5061 23.1947H54.5751V25.2636H52.5061V23.1947ZM0.781982 25.2636H2.85095V27.3326H0.781982V25.2636ZM2.85095 25.2636H4.91991V27.3326H2.85095V25.2636ZM4.91991 25.2636H6.98888V27.3326H4.91991V25.2636ZM6.98888 25.2636H9.05784V27.3326H6.98888V25.2636ZM9.05784 25.2636H11.1268V27.3326H9.05784V25.2636ZM11.1268 25.2636H13.1958V27.3326H11.1268V25.2636ZM13.1958 25.2636H15.2647V27.3326H13.1958V25.2636ZM15.2647 25.2636H17.3337V27.3326H15.2647V25.2636ZM27.6785 25.2636H29.7475V27.3326H27.6785V25.2636ZM42.1613 25.2636H44.2303V27.3326H42.1613V25.2636ZM44.2303 25.2636H46.2992V27.3326H44.2303V25.2636ZM46.2992 25.2636H48.3682V27.3326H46.2992V25.2636ZM56.6441 25.2636H58.713V27.3326H56.6441V25.2636ZM0.781982 27.3326H2.85095V29.4016H0.781982V27.3326ZM4.91991 27.3326H6.98888V29.4016H4.91991V27.3326ZM6.98888 27.3326H9.05784V29.4016H6.98888V27.3326ZM9.05784 27.3326H11.1268V29.4016H9.05784V27.3326ZM11.1268 27.3326H13.1958V29.4016H11.1268V27.3326ZM19.4027 27.3326H21.4716V29.4016H19.4027V27.3326ZM25.6096 27.3326H27.6785V29.4016H25.6096V27.3326ZM27.6785 27.3326H29.7475V29.4016H27.6785V27.3326ZM29.7475 27.3326H31.8165V29.4016H29.7475V27.3326ZM31.8165 27.3326H33.8854V29.4016H31.8165V27.3326ZM33.8854 27.3326H35.9544V29.4016H33.8854V27.3326ZM35.9544 27.3326H38.0234V29.4016H35.9544V27.3326ZM40.0923 27.3326H42.1613V29.4016H40.0923V27.3326ZM42.1613 27.3326H44.2303V29.4016H42.1613V27.3326ZM46.2992 27.3326H48.3682V29.4016H46.2992V27.3326ZM50.4372 27.3326H52.5061V29.4016H50.4372V27.3326ZM52.5061 27.3326H54.5751V29.4016H52.5061V27.3326ZM58.713 27.3326H60.782V29.4016H58.713V27.3326ZM0.781982 29.4016H2.85095V31.4705H0.781982V29.4016ZM2.85095 29.4016H4.91991V31.4705H2.85095V29.4016ZM4.91991 29.4016H6.98888V31.4705H4.91991V29.4016ZM13.1958 29.4016H15.2647V31.4705H13.1958V29.4016ZM17.3337 29.4016H19.4027V31.4705H17.3337V29.4016ZM19.4027 29.4016H21.4716V31.4705H19.4027V29.4016ZM21.4716 29.4016H23.5406V31.4705H21.4716V29.4016ZM25.6096 29.4016H27.6785V31.4705H25.6096V29.4016ZM27.6785 29.4016H29.7475V31.4705H27.6785V29.4016ZM31.8165 29.4016H33.8854V31.4705H31.8165V29.4016ZM35.9544 29.4016H38.0234V31.4705H35.9544V29.4016ZM42.1613 29.4016H44.2303V31.4705H42.1613V29.4016ZM44.2303 29.4016H46.2992V31.4705H44.2303V29.4016ZM46.2992 29.4016H48.3682V31.4705H46.2992V29.4016ZM48.3682 29.4016H50.4372V31.4705H48.3682V29.4016ZM0.781982 31.4705H2.85095V33.5395H0.781982V31.4705ZM2.85095 31.4705H4.91991V33.5395H2.85095V31.4705ZM9.05784 31.4705H11.1268V33.5395H9.05784V31.4705ZM15.2647 31.4705H17.3337V33.5395H15.2647V31.4705ZM21.4716 31.4705H23.5406V33.5395H21.4716V31.4705ZM27.6785 31.4705H29.7475V33.5395H27.6785V31.4705ZM31.8165 31.4705H33.8854V33.5395H31.8165V31.4705ZM33.8854 31.4705H35.9544V33.5395H33.8854V31.4705ZM35.9544 31.4705H38.0234V33.5395H35.9544V31.4705ZM38.0234 31.4705H40.0923V33.5395H38.0234V31.4705ZM40.0923 31.4705H42.1613V33.5395H40.0923V31.4705ZM44.2303 31.4705H46.2992V33.5395H44.2303V31.4705ZM46.2992 31.4705H48.3682V33.5395H46.2992V31.4705ZM50.4372 31.4705H52.5061V33.5395H50.4372V31.4705ZM52.5061 31.4705H54.5751V33.5395H52.5061V31.4705ZM54.5751 31.4705H56.6441V33.5395H54.5751V31.4705ZM0.781982 33.5395H2.85095V35.6085H0.781982V33.5395ZM4.91991 33.5395H6.98888V35.6085H4.91991V33.5395ZM9.05784 33.5395H11.1268V35.6085H9.05784V33.5395ZM11.1268 33.5395H13.1958V35.6085H11.1268V33.5395ZM13.1958 33.5395H15.2647V35.6085H13.1958V33.5395ZM15.2647 33.5395H17.3337V35.6085H15.2647V33.5395ZM21.4716 33.5395H23.5406V35.6085H21.4716V33.5395ZM25.6096 33.5395H27.6785V35.6085H25.6096V33.5395ZM29.7475 33.5395H31.8165V35.6085H29.7475V33.5395ZM31.8165 33.5395H33.8854V35.6085H31.8165V33.5395ZM33.8854 33.5395H35.9544V35.6085H33.8854V33.5395ZM52.5061 33.5395H54.5751V35.6085H52.5061V33.5395ZM54.5751 33.5395H56.6441V35.6085H54.5751V33.5395ZM58.713 33.5395H60.782V35.6085H58.713V33.5395ZM0.781982 35.6085H2.85095V37.6774H0.781982V35.6085ZM6.98888 35.6085H9.05784V37.6774H6.98888V35.6085ZM11.1268 35.6085H13.1958V37.6774H11.1268V35.6085ZM21.4716 35.6085H23.5406V37.6774H21.4716V35.6085ZM23.5406 35.6085H25.6096V37.6774H23.5406V35.6085ZM27.6785 35.6085H29.7475V37.6774H27.6785V35.6085ZM38.0234 35.6085H40.0923V37.6774H38.0234V35.6085ZM40.0923 35.6085H42.1613V37.6774H40.0923V35.6085ZM46.2992 35.6085H48.3682V37.6774H46.2992V35.6085ZM48.3682 35.6085H50.4372V37.6774H48.3682V35.6085ZM50.4372 35.6085H52.5061V37.6774H50.4372V35.6085ZM58.713 35.6085H60.782V37.6774H58.713V35.6085ZM0.781982 37.6774H2.85095V39.7464H0.781982V37.6774ZM2.85095 37.6774H4.91991V39.7464H2.85095V37.6774ZM4.91991 37.6774H6.98888V39.7464H4.91991V37.6774ZM6.98888 37.6774H9.05784V39.7464H6.98888V37.6774ZM11.1268 37.6774H13.1958V39.7464H11.1268V37.6774ZM13.1958 37.6774H15.2647V39.7464H13.1958V37.6774ZM17.3337 37.6774H19.4027V39.7464H17.3337V37.6774ZM19.4027 37.6774H21.4716V39.7464H19.4027V37.6774ZM23.5406 37.6774H25.6096V39.7464H23.5406V37.6774ZM25.6096 37.6774H27.6785V39.7464H25.6096V37.6774ZM27.6785 37.6774H29.7475V39.7464H27.6785V37.6774ZM29.7475 37.6774H31.8165V39.7464H29.7475V37.6774ZM31.8165 37.6774H33.8854V39.7464H31.8165V37.6774ZM35.9544 37.6774H38.0234V39.7464H35.9544V37.6774ZM40.0923 37.6774H42.1613V39.7464H40.0923V37.6774ZM48.3682 37.6774H50.4372V39.7464H48.3682V37.6774ZM52.5061 37.6774H54.5751V39.7464H52.5061V37.6774ZM54.5751 37.6774H56.6441V39.7464H54.5751V37.6774ZM58.713 37.6774H60.782V39.7464H58.713V37.6774ZM0.781982 39.7464H2.85095V41.8153H0.781982V39.7464ZM6.98888 39.7464H9.05784V41.8153H6.98888V39.7464ZM11.1268 39.7464H13.1958V41.8153H11.1268V39.7464ZM21.4716 39.7464H23.5406V41.8153H21.4716V39.7464ZM27.6785 39.7464H29.7475V41.8153H27.6785V39.7464ZM29.7475 39.7464H31.8165V41.8153H29.7475V39.7464ZM38.0234 39.7464H40.0923V41.8153H38.0234V39.7464ZM40.0923 39.7464H42.1613V41.8153H40.0923V39.7464ZM44.2303 39.7464H46.2992V41.8153H44.2303V39.7464ZM46.2992 39.7464H48.3682V41.8153H46.2992V39.7464ZM48.3682 39.7464H50.4372V41.8153H48.3682V39.7464ZM52.5061 39.7464H54.5751V41.8153H52.5061V39.7464ZM58.713 39.7464H60.782V41.8153H58.713V39.7464ZM0.781982 41.8153H2.85095V43.8843H0.781982V41.8153ZM4.91991 41.8153H6.98888V43.8843H4.91991V41.8153ZM13.1958 41.8153H15.2647V43.8843H13.1958V41.8153ZM21.4716 41.8153H23.5406V43.8843H21.4716V41.8153ZM25.6096 41.8153H27.6785V43.8843H25.6096V41.8153ZM31.8165 41.8153H33.8854V43.8843H31.8165V41.8153ZM35.9544 41.8153H38.0234V43.8843H35.9544V41.8153ZM40.0923 41.8153H42.1613V43.8843H40.0923V41.8153ZM42.1613 41.8153H44.2303V43.8843H42.1613V41.8153ZM44.2303 41.8153H46.2992V43.8843H44.2303V41.8153ZM46.2992 41.8153H48.3682V43.8843H46.2992V41.8153ZM48.3682 41.8153H50.4372V43.8843H48.3682V41.8153ZM50.4372 41.8153H52.5061V43.8843H50.4372V41.8153ZM52.5061 41.8153H54.5751V43.8843H52.5061V41.8153ZM54.5751 41.8153H56.6441V43.8843H54.5751V41.8153ZM56.6441 41.8153H58.713V43.8843H56.6441V41.8153ZM58.713 41.8153H60.782V43.8843H58.713V41.8153ZM17.3337 43.8843H19.4027V45.9533H17.3337V43.8843ZM19.4027 43.8843H21.4716V45.9533H19.4027V43.8843ZM25.6096 43.8843H27.6785V45.9533H25.6096V43.8843ZM27.6785 43.8843H29.7475V45.9533H27.6785V43.8843ZM31.8165 43.8843H33.8854V45.9533H31.8165V43.8843ZM38.0234 43.8843H40.0923V45.9533H38.0234V43.8843ZM40.0923 43.8843H42.1613V45.9533H40.0923V43.8843ZM42.1613 43.8843H44.2303V45.9533H42.1613V43.8843ZM50.4372 43.8843H52.5061V45.9533H50.4372V43.8843ZM52.5061 43.8843H54.5751V45.9533H52.5061V43.8843ZM54.5751 43.8843H56.6441V45.9533H54.5751V43.8843ZM0.781982 45.9533H2.85095V48.0222H0.781982V45.9533ZM2.85095 45.9533H4.91991V48.0222H2.85095V45.9533ZM4.91991 45.9533H6.98888V48.0222H4.91991V45.9533ZM6.98888 45.9533H9.05784V48.0222H6.98888V45.9533ZM9.05784 45.9533H11.1268V48.0222H9.05784V45.9533ZM11.1268 45.9533H13.1958V48.0222H11.1268V45.9533ZM13.1958 45.9533H15.2647V48.0222H13.1958V45.9533ZM17.3337 45.9533H19.4027V48.0222H17.3337V45.9533ZM19.4027 45.9533H21.4716V48.0222H19.4027V45.9533ZM21.4716 45.9533H23.5406V48.0222H21.4716V45.9533ZM23.5406 45.9533H25.6096V48.0222H23.5406V45.9533ZM31.8165 45.9533H33.8854V48.0222H31.8165V45.9533ZM38.0234 45.9533H40.0923V48.0222H38.0234V45.9533ZM40.0923 45.9533H42.1613V48.0222H40.0923V45.9533ZM42.1613 45.9533H44.2303V48.0222H42.1613V45.9533ZM46.2992 45.9533H48.3682V48.0222H46.2992V45.9533ZM50.4372 45.9533H52.5061V48.0222H50.4372V45.9533ZM56.6441 45.9533H58.713V48.0222H56.6441V45.9533ZM0.781982 48.0222H2.85095V50.0912H0.781982V48.0222ZM13.1958 48.0222H15.2647V50.0912H13.1958V48.0222ZM21.4716 48.0222H23.5406V50.0912H21.4716V48.0222ZM23.5406 48.0222H25.6096V50.0912H23.5406V48.0222ZM27.6785 48.0222H29.7475V50.0912H27.6785V48.0222ZM31.8165 48.0222H33.8854V50.0912H31.8165V48.0222ZM40.0923 48.0222H42.1613V50.0912H40.0923V48.0222ZM42.1613 48.0222H44.2303V50.0912H42.1613V48.0222ZM50.4372 48.0222H52.5061V50.0912H50.4372V48.0222ZM52.5061 48.0222H54.5751V50.0912H52.5061V48.0222ZM56.6441 48.0222H58.713V50.0912H56.6441V48.0222ZM0.781982 50.0912H2.85095V52.1602H0.781982V50.0912ZM4.91991 50.0912H6.98888V52.1602H4.91991V50.0912ZM6.98888 50.0912H9.05784V52.1602H6.98888V50.0912ZM9.05784 50.0912H11.1268V52.1602H9.05784V50.0912ZM13.1958 50.0912H15.2647V52.1602H13.1958V50.0912ZM19.4027 50.0912H21.4716V52.1602H19.4027V50.0912ZM23.5406 50.0912H25.6096V52.1602H23.5406V50.0912ZM25.6096 50.0912H27.6785V52.1602H25.6096V50.0912ZM33.8854 50.0912H35.9544V52.1602H33.8854V50.0912ZM35.9544 50.0912H38.0234V52.1602H35.9544V50.0912ZM38.0234 50.0912H40.0923V52.1602H38.0234V50.0912ZM40.0923 50.0912H42.1613V52.1602H40.0923V50.0912ZM42.1613 50.0912H44.2303V52.1602H42.1613V50.0912ZM44.2303 50.0912H46.2992V52.1602H44.2303V50.0912ZM46.2992 50.0912H48.3682V52.1602H46.2992V50.0912ZM48.3682 50.0912H50.4372V52.1602H48.3682V50.0912ZM50.4372 50.0912H52.5061V52.1602H50.4372V50.0912ZM56.6441 50.0912H58.713V52.1602H56.6441V50.0912ZM0.781982 52.1602H2.85095V54.2291H0.781982V52.1602ZM4.91991 52.1602H6.98888V54.2291H4.91991V52.1602ZM6.98888 52.1602H9.05784V54.2291H6.98888V52.1602ZM9.05784 52.1602H11.1268V54.2291H9.05784V52.1602ZM13.1958 52.1602H15.2647V54.2291H13.1958V52.1602ZM21.4716 52.1602H23.5406V54.2291H21.4716V52.1602ZM25.6096 52.1602H27.6785V54.2291H25.6096V52.1602ZM33.8854 52.1602H35.9544V54.2291H33.8854V52.1602ZM35.9544 52.1602H38.0234V54.2291H35.9544V52.1602ZM40.0923 52.1602H42.1613V54.2291H40.0923V52.1602ZM42.1613 52.1602H44.2303V54.2291H42.1613V52.1602ZM48.3682 52.1602H50.4372V54.2291H48.3682V52.1602ZM56.6441 52.1602H58.713V54.2291H56.6441V52.1602ZM0.781982 54.2291H2.85095V56.2981H0.781982V54.2291ZM4.91991 54.2291H6.98888V56.2981H4.91991V54.2291ZM6.98888 54.2291H9.05784V56.2981H6.98888V54.2291ZM9.05784 54.2291H11.1268V56.2981H9.05784V54.2291ZM13.1958 54.2291H15.2647V56.2981H13.1958V54.2291ZM25.6096 54.2291H27.6785V56.2981H25.6096V54.2291ZM29.7475 54.2291H31.8165V56.2981H29.7475V54.2291ZM38.0234 54.2291H40.0923V56.2981H38.0234V54.2291ZM40.0923 54.2291H42.1613V56.2981H40.0923V54.2291ZM42.1613 54.2291H44.2303V56.2981H42.1613V54.2291ZM44.2303 54.2291H46.2992V56.2981H44.2303V54.2291ZM46.2992 54.2291H48.3682V56.2981H46.2992V54.2291ZM48.3682 54.2291H50.4372V56.2981H48.3682V54.2291ZM50.4372 54.2291H52.5061V56.2981H50.4372V54.2291ZM56.6441 54.2291H58.713V56.2981H56.6441V54.2291ZM0.781982 56.2981H2.85095V58.3671H0.781982V56.2981ZM13.1958 56.2981H15.2647V58.3671H13.1958V56.2981ZM17.3337 56.2981H19.4027V58.3671H17.3337V56.2981ZM25.6096 56.2981H27.6785V58.3671H25.6096V56.2981ZM31.8165 56.2981H33.8854V58.3671H31.8165V56.2981ZM38.0234 56.2981H40.0923V58.3671H38.0234V56.2981ZM44.2303 56.2981H46.2992V58.3671H44.2303V56.2981ZM50.4372 56.2981H52.5061V58.3671H50.4372V56.2981ZM54.5751 56.2981H56.6441V58.3671H54.5751V56.2981ZM58.713 56.2981H60.782V58.3671H58.713V56.2981ZM0.781982 58.3671H2.85095V60.436H0.781982V58.3671ZM2.85095 58.3671H4.91991V60.436H2.85095V58.3671ZM4.91991 58.3671H6.98888V60.436H4.91991V58.3671ZM6.98888 58.3671H9.05784V60.436H6.98888V58.3671ZM9.05784 58.3671H11.1268V60.436H9.05784V58.3671ZM11.1268 58.3671H13.1958V60.436H11.1268V58.3671ZM13.1958 58.3671H15.2647V60.436H13.1958V58.3671ZM19.4027 58.3671H21.4716V60.436H19.4027V58.3671ZM21.4716 58.3671H23.5406V60.436H21.4716V58.3671ZM23.5406 58.3671H25.6096V60.436H23.5406V58.3671ZM33.8854 58.3671H35.9544V60.436H33.8854V58.3671ZM35.9544 58.3671H38.0234V60.436H35.9544V58.3671ZM40.0923 58.3671H42.1613V60.436H40.0923V58.3671ZM44.2303 58.3671H46.2992V60.436H44.2303V58.3671ZM46.2992 58.3671H48.3682V60.436H46.2992V58.3671ZM50.4372 58.3671H52.5061V60.436H50.4372V58.3671ZM54.5751 58.3671H56.6441V60.436H54.5751V58.3671Z" fill="#C1E7BB"/>
</svg>
