<svg width="203" height="136" viewBox="0 0 203 136" fill="none" xmlns="http://www.w3.org/2000/svg">
<path d="M194.367 59.8051H7.47415C3.36254 59.8051 0 56.4411 0 52.3295V7.47564C0 3.36404 3.36254 0 7.47415 0H194.367C198.478 0 201.842 3.36404 201.842 7.47564V52.3295C201.842 56.4411 198.478 59.8051 194.367 59.8051Z" fill="black"/>
<path d="M30.9064 29.1355L14.9878 46.0305C14.9893 46.0334 14.9893 46.0364 14.9908 46.0394C15.4782 47.8754 17.1542 49.2255 19.1428 49.2255C19.9382 49.2255 20.6842 49.0102 21.3241 48.6335L21.375 48.6036L39.2926 38.2648L30.9064 29.1355Z" fill="#EB4335"/>
<path d="M47.0006 26.2609L46.9857 26.2504L39.2499 21.765L30.5348 29.5202L39.2798 38.2638L46.9752 33.8247C48.3238 33.0966 49.2388 31.6747 49.2388 30.0346C49.2388 28.4064 48.3358 26.9905 47.0006 26.2609Z" fill="#FABC13"/>
<path d="M14.9825 13.9739C14.8868 14.3267 14.8359 14.696 14.8359 15.0803V44.9335C14.8359 45.3178 14.8853 45.6885 14.9825 46.0399L31.4483 29.577L14.9825 13.9739Z" fill="#547DBF"/>
<path d="M31.023 30.0008L39.2627 21.7641L21.3645 11.3879C20.7141 10.9977 19.9561 10.7734 19.1428 10.7734C17.1542 10.7734 15.4767 12.1265 14.9878 13.964V13.9685L31.023 30.0008Z" fill="#30A851"/>
<path d="M101.814 32.4486C98.2972 32.4486 95.431 35.1219 95.431 38.8074C95.431 42.469 98.2972 45.1662 101.814 45.1662C105.33 45.1662 108.196 42.469 108.196 38.8074C108.196 35.1219 105.33 32.4486 101.814 32.4486ZM101.814 42.6619C99.8865 42.6619 98.2239 41.0725 98.2239 38.8074C98.2239 36.5184 99.8865 34.953 101.814 34.953C103.741 34.953 105.402 36.5184 105.402 38.8074C105.402 41.071 103.741 42.6619 101.814 42.6619ZM87.8881 32.4486C84.3715 32.4486 81.5054 35.1219 81.5054 38.8074C81.5054 42.469 84.3715 45.1662 87.8881 45.1662C91.4046 45.1662 94.2708 42.469 94.2708 38.8074C94.2723 35.1219 91.4046 32.4486 87.8881 32.4486ZM87.8881 42.6619C85.9608 42.6619 84.2998 41.0725 84.2998 38.8074C84.2998 36.5184 85.9623 34.953 87.8881 34.953C89.8153 34.953 91.4764 36.5184 91.4764 38.8074C91.4779 41.071 89.8153 42.6619 87.8881 42.6619ZM71.325 34.3998V37.097H77.781C77.5881 38.6145 77.0828 39.7224 76.3113 40.4939C75.3723 41.4329 73.9026 42.469 71.325 42.469C67.351 42.469 64.2441 39.2649 64.2441 35.2909C64.2441 31.3168 67.351 28.1128 71.325 28.1128C73.4691 28.1128 75.0345 28.956 76.1902 30.04L78.0935 28.1367C76.4802 26.5952 74.3362 25.4141 71.325 25.4141C65.8813 25.4141 61.3047 29.8456 61.3047 35.2894C61.3047 40.7331 65.8813 45.1647 71.325 45.1647C74.263 45.1647 76.4802 44.2018 78.2146 42.3942C79.9968 40.612 80.5515 38.1062 80.5515 36.0833C80.5515 35.4568 80.5036 34.8782 80.4064 34.3968H71.325V34.3998ZM139.066 36.4945C138.537 35.0726 136.922 32.4471 133.623 32.4471C130.347 32.4471 127.626 35.0247 127.626 38.8059C127.626 42.3703 130.323 45.1647 133.937 45.1647C136.851 45.1647 138.537 43.3825 139.235 42.3464L137.067 40.9006C136.345 41.9606 135.357 42.6589 133.937 42.6589C132.515 42.6589 131.504 42.0085 130.854 40.7317L139.356 37.2151L139.066 36.4945ZM130.395 38.6145C130.323 36.1581 132.298 34.9051 133.718 34.9051C134.826 34.9051 135.765 35.4583 136.079 36.2537L130.395 38.6145ZM123.481 44.7805H126.275V26.0899H123.481V44.7805ZM118.905 33.869H118.809C118.182 33.1229 116.979 32.4471 115.461 32.4471C112.281 32.4471 109.367 35.2415 109.367 38.8298C109.367 42.3942 112.281 45.1647 115.461 45.1647C116.979 45.1647 118.182 44.4904 118.809 43.7189H118.905V44.6339C118.905 47.0665 117.604 48.3673 115.508 48.3673C113.797 48.3673 112.737 47.1383 112.304 46.1036L109.871 47.1159C110.569 48.8024 112.425 50.8731 115.508 50.8731C118.783 50.8731 121.554 48.9459 121.554 44.2497V32.8329H118.905V33.869ZM115.702 42.6619C113.775 42.6619 112.161 41.0486 112.161 38.8313C112.161 36.5916 113.775 34.953 115.702 34.953C117.605 34.953 119.097 36.5901 119.097 38.8313C119.097 41.0471 117.605 42.6619 115.702 42.6619ZM152.155 26.0899H145.47V44.7805H148.258V37.6995H152.153C155.245 37.6995 158.285 35.4613 158.285 31.8954C158.285 28.3296 155.247 26.0899 152.155 26.0899ZM152.226 35.098H148.258V28.6914H152.226C154.312 28.6914 155.496 30.4183 155.496 31.8954C155.496 33.3427 154.312 35.098 152.226 35.098ZM169.468 32.4143C167.448 32.4143 165.357 33.3039 164.491 35.2759L166.968 36.3106C167.498 35.2759 168.483 34.9395 169.518 34.9395C170.96 34.9395 172.427 35.8052 172.451 37.3437V37.5366C171.946 37.248 170.863 36.8144 169.542 36.8144C166.873 36.8144 164.155 38.2811 164.155 41.0232C164.155 43.5246 166.343 45.1348 168.795 45.1348C170.672 45.1348 171.705 44.293 172.354 43.3078H172.45V44.7506H175.142V37.5844C175.142 34.2652 172.666 32.4143 169.468 32.4143ZM169.13 42.6574C168.217 42.6574 166.941 42.1999 166.941 41.071C166.941 39.6282 168.529 39.075 169.899 39.075C171.125 39.075 171.702 39.3397 172.448 39.7C172.233 41.4314 170.742 42.6574 169.13 42.6574ZM184.953 32.8224L181.755 40.926H181.66L178.342 32.8224H175.337L180.314 44.148L177.476 50.4485H180.386L188.057 32.8224H184.953ZM159.825 44.7805H162.615V26.0899H159.825V44.7805Z" fill="white"/>
<path fillRule="evenodd" clipRule="evenodd" d="M110.056 18.2795C109.174 19.1871 108.078 19.6386 106.767 19.6386C105.456 19.6386 104.36 19.1856 103.479 18.2795C102.597 17.3735 102.158 16.2641 102.158 14.9529C102.158 13.6416 102.597 12.5322 103.479 11.6262C104.36 10.7186 105.456 10.2656 106.767 10.2656C108.071 10.2656 109.165 10.7216 110.051 11.6322C110.936 12.5427 111.378 13.6491 111.378 14.9529C111.378 16.2656 110.937 17.375 110.056 18.2795ZM104.33 17.529C104.994 18.2018 105.806 18.5367 106.767 18.5367C107.729 18.5367 108.54 18.2003 109.204 17.529C109.868 16.8562 110.202 15.9979 110.202 14.9543C110.202 13.9107 109.868 13.051 109.204 12.3797C108.542 11.7069 107.729 11.372 106.767 11.372C105.806 11.372 104.994 11.7084 104.33 12.3797C103.668 13.0525 103.334 13.9107 103.334 14.9543C103.334 15.9979 103.668 16.8562 104.33 17.529Z" fill="white"/>
<path d="M70.8976 15.3177C70.8976 16.5706 70.5268 17.5678 69.7837 18.3124C68.9404 19.1975 67.84 19.6401 66.4884 19.6401C65.1937 19.6401 64.0917 19.1915 63.1872 18.2945C62.2811 17.3959 61.8281 16.2835 61.8281 14.9558C61.8281 13.6267 62.2811 12.5143 63.1872 11.6172C64.0917 10.7186 65.1937 10.2701 66.4884 10.2701C67.1313 10.2701 67.7458 10.3957 68.3289 10.6454C68.9135 10.8966 69.3815 11.23 69.7314 11.6471L68.9434 12.4365C68.3499 11.7264 67.532 11.372 66.4869 11.372C65.542 11.372 64.7257 11.7039 64.0364 12.3678C63.3487 13.0316 63.0048 13.8928 63.0048 14.9543C63.0048 16.0159 63.3487 16.8771 64.0379 17.5424C64.7272 18.2062 65.5435 18.5382 66.4884 18.5382C67.4902 18.5382 68.326 18.2048 68.9943 17.5364C69.4279 17.1013 69.679 16.4958 69.7463 15.7199H66.4884V14.6404H70.8348C70.8781 14.8751 70.8976 15.1009 70.8976 15.3177Z" fill="white"/>
<path d="M77.7901 11.5709H73.7054V14.4146H77.3894V15.4926H73.7054V18.3363H77.7901V19.4397H72.5527V10.469H77.7901V11.5709Z" fill="white"/>
<path d="M81.4965 19.4397H82.6493V11.5709H85.1551V10.469H78.9907V11.5709H81.4965V19.4397Z" fill="white"/>
<path d="M89.6166 19.4397V10.469H90.7693V19.4397H89.6166Z" fill="white"/>
<path d="M94.7269 19.4397H95.8797V11.5709H98.3855V10.469H92.2211V11.5709H94.7269V19.4397Z" fill="white"/>
<path d="M112.996 10.469V19.4397H114.146V13.8509L114.096 12.1226H114.146L118.707 19.4397H119.911V10.469H118.758V15.7199L118.807 17.4482H118.758L114.398 10.469H112.996Z" fill="white"/>
<path fillRule="evenodd" clipRule="evenodd" d="M110.056 18.2795C109.174 19.1871 108.078 19.6386 106.767 19.6386C105.456 19.6386 104.36 19.1856 103.479 18.2795C102.597 17.3735 102.158 16.2641 102.158 14.9529C102.158 13.6416 102.597 12.5322 103.479 11.6262C104.36 10.7186 105.456 10.2656 106.767 10.2656C108.071 10.2656 109.165 10.7216 110.051 11.6322C110.936 12.5427 111.378 13.6491 111.378 14.9529C111.378 16.2656 110.937 17.375 110.056 18.2795ZM104.33 17.529C104.994 18.2018 105.806 18.5367 106.767 18.5367C107.729 18.5367 108.54 18.2003 109.204 17.529C109.868 16.8562 110.202 15.9979 110.202 14.9543C110.202 13.9107 109.868 13.051 109.204 12.3797C108.542 11.7069 107.729 11.372 106.767 11.372C105.806 11.372 104.994 11.7084 104.33 12.3797C103.668 13.0525 103.334 13.9107 103.334 14.9543C103.334 15.9979 103.668 16.8562 104.33 17.529Z" stroke="black"/>
<path d="M70.8976 15.3177C70.8976 16.5706 70.5268 17.5678 69.7837 18.3124C68.9404 19.1975 67.84 19.6401 66.4884 19.6401C65.1937 19.6401 64.0917 19.1915 63.1872 18.2945C62.2811 17.3959 61.8281 16.2835 61.8281 14.9558C61.8281 13.6267 62.2811 12.5143 63.1872 11.6172C64.0917 10.7186 65.1937 10.2701 66.4884 10.2701C67.1313 10.2701 67.7458 10.3957 68.3289 10.6454C68.9135 10.8966 69.3815 11.23 69.7314 11.6471L68.9434 12.4365C68.3499 11.7264 67.532 11.372 66.4869 11.372C65.542 11.372 64.7257 11.7039 64.0364 12.3678C63.3487 13.0316 63.0048 13.8928 63.0048 14.9543C63.0048 16.0159 63.3487 16.8771 64.0379 17.5424C64.7272 18.2062 65.5435 18.5382 66.4884 18.5382C67.4902 18.5382 68.326 18.2048 68.9943 17.5364C69.4279 17.1013 69.679 16.4958 69.7463 15.7199H66.4884V14.6404H70.8348C70.8781 14.8751 70.8976 15.1009 70.8976 15.3177Z" stroke="black"/>
<path d="M77.7901 11.5709H73.7054V14.4146H77.3894V15.4926H73.7054V18.3363H77.7901V19.4397H72.5527V10.469H77.7901V11.5709Z" stroke="black"/>
<path d="M81.4965 19.4397H82.6493V11.5709H85.1551V10.469H78.9907V11.5709H81.4965V19.4397Z" stroke="black"/>
<path d="M89.6166 19.4397V10.469H90.7693V19.4397H89.6166Z" stroke="black"/>
<path d="M94.7269 19.4397H95.8797V11.5709H98.3855V10.469H92.2211V11.5709H94.7269V19.4397Z" stroke="black"/>
<path d="M112.996 10.469V19.4397H114.146V13.8509L114.096 12.1226H114.146L118.707 19.4397H119.911V10.469H118.758V15.7199L118.807 17.4482H118.758L114.398 10.469H112.996Z" stroke="black"/>
<rect y="67.8052" width="202.267" height="67.6117" rx="8.45147" fill="black"/>
<path d="M71.5064 113.684H63.5055L61.5841 119.358H58.1953L65.7736 98.3677H69.2945L76.8727 119.358H73.4261L71.5064 113.684ZM64.3342 111.066H70.6762L67.5498 101.859H67.4622L64.3342 111.066Z" fill="white"/>
<path d="M93.2357 111.707C93.2357 116.462 90.6904 119.518 86.8492 119.518C85.8762 119.568 84.9085 119.344 84.057 118.871C83.2054 118.397 82.5044 117.694 82.0342 116.84H81.9616V124.42H78.8203V104.054H81.8609V106.599H81.9186C82.4104 105.75 83.1233 105.05 83.9813 104.574C84.8394 104.097 85.8105 103.862 86.7914 103.894C90.6755 103.894 93.2357 106.964 93.2357 111.707ZM90.007 111.707C90.007 108.608 88.4058 106.571 85.9628 106.571C83.5627 106.571 81.9484 108.651 81.9484 111.707C81.9484 114.79 83.5627 116.855 85.9628 116.855C88.4058 116.855 90.0069 114.833 90.0069 111.707H90.007Z" fill="white"/>
<path d="M110.08 111.707C110.08 116.462 107.534 119.518 103.693 119.518C102.72 119.568 101.752 119.344 100.901 118.871C100.049 118.397 99.3482 117.694 98.878 116.84H98.8053V124.42H95.6641V104.054H98.7046V106.599H98.7624C99.2542 105.75 99.967 105.05 100.825 104.574C101.683 104.097 102.654 103.862 103.635 103.894C107.519 103.894 110.08 106.964 110.08 111.707ZM106.851 111.707C106.851 108.608 105.25 106.571 102.807 106.571C100.407 106.571 98.7921 108.651 98.7921 111.707C98.7921 114.79 100.407 116.855 102.807 116.855C105.25 116.855 106.851 114.833 106.851 111.707Z" fill="white"/>
<path d="M121.216 113.508C121.448 115.589 123.47 116.956 126.234 116.956C128.881 116.956 130.786 115.589 130.786 113.712C130.786 112.083 129.637 111.108 126.917 110.439L124.197 109.784C120.342 108.853 118.553 107.05 118.553 104.125C118.553 100.504 121.709 98.0161 126.189 98.0161C130.626 98.0161 133.667 100.504 133.769 104.125H130.598C130.408 102.031 128.677 100.766 126.146 100.766C123.616 100.766 121.884 102.045 121.884 103.907C121.884 105.391 122.99 106.265 125.696 106.933L128.008 107.501C132.315 108.519 134.102 110.249 134.102 113.319C134.102 117.246 130.976 119.706 126.001 119.706C121.346 119.706 118.203 117.304 118 113.508L121.216 113.508Z" fill="white"/>
<path d="M140.889 100.43V104.052H143.799V106.539H140.889V114.976C140.889 116.287 141.472 116.897 142.751 116.897C143.096 116.891 143.441 116.867 143.784 116.825V119.297C143.209 119.405 142.625 119.453 142.04 119.443C138.941 119.443 137.733 118.279 137.733 115.311V106.539H135.508V104.052H137.733V100.43H140.889Z" fill="white"/>
<path d="M145.477 111.701C145.477 106.886 148.312 103.86 152.735 103.86C157.172 103.86 159.994 106.885 159.994 111.701C159.994 116.529 157.186 119.541 152.735 119.541C148.284 119.541 145.477 116.529 145.477 111.701ZM156.794 111.701C156.794 108.398 155.28 106.448 152.735 106.448C150.189 106.448 148.676 108.412 148.676 111.701C148.676 115.017 150.189 116.951 152.735 116.951C155.28 116.951 156.794 115.017 156.794 111.701H156.794Z" fill="white"/>
<path d="M162.586 104.054H165.582V106.659H165.655C165.857 105.845 166.334 105.126 167.004 104.623C167.675 104.119 168.498 103.862 169.336 103.894C169.698 103.893 170.059 103.932 170.412 104.011V106.949C169.955 106.81 169.478 106.745 169 106.759C168.544 106.741 168.089 106.821 167.667 106.995C167.245 107.169 166.865 107.432 166.554 107.767C166.243 108.101 166.008 108.499 165.865 108.933C165.723 109.367 165.676 109.826 165.727 110.28V119.357H162.586L162.586 104.054Z" fill="white"/>
<path d="M184.898 114.857C184.476 117.635 181.77 119.541 178.309 119.541C173.857 119.541 171.094 116.559 171.094 111.773C171.094 106.973 173.872 103.86 178.177 103.86C182.411 103.86 185.073 106.768 185.073 111.408V112.485H174.265V112.674C174.215 113.238 174.285 113.805 174.472 114.339C174.658 114.873 174.955 115.361 175.345 115.771C175.734 116.181 176.206 116.503 176.73 116.717C177.253 116.93 177.816 117.03 178.382 117.009C179.124 117.079 179.869 116.907 180.505 116.519C181.142 116.131 181.637 115.548 181.916 114.857L184.898 114.857ZM174.28 110.289H181.93C181.959 109.783 181.882 109.276 181.705 108.801C181.528 108.325 181.255 107.892 180.902 107.527C180.55 107.162 180.126 106.874 179.657 106.681C179.188 106.488 178.684 106.394 178.177 106.405C177.665 106.402 177.158 106.5 176.685 106.694C176.211 106.888 175.781 107.174 175.419 107.535C175.057 107.896 174.769 108.326 174.574 108.798C174.378 109.271 174.278 109.778 174.28 110.289V110.289Z" fill="white"/>
<path d="M63.9321 82.5588C64.5907 82.5115 65.2515 82.611 65.867 82.8501C66.4824 83.0892 67.0371 83.4618 67.4911 83.9413C67.9451 84.4207 68.287 84.9949 68.4923 85.6224C68.6975 86.25 68.7608 86.9152 68.6778 87.5703C68.6778 90.7924 66.9363 92.6445 63.9321 92.6445H60.2891V82.5588H63.9321ZM61.8555 91.2182H63.7571C64.2277 91.2463 64.6986 91.1692 65.1356 90.9923C65.5727 90.8155 65.9647 90.5434 66.2833 90.196C66.602 89.8485 66.8391 89.4344 66.9774 88.9837C67.1158 88.533 67.152 88.0572 67.0832 87.5908C67.147 87.1263 67.1072 86.6534 66.9667 86.206C66.8262 85.7586 66.5885 85.3479 66.2706 85.0032C65.9527 84.6585 65.5625 84.3884 65.128 84.2122C64.6934 84.036 64.2253 83.9581 63.7571 83.9841H61.8555V91.2182Z" fill="white"/>
<path d="M70.4467 88.8403C70.3988 88.3401 70.456 87.8354 70.6147 87.3586C70.7733 86.8819 71.0298 86.4435 71.3677 86.0717C71.7057 85.6998 72.1177 85.4027 72.5772 85.1994C73.0367 84.9961 73.5336 84.8911 74.0361 84.8911C74.5385 84.8911 75.0355 84.9961 75.495 85.1994C75.9545 85.4027 76.3664 85.6998 76.7044 86.0717C77.0423 86.4435 77.2989 86.8819 77.4575 87.3586C77.6161 87.8354 77.6733 88.3401 77.6255 88.8403C77.6742 89.341 77.6177 89.8463 77.4595 90.3239C77.3013 90.8014 77.0449 91.2406 76.7069 91.6132C76.3688 91.9857 75.9566 92.2835 75.4966 92.4872C75.0366 92.6909 74.5391 92.7962 74.0361 92.7962C73.533 92.7962 73.0355 92.6909 72.5755 92.4872C72.1155 92.2835 71.7033 91.9857 71.3652 91.6132C71.0272 91.2406 70.7708 90.8014 70.6126 90.3239C70.4544 89.8463 70.3979 89.341 70.4467 88.8403ZM76.0804 88.8403C76.0804 87.1904 75.3393 86.2256 74.0385 86.2256C72.7329 86.2256 71.9984 87.1904 71.9984 88.8403C71.9984 90.5034 72.7329 91.4607 74.0385 91.4607C75.3393 91.4607 76.0804 90.4967 76.0804 88.8403H76.0804Z" fill="white"/>
<path d="M87.169 92.643H85.6108L84.0377 87.0373H83.9188L82.3523 92.643H80.8089L78.7109 85.0317H80.2345L81.598 90.8396H81.7102L83.2751 85.0317H84.7161L86.2809 90.8396H86.3998L87.7566 85.0317H89.2588L87.169 92.643Z" fill="white"/>
<path d="M91.0235 85.0299H92.4694V86.239H92.5817C92.7721 85.8047 93.0933 85.4407 93.5004 85.1976C93.9076 84.9546 94.3804 84.8446 94.853 84.883C95.2234 84.8551 95.5952 84.911 95.941 85.0464C96.2869 85.1817 96.5978 85.3932 96.8508 85.6651C97.1038 85.937 97.2924 86.2623 97.4026 86.6169C97.5128 86.9716 97.5418 87.3465 97.4875 87.7139V92.6411H95.9854V88.0911C95.9854 86.8679 95.4539 86.2597 94.343 86.2597C94.0915 86.2479 93.8405 86.2907 93.6071 86.3851C93.3738 86.4795 93.1636 86.6232 92.991 86.8064C92.8184 86.9896 92.6874 87.208 92.6071 87.4465C92.5267 87.6851 92.4989 87.9382 92.5255 88.1885V92.6412H91.0234L91.0235 85.0299Z" fill="white"/>
<path d="M99.8828 82.063H101.385V92.6455H99.8828V82.063Z" fill="white"/>
<path d="M103.47 88.8404C103.422 88.3402 103.48 87.8355 103.638 87.3587C103.797 86.8819 104.053 86.4435 104.391 86.0717C104.729 85.6998 105.141 85.4027 105.601 85.1994C106.06 84.9961 106.557 84.8911 107.06 84.8911C107.562 84.8911 108.059 84.9961 108.519 85.1994C108.978 85.4027 109.39 85.6998 109.728 86.0717C110.066 86.4435 110.323 86.8819 110.482 87.3587C110.64 87.8355 110.697 88.3402 110.65 88.8404C110.698 89.3411 110.642 89.8465 110.484 90.3241C110.325 90.8016 110.069 91.2408 109.731 91.6133C109.393 91.9859 108.98 92.2836 108.52 92.4873C108.06 92.691 107.563 92.7963 107.06 92.7963C106.557 92.7963 106.059 92.691 105.599 92.4873C105.139 92.2836 104.727 91.9859 104.389 91.6133C104.051 91.2408 103.794 90.8016 103.636 90.3241C103.478 89.8465 103.421 89.3411 103.47 88.8404ZM109.104 88.8404C109.104 87.1906 108.363 86.2258 107.062 86.2258C105.756 86.2258 105.022 87.1906 105.022 88.8404C105.022 90.5035 105.756 91.4609 107.062 91.4609C108.363 91.4609 109.104 90.4969 109.104 88.8404H109.104Z" fill="white"/>
<path d="M112.234 90.4968C112.234 89.1267 113.254 88.3369 115.065 88.2246L117.127 88.1058V87.4488C117.127 86.6449 116.595 86.191 115.569 86.191C114.73 86.191 114.149 86.4989 113.982 87.037H112.528C112.682 85.7297 113.911 84.8911 115.638 84.8911C117.546 84.8911 118.622 85.8411 118.622 87.4488V92.6493H117.177V91.5797H117.058C116.816 91.9633 116.478 92.2761 116.076 92.4861C115.674 92.696 115.224 92.7956 114.771 92.7747C114.452 92.8079 114.129 92.7738 113.823 92.6746C113.518 92.5754 113.237 92.4133 112.998 92.1986C112.758 91.984 112.567 91.7217 112.436 91.4286C112.304 91.1355 112.236 90.818 112.234 90.4968ZM117.127 89.8464V89.2101L115.268 89.3289C114.22 89.3991 113.745 89.7556 113.745 90.4266C113.745 91.1117 114.339 91.5103 115.156 91.5103C115.396 91.5345 115.637 91.5104 115.867 91.4392C116.097 91.3681 116.31 91.2514 116.494 91.0962C116.678 90.9409 116.829 90.7503 116.938 90.5356C117.046 90.3209 117.111 90.0865 117.127 89.8464Z" fill="white"/>
<path d="M120.594 88.8366C120.594 86.4315 121.83 84.908 123.753 84.908C124.229 84.886 124.701 85 125.114 85.2364C125.528 85.4729 125.865 85.8221 126.087 86.2433H126.199V82.063H127.702V92.6455H126.262V91.4429H126.143C125.904 91.8613 125.555 92.2062 125.133 92.4402C124.712 92.6743 124.235 92.7887 123.753 92.7709C121.817 92.771 120.594 91.2474 120.594 88.8366ZM122.145 88.8366C122.145 90.4509 122.906 91.4224 124.179 91.4224C125.445 91.4224 126.228 90.4369 126.228 88.8432C126.228 87.2569 125.437 86.2574 124.179 86.2574C122.915 86.2574 122.145 87.2354 122.145 88.8366H122.145Z" fill="white"/>
<path d="M133.915 88.8403C133.868 88.3401 133.925 87.8354 134.083 87.3586C134.242 86.8819 134.499 86.4435 134.836 86.0717C135.174 85.6998 135.586 85.4027 136.046 85.1994C136.505 84.9961 137.002 84.8911 137.505 84.8911C138.007 84.8911 138.504 84.9961 138.964 85.1994C139.423 85.4027 139.835 85.6998 140.173 86.0717C140.511 86.4435 140.768 86.8819 140.926 87.3586C141.085 87.8354 141.142 88.3401 141.094 88.8403C141.143 89.341 141.086 89.8463 140.928 90.3239C140.77 90.8014 140.514 91.2406 140.176 91.6132C139.838 91.9857 139.425 92.2835 138.965 92.4872C138.505 92.6909 138.008 92.7962 137.505 92.7962C137.002 92.7962 136.504 92.6909 136.044 92.4872C135.584 92.2835 135.172 91.9857 134.834 91.6132C134.496 91.2406 134.24 90.8014 134.081 90.3239C133.923 89.8463 133.867 89.341 133.915 88.8403ZM139.549 88.8403C139.549 87.1904 138.808 86.2256 137.507 86.2256C136.202 86.2256 135.467 87.1904 135.467 88.8403C135.467 90.5034 136.202 91.4607 137.507 91.4607C138.808 91.4607 139.549 90.4967 139.549 88.8403Z" fill="white"/>
<path d="M143.109 85.0299H144.555V86.239H144.668C144.858 85.8047 145.179 85.4407 145.586 85.1976C145.993 84.9546 146.466 84.8446 146.939 84.883C147.309 84.8551 147.681 84.911 148.027 85.0464C148.373 85.1817 148.684 85.3932 148.937 85.6651C149.19 85.937 149.378 86.2623 149.489 86.6169C149.599 86.9716 149.628 87.3465 149.573 87.7139V92.6411H148.071V88.0911C148.071 86.8679 147.54 86.2597 146.429 86.2597C146.177 86.2479 145.926 86.2907 145.693 86.3851C145.46 86.4795 145.25 86.6232 145.077 86.8064C144.904 86.9896 144.773 87.208 144.693 87.4465C144.613 87.6851 144.585 87.9382 144.611 88.1885V92.6412H143.109V85.0299Z" fill="white"/>
<path d="M158.064 83.1411V85.0708H159.713V86.336H158.064V90.2498C158.064 91.047 158.392 91.3961 159.14 91.3961C159.331 91.3955 159.523 91.384 159.713 91.3615V92.6127C159.443 92.6609 159.17 92.6866 158.896 92.6894C157.225 92.6894 156.56 92.1018 156.56 90.6344V86.3359H155.352V85.0707H156.56V83.1411H158.064Z" fill="white"/>
<path d="M161.765 82.063H163.254V86.2574H163.373C163.573 85.819 163.903 85.4529 164.318 85.2089C164.733 84.965 165.214 84.8549 165.694 84.8939C166.062 84.8739 166.431 84.9354 166.773 85.074C167.114 85.2127 167.422 85.4251 167.672 85.6962C167.922 85.9672 168.11 86.2901 168.221 86.6419C168.332 86.9937 168.364 87.3657 168.315 87.7314V92.6455H166.812V88.102C166.812 86.8863 166.245 86.2706 165.184 86.2706C164.926 86.2494 164.666 86.2849 164.423 86.3745C164.18 86.4642 163.96 86.6059 163.777 86.7897C163.595 86.9735 163.454 87.195 163.366 87.4386C163.278 87.6822 163.245 87.9422 163.268 88.2002V92.6455H161.765L161.765 82.063Z" fill="white"/>
<path d="M177.073 90.5943C176.869 91.2899 176.427 91.8917 175.824 92.2942C175.221 92.6967 174.496 92.8745 173.775 92.7963C173.274 92.8096 172.775 92.7135 172.315 92.5149C171.854 92.3162 171.442 92.0197 171.108 91.6459C170.773 91.2721 170.524 90.83 170.377 90.3503C170.231 89.8705 170.19 89.3646 170.259 88.8677C170.192 88.3693 170.233 87.8623 170.38 87.3811C170.526 86.8999 170.774 86.4558 171.106 86.0787C171.439 85.7017 171.849 85.4005 172.308 85.1956C172.768 84.9908 173.265 84.887 173.768 84.8912C175.886 84.8912 177.164 86.3381 177.164 88.7282V89.2523H171.789V89.3365C171.766 89.6158 171.801 89.897 171.892 90.1619C171.984 90.4269 172.13 90.6698 172.32 90.8751C172.511 91.0804 172.743 91.2435 173.001 91.3541C173.258 91.4646 173.536 91.5201 173.816 91.517C174.176 91.5601 174.54 91.4954 174.862 91.3311C175.184 91.1668 175.451 90.9103 175.627 90.5943L177.073 90.5943ZM171.789 88.1414H175.634C175.653 87.886 175.618 87.6294 175.532 87.3881C175.446 87.1469 175.31 86.9264 175.133 86.7407C174.957 86.555 174.744 86.4083 174.507 86.3099C174.271 86.2116 174.016 86.1638 173.76 86.1697C173.5 86.1664 173.242 86.2152 173.002 86.3132C172.761 86.4111 172.543 86.5562 172.359 86.74C172.175 86.9237 172.03 87.1424 171.932 87.3831C171.834 87.6238 171.786 87.8816 171.789 88.1414H171.789Z" fill="white"/>
<path d="M42.2518 101.42C42.2707 99.9526 42.6604 98.5141 43.3847 97.2381C44.1089 95.962 45.1441 94.8899 46.394 94.1215C45.6 92.9875 44.5525 92.0542 43.3347 91.3959C42.1169 90.7375 40.7624 90.3722 39.3787 90.3289C36.427 90.0191 33.5655 92.0951 32.0614 92.0951C30.5282 92.0951 28.2124 90.3597 25.7186 90.411C24.1056 90.4631 22.5336 90.9321 21.1557 91.7724C19.7779 92.6127 18.6412 93.7956 17.8564 95.2058C14.4571 101.091 16.9927 109.741 20.2491 114.499C21.8783 116.828 23.7824 119.431 26.2739 119.338C28.712 119.237 29.6226 117.784 32.5655 117.784C35.4812 117.784 36.3355 119.338 38.8775 119.28C41.4937 119.237 43.142 116.94 44.7141 114.588C45.8847 112.928 46.7855 111.094 47.3831 109.152C45.8632 108.509 44.5661 107.433 43.6536 106.058C42.7411 104.683 42.2536 103.07 42.2518 101.42Z" fill="white"/>
<path d="M37.4487 87.2064C38.8752 85.494 39.578 83.293 39.4078 81.0708C37.2285 81.2997 35.2154 82.3412 33.7697 83.9879C33.0629 84.7924 32.5215 85.7283 32.1765 86.7421C31.8316 87.7559 31.6898 88.8277 31.7594 89.8964C32.8494 89.9076 33.9278 89.6713 34.9133 89.2054C35.8988 88.7394 36.7657 88.0559 37.4487 87.2064Z" fill="white"/>
</svg>
