<svg width="72" height="72" viewBox="0 0 72 72" fill="none" xmlns="http://www.w3.org/2000/svg">
<path d="M29.0381 72L25.1907 68.1527L30.1373 63.2061H12.1831V57.7099H30.1373L25.1907 52.7634L29.0381 48.916L40.5801 60.458L29.0381 72ZM12.1831 53.1298V6.59542C12.1831 4.76336 12.8243 3.20611 14.1068 1.92366C15.3892 0.641222 16.9465 0 18.7785 0H53.2213C55.0533 0 56.6106 0.641222 57.893 1.92366C59.1755 3.20611 59.8167 4.76336 59.8167 6.59542V53.1298H54.3205V45.1603C51.9388 43.5725 49.1297 42.3353 45.893 41.4486C42.6564 40.5643 39.3587 40.1221 35.9999 40.1221C32.6411 40.1221 29.3434 40.5643 26.1068 41.4486C22.8701 42.3353 20.061 43.5725 17.6793 45.1603V52.9466L17.4961 53.1298H12.1831ZM17.6793 40.0305C20.4884 38.687 23.4967 37.6489 26.704 36.916C29.9089 36.1832 33.0075 35.8168 35.9999 35.8168C38.9923 35.8168 42.0921 36.1832 45.2994 36.916C48.5043 37.6489 51.5114 38.687 54.3205 40.0305V6.59542C54.3205 6.35115 54.1984 6.10687 53.9541 5.8626C53.7098 5.61832 53.4656 5.49618 53.2213 5.49618H18.7785C18.5343 5.49618 18.29 5.61832 18.0457 5.8626C17.8014 6.10687 17.6793 6.35115 17.6793 6.59542V40.0305ZM43.3281 63.2061V57.7099H59.8167V63.2061H43.3281ZM35.9999 31.0534C33.1907 31.0534 30.8091 30.0763 28.8549 28.1221C26.9007 26.1679 25.9236 23.7863 25.9236 20.9771C25.9236 18.1679 26.9007 15.7863 28.8549 13.8321C30.8091 11.8779 33.1907 10.9008 35.9999 10.9008C38.8091 10.9008 41.1907 11.8779 43.1449 13.8321C45.0991 15.7863 46.0762 18.1679 46.0762 20.9771C46.0762 23.7863 45.0991 26.1679 43.1449 28.1221C41.1907 30.0763 38.8091 31.0534 35.9999 31.0534ZM35.9999 25.5573C37.2823 25.5573 38.3657 25.1151 39.25 24.2308C40.1367 23.3441 40.5801 22.2595 40.5801 20.9771C40.5801 19.6947 40.1367 18.6101 39.25 17.7234C38.3657 16.8391 37.2823 16.3969 35.9999 16.3969C34.7175 16.3969 33.6341 16.8391 32.7498 17.7234C31.8631 18.6101 31.4197 19.6947 31.4197 20.9771C31.4197 22.2595 31.8631 23.3441 32.7498 24.2308C33.6341 25.1151 34.7175 25.5573 35.9999 25.5573Z" fill="#4CA771"/>
</svg>
