<svg width="458" height="502" viewBox="0 0 458 502" fill="none" xmlns="http://www.w3.org/2000/svg">
<path d="M193.91 52.543H156.902C156.874 52.5428 156.848 52.5347 156.825 52.5195C156.803 52.5043 156.785 52.4828 156.775 52.4577C156.765 52.4327 156.763 52.4054 156.768 52.3791C156.774 52.3527 156.787 52.3285 156.805 52.3093C157.02 52.0948 157.589 51.468 157.674 51.1271C157.798 50.6349 159.362 50.4947 160.047 50.459C160.405 50.341 160.733 50.146 161.008 49.8876C161.283 49.6292 161.499 49.3138 161.639 48.9634C162.013 47.9406 163.712 47.7702 164.954 47.6465C165.347 47.6052 165.686 47.5722 165.928 47.52C166.278 47.4334 166.606 47.271 166.887 47.0444C166.916 47.022 166.953 47.0121 166.99 47.0167C167.026 47.0214 167.059 47.0402 167.082 47.0691C167.104 47.0979 167.114 47.1344 167.11 47.1704C167.105 47.2065 167.086 47.2393 167.057 47.2615C166.744 47.5147 166.378 47.6942 165.985 47.7867C165.653 47.8483 165.318 47.8924 164.982 47.9186C163.813 48.0369 162.21 48.1936 161.897 49.0568C161.744 49.4524 161.504 49.8082 161.194 50.0977C160.884 50.3871 160.512 50.6028 160.107 50.7284H160.08C158.98 50.7834 157.988 51.0033 157.941 51.1903C157.775 51.5917 157.531 51.9562 157.223 52.2625H193.83C194.02 51.9244 194.768 50.3188 193.025 48.7682C192.2 48.0369 191.015 48.2183 189.97 48.3613C188.84 48.5262 187.771 48.6829 187.537 47.5585C187.53 47.522 187.537 47.4842 187.558 47.4532C187.578 47.4223 187.611 47.4008 187.647 47.3935C187.683 47.3862 187.721 47.3937 187.752 47.4143C187.783 47.435 187.805 47.467 187.812 47.5035C187.985 48.3283 188.694 48.2705 189.934 48.0891C191.034 47.9296 192.293 47.7454 193.214 48.562C195.315 50.4315 194.039 52.455 194.039 52.4742C194.026 52.4969 194.008 52.5155 193.985 52.5277C193.962 52.5399 193.936 52.5452 193.91 52.543Z" fill="#263238"/>
<path d="M167.95 46.2216C167.922 46.2211 167.895 46.2125 167.873 46.1969C167.858 46.187 167.845 46.1741 167.835 46.1591C167.825 46.1441 167.818 46.1273 167.815 46.1096C167.811 46.0919 167.812 46.0737 167.816 46.0562C167.819 46.0386 167.827 46.0219 167.837 46.0072C168.165 45.5127 168.442 44.9857 168.662 44.4346C168.792 44.0889 168.996 43.776 169.261 43.5185C169.526 43.2609 169.844 43.0649 170.193 42.9445C171.318 42.5568 172.852 42.862 174.515 43.8023C175.554 44.3879 176.272 44.5776 176.78 44.3989C177.385 44.1872 177.679 43.4476 178.056 42.5128C178.519 41.4613 179.377 40.6345 180.445 40.2117C181.066 39.9568 181.733 39.8319 182.404 39.8446C183.075 39.8574 183.736 40.0076 184.347 40.2859C186.147 41.0475 187.041 43.0627 187.472 44.6216C187.478 44.6387 187.479 44.6567 187.477 44.6744C187.475 44.6922 187.47 44.7094 187.461 44.725C187.452 44.7406 187.44 44.7543 187.426 44.7653C187.412 44.7764 187.396 44.7845 187.379 44.7893C187.362 44.7943 187.343 44.7957 187.325 44.7936C187.307 44.7915 187.29 44.7857 187.274 44.7768C187.258 44.7678 187.244 44.7558 187.233 44.7415C187.222 44.7271 187.213 44.7106 187.209 44.693C186.793 43.1947 185.941 41.2592 184.239 40.5388C183.662 40.2751 183.037 40.1325 182.402 40.1197C181.768 40.107 181.137 40.2243 180.55 40.4646C179.553 40.8654 178.751 41.6357 178.309 42.6146C177.927 43.5741 177.594 44.4044 176.871 44.6573C176.283 44.8635 175.497 44.6573 174.38 44.0415C172.786 43.1397 171.331 42.8428 170.284 43.2167C169.97 43.3232 169.684 43.4981 169.446 43.7287C169.209 43.9593 169.025 44.2399 168.909 44.5501C168.68 45.1181 168.395 45.6615 168.057 46.1722C168.044 46.1876 168.027 46.2 168.009 46.2085C167.99 46.217 167.97 46.2215 167.95 46.2216Z" fill="#263238"/>
<path d="M31.3736 11.8783H13.465C13.4142 11.8783 13.3655 11.8581 13.3295 11.8222C13.2936 11.7862 13.2734 11.7375 13.2734 11.6867C13.2734 11.6359 13.2936 11.5872 13.3295 11.5513C13.3655 11.5154 13.4142 11.4952 13.465 11.4952H31.2625C31.4387 11.1543 31.9444 9.89779 30.5768 8.68345C29.9103 8.08968 28.9296 8.23142 28.0639 8.35783C27.2977 8.46509 26.6082 8.56852 26.2021 8.16247C25.911 7.87133 25.8191 7.39632 25.934 6.63018C25.8995 6.31606 25.4437 2.71134 23.1912 1.75749C22.587 1.48177 21.9215 1.36787 21.26 1.42697C20.5985 1.48607 19.9637 1.71613 19.4179 2.09459C19.3765 2.12369 19.3254 2.13556 19.2753 2.1277C19.2253 2.11984 19.1803 2.09286 19.1498 2.05245C19.1351 2.03187 19.1246 2.00858 19.119 1.98392C19.1133 1.95926 19.1126 1.93373 19.1169 1.9088C19.1211 1.88387 19.1303 1.86003 19.1439 1.83866C19.1574 1.81729 19.175 1.79882 19.1957 1.7843C19.7932 1.36458 20.4901 1.10841 21.2172 1.04121C21.9443 0.974009 22.6763 1.09812 23.3406 1.40123C25.8957 2.4815 26.3017 6.4463 26.3171 6.61485C26.319 6.63011 26.319 6.64556 26.3171 6.66082C26.2251 7.2814 26.2788 7.69512 26.4741 7.89048C26.7423 8.16246 27.3284 8.07819 28.0064 7.97859C28.9105 7.84835 30.029 7.68363 30.8335 8.39614C32.6493 10.0127 31.546 11.771 31.5345 11.7902C31.5167 11.8167 31.4928 11.8385 31.4648 11.8538C31.4368 11.8692 31.4055 11.8776 31.3736 11.8783Z" fill="#263238"/>
<path d="M10.6626 11.8734H0.189421C0.151607 11.8732 0.114695 11.8618 0.0833362 11.8407C0.0519778 11.8196 0.0275771 11.7896 0.013208 11.7546C-0.000318997 11.7198 -0.00353845 11.6817 0.00393166 11.645C0.0114018 11.6084 0.0292473 11.5746 0.0553463 11.5478C0.349561 11.2735 0.59105 10.9476 0.767862 10.5863C0.875122 10.1611 1.94006 10.0155 2.82879 9.9657C3.11796 9.86959 3.38264 9.71145 3.60431 9.50236C3.82597 9.29327 3.99928 9.03826 4.11209 8.75519C4.44153 7.84731 5.90104 7.70174 6.96981 7.60597C7.24098 7.58485 7.5108 7.54904 7.7781 7.49871C8.62852 7.31101 9.42531 6.40312 10.0267 4.94362C10.1425 4.64338 10.3219 4.37181 10.5527 4.14762C10.7835 3.92343 11.0602 3.75195 11.3637 3.645C12.3328 3.31172 13.6621 3.56838 15.068 4.37284C15.9107 4.84785 16.5122 5.01257 16.9144 4.87083C17.3932 4.70228 17.6346 4.10469 17.9448 3.33854C17.9644 3.29192 18.0013 3.25469 18.0477 3.23469C18.0941 3.21469 18.1465 3.21347 18.1938 3.23128C18.2404 3.25077 18.2774 3.28787 18.2968 3.3345C18.3162 3.38113 18.3163 3.43352 18.2973 3.48028C17.9678 4.30771 17.6844 5.01257 17.0408 5.24624C16.5236 5.43012 15.8379 5.24624 14.8803 4.72143C13.5548 3.95529 12.352 3.72544 11.4901 4.02424C11.237 4.11097 11.0064 4.25288 10.8149 4.43972C10.6234 4.62655 10.4759 4.85363 10.383 5.10451C9.54789 7.12713 8.5519 7.73622 7.86237 7.88945C7.58016 7.94389 7.29487 7.98098 7.00812 8.00054C6.04277 8.10013 4.70968 8.23038 4.47218 8.91225C4.33801 9.25623 4.12824 9.56564 3.85836 9.81761C3.58849 10.0696 3.26543 10.2577 2.91307 10.3679H2.87093C2.03966 10.4139 1.22755 10.5748 1.13561 10.7127C1.01825 11.0018 0.846603 11.2658 0.629955 11.4903H10.6626C10.7134 11.4903 10.7621 11.5105 10.7981 11.5464C10.834 11.5823 10.8542 11.6311 10.8542 11.6819C10.8542 11.7327 10.834 11.7814 10.7981 11.8173C10.7621 11.8532 10.7134 11.8734 10.6626 11.8734Z" fill="#263238"/>
<path d="M359.171 18.5639H328.57C328.483 18.5639 328.4 18.5294 328.338 18.468C328.277 18.4065 328.242 18.3232 328.242 18.2364C328.242 18.1495 328.277 18.0662 328.338 18.0047C328.4 17.9433 328.483 17.9088 328.57 17.9088H359.001C359.308 17.3257 360.173 15.1769 357.834 13.1001C356.695 12.0847 355.017 12.3271 353.537 12.5433C352.227 12.7267 351.047 12.9036 350.346 12.2092C349.855 11.7113 349.691 10.8989 349.894 9.58864C349.829 9.05143 349.056 2.88665 345.204 1.25538C344.17 0.783838 343.032 0.589047 341.901 0.690119C340.769 0.79119 339.684 1.18465 338.751 1.83189C338.68 1.88165 338.592 1.90195 338.507 1.8885C338.421 1.87506 338.344 1.82893 338.292 1.75982C338.267 1.72462 338.249 1.68478 338.239 1.64261C338.23 1.60045 338.228 1.55678 338.236 1.51414C338.243 1.47151 338.259 1.43074 338.282 1.3942C338.305 1.35765 338.335 1.32606 338.371 1.30123C339.392 0.583421 340.584 0.145312 341.828 0.0303898C343.071 -0.0845325 344.323 0.127728 345.459 0.646104C349.829 2.49357 350.523 9.27417 350.549 9.56242V9.64105C350.392 10.7024 350.477 11.4099 350.811 11.744C351.277 12.2092 352.279 12.065 353.432 11.8947C354.972 11.672 356.891 11.3902 358.26 12.6088C361.372 15.3734 359.479 18.3805 359.459 18.4132C359.428 18.4613 359.386 18.5005 359.335 18.5269C359.284 18.5533 359.228 18.5661 359.171 18.5639Z" fill="#263238"/>
<path d="M323.795 18.5587H305.857C305.793 18.5584 305.73 18.539 305.676 18.5028C305.622 18.4667 305.581 18.4155 305.556 18.3556C305.531 18.2962 305.525 18.2308 305.538 18.1677C305.551 18.1046 305.582 18.0468 305.628 18.0019C306.129 17.531 306.542 16.9741 306.847 16.3575C307.024 15.6303 308.851 15.3813 310.371 15.2962C310.865 15.1306 311.317 14.8598 311.696 14.5023C312.075 14.1449 312.372 13.7094 312.566 13.226C313.129 11.6733 315.625 11.4244 317.447 11.2606C317.913 11.2239 318.376 11.1627 318.836 11.0771C320.29 10.7561 321.653 9.20347 322.681 6.70742C322.879 6.19396 323.186 5.72952 323.581 5.34611C323.975 4.9627 324.449 4.66943 324.968 4.48652C326.619 3.91656 328.898 4.3555 331.303 5.73127C332.738 6.54364 333.773 6.82534 334.461 6.58295C335.273 6.29469 335.692 5.27268 336.216 3.96242C336.249 3.88163 336.313 3.81726 336.393 3.78347C336.474 3.74968 336.565 3.74925 336.645 3.78226C336.726 3.81527 336.791 3.87903 336.824 3.9595C336.858 4.03998 336.859 4.13058 336.826 4.21137C336.262 5.6199 335.771 6.83189 334.677 7.22497C333.792 7.53943 332.613 7.22497 330.975 6.32744C328.715 5.01718 326.651 4.62411 325.177 5.13511C324.746 5.28545 324.352 5.52887 324.025 5.84813C323.698 6.16739 323.445 6.55468 323.284 6.98258C321.862 10.4417 320.159 11.4833 318.98 11.7454C318.495 11.838 318.005 11.9014 317.512 11.9354C315.861 12.1057 313.581 12.3284 313.182 13.4946C312.951 14.0833 312.591 14.6127 312.129 15.0436C311.666 15.4745 311.112 15.7959 310.509 15.9841H310.443C309.022 16.0627 307.633 16.3378 307.476 16.5737C307.277 17.0823 306.981 17.5474 306.604 17.9429H323.795C323.882 17.9429 323.965 17.9774 324.027 18.0389C324.088 18.1003 324.123 18.1836 324.123 18.2705C324.123 18.3573 324.088 18.4407 324.027 18.5021C323.965 18.5635 323.882 18.598 323.795 18.598V18.5587Z" fill="#263238"/>
<path d="M457.578 61.1858H450.26C450.216 61.1858 450.174 61.1683 450.143 61.1373C450.112 61.1062 450.095 61.064 450.095 61.0201C450.095 60.9761 450.112 60.934 450.143 60.9029C450.174 60.8718 450.216 60.8544 450.26 60.8544H457.482C457.634 60.5594 458.072 59.4724 456.889 58.4185C456.312 57.9048 455.464 58.0307 454.715 58.1401C454.052 58.2329 453.455 58.3224 453.104 57.9711C452.852 57.7192 452.772 57.3082 452.872 56.6454C452.842 56.3736 452.448 53.2517 450.499 52.4298C450.085 52.2384 449.635 52.1346 449.179 52.1249C448.723 52.1152 448.27 52.1998 447.848 52.3734C447.137 52.6594 446.564 53.2077 446.247 53.9046C445.962 54.6204 445.713 55.2303 445.16 55.4324C444.712 55.5915 444.116 55.4324 443.291 54.9784C442.144 54.3155 441.103 54.1167 440.358 54.3752C440.139 54.4502 439.939 54.573 439.773 54.7346C439.608 54.8963 439.48 55.0927 439.4 55.3098C438.677 57.0597 437.816 57.5866 437.219 57.7192C436.975 57.7646 436.728 57.7967 436.48 57.8153C435.645 57.8982 434.491 58.0141 434.286 58.6041C434.171 58.9018 433.99 59.1695 433.756 59.3871C433.522 59.6046 433.242 59.7664 432.937 59.8601H432.901C432.182 59.8999 431.479 60.0391 431.399 60.1584C431.299 60.4152 431.151 60.6504 430.962 60.8511H447.814C447.858 60.8511 447.901 60.8685 447.932 60.8996C447.963 60.9307 447.98 60.9728 447.98 61.0168C447.98 61.0607 447.963 61.1029 447.932 61.134C447.901 61.165 447.858 61.1825 447.814 61.1825H430.581C430.548 61.1827 430.515 61.173 430.488 61.1546C430.46 61.1362 430.439 61.1099 430.426 61.0792C430.414 61.0486 430.411 61.0149 430.418 60.9825C430.425 60.9501 430.441 60.9205 430.465 60.8975C430.719 60.6613 430.928 60.3805 431.081 60.0689C431.174 59.7011 432.095 59.5718 432.864 59.532C433.114 59.4483 433.343 59.3113 433.534 59.1304C433.726 58.9496 433.876 58.7293 433.974 58.4848C434.259 57.6993 435.522 57.5734 436.447 57.4905C436.681 57.4722 436.915 57.4413 437.146 57.3977C437.882 57.2353 438.571 56.4499 439.092 55.1872C439.191 54.9268 439.346 54.6914 439.545 54.4973C439.745 54.3032 439.985 54.1552 440.248 54.0637C441.087 53.7753 442.237 53.9974 443.453 54.6934C444.182 55.1043 444.706 55.2468 445.05 55.1242C445.461 54.9784 445.673 54.4614 445.942 53.7985C446.286 53.0163 446.924 52.4009 447.718 52.0851C448.179 51.896 448.674 51.8035 449.172 51.8132C449.671 51.8229 450.162 51.9346 450.615 52.1415C452.825 53.076 453.177 56.5029 453.19 56.6487C453.192 56.6619 453.192 56.6753 453.19 56.6885C453.11 57.2287 453.157 57.5866 453.323 57.7556C453.558 57.9909 454.065 57.918 454.648 57.8319C455.43 57.7159 456.398 57.5767 457.094 58.1931C458.665 59.5917 457.711 61.1129 457.701 61.1295C457.685 61.1466 457.666 61.1605 457.645 61.1701C457.624 61.1798 457.601 61.1851 457.578 61.1858Z" fill="#263238"/>
<path d="M228.705 501.743C323.466 501.743 400.285 493.505 400.285 483.344C400.285 473.183 323.466 464.945 228.705 464.945C133.944 464.945 57.125 473.183 57.125 483.344C57.125 493.505 133.944 501.743 228.705 501.743Z" fill="#F8F8F8"/>
<path d="M323.881 479.506C329.395 485.721 338.781 486.393 338.781 486.393C338.781 486.393 339.234 476.993 333.727 470.779C328.22 464.564 318.863 463.898 318.863 463.898C318.863 463.898 318.374 473.298 323.881 479.506Z" fill="#92E3A9"/>
<path opacity="0.6" d="M323.881 479.506C329.395 485.721 338.781 486.393 338.781 486.393C338.781 486.393 339.234 476.993 333.727 470.779C328.22 464.564 318.863 463.898 318.863 463.898C318.863 463.898 318.374 473.298 323.881 479.506Z" fill="white"/>
<path d="M331.766 457.428C331.766 471.747 343.091 483.355 343.091 483.355C343.091 483.355 354.416 471.747 354.416 457.428C354.416 443.108 343.091 431.5 343.091 431.5C343.091 431.5 331.766 443.108 331.766 457.428Z" fill="#92E3A9"/>
<path opacity="0.6" d="M331.766 457.428C331.766 471.747 343.091 483.355 343.091 483.355C343.091 483.355 354.416 471.747 354.416 457.428C354.416 443.108 343.091 431.5 343.091 431.5C343.091 431.5 331.766 443.108 331.766 457.428Z" fill="white"/>
<path d="M343.086 483.355V431.5" stroke="#92E3A9" stroke-width="0.105218" stroke-miterlimit="10"/>
<path d="M343.076 449.933L336.727 444.391" stroke="#92E3A9" stroke-width="0.105218" stroke-miterlimit="10"/>
<path d="M343.18 458.505L351.044 447.109" stroke="#92E3A9" stroke-width="0.105218" stroke-miterlimit="10"/>
<path d="M343.083 463.445L333.711 455.078" stroke="#92E3A9" stroke-width="0.105218" stroke-miterlimit="10"/>
<path d="M343.18 470.103L352.459 461.836" stroke="#92E3A9" stroke-width="0.105218" stroke-miterlimit="10"/>
<path d="M343.177 475.849L335.922 470.102" stroke="#92E3A9" stroke-width="0.105218" stroke-miterlimit="10"/>
<path d="M338.774 486.393L318.82 463.898" stroke="#92E3A9" stroke-width="0.105218" stroke-miterlimit="10"/>
<path d="M325.915 471.891L321.031 471.933" stroke="#92E3A9" stroke-width="0.105218" stroke-miterlimit="10"/>
<path d="M329.251 475.572L328.281 467.602" stroke="#92E3A9" stroke-width="0.105218" stroke-miterlimit="10"/>
<path d="M331.104 477.756L323.82 477.734" stroke="#92E3A9" stroke-width="0.105218" stroke-miterlimit="10"/>
<path d="M333.711 480.609L334.553 473.453" stroke="#92E3A9" stroke-width="0.105218" stroke-miterlimit="10"/>
<path d="M335.913 483.102L330.555 483.399" stroke="#92E3A9" stroke-width="0.105218" stroke-miterlimit="10"/>
<path d="M352.786 470.568C347.003 476.528 347.031 485.942 347.031 485.942C347.031 485.942 356.438 485.694 362.221 479.734C368.004 473.774 367.976 464.367 367.976 464.367C367.976 464.367 358.569 464.587 352.786 470.568Z" fill="#92E3A9"/>
<path opacity="0.6" d="M352.786 470.568C347.003 476.528 347.031 485.942 347.031 485.942C347.031 485.942 356.438 485.694 362.221 479.734C368.004 473.774 367.976 464.367 367.976 464.367C367.976 464.367 358.569 464.587 352.786 470.568Z" fill="white"/>
<path d="M347.031 485.942L367.976 464.367" stroke="#92E3A9" stroke-width="0.105218" stroke-miterlimit="10"/>
<path d="M360.521 472.034L360.117 467.164" stroke="#92E3A9" stroke-width="0.105218" stroke-miterlimit="10"/>
<path d="M357.102 475.642L364.973 474.078" stroke="#92E3A9" stroke-width="0.105218" stroke-miterlimit="10"/>
<path d="M355.071 477.652L354.555 470.383" stroke="#92E3A9" stroke-width="0.105218" stroke-miterlimit="10"/>
<path d="M352.43 480.461L359.621 480.765" stroke="#92E3A9" stroke-width="0.105218" stroke-miterlimit="10"/>
<path d="M350.107 482.862L349.406 477.539" stroke="#92E3A9" stroke-width="0.105218" stroke-miterlimit="10"/>
<path d="M77.5452 473.528C86.7849 483.942 102.513 485.069 102.513 485.069C102.513 485.069 103.272 469.318 94.0438 458.904C84.816 448.49 69.1358 447.375 69.1358 447.375C69.1358 447.375 68.3174 463.126 77.5452 473.528Z" fill="#92E3A9"/>
<path opacity="0.6" d="M77.5452 473.528C86.7849 483.942 102.513 485.069 102.513 485.069C102.513 485.069 103.272 469.318 94.0438 458.904C84.816 448.49 69.1358 447.375 69.1358 447.375C69.1358 447.375 68.3174 463.126 77.5452 473.528Z" fill="white"/>
<path d="M90.7734 436.517C90.7734 460.512 109.751 479.964 109.751 479.964C109.751 479.964 128.729 460.512 128.729 436.517C128.729 412.522 109.751 393.07 109.751 393.07C109.751 393.07 90.7734 412.522 90.7734 436.517Z" fill="#92E3A9"/>
<path opacity="0.6" d="M90.7734 436.517C90.7734 460.512 109.751 479.964 109.751 479.964C109.751 479.964 128.729 460.512 128.729 436.517C128.729 412.522 109.751 393.07 109.751 393.07C109.751 393.07 90.7734 412.522 90.7734 436.517Z" fill="white"/>
<path d="M109.711 479.964V393.07" stroke="#92E3A9" stroke-width="0.188913" stroke-miterlimit="10"/>
<path d="M109.71 423.959L99.0703 414.672" stroke="#92E3A9" stroke-width="0.188913" stroke-miterlimit="10"/>
<path d="M109.883 438.323L123.06 419.227" stroke="#92E3A9" stroke-width="0.188913" stroke-miterlimit="10"/>
<path d="M109.72 446.598L94.0156 432.578" stroke="#92E3A9" stroke-width="0.188913" stroke-miterlimit="10"/>
<path d="M109.883 457.744L125.433 443.891" stroke="#92E3A9" stroke-width="0.188913" stroke-miterlimit="10"/>
<path d="M109.876 467.373L97.7188 457.742" stroke="#92E3A9" stroke-width="0.188913" stroke-miterlimit="10"/>
<path d="M102.506 485.069L69.0703 447.375" stroke="#92E3A9" stroke-width="0.188913" stroke-miterlimit="10"/>
<path d="M80.9575 460.766L72.7734 460.837" stroke="#92E3A9" stroke-width="0.188913" stroke-miterlimit="10"/>
<path d="M86.5546 466.926L84.9297 453.57" stroke="#92E3A9" stroke-width="0.188913" stroke-miterlimit="10"/>
<path d="M89.6659 470.59L77.4609 470.555" stroke="#92E3A9" stroke-width="0.188913" stroke-miterlimit="10"/>
<path d="M94.0156 475.351L95.4271 463.359" stroke="#92E3A9" stroke-width="0.188913" stroke-miterlimit="10"/>
<path d="M97.7288 479.531L88.75 480.029" stroke="#92E3A9" stroke-width="0.188913" stroke-miterlimit="10"/>
<path d="M125.971 458.531C116.281 468.518 116.328 484.293 116.328 484.293C116.328 484.293 132.091 483.878 141.782 473.891C151.472 463.904 151.425 448.141 151.425 448.141C151.425 448.141 135.662 448.508 125.971 458.531Z" fill="#92E3A9"/>
<path opacity="0.6" d="M125.971 458.531C116.281 468.518 116.328 484.293 116.328 484.293C116.328 484.293 132.091 483.878 141.782 473.891C151.472 463.904 151.425 448.141 151.425 448.141C151.425 448.141 135.662 448.508 125.971 458.531Z" fill="white"/>
<path d="M116.328 484.293L151.425 448.141" stroke="#92E3A9" stroke-width="0.188913" stroke-miterlimit="10"/>
<path d="M138.95 460.981L138.273 452.82" stroke="#92E3A9" stroke-width="0.188913" stroke-miterlimit="10"/>
<path d="M133.219 467.035L146.408 464.414" stroke="#92E3A9" stroke-width="0.188913" stroke-miterlimit="10"/>
<path d="M129.803 470.392L128.938 458.211" stroke="#92E3A9" stroke-width="0.188913" stroke-miterlimit="10"/>
<path d="M125.383 475.117L137.434 475.627" stroke="#92E3A9" stroke-width="0.188913" stroke-miterlimit="10"/>
<path d="M121.502 479.123L120.328 470.203" stroke="#92E3A9" stroke-width="0.188913" stroke-miterlimit="10"/>
<path d="M211.422 369.438C211.422 369.438 243.928 358.026 222.754 293.798C201.579 229.571 228.671 230.98 240.748 198.494C252.825 166.007 234.991 144.008 234.991 144.008" stroke="#263238" stroke-width="1.8115" stroke-linecap="round" stroke-linejoin="round"/>
<path d="M227.499 353.555H132.898C132.898 353.555 145.659 449.685 149.343 477.501C150.007 482.553 154.033 485.049 158.903 485.049H290.056C294.927 485.049 298.952 482.553 299.616 477.501C303.3 449.685 316.061 353.555 316.061 353.555H227.499Z" fill="#263238"/>
<path d="M129.384 345.509H319.55C320.741 345.509 321.882 345.982 322.724 346.824C323.566 347.665 324.039 348.807 324.039 349.997V357.103C324.039 358.293 323.566 359.435 322.724 360.276C321.882 361.118 320.741 361.591 319.55 361.591H129.384C128.188 361.591 127.041 361.116 126.196 360.27C125.35 359.425 124.875 358.278 124.875 357.082V349.977C124.875 349.385 124.992 348.799 125.218 348.252C125.445 347.705 125.777 347.208 126.196 346.789C126.614 346.371 127.111 346.039 127.658 345.812C128.205 345.585 128.792 345.469 129.384 345.469V345.509Z" fill="#263238"/>
<path d="M142.977 361.609H238.925" stroke="white" stroke-width="0.603832" stroke-linecap="round" stroke-linejoin="round"/>
<path d="M250.992 361.609H258.379" stroke="white" stroke-width="0.603832" stroke-linecap="round" stroke-linejoin="round"/>
<path d="M302.66 361.609H289.234" stroke="white" stroke-width="0.603832" stroke-linecap="round" stroke-linejoin="round"/>
<path d="M150.359 393.133H187.938" stroke="white" stroke-width="0.603832" stroke-linecap="round" stroke-linejoin="round"/>
<path d="M209.391 393.133H219.454" stroke="white" stroke-width="0.603832" stroke-linecap="round" stroke-linejoin="round"/>
<path d="M299.972 393.133H263.742" stroke="white" stroke-width="0.603832" stroke-linecap="round" stroke-linejoin="round"/>
<path d="M295.937 419.297H289.234" stroke="white" stroke-width="0.603832" stroke-linecap="round" stroke-linejoin="round"/>
<path d="M187.941 419.297H173.852" stroke="white" stroke-width="0.603832" stroke-linecap="round" stroke-linejoin="round"/>
<path d="M254.672 444.789H277.819" stroke="white" stroke-width="0.603832" stroke-linecap="round" stroke-linejoin="round"/>
<path d="M200.683 444.789H164.453" stroke="white" stroke-width="0.603832" stroke-linecap="round" stroke-linejoin="round"/>
<path d="M157.055 467.594H169.131" stroke="white" stroke-width="0.603832" stroke-linecap="round" stroke-linejoin="round"/>
<path d="M187.93 467.594H258.377" stroke="white" stroke-width="0.603832" stroke-linecap="round" stroke-linejoin="round"/>
<path d="M292.6 467.594H281.852" stroke="white" stroke-width="0.603832" stroke-linecap="round" stroke-linejoin="round"/>
<path d="M253.21 434.471C257.005 428.785 259.029 422.102 259.025 415.266C259.02 406.104 255.376 397.318 248.896 390.842C242.415 384.365 233.628 380.727 224.466 380.727C217.63 380.727 210.947 382.754 205.263 386.552C199.58 390.351 195.15 395.749 192.535 402.065C189.92 408.381 189.237 415.331 190.572 422.035C191.907 428.74 195.2 434.898 200.036 439.73C204.871 444.563 211.031 447.852 217.736 449.184C224.441 450.515 231.39 449.828 237.705 447.209C244.019 444.59 249.415 440.157 253.21 434.471Z" stroke="#263238" stroke-width="0.603832" stroke-linecap="round" stroke-linejoin="round"/>
<path d="M253.145 415.262C253.157 420.938 251.485 426.489 248.341 431.214C245.196 435.938 240.721 439.624 235.481 441.804C230.241 443.984 224.472 444.561 218.905 443.461C213.337 442.361 208.221 439.634 204.203 435.625C200.186 431.616 197.448 426.506 196.337 420.94C195.225 415.375 195.79 409.605 197.959 404.36C200.128 399.116 203.804 394.633 208.522 391.479C213.24 388.324 218.788 386.641 224.463 386.641C232.058 386.646 239.341 389.661 244.717 395.026C250.093 400.391 253.124 407.667 253.145 415.262V415.262Z" stroke="#263238" stroke-width="0.603832" stroke-linecap="round" stroke-linejoin="round"/>
<path d="M220.156 285.444C220.156 285.444 227.06 249.677 255.963 246.879C284.867 244.081 288.168 221.438 288.168 221.438" stroke="#263238" stroke-width="1.8115" stroke-linecap="round" stroke-linejoin="round"/>
<path d="M223.098 223.43C223.098 223.43 216.074 220.049 190.028 204.188C163.983 188.327 164.99 163.047 164.99 163.047" stroke="#263238" stroke-width="1.8115" stroke-linecap="round" stroke-linejoin="round"/>
<path d="M228.684 317.541C228.684 317.541 177.701 315.529 170.133 273.703" stroke="#263238" stroke-width="1.8115" stroke-linecap="round" stroke-linejoin="round"/>
<path d="M229.576 323.708C229.576 323.708 278.556 338.002 299.023 300.75" stroke="#263238" stroke-width="1.8115" stroke-linecap="round" stroke-linejoin="round"/>
<path d="M260.896 126.132C260.345 130.644 258.468 134.892 255.502 138.338C252.537 141.784 248.616 144.274 244.236 145.491C239.856 146.709 235.213 146.6 230.894 145.179C226.576 143.758 222.776 141.088 219.975 137.507C217.174 133.926 215.497 129.595 215.158 125.062C214.818 120.528 215.831 115.996 218.067 112.038C220.304 108.079 223.664 104.873 227.723 102.825C231.781 100.776 236.356 99.9776 240.869 100.529C246.92 101.269 252.429 104.382 256.184 109.183C259.94 113.984 261.635 120.081 260.896 126.132Z" fill="white"/>
<path d="M260.896 126.132C260.345 130.644 258.468 134.892 255.502 138.338C252.537 141.784 248.616 144.274 244.236 145.491C239.856 146.709 235.213 146.6 230.894 145.179C226.576 143.758 222.776 141.088 219.975 137.507C217.174 133.926 215.497 129.595 215.158 125.062C214.818 120.528 215.831 115.996 218.067 112.038C220.304 108.079 223.664 104.873 227.723 102.825C231.781 100.776 236.356 99.9776 240.869 100.529C246.92 101.269 252.429 104.382 256.184 109.183C259.94 113.984 261.635 120.081 260.896 126.132V126.132Z" stroke="#263238" stroke-width="0.603832" stroke-linecap="round" stroke-linejoin="round"/>
<path d="M256.509 125.59C256.062 129.235 254.543 132.666 252.145 135.448C249.747 138.23 246.577 140.238 243.037 141.217C239.497 142.196 235.746 142.103 232.259 140.949C228.772 139.796 225.706 137.633 223.449 134.735C221.192 131.838 219.845 128.336 219.58 124.672C219.314 121.009 220.142 117.349 221.958 114.157C223.773 110.964 226.496 108.382 229.78 106.738C233.064 105.093 236.762 104.46 240.407 104.919C245.282 105.527 249.716 108.046 252.736 111.922C255.755 115.798 257.112 120.714 256.509 125.59Z" stroke="#263238" stroke-width="0.603832" stroke-linecap="round" stroke-linejoin="round"/>
<path d="M237.783 133.369L233.114 123.842L233.193 122.617L233.806 122.657C234.789 122.72 235.621 122.681 236.301 122.538C237 122.397 237.558 122.125 237.975 121.724C238.392 121.322 238.662 120.752 238.784 120.015L233.384 119.666L233.499 117.885L238.871 118.231C238.786 117.536 238.562 116.963 238.2 116.511C237.839 116.04 237.331 115.681 236.676 115.434C236.039 115.188 235.248 115.034 234.301 114.973L233.689 114.934L233.804 113.152L245.329 113.896L245.214 115.677L239.953 115.338C240.357 115.718 240.683 116.158 240.93 116.659C241.177 117.159 241.317 117.737 241.349 118.391L245.024 118.628L244.909 120.41L241.29 120.176C241.073 121.523 240.485 122.547 239.526 123.25C238.587 123.934 237.369 124.331 235.871 124.439L240.622 133.552L237.783 133.369Z" fill="#263238"/>
<path d="M188.552 144.388C189.163 148.892 188.425 153.476 186.431 157.561C184.437 161.646 181.277 165.048 177.35 167.337C173.423 169.626 168.905 170.699 164.368 170.421C159.831 170.143 155.479 168.526 151.861 165.774C148.243 163.023 145.522 159.26 144.042 154.962C142.562 150.665 142.389 146.025 143.546 141.629C144.702 137.233 147.136 133.279 150.54 130.266C153.944 127.254 158.164 125.318 162.668 124.703C165.66 124.295 168.704 124.48 171.624 125.249C174.545 126.017 177.285 127.354 179.689 129.182C182.093 131.01 184.113 133.294 185.634 135.903C187.154 138.512 188.146 141.396 188.552 144.388Z" fill="white"/>
<path d="M188.552 144.388C189.163 148.892 188.425 153.476 186.431 157.561C184.437 161.646 181.277 165.048 177.35 167.337C173.423 169.626 168.905 170.699 164.368 170.421C159.831 170.143 155.479 168.526 151.861 165.774C148.243 163.023 145.522 159.26 144.042 154.962C142.562 150.665 142.389 146.025 143.546 141.629C144.702 137.233 147.136 133.279 150.54 130.266C153.944 127.254 158.164 125.318 162.668 124.703C165.66 124.295 168.704 124.48 171.624 125.249C174.545 126.017 177.285 127.354 179.689 129.182C182.093 131.01 184.113 133.294 185.634 135.903C187.154 138.512 188.146 141.396 188.552 144.388V144.388Z" stroke="#263238" stroke-width="0.603832" stroke-linecap="round" stroke-linejoin="round"/>
<path d="M184.215 144.971C184.693 148.605 184.085 152.3 182.466 155.589C180.847 158.877 178.291 161.613 175.119 163.451C171.947 165.289 168.303 166.146 164.644 165.914C160.986 165.683 157.478 164.373 154.563 162.151C151.648 159.928 149.457 156.892 148.265 153.426C147.074 149.959 146.936 146.217 147.868 142.672C148.801 139.127 150.763 135.938 153.506 133.506C156.249 131.075 159.65 129.51 163.282 129.01C165.705 128.676 168.171 128.824 170.537 129.447C172.903 130.069 175.122 131.153 177.068 132.637C179.013 134.12 180.646 135.973 181.873 138.09C183.099 140.207 183.895 142.545 184.215 144.971V144.971Z" stroke="#263238" stroke-width="0.603832" stroke-linecap="round" stroke-linejoin="round"/>
<path d="M166.642 157.056L160.514 148.396L160.396 147.174L161.007 147.115C161.989 147.021 162.803 146.849 163.452 146.6C164.119 146.349 164.627 145.992 164.975 145.529C165.323 145.066 165.498 144.461 165.501 143.713L160.114 144.23L159.943 142.453L165.303 141.938C165.107 141.266 164.795 140.735 164.365 140.347C163.934 139.94 163.375 139.667 162.689 139.527C162.021 139.386 161.215 139.36 160.271 139.451L159.66 139.509L159.49 137.732L170.986 136.628L171.157 138.405L165.908 138.909C166.368 139.22 166.76 139.603 167.084 140.058C167.408 140.512 167.638 141.06 167.774 141.701L171.44 141.349L171.61 143.126L168 143.473C168 144.837 167.583 145.942 166.749 146.788C165.932 147.614 164.792 148.2 163.331 148.546L169.475 156.784L166.642 157.056Z" fill="#263238"/>
<path d="M187.228 254.324C187.588 258.856 186.596 263.393 184.377 267.36C182.159 271.328 178.814 274.55 174.765 276.616C170.716 278.683 166.145 279.503 161.63 278.972C157.115 278.441 152.859 276.584 149.4 273.634C145.94 270.684 143.434 266.775 142.196 262.401C140.959 258.026 141.046 253.383 142.447 249.059C143.849 244.734 146.501 240.922 150.068 238.104C153.636 235.287 157.959 233.591 162.491 233.23C165.501 232.988 168.529 233.342 171.402 234.271C174.275 235.201 176.936 236.688 179.234 238.647C181.531 240.606 183.42 242.999 184.792 245.69C186.164 248.38 186.991 251.314 187.228 254.324Z" fill="white"/>
<path d="M187.228 254.324C187.588 258.856 186.596 263.393 184.377 267.36C182.159 271.328 178.814 274.55 174.765 276.616C170.716 278.683 166.145 279.503 161.63 278.972C157.115 278.441 152.859 276.584 149.4 273.634C145.94 270.684 143.434 266.775 142.196 262.401C140.959 258.026 141.046 253.383 142.447 249.059C143.849 244.734 146.501 240.922 150.068 238.104C153.636 235.287 157.959 233.591 162.491 233.23C165.501 232.988 168.529 233.342 171.402 234.271C174.275 235.201 176.936 236.688 179.234 238.647C181.531 240.606 183.42 242.999 184.792 245.69C186.164 248.38 186.991 251.314 187.228 254.324V254.324Z" stroke="#263238" stroke-width="0.603832" stroke-linecap="round" stroke-linejoin="round"/>
<path d="M288.956 276.937C287.175 281.119 286.673 285.736 287.516 290.203C288.358 294.671 290.506 298.788 293.689 302.034C296.871 305.281 300.944 307.511 305.394 308.442C309.843 309.374 314.469 308.965 318.687 307.267C322.904 305.57 326.523 302.66 329.086 298.906C331.65 295.151 333.043 290.721 333.088 286.175C333.134 281.63 331.831 277.172 329.343 273.367C326.856 269.562 323.296 266.58 319.114 264.798C316.337 263.612 313.354 262.985 310.334 262.953C307.315 262.921 304.319 263.486 301.518 264.613C298.716 265.741 296.165 267.409 294.01 269.524C291.854 271.639 290.137 274.158 288.956 276.937V276.937Z" stroke="#263238" stroke-width="0.603832" stroke-linecap="round" stroke-linejoin="round"/>
<path d="M182.826 254.667C183.129 258.326 182.339 261.993 180.557 265.204C178.774 268.414 176.08 271.024 172.814 272.702C169.548 274.381 165.857 275.053 162.21 274.633C158.562 274.213 155.12 272.721 152.321 270.344C149.522 267.968 147.49 264.814 146.484 261.283C145.478 257.751 145.542 254.001 146.668 250.506C147.794 247.011 149.931 243.928 152.81 241.649C155.689 239.369 159.179 237.994 162.839 237.699C167.737 237.309 172.59 238.876 176.336 242.056C180.082 245.236 182.415 249.77 182.826 254.667V254.667Z" stroke="#263238" stroke-width="0.603832" stroke-linecap="round" stroke-linejoin="round"/>
<path d="M293.036 278.665C291.586 282.039 291.169 285.767 291.839 289.377C292.508 292.988 294.234 296.318 296.797 298.948C299.36 301.577 302.646 303.387 306.238 304.148C309.83 304.909 313.568 304.588 316.977 303.224C320.386 301.861 323.315 299.516 325.391 296.488C327.467 293.459 328.599 289.883 328.642 286.211C328.685 282.539 327.638 278.937 325.633 275.861C323.628 272.785 320.755 270.372 317.379 268.929C312.858 267.003 307.759 266.946 303.197 268.771C298.634 270.595 294.981 274.153 293.036 278.665V278.665Z" stroke="#263238" stroke-width="0.603832" stroke-linecap="round" stroke-linejoin="round"/>
<path d="M165.314 265.985L159.186 257.325L159.068 256.104L159.679 256.045C160.66 255.951 161.475 255.779 162.124 255.53C162.791 255.279 163.299 254.922 163.647 254.459C163.995 253.996 164.17 253.39 164.173 252.643L158.786 253.16L158.615 251.383L163.974 250.868C163.779 250.196 163.467 249.665 163.037 249.277C162.605 248.87 162.047 248.596 161.361 248.457C160.693 248.315 159.887 248.29 158.943 248.381L158.332 248.439L158.162 246.662L169.658 245.558L169.829 247.335L164.58 247.839C165.04 248.15 165.432 248.533 165.756 248.987C166.08 249.442 166.31 249.99 166.446 250.631L170.111 250.279L170.282 252.056L166.672 252.403C166.672 253.767 166.255 254.872 165.421 255.718C164.604 256.544 163.464 257.129 162.003 257.475L168.147 265.713L165.314 265.985Z" fill="#263238"/>
<path d="M305.049 294.472L304.807 283.866L305.392 282.787L305.932 283.08C306.798 283.55 307.57 283.863 308.247 284.019C308.94 284.184 309.561 284.171 310.108 283.982C310.655 283.792 311.139 283.388 311.559 282.77L306.803 280.188L307.655 278.619L312.387 281.187C312.601 280.521 312.638 279.906 312.499 279.344C312.368 278.765 312.058 278.226 311.567 277.727C311.093 277.237 310.439 276.765 309.605 276.313L309.066 276.02L309.917 274.451L320.068 279.961L319.216 281.53L314.582 279.014C314.789 279.529 314.9 280.065 314.915 280.624C314.929 281.182 314.814 281.764 314.569 282.372L317.805 284.129L316.953 285.698L313.766 283.968C313.004 285.099 312.041 285.782 310.876 286.017C309.736 286.245 308.464 286.094 307.059 285.564L307.549 295.829L305.049 294.472Z" fill="#263238"/>
<path d="M321.211 214.833C319.3 218.958 316.209 222.425 312.328 224.793C308.448 227.162 303.952 228.327 299.409 228.14C294.866 227.953 290.481 226.423 286.808 223.744C283.134 221.065 280.338 217.357 278.773 213.088C277.207 208.82 276.943 204.183 278.013 199.764C279.083 195.345 281.439 191.343 284.784 188.263C288.129 185.184 292.312 183.165 296.804 182.463C301.296 181.761 305.895 182.407 310.02 184.319C315.549 186.882 319.835 191.537 321.933 197.259C324.032 202.981 323.772 209.302 321.211 214.833Z" fill="white"/>
<path d="M321.211 214.833C319.3 218.958 316.209 222.425 312.328 224.793C308.448 227.162 303.952 228.327 299.409 228.14C294.866 227.953 290.481 226.423 286.808 223.744C283.134 221.065 280.338 217.357 278.773 213.088C277.207 208.82 276.943 204.183 278.013 199.764C279.083 195.345 281.439 191.343 284.784 188.263C288.129 185.184 292.312 183.165 296.804 182.463C301.296 181.761 305.895 182.407 310.02 184.319C315.549 186.882 319.835 191.537 321.933 197.259C324.032 202.981 323.772 209.302 321.211 214.833V214.833Z" stroke="#263238" stroke-width="0.603832" stroke-linecap="round" stroke-linejoin="round"/>
<path d="M317.218 212.982C315.673 216.31 313.175 219.106 310.042 221.015C306.908 222.924 303.279 223.862 299.613 223.709C295.946 223.556 292.408 222.32 289.444 220.156C286.48 217.993 284.224 214.999 282.962 211.554C281.699 208.108 281.486 204.366 282.349 200.8C283.213 197.233 285.114 194.003 287.813 191.517C290.512 189.031 293.888 187.401 297.513 186.833C301.138 186.265 304.85 186.784 308.181 188.326C310.396 189.348 312.387 190.798 314.041 192.591C315.695 194.385 316.978 196.487 317.818 198.778C318.658 201.068 319.037 203.502 318.934 205.94C318.831 208.377 318.248 210.77 317.218 212.982V212.982Z" stroke="#263238" stroke-width="0.603832" stroke-linecap="round" stroke-linejoin="round"/>
<path d="M295.685 214.555L294.725 203.989L295.236 202.873L295.794 203.129C296.69 203.539 297.481 203.799 298.167 203.909C298.87 204.026 299.488 203.972 300.022 203.746C300.555 203.519 301.01 203.084 301.388 202.438L296.467 200.185L297.211 198.561L302.106 200.803C302.274 200.124 302.269 199.508 302.092 198.956C301.923 198.388 301.577 197.871 301.053 197.406C300.547 196.949 299.862 196.523 299 196.128L298.442 195.873L299.185 194.25L309.686 199.059L308.942 200.682L304.149 198.487C304.39 198.986 304.537 199.514 304.59 200.069C304.642 200.625 304.566 201.214 304.363 201.837L307.711 203.371L306.967 204.994L303.67 203.484C302.987 204.664 302.072 205.411 300.926 205.725C299.804 206.029 298.525 205.965 297.087 205.531L298.272 215.739L295.685 214.555Z" fill="#263238"/>
<path d="M287.185 225.306C287.185 226.735 308.621 211.216 329.453 221.099C329.453 221.099 307.675 240.885 286.601 228.587C265.527 216.289 268.486 186.117 268.486 186.117C268.486 186.117 288.875 200.347 287.185 225.306Z" fill="#92E3A9" stroke="#263238" stroke-width="0.603832" stroke-linecap="round" stroke-linejoin="round"/>
<path d="M238.113 146.86C238.797 148.108 248.459 123.371 271.404 120.352C271.404 120.352 263.836 148.792 239.461 149.879C215.087 150.966 201.219 124.015 201.219 124.015C201.219 124.015 225.976 124.981 238.113 146.86Z" fill="#92E3A9" stroke="#263238" stroke-width="0.603832" stroke-linecap="round" stroke-linejoin="round"/>
<path d="M168.369 172.807C169.254 173.934 174.89 147.969 197.051 141.367C197.051 141.367 194.072 170.653 170.2 175.584C146.329 180.516 128.375 156.081 128.375 156.081C128.375 156.081 152.931 153.162 168.369 172.807Z" fill="#92E3A9" stroke="#263238" stroke-width="0.603832" stroke-linecap="round" stroke-linejoin="round"/>
<path d="M173.026 282.38C174.093 283.326 175.2 256.777 195.911 246.492C195.911 246.492 197.924 275.859 175.3 284.735C152.677 293.611 130.758 272.658 130.758 272.658C130.758 272.658 154.468 265.593 173.026 282.38Z" fill="#92E3A9" stroke="#263238" stroke-width="0.603832" stroke-linecap="round" stroke-linejoin="round"/>
<path d="M293.518 308.063C292.206 308.621 299.593 283.097 283.224 266.763C283.224 266.763 271.983 293.968 290.613 309.573C309.243 325.179 336.685 312.278 336.685 312.278C336.685 312.278 316.448 298.045 293.518 308.063Z" fill="#92E3A9" stroke="#263238" stroke-width="0.603832" stroke-linecap="round" stroke-linejoin="round"/>
<path d="M205.458 441.438L205.458 441.438C199.789 434.14 196.979 426.083 196.979 417.215V396.129L226.508 385.763L256.036 396.129V417.215C256.036 426.083 253.227 434.14 247.561 441.438C241.986 448.616 234.982 453.22 226.508 455.307C218.033 453.22 211.03 448.617 205.458 441.438Z" fill="#4CA771" stroke="#34975C" stroke-width="3.47393"/>
<path d="M212.633 429.421V426.346L224.862 409.187H212.609V404.916H231.371V407.991L219.131 425.149H231.395V429.421H212.633Z" fill="#F6FAF6"/>
<path d="M235.275 429.421V411.042H240.372V429.421H235.275ZM237.836 408.673C237.078 408.673 236.428 408.421 235.885 407.919C235.351 407.408 235.083 406.798 235.083 406.088C235.083 405.386 235.351 404.784 235.885 404.281C236.428 403.771 237.078 403.516 237.836 403.516C238.593 403.516 239.239 403.771 239.774 404.281C240.316 404.784 240.588 405.386 240.588 406.088C240.588 406.798 240.316 407.408 239.774 407.919C239.239 408.421 238.593 408.673 237.836 408.673Z" fill="#F6FAF6"/>
<path d="M32.109 301.969L32.6828 282.6H33.9741L38.063 300.08L42.2236 282.6H43.5627L44.1127 301.969H42.9888L42.5106 285.733L38.5651 301.969H37.6087L33.711 285.757L33.2328 301.969H32.109ZM50.2302 302.184C49.3215 302.184 48.6121 301.985 48.102 301.586C47.6078 301.188 47.2571 300.598 47.0499 299.817C46.8586 299.036 46.7629 298.071 46.7629 296.923V293.193C46.7629 292.045 46.8586 291.081 47.0499 290.3C47.2571 289.519 47.6078 288.929 48.102 288.53C48.6121 288.132 49.3215 287.933 50.2302 287.933C51.1547 287.933 51.8641 288.132 52.3583 288.53C52.8684 288.929 53.2191 289.519 53.4104 290.3C53.6177 291.065 53.7213 292.029 53.7213 293.193V296.923C53.7213 298.071 53.6177 299.036 53.4104 299.817C53.2191 300.598 52.8684 301.188 52.3583 301.586C51.8641 301.985 51.1547 302.184 50.2302 302.184ZM50.2302 301.227C50.8997 301.227 51.3939 301.06 51.7127 300.725C52.0315 300.375 52.2308 299.88 52.3105 299.243C52.4061 298.605 52.4539 297.848 52.4539 296.971V293.145C52.4539 292.253 52.4061 291.495 52.3105 290.874C52.2308 290.236 52.0315 289.75 51.7127 289.415C51.3939 289.064 50.8997 288.889 50.2302 288.889C49.5606 288.889 49.0664 289.064 48.7476 289.415C48.4447 289.75 48.2455 290.236 48.1498 290.874C48.0701 291.495 48.0303 292.253 48.0303 293.145V296.971C48.0303 297.848 48.0701 298.605 48.1498 299.243C48.2455 299.88 48.4447 300.375 48.7476 300.725C49.0664 301.06 49.5606 301.227 50.2302 301.227ZM59.3121 302.184C58.2281 302.184 57.3673 301.833 56.7297 301.132C56.092 300.414 55.7254 299.45 55.6297 298.239L56.7058 297.928C56.7855 299.091 57.0485 299.936 57.4948 300.462C57.9571 300.972 58.5788 301.227 59.36 301.227C60.0614 301.227 60.6034 301.036 60.986 300.654C61.3686 300.255 61.5598 299.697 61.5598 298.98C61.5598 298.486 61.3925 297.975 61.0577 297.449C60.7389 296.907 60.2288 296.342 59.5273 295.752L57.9253 294.389C57.2398 293.799 56.7376 293.241 56.4188 292.715C56.1 292.173 55.9406 291.559 55.9406 290.874C55.9406 290.236 56.0681 289.702 56.3232 289.272C56.5942 288.841 56.9608 288.514 57.4231 288.291C57.9013 288.052 58.4513 287.933 59.073 287.933C60.1092 287.933 60.8823 288.259 61.3925 288.913C61.9026 289.567 62.1736 290.443 62.2055 291.543L61.2729 291.83C61.257 291.113 61.1533 290.539 60.9621 290.109C60.7867 289.678 60.5396 289.367 60.2208 289.176C59.9179 288.985 59.5592 288.889 59.1448 288.889C58.539 288.889 58.0448 289.048 57.6622 289.367C57.2956 289.67 57.1123 290.124 57.1123 290.73C57.1123 291.24 57.2079 291.687 57.3992 292.069C57.6064 292.436 57.9811 292.866 58.5231 293.361L60.173 294.819C60.5874 295.17 60.986 295.544 61.3686 295.943C61.7511 296.342 62.062 296.788 62.3011 297.282C62.5562 297.76 62.6837 298.334 62.6837 299.004C62.6837 299.673 62.5402 300.247 62.2533 300.725C61.9823 301.188 61.5917 301.546 61.0816 301.801C60.5874 302.056 59.9976 302.184 59.3121 302.184ZM67.7397 302.112C67.1021 302.112 66.6238 301.985 66.305 301.73C65.9862 301.475 65.779 301.132 65.6833 300.701C65.5877 300.271 65.5398 299.785 65.5398 299.243V288.985H63.7226V288.148H65.5398V283.724H66.8072V288.148H69.1505V288.985H66.8072V299.075C66.8072 299.825 66.8789 300.351 67.0224 300.654C67.1658 300.956 67.4926 301.108 68.0028 301.108C68.1622 301.108 68.3296 301.1 68.5049 301.084C68.6962 301.052 68.8716 301.02 69.031 300.988V301.969C68.8397 302.017 68.6245 302.048 68.3853 302.064C68.1462 302.096 67.931 302.112 67.7397 302.112ZM36.6522 328.232C35.3769 328.232 34.3965 327.969 33.711 327.443C33.0415 326.917 32.5792 326.215 32.3242 325.338C32.0691 324.446 31.9416 323.465 31.9416 322.397V314.172C31.9416 313.056 32.0771 312.067 32.3481 311.207C32.6191 310.33 33.0973 309.644 33.7828 309.15C34.4682 308.64 35.4247 308.385 36.6522 308.385C37.784 308.385 38.6687 308.608 39.3064 309.055C39.944 309.501 40.3984 310.139 40.6694 310.967C40.9404 311.78 41.0759 312.737 41.0759 313.837V314.817H39.8325V313.837C39.8325 312.912 39.7448 312.131 39.5694 311.494C39.3941 310.84 39.0752 310.338 38.613 309.987C38.1507 309.636 37.4971 309.461 36.6522 309.461C35.7276 309.461 35.0182 309.652 34.524 310.035C34.0299 310.418 33.6951 310.952 33.5197 311.637C33.3444 312.322 33.2567 313.12 33.2567 314.028V322.589C33.2567 323.545 33.3524 324.366 33.5437 325.052C33.735 325.721 34.0777 326.239 34.5719 326.606C35.066 326.972 35.7595 327.156 36.6522 327.156C37.513 327.156 38.1746 326.972 38.6369 326.606C39.0992 326.239 39.41 325.729 39.5694 325.075C39.7448 324.406 39.8325 323.633 39.8325 322.756V321.584H41.0759V322.541C41.0759 323.641 40.9483 324.621 40.6933 325.482C40.4382 326.343 39.9919 327.02 39.3542 327.514C38.7166 327.993 37.8159 328.232 36.6522 328.232ZM46.8209 328.184C45.9122 328.184 45.2028 327.985 44.6927 327.586C44.1985 327.188 43.8478 326.598 43.6406 325.817C43.4493 325.036 43.3536 324.071 43.3536 322.923V319.193C43.3536 318.045 43.4493 317.081 43.6406 316.3C43.8478 315.519 44.1985 314.929 44.6927 314.53C45.2028 314.132 45.9122 313.933 46.8209 313.933C47.7454 313.933 48.4548 314.132 48.949 314.53C49.4591 314.929 49.8098 315.519 50.0011 316.3C50.2084 317.065 50.312 318.029 50.312 319.193V322.923C50.312 324.071 50.2084 325.036 50.0011 325.817C49.8098 326.598 49.4591 327.188 48.949 327.586C48.4548 327.985 47.7454 328.184 46.8209 328.184ZM46.8209 327.227C47.4904 327.227 47.9846 327.06 48.3034 326.725C48.6222 326.375 48.8215 325.88 48.9012 325.243C48.9968 324.605 49.0446 323.848 49.0446 322.971V319.145C49.0446 318.253 48.9968 317.495 48.9012 316.874C48.8215 316.236 48.6222 315.75 48.3034 315.415C47.9846 315.064 47.4904 314.889 46.8209 314.889C46.1513 314.889 45.6571 315.064 45.3383 315.415C45.0354 315.75 44.8362 316.236 44.7405 316.874C44.6608 317.495 44.621 318.253 44.621 319.145V322.971C44.621 323.848 44.6608 324.605 44.7405 325.243C44.8362 325.88 45.0354 326.375 45.3383 326.725C45.6571 327.06 46.1513 327.227 46.8209 327.227ZM52.7704 327.969V314.148H54.0377V315.63C54.4681 315.12 54.9623 314.714 55.5203 314.411C56.0782 314.092 56.676 313.933 57.3136 313.933C57.7281 313.933 58.0948 314.036 58.4136 314.243C58.7483 314.435 59.0114 314.754 59.2027 315.2C59.394 315.63 59.4896 316.212 59.4896 316.945V327.969H58.2223V317.089C58.2223 316.244 58.0868 315.67 57.8158 315.367C57.5607 315.064 57.21 314.913 56.7637 314.913C56.3014 314.913 55.8311 315.056 55.3529 315.343C54.8906 315.614 54.4522 315.981 54.0377 316.443V327.969H52.7704ZM65.2434 328.184C64.1594 328.184 63.2986 327.833 62.6609 327.132C62.0233 326.414 61.6566 325.45 61.561 324.239L62.637 323.928C62.7167 325.091 62.9797 325.936 63.4261 326.462C63.8884 326.972 64.5101 327.227 65.2912 327.227C65.9926 327.227 66.5346 327.036 66.9172 326.654C67.2998 326.255 67.4911 325.697 67.4911 324.98C67.4911 324.486 67.3237 323.975 66.9889 323.449C66.6701 322.907 66.16 322.342 65.4586 321.752L63.8565 320.389C63.171 319.799 62.6689 319.241 62.3501 318.715C62.0312 318.173 61.8718 317.559 61.8718 316.874C61.8718 316.236 61.9993 315.702 62.2544 315.272C62.5254 314.841 62.8921 314.514 63.3543 314.291C63.8326 314.052 64.3826 313.933 65.0043 313.933C66.0404 313.933 66.8136 314.259 67.3237 314.913C67.8338 315.567 68.1048 316.443 68.1367 317.543L67.2041 317.83C67.1882 317.113 67.0846 316.539 66.8933 316.109C66.7179 315.678 66.4708 315.367 66.152 315.176C65.8491 314.985 65.4905 314.889 65.076 314.889C64.4702 314.889 63.9761 315.048 63.5935 315.367C63.2268 315.67 63.0435 316.124 63.0435 316.73C63.0435 317.24 63.1391 317.687 63.3304 318.069C63.5377 318.436 63.9123 318.866 64.4543 319.361L66.1042 320.819C66.5187 321.17 66.9172 321.544 67.2998 321.943C67.6824 322.342 67.9932 322.788 68.2323 323.282C68.4874 323.76 68.6149 324.334 68.6149 325.004C68.6149 325.673 68.4715 326.247 68.1845 326.725C67.9135 327.188 67.523 327.546 67.0128 327.801C66.5187 328.056 65.9288 328.184 65.2434 328.184ZM70.8255 327.969V314.148H72.1167V327.969H70.8255ZM70.8255 312.33V310.131H72.1167V312.33H70.8255ZM78.2968 328.184C77.2128 328.184 76.3519 327.833 75.7143 327.132C75.0767 326.414 74.71 325.45 74.6144 324.239L75.6904 323.928C75.7701 325.091 76.0331 325.936 76.4795 326.462C76.9418 326.972 77.5635 327.227 78.3446 327.227C79.046 327.227 79.588 327.036 79.9706 326.654C80.3532 326.255 80.5445 325.697 80.5445 324.98C80.5445 324.486 80.3771 323.975 80.0423 323.449C79.7235 322.907 79.2134 322.342 78.512 321.752L76.9099 320.389C76.2244 319.799 75.7223 319.241 75.4034 318.715C75.0846 318.173 74.9252 317.559 74.9252 316.874C74.9252 316.236 75.0527 315.702 75.3078 315.272C75.5788 314.841 75.9454 314.514 76.4077 314.291C76.886 314.052 77.436 313.933 78.0577 313.933C79.0938 313.933 79.867 314.259 80.3771 314.913C80.8872 315.567 81.1582 316.443 81.1901 317.543L80.2575 317.83C80.2416 317.113 80.138 316.539 79.9467 316.109C79.7713 315.678 79.5242 315.367 79.2054 315.176C78.9025 314.985 78.5439 314.889 78.1294 314.889C77.5236 314.889 77.0294 315.048 76.6469 315.367C76.2802 315.67 76.0969 316.124 76.0969 316.73C76.0969 317.24 76.1925 317.687 76.3838 318.069C76.5911 318.436 76.9657 318.866 77.5077 319.361L79.1576 320.819C79.5721 321.17 79.9706 321.544 80.3532 321.943C80.7358 322.342 81.0466 322.788 81.2857 323.282C81.5408 323.76 81.6683 324.334 81.6683 325.004C81.6683 325.673 81.5249 326.247 81.2379 326.725C80.9669 327.188 80.5764 327.546 80.0662 327.801C79.5721 328.056 78.9822 328.184 78.2968 328.184ZM86.7244 328.112C86.0867 328.112 85.6085 327.985 85.2897 327.73C84.9708 327.475 84.7636 327.132 84.668 326.701C84.5723 326.271 84.5245 325.785 84.5245 325.243V314.985H82.7072V314.148H84.5245V309.724H85.7918V314.148H88.1352V314.985H85.7918V325.075C85.7918 325.825 85.8635 326.351 86.007 326.654C86.1505 326.956 86.4773 327.108 86.9874 327.108C87.1468 327.108 87.3142 327.1 87.4895 327.084C87.6808 327.052 87.8562 327.02 88.0156 326.988V327.969C87.8243 328.017 87.6091 328.048 87.37 328.064C87.1309 328.096 86.9157 328.112 86.7244 328.112ZM93.2211 328.184C92.4878 328.184 91.8581 328.04 91.3321 327.754C90.806 327.451 90.3995 326.917 90.1126 326.151C89.8416 325.37 89.7061 324.27 89.7061 322.852V319.169C89.7061 317.719 89.8495 316.619 90.1365 315.869C90.4234 315.12 90.8299 314.61 91.356 314.339C91.898 314.068 92.5276 313.933 93.245 313.933C94.1058 313.933 94.7833 314.116 95.2775 314.483C95.7717 314.849 96.1224 315.439 96.3296 316.252C96.5368 317.049 96.6405 318.109 96.6405 319.432V320.747H90.9734V322.947C90.9734 324.047 91.0451 324.908 91.1886 325.53C91.348 326.151 91.5951 326.59 91.9298 326.845C92.2646 327.1 92.695 327.227 93.2211 327.227C93.5558 327.227 93.8906 327.172 94.2254 327.06C94.5601 326.949 94.8391 326.685 95.0623 326.271C95.2855 325.857 95.3971 325.211 95.3971 324.334V323.306H96.6405V324.215C96.6405 325.394 96.3934 326.351 95.8992 327.084C95.421 327.817 94.5283 328.184 93.2211 328.184ZM90.9734 319.982H95.3971V318.906C95.3971 318.077 95.3492 317.368 95.2536 316.778C95.1739 316.172 94.9826 315.71 94.6797 315.391C94.3768 315.056 93.8986 314.889 93.245 314.889C92.7349 314.889 92.3045 315.001 91.9538 315.224C91.619 315.431 91.3719 315.83 91.2125 316.419C91.0531 316.993 90.9734 317.83 90.9734 318.93V319.982ZM99.0294 327.969V314.148H100.297V315.63C100.727 315.12 101.221 314.714 101.779 314.411C102.337 314.092 102.935 313.933 103.573 313.933C103.987 313.933 104.354 314.036 104.673 314.243C105.007 314.435 105.27 314.754 105.462 315.2C105.653 315.63 105.749 316.212 105.749 316.945V327.969H104.481V317.089C104.481 316.244 104.346 315.67 104.075 315.367C103.82 315.064 103.469 314.913 103.023 314.913C102.56 314.913 102.09 315.056 101.612 315.343C101.15 315.614 100.711 315.981 100.297 316.443V327.969H99.0294ZM111.407 328.112C110.769 328.112 110.291 327.985 109.972 327.73C109.653 327.475 109.446 327.132 109.35 326.701C109.255 326.271 109.207 325.785 109.207 325.243V314.985H107.39V314.148H109.207V309.724H110.474V314.148H112.818V314.985H110.474V325.075C110.474 325.825 110.546 326.351 110.689 326.654C110.833 326.956 111.16 327.108 111.67 327.108C111.829 327.108 111.997 327.1 112.172 327.084C112.363 327.052 112.539 327.02 112.698 326.988V327.969C112.507 328.017 112.291 328.048 112.052 328.064C111.813 328.096 111.598 328.112 111.407 328.112ZM119.612 327.969V308.6H126.283V309.628H120.903V317.424H125.542V318.428H120.903V327.969H119.612ZM130.392 328.184C129.977 328.184 129.603 328.088 129.268 327.897C128.949 327.69 128.694 327.371 128.503 326.941C128.311 326.494 128.216 325.904 128.216 325.171V314.148H129.483V325.028C129.483 325.872 129.611 326.446 129.866 326.749C130.137 327.052 130.495 327.204 130.942 327.204C131.436 327.204 131.93 327.052 132.424 326.749C132.918 326.43 133.373 326.024 133.787 325.53V314.148H135.031V327.969H133.787V326.343C133.341 326.901 132.823 327.347 132.233 327.682C131.659 328.017 131.045 328.184 130.392 328.184ZM137.769 327.969V314.148H139.037V315.63C139.467 315.12 139.961 314.714 140.519 314.411C141.077 314.092 141.675 313.933 142.313 313.933C142.727 313.933 143.094 314.036 143.412 314.243C143.747 314.435 144.01 314.754 144.202 315.2C144.393 315.63 144.488 316.212 144.488 316.945V327.969H143.221V317.089C143.221 316.244 143.086 315.67 142.815 315.367C142.56 315.064 142.209 314.913 141.763 314.913C141.3 314.913 140.83 315.056 140.352 315.343C139.889 315.614 139.451 315.981 139.037 316.443V327.969H137.769ZM150.099 328.184C148.903 328.184 148.058 327.73 147.564 326.821C147.086 325.896 146.847 324.39 146.847 322.302V319.839C146.847 318.532 146.934 317.448 147.11 316.587C147.285 315.71 147.604 315.048 148.066 314.602C148.529 314.156 149.182 313.933 150.027 313.933C150.617 313.933 151.119 314.068 151.533 314.339C151.948 314.594 152.283 314.881 152.538 315.2V308.6H153.805V327.969H152.538V326.917C152.283 327.22 151.948 327.506 151.533 327.777C151.135 328.048 150.657 328.184 150.099 328.184ZM150.266 327.204C150.728 327.204 151.151 327.084 151.533 326.845C151.932 326.606 152.267 326.335 152.538 326.032V316.109C152.283 315.853 151.956 315.59 151.557 315.319C151.175 315.048 150.736 314.913 150.242 314.913C149.365 314.913 148.792 315.28 148.521 316.013C148.25 316.746 148.114 317.918 148.114 319.528V322.397C148.114 323.513 148.17 324.43 148.281 325.147C148.409 325.849 148.624 326.367 148.927 326.701C149.246 327.036 149.692 327.204 150.266 327.204ZM159.676 328.184C158.592 328.184 157.731 327.833 157.094 327.132C156.456 326.414 156.089 325.45 155.994 324.239L157.07 323.928C157.149 325.091 157.413 325.936 157.859 326.462C158.321 326.972 158.943 327.227 159.724 327.227C160.425 327.227 160.967 327.036 161.35 326.654C161.733 326.255 161.924 325.697 161.924 324.98C161.924 324.486 161.756 323.975 161.422 323.449C161.103 322.907 160.593 322.342 159.891 321.752L158.289 320.389C157.604 319.799 157.102 319.241 156.783 318.715C156.464 318.173 156.305 317.559 156.305 316.874C156.305 316.236 156.432 315.702 156.687 315.272C156.958 314.841 157.325 314.514 157.787 314.291C158.265 314.052 158.815 313.933 159.437 313.933C160.473 313.933 161.246 314.259 161.756 314.913C162.267 315.567 162.538 316.443 162.569 317.543L161.637 317.83C161.621 317.113 161.517 316.539 161.326 316.109C161.151 315.678 160.904 315.367 160.585 315.176C160.282 314.985 159.923 314.889 159.509 314.889C158.903 314.889 158.409 315.048 158.026 315.367C157.66 315.67 157.476 316.124 157.476 316.73C157.476 317.24 157.572 317.687 157.763 318.069C157.97 318.436 158.345 318.866 158.887 319.361L160.537 320.819C160.951 321.17 161.35 321.544 161.733 321.943C162.115 322.342 162.426 322.788 162.665 323.282C162.92 323.76 163.048 324.334 163.048 325.004C163.048 325.673 162.904 326.247 162.617 326.725C162.346 327.188 161.956 327.546 161.446 327.801C160.951 328.056 160.362 328.184 159.676 328.184Z" fill="#263238"/>
<path d="M26.3063 97.6537C25.047 97.6537 24.0666 97.4464 23.3652 97.0319C22.6638 96.6015 22.1696 96.0277 21.8826 95.3103C21.6116 94.577 21.4761 93.756 21.4761 92.8474V78.0221H22.7674V92.8713C22.7674 93.5727 22.863 94.2104 23.0543 94.7842C23.2616 95.3422 23.6202 95.7806 24.1303 96.0994C24.6564 96.4182 25.3817 96.5776 26.3063 96.5776C27.1831 96.5776 27.8765 96.4182 28.3866 96.0994C28.9127 95.7646 29.2873 95.3183 29.5105 94.7603C29.7337 94.2024 29.8453 93.5727 29.8453 92.8713V78.0221H31.1126V92.8474C31.1126 93.756 30.9611 94.577 30.6583 95.3103C30.3554 96.0277 29.8532 96.6015 29.1518 97.0319C28.4663 97.4464 27.5178 97.6537 26.3063 97.6537ZM34.0347 97.3906V83.5696H35.302V85.0522C35.7324 84.542 36.2266 84.1355 36.7845 83.8327C37.3425 83.5138 37.9403 83.3544 38.5779 83.3544C38.9924 83.3544 39.359 83.458 39.6779 83.6653C40.0126 83.8566 40.2756 84.1754 40.4669 84.6217C40.6582 85.0522 40.7539 85.634 40.7539 86.3673V97.3906H39.4866V86.5108C39.4866 85.6659 39.3511 85.092 39.0801 84.7891C38.825 84.4862 38.4743 84.3348 38.0279 84.3348C37.5656 84.3348 37.0954 84.4783 36.6171 84.7652C36.1549 85.0362 35.7165 85.4029 35.302 85.8652V97.3906H34.0347ZM47.1772 97.6058C46.5874 97.6058 46.0772 97.4544 45.6468 97.1515C45.2324 96.8486 44.8976 96.5457 44.6425 96.2429V97.3906H43.3752V78.0221H44.6425V84.7413C44.8976 84.4065 45.2403 84.0957 45.6707 83.8087C46.1171 83.5059 46.6591 83.3544 47.2967 83.3544C47.9344 83.3544 48.4525 83.4899 48.851 83.7609C49.2655 84.016 49.5843 84.3986 49.8075 84.9087C50.0466 85.4029 50.206 86.0007 50.2857 86.7021C50.3814 87.4035 50.4292 88.1846 50.4292 89.0454V91.6996C50.4292 92.9909 50.3256 94.0749 50.1183 94.9516C49.927 95.8284 49.5923 96.4899 49.114 96.9363C48.6517 97.3827 48.0061 97.6058 47.1772 97.6058ZM47.0098 96.6254C47.5996 96.6254 48.046 96.4581 48.3489 96.1233C48.6517 95.7726 48.859 95.2386 48.9706 94.5212C49.0822 93.7879 49.1379 92.8633 49.1379 91.7474V89.0454C49.1379 87.9455 49.0822 87.0528 48.9706 86.3673C48.8749 85.6659 48.6757 85.1558 48.3728 84.8369C48.0858 84.5022 47.6395 84.3348 47.0337 84.3348C46.5236 84.3348 46.0613 84.4862 45.6468 84.7891C45.2324 85.0761 44.8976 85.355 44.6425 85.626V95.382C44.9135 95.7009 45.2483 95.9878 45.6468 96.2429C46.0613 96.4979 46.5156 96.6254 47.0098 96.6254ZM53.0705 97.3906V83.5696H54.3617V97.3906H53.0705ZM53.0705 81.7523V79.5524H54.3617V81.7523H53.0705ZM59.7288 97.6058C59.1709 97.6058 58.6847 97.4783 58.2702 97.2232C57.8557 96.9682 57.5289 96.6175 57.2898 96.1711C57.0666 95.7088 56.955 95.1828 56.955 94.5929C56.955 94.0031 57.0268 93.493 57.1702 93.0626C57.3297 92.6162 57.6086 92.2018 58.0072 91.8192C58.4057 91.4366 58.9716 91.0381 59.7049 90.6236C60.4541 90.1932 61.4186 89.699 62.5982 89.1411V88.1607C62.5982 87.1564 62.5345 86.3753 62.4069 85.8173C62.2953 85.2594 62.0961 84.8688 61.8091 84.6457C61.5381 84.4225 61.1635 84.3109 60.6853 84.3109C60.3186 84.3109 59.9679 84.3747 59.6332 84.5022C59.2984 84.6297 59.0194 84.8848 58.7962 85.2674C58.589 85.634 58.4854 86.184 58.4854 86.9173V87.2759H57.242C57.242 85.9528 57.505 84.9724 58.0311 84.3348C58.5731 83.6812 59.4737 83.3544 60.7331 83.3544C61.8968 83.3544 62.7098 83.7211 63.1721 84.4544C63.6344 85.1877 63.8655 86.3753 63.8655 88.0172V94.9755C63.8655 95.1031 63.8655 95.3502 63.8655 95.7168C63.8815 96.0675 63.8895 96.4102 63.8895 96.745C63.9054 97.0798 63.9213 97.295 63.9373 97.3906H62.8373C62.8055 97.0559 62.7656 96.7052 62.7178 96.3385C62.67 95.9719 62.6381 95.7088 62.6221 95.5494C62.4149 96.1233 62.0562 96.6095 61.5461 97.008C61.036 97.4066 60.4302 97.6058 59.7288 97.6058ZM60.0397 96.5537C60.4382 96.5537 60.7969 96.466 61.1157 96.2907C61.4345 96.0994 61.7215 95.8603 61.9765 95.5733C62.2316 95.2704 62.4388 94.9516 62.5982 94.6169V90.0736C61.7533 90.52 61.044 90.9026 60.4701 91.2214C59.9121 91.5402 59.4658 91.8431 59.131 92.13C58.8122 92.417 58.581 92.7438 58.4376 93.1104C58.2941 93.4611 58.2224 93.8915 58.2224 94.4017C58.2224 95.2306 58.4137 95.7965 58.7962 96.0994C59.1788 96.4023 59.5933 96.5537 60.0397 96.5537ZM69.6021 97.6058C68.5181 97.6058 67.6573 97.2551 67.0197 96.5537C66.382 95.8364 66.0154 94.8719 65.9197 93.6604L66.9957 93.3495C67.0754 94.5132 67.3385 95.3581 67.7848 95.8842C68.2471 96.3943 68.8688 96.6494 69.6499 96.6494C70.3514 96.6494 70.8934 96.4581 71.2759 96.0755C71.6585 95.6769 71.8498 95.119 71.8498 94.4017C71.8498 93.9075 71.6824 93.3974 71.3477 92.8713C71.0289 92.3293 70.5187 91.7634 69.8173 91.1736L68.2152 89.8106C67.5298 89.2208 67.0276 88.6628 66.7088 88.1368C66.39 87.5948 66.2306 86.981 66.2306 86.2956C66.2306 85.6579 66.3581 85.1239 66.6131 84.6935C66.8842 84.2631 67.2508 83.9363 67.7131 83.7131C68.1913 83.474 68.7413 83.3544 69.363 83.3544C70.3992 83.3544 71.1723 83.6812 71.6824 84.3348C72.1926 84.9884 72.4636 85.8652 72.4954 86.9651L71.5629 87.252C71.5469 86.5347 71.4433 85.9608 71.252 85.5304C71.0767 85.1 70.8296 84.7891 70.5108 84.5978C70.2079 84.4065 69.8492 84.3109 69.4347 84.3109C68.829 84.3109 68.3348 84.4703 67.9522 84.7891C67.5856 85.092 67.4022 85.5463 67.4022 86.1521C67.4022 86.6622 67.4979 87.1086 67.6892 87.4912C67.8964 87.8578 68.271 88.2882 68.813 88.7824L70.4629 90.241C70.8774 90.5917 71.2759 90.9663 71.6585 91.3649C72.0411 91.7634 72.352 92.2097 72.5911 92.7039C72.8462 93.1822 72.9737 93.756 72.9737 94.4256C72.9737 95.0951 72.8302 95.669 72.5433 96.1472C72.2723 96.6095 71.8817 96.9682 71.3716 97.2232C70.8774 97.4783 70.2876 97.6058 69.6021 97.6058ZM78.2449 97.6058C77.5116 97.6058 76.8819 97.4624 76.3559 97.1754C75.8298 96.8725 75.4233 96.3385 75.1364 95.5733C74.8654 94.7922 74.7299 93.6923 74.7299 92.2735V88.5911C74.7299 87.1404 74.8734 86.0405 75.1603 85.2913C75.4472 84.542 75.8537 84.0319 76.3798 83.7609C76.9218 83.4899 77.5515 83.3544 78.2688 83.3544C79.1297 83.3544 79.8072 83.5377 80.3013 83.9044C80.7955 84.271 81.1462 84.8609 81.3534 85.6739C81.5607 86.4709 81.6643 87.531 81.6643 88.8541V90.1693H75.9972V92.3692C75.9972 93.4691 76.0689 94.3299 76.2124 94.9516C76.3718 95.5733 76.6189 96.0117 76.9537 96.2668C77.2884 96.5218 77.7189 96.6494 78.2449 96.6494C78.5797 96.6494 78.9144 96.5936 79.2492 96.482C79.584 96.3704 79.8629 96.1074 80.0861 95.6929C80.3093 95.2784 80.4209 94.6328 80.4209 93.756V92.7278H81.6643V93.6365C81.6643 94.8161 81.4172 95.7726 80.923 96.5059C80.4448 97.2392 79.5521 97.6058 78.2449 97.6058ZM75.9972 89.4041H80.4209V88.3281C80.4209 87.4991 80.3731 86.7897 80.2774 86.1999C80.1977 85.5942 80.0064 85.1319 79.7035 84.813C79.4007 84.4783 78.9224 84.3109 78.2688 84.3109C77.7587 84.3109 77.3283 84.4225 76.9776 84.6457C76.6428 84.8529 76.3957 85.2514 76.2363 85.8412C76.0769 86.4151 75.9972 87.252 75.9972 88.352V89.4041ZM87.0422 97.6058C85.8466 97.6058 85.0017 97.1515 84.5076 96.2429C84.0293 95.3183 83.7902 93.8118 83.7902 91.7235V89.2606C83.7902 87.9534 83.8779 86.8694 84.0532 86.0086C84.2286 85.1319 84.5474 84.4703 85.0097 84.0239C85.472 83.5776 86.1256 83.3544 86.9705 83.3544C87.5603 83.3544 88.0624 83.4899 88.4769 83.7609C88.8914 84.016 89.2261 84.3029 89.4812 84.6217V78.0221H90.7485V97.3906H89.4812V96.3385C89.2261 96.6414 88.8914 96.9283 88.4769 97.1993C88.0784 97.4703 87.6001 97.6058 87.0422 97.6058ZM87.2096 96.6254C87.6719 96.6254 88.0943 96.5059 88.4769 96.2668C88.8754 96.0277 89.2102 95.7567 89.4812 95.4538V85.5304C89.2261 85.2753 88.8994 85.0123 88.5008 84.7413C88.1182 84.4703 87.6799 84.3348 87.1857 84.3348C86.3089 84.3348 85.735 84.7014 85.464 85.4347C85.193 86.168 85.0575 87.3397 85.0575 88.9498V91.8192C85.0575 92.9351 85.1133 93.8517 85.2249 94.569C85.3524 95.2704 85.5676 95.7885 85.8705 96.1233C86.1894 96.4581 86.6357 96.6254 87.2096 96.6254ZM20.6871 123.391L24.7521 104.022H26.2585L30.3474 123.391H29.0323L28.028 118.034H23.0065L21.9783 123.391H20.6871ZM23.1978 117.078H27.8606L25.5172 105.6L23.1978 117.078ZM32.4701 127.934V109.57H33.7375V110.741C34.0085 110.407 34.3592 110.096 34.7896 109.809C35.22 109.506 35.754 109.354 36.3917 109.354C37.0293 109.354 37.5474 109.49 37.9459 109.761C38.3604 110.016 38.6792 110.399 38.9024 110.909C39.1415 111.403 39.3009 112.001 39.3806 112.702C39.4763 113.403 39.5241 114.185 39.5241 115.045V117.7C39.5241 118.991 39.4205 120.075 39.2133 120.952C39.022 121.828 38.6872 122.49 38.209 122.936C37.7467 123.383 37.101 123.606 36.2721 123.606C35.6823 123.606 35.1722 123.454 34.7418 123.152C34.3273 122.849 33.9925 122.546 33.7375 122.243V127.934H32.4701ZM36.1286 122.625C36.7025 122.625 37.1409 122.458 37.4438 122.123C37.7626 121.773 37.9778 121.239 38.0894 120.521C38.201 119.788 38.2568 118.863 38.2568 117.747V115.045C38.2568 113.945 38.201 113.053 38.0894 112.367C37.9938 111.666 37.7945 111.156 37.4916 110.837C37.1887 110.502 36.7344 110.335 36.1286 110.335C35.6185 110.335 35.1562 110.486 34.7418 110.789C34.3273 111.076 33.9925 111.355 33.7375 111.626V121.382C34.0085 121.701 34.3512 121.988 34.7657 122.243C35.1801 122.498 35.6345 122.625 36.1286 122.625ZM42.0442 127.934V109.57H43.3115V110.741C43.5825 110.407 43.9332 110.096 44.3636 109.809C44.794 109.506 45.3281 109.354 45.9657 109.354C46.6034 109.354 47.1214 109.49 47.52 109.761C47.9344 110.016 48.2533 110.399 48.4764 110.909C48.7156 111.403 48.875 112.001 48.9547 112.702C49.0503 113.403 49.0982 114.185 49.0982 115.045V117.7C49.0982 118.991 48.9945 120.075 48.7873 120.952C48.596 121.828 48.2612 122.49 47.783 122.936C47.3207 123.383 46.6751 123.606 45.8462 123.606C45.2563 123.606 44.7462 123.454 44.3158 123.152C43.9013 122.849 43.5666 122.546 43.3115 122.243V127.934H42.0442ZM45.7027 122.625C46.2766 122.625 46.7149 122.458 47.0178 122.123C47.3367 121.773 47.5519 121.239 47.6635 120.521C47.775 119.788 47.8308 118.863 47.8308 117.747V115.045C47.8308 113.945 47.775 113.053 47.6635 112.367C47.5678 111.666 47.3685 111.156 47.0657 110.837C46.7628 110.502 46.3084 110.335 45.7027 110.335C45.1926 110.335 44.7303 110.486 44.3158 110.789C43.9013 111.076 43.5666 111.355 43.3115 111.626V121.382C43.5825 121.701 43.9252 121.988 44.3397 122.243C44.7542 122.498 45.2085 122.625 45.7027 122.625ZM51.7856 123.391V109.57H53.0529V111.435C53.4674 110.749 53.9775 110.247 54.5833 109.928C55.205 109.594 55.7868 109.426 56.3288 109.426C56.3607 109.426 56.3926 109.426 56.4245 109.426C56.4723 109.426 56.5201 109.434 56.568 109.45V110.765C56.5042 110.733 56.4165 110.717 56.3049 110.717C56.2093 110.701 56.1216 110.693 56.0419 110.693C55.4043 110.693 54.8304 110.845 54.3203 111.148C53.8261 111.451 53.4036 111.889 53.0529 112.463V123.391H51.7856ZM61.5009 123.606C60.5922 123.606 59.8829 123.407 59.3727 123.008C58.8786 122.61 58.5279 122.02 58.3206 121.239C58.1293 120.457 58.0337 119.493 58.0337 118.345V114.615C58.0337 113.467 58.1293 112.503 58.3206 111.722C58.5279 110.941 58.8786 110.351 59.3727 109.952C59.8829 109.554 60.5922 109.354 61.5009 109.354C62.4255 109.354 63.1349 109.554 63.629 109.952C64.1392 110.351 64.4899 110.941 64.6812 111.722C64.8884 112.487 64.992 113.451 64.992 114.615V118.345C64.992 119.493 64.8884 120.457 64.6812 121.239C64.4899 122.02 64.1392 122.61 63.629 123.008C63.1349 123.407 62.4255 123.606 61.5009 123.606ZM61.5009 122.649C62.1704 122.649 62.6646 122.482 62.9834 122.147C63.3022 121.797 63.5015 121.302 63.5812 120.665C63.6769 120.027 63.7247 119.27 63.7247 118.393V114.567C63.7247 113.674 63.6769 112.917 63.5812 112.296C63.5015 111.658 63.3022 111.172 62.9834 110.837C62.6646 110.486 62.1704 110.311 61.5009 110.311C60.8314 110.311 60.3372 110.486 60.0184 110.837C59.7155 111.172 59.5162 111.658 59.4206 112.296C59.3409 112.917 59.301 113.674 59.301 114.567V118.393C59.301 119.27 59.3409 120.027 59.4206 120.665C59.5162 121.302 59.7155 121.797 60.0184 122.147C60.3372 122.482 60.8314 122.649 61.5009 122.649ZM69.7699 123.606C69.2119 123.606 68.7257 123.478 68.3113 123.223C67.8968 122.968 67.57 122.617 67.3309 122.171C67.1077 121.709 66.9961 121.183 66.9961 120.593C66.9961 120.003 67.0678 119.493 67.2113 119.063C67.3707 118.616 67.6497 118.202 68.0482 117.819C68.4468 117.437 69.0127 117.038 69.746 116.624C70.4952 116.193 71.4596 115.699 72.6393 115.141V114.161C72.6393 113.156 72.5755 112.375 72.448 111.817C72.3364 111.259 72.1371 110.869 71.8502 110.646C71.5792 110.422 71.2046 110.311 70.7264 110.311C70.3597 110.311 70.009 110.375 69.6742 110.502C69.3395 110.63 69.0605 110.885 68.8373 111.267C68.6301 111.634 68.5265 112.184 68.5265 112.917V113.276H67.2831C67.2831 111.953 67.5461 110.972 68.0721 110.335C68.6141 109.681 69.5148 109.354 70.7742 109.354C71.9379 109.354 72.7509 109.721 73.2132 110.454C73.6755 111.188 73.9066 112.375 73.9066 114.017V120.976C73.9066 121.103 73.9066 121.35 73.9066 121.717C73.9226 122.068 73.9305 122.41 73.9305 122.745C73.9465 123.08 73.9624 123.295 73.9784 123.391H72.8784C72.8465 123.056 72.8067 122.705 72.7589 122.339C72.711 121.972 72.6791 121.709 72.6632 121.549C72.456 122.123 72.0973 122.61 71.5872 123.008C71.0771 123.407 70.4713 123.606 69.7699 123.606ZM70.0807 122.554C70.4793 122.554 70.8379 122.466 71.1568 122.291C71.4756 122.099 71.7625 121.86 72.0176 121.573C72.2726 121.27 72.4799 120.952 72.6393 120.617V116.074C71.7944 116.52 71.085 116.903 70.5111 117.221C69.9532 117.54 69.5069 117.843 69.1721 118.13C68.8533 118.417 68.6221 118.744 68.4786 119.11C68.3352 119.461 68.2634 119.892 68.2634 120.402C68.2634 121.231 68.4547 121.797 68.8373 122.099C69.2199 122.402 69.6344 122.554 70.0807 122.554ZM79.7388 123.606C78.7027 123.606 77.9375 123.367 77.4433 122.888C76.9491 122.394 76.6223 121.741 76.4629 120.928C76.3195 120.115 76.2477 119.206 76.2477 118.202V114.95C76.2477 113.595 76.3513 112.511 76.5586 111.698C76.7658 110.869 77.1245 110.271 77.6346 109.904C78.1447 109.538 78.8461 109.354 79.7388 109.354C80.6953 109.354 81.4127 109.554 81.8909 109.952C82.3851 110.335 82.7119 110.869 82.8713 111.554C83.0307 112.224 83.1104 112.981 83.1104 113.826V114.376H81.9148V113.826C81.9148 112.885 81.8351 112.168 81.6757 111.674C81.5322 111.164 81.3011 110.813 80.9823 110.622C80.6634 110.415 80.249 110.311 79.7388 110.311C79.1171 110.311 78.6469 110.462 78.3281 110.765C78.0092 111.052 77.794 111.522 77.6824 112.176C77.5708 112.83 77.5151 113.706 77.5151 114.806V118.393C77.5151 119.892 77.6585 120.976 77.9455 121.645C78.2483 122.315 78.8541 122.649 79.7628 122.649C80.3845 122.649 80.8468 122.514 81.1496 122.243C81.4685 121.972 81.6757 121.549 81.7713 120.976C81.867 120.402 81.9148 119.66 81.9148 118.752V118.226H83.1104V118.728C83.1104 119.652 83.0387 120.481 82.8952 121.215C82.7517 121.948 82.4409 122.53 81.9626 122.96C81.4844 123.391 80.7431 123.606 79.7388 123.606ZM85.4777 123.391V104.022H86.745V111.028C87.1913 110.518 87.6935 110.112 88.2514 109.809C88.8094 109.506 89.4072 109.354 90.0448 109.354C90.4593 109.354 90.8259 109.458 91.1448 109.665C91.4795 109.857 91.7426 110.175 91.9338 110.622C92.1251 111.052 92.2208 111.634 92.2208 112.367V123.391H90.9296V112.511C90.9296 111.666 90.802 111.092 90.547 110.789C90.2919 110.486 89.9412 110.335 89.4948 110.335C89.0326 110.335 88.5623 110.478 88.0841 110.765C87.6058 111.036 87.1595 111.403 86.745 111.865V123.391H85.4777Z" fill="#263238"/>
<path d="M304.652 68.1641V48.7955H305.967V57.5233H312.758V48.7955H314.05V68.1641H312.758V58.5276H305.967V68.1641H304.652ZM317.397 68.1641V54.3431H318.688V68.1641H317.397ZM317.397 52.5258V50.3259H318.688V52.5258H317.397ZM325.203 72.8508C324.247 72.8508 323.434 72.7631 322.764 72.5877C322.095 72.4124 321.584 72.1414 321.234 71.7747C320.899 71.4081 320.732 70.9538 320.732 70.4118C320.732 69.9335 320.851 69.4872 321.09 69.0727C321.345 68.6742 321.656 68.3155 322.023 67.9967C322.405 67.6619 322.796 67.3909 323.195 67.1837C322.605 67.0243 322.174 66.833 321.903 66.6098C321.648 66.3707 321.521 66.0519 321.521 65.6533C321.521 65.207 321.68 64.7925 321.999 64.4099C322.318 64.0114 322.732 63.5969 323.242 63.1665C322.557 62.6723 322.079 62.0506 321.808 61.3014C321.553 60.5521 321.425 59.7471 321.425 58.8863C321.425 58.1211 321.553 57.3799 321.808 56.6625C322.079 55.9292 322.493 55.3234 323.051 54.8452C323.625 54.367 324.366 54.1279 325.275 54.1279C326.12 54.1279 326.773 54.3191 327.236 54.7017C327.714 55.0843 328.081 55.5068 328.336 55.9691C328.495 55.6662 328.75 55.3553 329.101 55.0365C329.451 54.7017 329.818 54.4706 330.201 54.3431L330.535 54.2235L330.894 55.18C330.623 55.2437 330.344 55.3474 330.057 55.4908C329.77 55.6343 329.507 55.8017 329.268 55.993C329.029 56.1683 328.83 56.3596 328.67 56.5669C328.798 56.8697 328.901 57.2683 328.981 57.7624C329.077 58.2407 329.125 58.6233 329.125 58.9102C329.125 59.8189 328.997 60.6398 328.742 61.3731C328.487 62.1064 328.081 62.6883 327.523 63.1187C326.965 63.5491 326.231 63.7643 325.323 63.7643C325.068 63.7643 324.797 63.7404 324.51 63.6926C324.239 63.6447 324.016 63.5889 323.84 63.5252C323.537 63.8281 323.258 64.1469 323.003 64.4816C322.748 64.8005 322.621 65.1113 322.621 65.4142C322.621 65.6693 322.708 65.8606 322.884 65.9881C323.075 66.1156 323.37 66.2192 323.768 66.2989L326.016 66.7054C327.148 66.9127 328.033 67.2554 328.67 67.7337C329.324 68.2119 329.651 68.8974 329.651 69.7901C329.651 70.5074 329.443 71.0893 329.029 71.5356C328.615 71.9979 328.073 72.3327 327.403 72.5399C326.733 72.7472 326 72.8508 325.203 72.8508ZM325.203 71.8226C326.144 71.8226 326.941 71.6632 327.594 71.3443C328.248 71.0255 328.575 70.5154 328.575 69.814C328.575 69.4792 328.495 69.1763 328.336 68.9053C328.192 68.6343 327.905 68.3952 327.475 68.188C327.044 67.9807 326.399 67.8054 325.538 67.6619L324.031 67.3989C323.76 67.5583 323.45 67.7655 323.099 68.0206C322.764 68.2757 322.469 68.5706 322.214 68.9053C321.959 69.256 321.832 69.6546 321.832 70.1009C321.832 70.7067 322.119 71.1451 322.692 71.4161C323.282 71.6871 324.119 71.8226 325.203 71.8226ZM325.323 62.8317C325.913 62.8317 326.383 62.7042 326.733 62.4491C327.084 62.1781 327.347 61.8434 327.523 61.4449C327.698 61.0304 327.81 60.6 327.857 60.1536C327.921 59.6913 327.953 59.2689 327.953 58.8863C327.953 58.5196 327.913 58.1211 327.833 57.6907C327.77 57.2444 327.642 56.8219 327.451 56.4234C327.26 56.0249 326.989 55.6981 326.638 55.443C326.303 55.1879 325.857 55.0604 325.299 55.0604C324.741 55.0604 324.287 55.1959 323.936 55.4669C323.585 55.7379 323.306 56.0806 323.099 56.4951C322.908 56.9096 322.772 57.332 322.692 57.7624C322.629 58.1929 322.597 58.5675 322.597 58.8863C322.597 59.2529 322.629 59.6674 322.692 60.1297C322.756 60.5761 322.884 61.0065 323.075 61.4209C323.266 61.8354 323.537 62.1781 323.888 62.4491C324.255 62.7042 324.733 62.8317 325.323 62.8317ZM331.987 68.1641V48.7955H333.254V55.8017C333.701 55.2916 334.203 54.8851 334.761 54.5822C335.319 54.2793 335.917 54.1279 336.554 54.1279C336.969 54.1279 337.335 54.2315 337.654 54.4387C337.989 54.63 338.252 54.9488 338.443 55.3952C338.635 55.8256 338.73 56.4074 338.73 57.1407V68.1641H337.439V57.2842C337.439 56.4393 337.312 55.8654 337.056 55.5626C336.801 55.2597 336.451 55.1082 336.004 55.1082C335.542 55.1082 335.072 55.2517 334.594 55.5386C334.115 55.8096 333.669 56.1763 333.254 56.6386V68.1641H331.987ZM308.909 94.4271C307.681 94.4271 306.733 94.18 306.063 93.6858C305.394 93.1757 304.923 92.4743 304.652 91.5816C304.397 90.6889 304.27 89.6766 304.27 88.5448V80.3191C304.27 79.1873 304.397 78.191 304.652 77.3302C304.923 76.4694 305.402 75.7998 306.087 75.3216C306.772 74.8274 307.737 74.5803 308.98 74.5803C310.112 74.5803 310.997 74.8035 311.635 75.2499C312.288 75.6962 312.75 76.3339 313.021 77.1628C313.308 77.9917 313.452 78.9721 313.452 80.1039V80.7735H312.208V80.0322C312.208 79.0757 312.113 78.2787 311.921 77.641C311.73 76.9874 311.403 76.4933 310.941 76.1585C310.479 75.8237 309.825 75.6564 308.98 75.6564C308.04 75.6564 307.322 75.8556 306.828 76.2541C306.334 76.6367 305.999 77.1787 305.824 77.8801C305.665 78.5656 305.585 79.3627 305.585 80.2713V88.7122C305.585 89.6527 305.68 90.4737 305.872 91.1751C306.063 91.8606 306.406 92.3946 306.9 92.7772C307.394 93.1598 308.096 93.3511 309.004 93.3511C309.865 93.3511 310.527 93.1677 310.989 92.8011C311.467 92.4344 311.794 91.9084 311.969 91.2229C312.161 90.5374 312.256 89.7244 312.256 88.7839V85.9384H309.172V84.9341H313.476V94.1641H312.639L312.448 91.9881C312.208 92.7373 311.81 93.3351 311.252 93.7815C310.71 94.2119 309.929 94.4271 308.909 94.4271ZM316.603 94.1641V80.3431H317.87V82.2082C318.284 81.5227 318.794 81.0206 319.4 80.7017C320.022 80.367 320.604 80.1996 321.146 80.1996C321.178 80.1996 321.21 80.1996 321.241 80.1996C321.289 80.1996 321.337 80.2076 321.385 80.2235V81.5386C321.321 81.5068 321.233 81.4908 321.122 81.4908C321.026 81.4749 320.939 81.4669 320.859 81.4669C320.221 81.4669 319.647 81.6184 319.137 81.9212C318.643 82.2241 318.221 82.6625 317.87 83.2364V94.1641H316.603ZM326.318 94.3793C325.409 94.3793 324.7 94.18 324.19 93.7815C323.696 93.3829 323.345 92.7931 323.138 92.012C322.946 91.2309 322.851 90.2664 322.851 89.1187V85.3884C322.851 84.2407 322.946 83.2762 323.138 82.4951C323.345 81.714 323.696 81.1242 324.19 80.7256C324.7 80.3271 325.409 80.1279 326.318 80.1279C327.242 80.1279 327.952 80.3271 328.446 80.7256C328.956 81.1242 329.307 81.714 329.498 82.4951C329.705 83.2603 329.809 84.2247 329.809 85.3884V89.1187C329.809 90.2664 329.705 91.2309 329.498 92.012C329.307 92.7931 328.956 93.3829 328.446 93.7815C327.952 94.18 327.242 94.3793 326.318 94.3793ZM326.318 93.4228C326.987 93.4228 327.482 93.2554 327.8 92.9207C328.119 92.5699 328.318 92.0758 328.398 91.4381C328.494 90.8005 328.542 90.0433 328.542 89.1665V85.3406C328.542 84.4479 328.494 83.6907 328.398 83.069C328.318 82.4314 328.119 81.9451 327.8 81.6104C327.482 81.2597 326.987 81.0843 326.318 81.0843C325.648 81.0843 325.154 81.2597 324.835 81.6104C324.532 81.9451 324.333 82.4314 324.238 83.069C324.158 83.6907 324.118 84.4479 324.118 85.3406V89.1665C324.118 90.0433 324.158 90.8005 324.238 91.4381C324.333 92.0758 324.532 92.5699 324.835 92.9207C325.154 93.2554 325.648 93.4228 326.318 93.4228ZM333.918 94.1641L331.647 80.3431H332.771L334.684 92.7054L337.051 80.3431H338.294L340.709 92.6576L342.503 80.3431H343.627L341.403 94.1641H340.088L337.696 82.0408L335.353 94.1641H333.918ZM348.801 94.3075C348.164 94.3075 347.685 94.18 347.367 93.9249C347.048 93.6699 346.84 93.3272 346.745 92.8967C346.649 92.4663 346.601 91.9801 346.601 91.4381V81.18H344.784V80.3431H346.601V75.9194H347.869V80.3431H350.212V81.18H347.869V91.2707C347.869 92.02 347.94 92.546 348.084 92.8489C348.227 93.1518 348.554 93.3032 349.064 93.3032C349.224 93.3032 349.391 93.2953 349.566 93.2793C349.758 93.2474 349.933 93.2156 350.092 93.1837V94.1641C349.901 94.2119 349.686 94.2438 349.447 94.2597C349.208 94.2916 348.993 94.3075 348.801 94.3075ZM352.046 94.1641V74.7955H353.313V81.8017C353.76 81.2916 354.262 80.8851 354.82 80.5822C355.378 80.2793 355.975 80.1279 356.613 80.1279C357.028 80.1279 357.394 80.2315 357.713 80.4387C358.048 80.63 358.311 80.9488 358.502 81.3952C358.693 81.8256 358.789 82.4074 358.789 83.1407V94.1641H357.498V83.2842C357.498 82.4393 357.37 81.8654 357.115 81.5626C356.86 81.2597 356.509 81.1082 356.063 81.1082C355.601 81.1082 355.131 81.2517 354.652 81.5386C354.174 81.8096 353.728 82.1763 353.313 82.6386V94.1641H352.046Z" fill="#263238"/>
<path d="M369.77 162.484V143.116H371.061V161.456H376.92V162.484H369.77ZM381.464 162.7C380.555 162.7 379.846 162.5 379.336 162.102C378.842 161.703 378.491 161.113 378.284 160.332C378.092 159.551 377.997 158.587 377.997 157.439V153.709C377.997 152.561 378.092 151.597 378.284 150.815C378.491 150.034 378.842 149.444 379.336 149.046C379.846 148.647 380.555 148.448 381.464 148.448C382.389 148.448 383.098 148.647 383.592 149.046C384.102 149.444 384.453 150.034 384.644 150.815C384.851 151.581 384.955 152.545 384.955 153.709V157.439C384.955 158.587 384.851 159.551 384.644 160.332C384.453 161.113 384.102 161.703 383.592 162.102C383.098 162.5 382.389 162.7 381.464 162.7ZM381.464 161.743C382.133 161.743 382.628 161.576 382.946 161.241C383.265 160.89 383.465 160.396 383.544 159.758C383.64 159.121 383.688 158.364 383.688 157.487V153.661C383.688 152.768 383.64 152.011 383.544 151.389C383.465 150.752 383.265 150.265 382.946 149.931C382.628 149.58 382.133 149.405 381.464 149.405C380.794 149.405 380.3 149.58 379.981 149.931C379.679 150.265 379.479 150.752 379.384 151.389C379.304 152.011 379.264 152.768 379.264 153.661V157.487C379.264 158.364 379.304 159.121 379.384 159.758C379.479 160.396 379.679 160.89 379.981 161.241C380.3 161.576 380.794 161.743 381.464 161.743ZM389.065 162.484L386.793 148.663H387.917L389.83 161.026L392.197 148.663H393.44L395.855 160.978L397.649 148.663H398.773L396.549 162.484H395.234L392.843 150.361L390.499 162.484H389.065ZM404.163 162.7C403.429 162.7 402.8 162.556 402.274 162.269C401.747 161.966 401.341 161.432 401.054 160.667C400.783 159.886 400.648 158.786 400.648 157.367V153.685C400.648 152.234 400.791 151.134 401.078 150.385C401.365 149.636 401.771 149.126 402.297 148.855C402.839 148.584 403.469 148.448 404.186 148.448C405.047 148.448 405.725 148.631 406.219 148.998C406.713 149.365 407.064 149.955 407.271 150.768C407.478 151.565 407.582 152.625 407.582 153.948V155.263H401.915V157.463C401.915 158.563 401.987 159.424 402.13 160.045C402.289 160.667 402.537 161.105 402.871 161.361C403.206 161.616 403.636 161.743 404.163 161.743C404.497 161.743 404.832 161.687 405.167 161.576C405.502 161.464 405.781 161.201 406.004 160.787C406.227 160.372 406.339 159.727 406.339 158.85V157.822H407.582V158.73C407.582 159.91 407.335 160.866 406.841 161.6C406.362 162.333 405.47 162.7 404.163 162.7ZM401.915 154.498H406.339V153.422C406.339 152.593 406.291 151.883 406.195 151.294C406.115 150.688 405.924 150.226 405.621 149.907C405.318 149.572 404.84 149.405 404.186 149.405C403.676 149.405 403.246 149.516 402.895 149.739C402.56 149.947 402.313 150.345 402.154 150.935C401.995 151.509 401.915 152.346 401.915 153.446V154.498ZM410.138 162.484V148.663H411.406V150.528C411.82 149.843 412.33 149.341 412.936 149.022C413.558 148.687 414.139 148.52 414.681 148.52C414.713 148.52 414.745 148.52 414.777 148.52C414.825 148.52 414.873 148.528 414.921 148.544V149.859C414.857 149.827 414.769 149.811 414.658 149.811C414.562 149.795 414.474 149.787 414.395 149.787C413.757 149.787 413.183 149.939 412.673 150.242C412.179 150.544 411.756 150.983 411.406 151.557V162.484H410.138ZM369.77 188.484V169.116H374.457C375.604 169.116 376.481 169.331 377.087 169.761C377.709 170.176 378.131 170.75 378.354 171.483C378.593 172.2 378.713 173.005 378.713 173.898C378.713 174.616 378.633 175.301 378.474 175.955C378.33 176.608 378.051 177.166 377.637 177.628C377.238 178.075 376.649 178.362 375.867 178.489L378.976 188.484H377.685L374.672 178.728H371.061V188.484H369.77ZM371.061 177.724H374.409C375.238 177.724 375.867 177.573 376.298 177.27C376.728 176.951 377.023 176.505 377.183 175.931C377.358 175.357 377.446 174.679 377.446 173.898C377.446 172.671 377.238 171.738 376.824 171.101C376.425 170.463 375.612 170.144 374.385 170.144H371.061V177.724ZM381.674 188.484V174.663H382.965V188.484H381.674ZM381.674 172.846V170.646H382.965V172.846H381.674ZM389.145 188.7C388.061 188.7 387.2 188.349 386.562 187.647C385.925 186.93 385.558 185.966 385.462 184.754L386.538 184.443C386.618 185.607 386.881 186.452 387.328 186.978C387.79 187.488 388.412 187.743 389.193 187.743C389.894 187.743 390.436 187.552 390.819 187.169C391.201 186.771 391.393 186.213 391.393 185.495C391.393 185.001 391.225 184.491 390.89 183.965C390.572 183.423 390.061 182.857 389.36 182.267L387.758 180.904C387.072 180.315 386.57 179.757 386.252 179.231C385.933 178.689 385.773 178.075 385.773 177.389C385.773 176.752 385.901 176.218 386.156 175.787C386.427 175.357 386.794 175.03 387.256 174.807C387.734 174.568 388.284 174.448 388.906 174.448C389.942 174.448 390.715 174.775 391.225 175.429C391.735 176.082 392.006 176.959 392.038 178.059L391.106 178.346C391.09 177.628 390.986 177.055 390.795 176.624C390.619 176.194 390.372 175.883 390.053 175.692C389.751 175.5 389.392 175.405 388.977 175.405C388.372 175.405 387.878 175.564 387.495 175.883C387.128 176.186 386.945 176.64 386.945 177.246C386.945 177.756 387.041 178.202 387.232 178.585C387.439 178.952 387.814 179.382 388.356 179.876L390.006 181.335C390.42 181.685 390.819 182.06 391.201 182.459C391.584 182.857 391.895 183.303 392.134 183.798C392.389 184.276 392.516 184.85 392.516 185.519C392.516 186.189 392.373 186.763 392.086 187.241C391.815 187.703 391.424 188.062 390.914 188.317C390.42 188.572 389.83 188.7 389.145 188.7ZM394.536 188.484V169.116H395.803V181.885L400.944 174.663H402.307L398.672 179.948L402.116 188.484H400.824L397.716 180.713L395.803 183.296V188.484H394.536Z" fill="#263238"/>
<path d="M380.395 252.82V233.452H381.686V251.792H387.545V252.82H380.395ZM392.089 253.036C391.18 253.036 390.471 252.836 389.961 252.438C389.467 252.039 389.116 251.449 388.909 250.668C388.717 249.887 388.622 248.923 388.622 247.775V244.045C388.622 242.897 388.717 241.932 388.909 241.151C389.116 240.37 389.467 239.78 389.961 239.382C390.471 238.983 391.18 238.784 392.089 238.784C393.014 238.784 393.723 238.983 394.217 239.382C394.727 239.78 395.078 240.37 395.269 241.151C395.476 241.917 395.58 242.881 395.58 244.045V247.775C395.58 248.923 395.476 249.887 395.269 250.668C395.078 251.449 394.727 252.039 394.217 252.438C393.723 252.836 393.014 253.036 392.089 253.036ZM392.089 252.079C392.758 252.079 393.253 251.912 393.571 251.577C393.89 251.226 394.09 250.732 394.169 250.094C394.265 249.457 394.313 248.7 394.313 247.823V243.997C394.313 243.104 394.265 242.347 394.169 241.725C394.09 241.088 393.89 240.601 393.571 240.267C393.253 239.916 392.758 239.741 392.089 239.741C391.419 239.741 390.925 239.916 390.606 240.267C390.304 240.601 390.104 241.088 390.009 241.725C389.929 242.347 389.889 243.104 389.889 243.997V247.823C389.889 248.7 389.929 249.457 390.009 250.094C390.104 250.732 390.304 251.226 390.606 251.577C390.925 251.912 391.419 252.079 392.089 252.079ZM399.69 252.82L397.418 238.999H398.542L400.455 251.362L402.822 238.999H404.065L406.48 251.314L408.274 238.999H409.398L407.174 252.82H405.859L403.468 240.697L401.124 252.82H399.69ZM414.788 253.036C414.054 253.036 413.425 252.892 412.899 252.605C412.372 252.302 411.966 251.768 411.679 251.003C411.408 250.222 411.273 249.122 411.273 247.703V244.021C411.273 242.57 411.416 241.47 411.703 240.721C411.99 239.972 412.396 239.462 412.922 239.191C413.464 238.92 414.094 238.784 414.811 238.784C415.672 238.784 416.35 238.967 416.844 239.334C417.338 239.701 417.689 240.291 417.896 241.104C418.103 241.901 418.207 242.961 418.207 244.284V245.599H412.54V247.799C412.54 248.899 412.612 249.76 412.755 250.381C412.914 251.003 413.162 251.441 413.496 251.696C413.831 251.952 414.261 252.079 414.788 252.079C415.122 252.079 415.457 252.023 415.792 251.912C416.127 251.8 416.406 251.537 416.629 251.123C416.852 250.708 416.964 250.062 416.964 249.186V248.158H418.207V249.066C418.207 250.246 417.96 251.202 417.466 251.936C416.987 252.669 416.095 253.036 414.788 253.036ZM412.54 244.834H416.964V243.758C416.964 242.929 416.916 242.219 416.82 241.63C416.74 241.024 416.549 240.562 416.246 240.243C415.943 239.908 415.465 239.741 414.811 239.741C414.301 239.741 413.871 239.852 413.52 240.075C413.185 240.283 412.938 240.681 412.779 241.271C412.62 241.845 412.54 242.682 412.54 243.782V244.834ZM420.763 252.82V238.999H422.031V240.864C422.445 240.179 422.955 239.677 423.561 239.358C424.183 239.023 424.764 238.856 425.306 238.856C425.338 238.856 425.37 238.856 425.402 238.856C425.45 238.856 425.498 238.864 425.546 238.88V240.195C425.482 240.163 425.394 240.147 425.283 240.147C425.187 240.131 425.099 240.123 425.02 240.123C424.382 240.123 423.808 240.275 423.298 240.577C422.804 240.88 422.381 241.319 422.031 241.893V252.82H420.763ZM383.862 278.82L379.175 259.452H380.467L384.484 276.549L388.238 259.452H389.505L385.082 278.82H383.862ZM394.377 279.036C393.469 279.036 392.759 278.836 392.249 278.438C391.755 278.039 391.404 277.449 391.197 276.668C391.006 275.887 390.91 274.923 390.91 273.775V270.045C390.91 268.897 391.006 267.932 391.197 267.151C391.404 266.37 391.755 265.78 392.249 265.382C392.759 264.983 393.469 264.784 394.377 264.784C395.302 264.784 396.011 264.983 396.505 265.382C397.016 265.78 397.366 266.37 397.558 267.151C397.765 267.917 397.868 268.881 397.868 270.045V273.775C397.868 274.923 397.765 275.887 397.558 276.668C397.366 277.449 397.016 278.039 396.505 278.438C396.011 278.836 395.302 279.036 394.377 279.036ZM394.377 278.079C395.047 278.079 395.541 277.912 395.86 277.577C396.179 277.226 396.378 276.732 396.458 276.094C396.553 275.457 396.601 274.7 396.601 273.823V269.997C396.601 269.104 396.553 268.347 396.458 267.725C396.378 267.088 396.179 266.601 395.86 266.267C395.541 265.916 395.047 265.741 394.377 265.741C393.708 265.741 393.214 265.916 392.895 266.267C392.592 266.601 392.393 267.088 392.297 267.725C392.217 268.347 392.177 269.104 392.177 269.997V273.823C392.177 274.7 392.217 275.457 392.297 276.094C392.393 276.732 392.592 277.226 392.895 277.577C393.214 277.912 393.708 278.079 394.377 278.079ZM400.566 278.82V259.452H401.833V278.82H400.566ZM407.083 279.036C406.525 279.036 406.039 278.908 405.624 278.653C405.21 278.398 404.883 278.047 404.644 277.601C404.421 277.139 404.309 276.612 404.309 276.023C404.309 275.433 404.381 274.923 404.525 274.492C404.684 274.046 404.963 273.631 405.361 273.249C405.76 272.866 406.326 272.468 407.059 272.053C407.808 271.623 408.773 271.129 409.953 270.571V269.59C409.953 268.586 409.889 267.805 409.761 267.247C409.65 266.689 409.45 266.299 409.163 266.075C408.892 265.852 408.518 265.741 408.04 265.741C407.673 265.741 407.322 265.804 406.987 265.932C406.653 266.059 406.374 266.314 406.151 266.697C405.943 267.064 405.84 267.614 405.84 268.347V268.706H404.596C404.596 267.383 404.859 266.402 405.385 265.764C405.927 265.111 406.828 264.784 408.087 264.784C409.251 264.784 410.064 265.151 410.526 265.884C410.989 266.617 411.22 267.805 411.22 269.447V276.405C411.22 276.533 411.22 276.78 411.22 277.146C411.236 277.497 411.244 277.84 411.244 278.175C411.26 278.509 411.276 278.725 411.292 278.82H410.192C410.16 278.486 410.12 278.135 410.072 277.768C410.024 277.402 409.992 277.139 409.976 276.979C409.769 277.553 409.411 278.039 408.9 278.438C408.39 278.836 407.785 279.036 407.083 279.036ZM407.394 277.983C407.792 277.983 408.151 277.896 408.47 277.72C408.789 277.529 409.076 277.29 409.331 277.003C409.586 276.7 409.793 276.381 409.953 276.047V271.503C409.108 271.95 408.398 272.332 407.824 272.651C407.266 272.97 406.82 273.273 406.485 273.56C406.166 273.847 405.935 274.173 405.792 274.54C405.648 274.891 405.577 275.321 405.577 275.831C405.577 276.66 405.768 277.226 406.151 277.529C406.533 277.832 406.948 277.983 407.394 277.983ZM416.814 278.964C416.176 278.964 415.698 278.836 415.379 278.581C415.061 278.326 414.853 277.983 414.758 277.553C414.662 277.123 414.614 276.636 414.614 276.094V265.836H412.797V264.999H414.614V260.576H415.882V264.999H418.225V265.836H415.882V275.927C415.882 276.676 415.953 277.202 416.097 277.505C416.24 277.808 416.567 277.959 417.077 277.959C417.237 277.959 417.404 277.952 417.579 277.936C417.771 277.904 417.946 277.872 418.105 277.84V278.82C417.914 278.868 417.699 278.9 417.46 278.916C417.221 278.948 417.005 278.964 416.814 278.964ZM420.25 278.82V264.999H421.541V278.82H420.25ZM420.25 263.182V260.982H421.541V263.182H420.25ZM424.828 278.82V259.452H426.095V278.82H424.828ZM429.217 278.82V264.999H430.508V278.82H429.217ZM429.217 263.182V260.982H430.508V263.182H429.217ZM436.593 278.964C435.955 278.964 435.477 278.836 435.158 278.581C434.839 278.326 434.632 277.983 434.536 277.553C434.441 277.123 434.393 276.636 434.393 276.094V265.836H432.575V264.999H434.393V260.576H435.66V264.999H438.003V265.836H435.66V275.927C435.66 276.676 435.732 277.202 435.875 277.505C436.019 277.808 436.346 277.959 436.856 277.959C437.015 277.959 437.182 277.952 437.358 277.936C437.549 277.904 437.724 277.872 437.884 277.84V278.82C437.693 278.868 437.477 278.9 437.238 278.916C436.999 278.948 436.784 278.964 436.593 278.964ZM439.359 282.264V281.235C440.268 281.235 440.929 281.156 441.344 280.996C441.774 280.853 442.045 280.654 442.157 280.398C442.284 280.143 442.348 279.864 442.348 279.562C442.348 279.243 442.308 278.9 442.229 278.533C442.149 278.167 442.061 277.792 441.966 277.41L439.048 264.999H440.292L443.018 277.625L445.648 264.999H446.915L443.544 279.944C443.432 280.47 443.225 280.901 442.922 281.235C442.635 281.586 442.244 281.841 441.75 282.001C441.256 282.176 440.634 282.264 439.885 282.264H439.359Z" fill="#263238"/>
<path d="M339.845 274.958C351.3 270.641 362.498 265.349 373.33 259.135" stroke="#263238" stroke-width="0.525737" stroke-linecap="round" stroke-linejoin="round"/>
<path d="M295.761 76.5803C287.803 83.6734 278.845 91.7859 269.249 100.758" stroke="#263238" stroke-width="0.525737" stroke-linecap="round" stroke-linejoin="round"/>
<path d="M120.183 280.867C112.213 284.008 103.202 287.634 93.4597 291.716" stroke="#263238" stroke-width="0.525737" stroke-linecap="round" stroke-linejoin="round"/>
<path d="M358.494 167.439C347.922 173.61 337.766 180.699 328.126 188.636" stroke="#263238" stroke-width="0.525737" stroke-linecap="round" stroke-linejoin="round"/>
<path d="M132.309 123.503C123.726 117.072 114.576 111.31 104.948 106.274" stroke="#263238" stroke-width="0.525737" stroke-linecap="round" stroke-linejoin="round"/>
<path d="M69.0703 485.531L110.59 485.199L152.101 485.093L235.124 484.867L318.147 485.08L359.667 485.199L401.178 485.531L359.667 485.85L318.147 485.97L235.124 486.196L152.101 485.97L110.59 485.85L69.0703 485.531Z" fill="#4CA771"/>
<path d="M67.6974 385.242H21.2266V397.537H67.6974V385.242Z" fill="#EBEBEB"/>
<path d="M48.0514 410.469C48.0514 410.469 48.0514 410.385 48.0514 410.24C48.0514 410.094 48.0514 409.865 48.0514 409.615C48.0514 409.032 48.0514 408.23 48.0514 407.189C48.0514 405.107 48.0514 401.984 47.9681 398.174L48.1139 398.31L1.64303 398.403C1.74713 398.299 1.40359 398.643 1.88246 398.174V410.469L1.65344 410.229L34.7681 410.344L44.5432 410.406H47.1874H47.8432H48.0826H47.8432H47.1769H44.5848L34.8618 410.479L1.54934 410.583H1.32031V410.354C1.32031 408.376 1.32031 406.357 1.32031 404.306V398.06L1.55975 397.82L48.0306 397.914H48.1763V398.06C48.1763 401.943 48.1139 405.024 48.093 407.158C48.093 408.199 48.093 408.98 48.093 409.553C48.093 409.802 48.093 410 48.093 410.156C48.093 410.312 48.0618 410.469 48.0514 410.469Z" fill="#E0E0E0"/>
<path d="M396.693 415.207C396.683 415.123 396.683 415.038 396.693 414.953C396.693 414.755 396.693 414.523 396.693 414.225C396.693 413.552 396.693 412.625 396.693 411.422C396.693 408.972 396.693 405.451 396.604 401.004L396.693 401.191L343.002 401.302C343.124 401.18 342.727 401.578 343.267 401.026V415.207L343.002 414.942L381.264 415.064L392.554 415.141H395.611H396.406H396.693C396.608 415.151 396.523 415.151 396.439 415.141H395.677H392.676L381.452 415.218L343.002 415.34H342.727V401.026L343.002 400.75L396.693 400.86H396.858V401.026C396.858 405.518 396.792 409.071 396.77 411.543C396.77 412.724 396.77 413.651 396.77 414.302C396.77 414.589 396.77 414.821 396.77 415.009C396.749 415.077 396.724 415.143 396.693 415.207Z" fill="#E0E0E0"/>
<path d="M403.939 401.005C403.939 401.005 403.939 400.906 403.939 400.741C403.939 400.575 403.939 400.288 403.939 399.979C403.939 399.284 403.939 398.335 403.939 397.132C403.939 394.649 403.939 391.128 403.84 386.802L404.027 387.001L371.769 387.078L372.045 386.802V394.097C372.045 396.47 372.045 398.776 372.045 400.983L371.78 400.719L394.856 400.851L401.588 400.917H403.398C403.611 400.904 403.825 400.904 404.038 400.917C403.844 400.933 403.648 400.933 403.453 400.917H401.699L395.077 400.983L371.824 401.116H371.57V400.851C371.57 398.644 371.57 396.337 371.57 393.964V386.846L371.846 386.57L404.105 386.648H404.303V386.846C404.303 391.261 404.226 394.781 404.204 397.297C404.204 398.478 404.204 399.416 404.204 400.1C404.142 400.409 404.054 400.712 403.939 401.005Z" fill="#E0E0E0"/>
<path d="M75.224 225.238C75.2142 225.154 75.2142 225.069 75.224 224.985C75.224 224.786 75.224 224.554 75.224 224.256C75.224 223.583 75.224 222.656 75.224 221.453C75.224 219.003 75.224 215.483 75.1357 211.035L75.224 211.223L21.5337 211.333C21.6551 211.212 21.2578 211.609 21.7986 211.057V225.238L21.5337 224.974L59.7956 225.095L71.0855 225.172H74.1425H74.9371H75.224C75.1397 225.183 75.0545 225.183 74.9702 225.172H74.2087H71.2069L59.9832 225.249L21.5337 225.371H21.2578V211.057L21.5337 210.781L75.224 210.892H75.3895V211.057C75.3895 215.549 75.3233 219.102 75.3012 221.574C75.3012 222.755 75.3012 223.682 75.3012 224.333C75.3012 224.62 75.3012 224.852 75.3012 225.04C75.2807 225.108 75.2549 225.174 75.224 225.238Z" fill="#E0E0E0"/>
<path d="M82.4702 211.037C82.4702 211.037 82.4702 210.937 82.4702 210.772C82.4702 210.606 82.4702 210.319 82.4702 210.01C82.4702 209.315 82.4702 208.366 82.4702 207.163C82.4702 204.68 82.4702 201.159 82.3709 196.833L82.5585 197.032L50.3002 197.109L50.5761 196.833V204.128C50.5761 206.501 50.5761 208.807 50.5761 211.015L50.3112 210.75L73.3876 210.882L80.1196 210.948H81.9295C82.1426 210.935 82.3564 210.935 82.5696 210.948C82.3749 210.964 82.1793 210.964 81.9847 210.948H80.2299L73.6083 211.015L50.3554 211.147H50.1016V210.882C50.1016 208.675 50.1016 206.368 50.1016 203.996V196.877L50.3775 196.602L82.6358 196.679H82.8344V196.877C82.8344 201.292 82.7572 204.812 82.7351 207.329C82.7351 208.509 82.7351 209.447 82.7351 210.132C82.6734 210.441 82.5848 210.743 82.4702 211.037Z" fill="#E0E0E0"/>
<path d="M442.424 325.469H410.758V333.846H442.424V325.469Z" fill="#EBEBEB"/>
<path d="M429.039 342.666C429.039 342.666 429.039 342.609 429.039 342.51C429.039 342.41 429.039 342.254 429.039 342.084C429.039 341.687 429.039 341.141 429.039 340.431C429.039 339.013 429.039 336.884 428.982 334.288L429.082 334.38L397.415 334.444C397.486 334.373 397.252 334.607 397.578 334.288V342.666L397.422 342.503L419.988 342.581L426.649 342.623H428.45H428.897H429.06H428.897H428.443H426.677L420.051 342.673L397.351 342.744H397.195V342.588C397.195 341.24 397.195 339.864 397.195 338.466V334.21L397.358 334.047L429.025 334.111H429.124V334.21C429.124 336.856 429.082 338.956 429.068 340.41C429.068 341.119 429.068 341.651 429.068 342.042C429.068 342.212 429.068 342.347 429.068 342.453C429.068 342.559 429.046 342.666 429.039 342.666Z" fill="#E0E0E0"/>
</svg>
