<svg width="179" height="61" viewBox="0 0 179 61" fill="none" xmlns="http://www.w3.org/2000/svg">
<rect y="0.718018" width="179" height="60" rx="7.7083" fill="black"/>
<path d="M63.277 41.4309H56.1965L54.4961 46.4656H51.4971L58.2036 27.8386H61.3195L68.026 46.4656H64.9759L63.277 41.4309ZM56.9298 39.1077H62.5423L59.7755 30.9368H59.698L56.9298 39.1077Z" fill="white"/>
<path d="M82.5004 39.6766C82.5004 43.8968 80.2478 46.6082 76.8486 46.6082C75.9875 46.6534 75.1311 46.4545 74.3775 46.0343C73.6239 45.6141 73.0035 44.9896 72.5874 44.2322H72.5231V50.9588H69.7432V32.8856H72.434V35.1444H72.4851C72.9204 34.3907 73.5512 33.7694 74.3105 33.3466C75.0699 32.9238 75.9293 32.7154 76.7974 32.7435C80.2347 32.7435 82.5004 35.4681 82.5004 39.6766ZM79.6431 39.6766C79.6431 36.9271 78.2261 35.1195 76.0641 35.1195C73.9401 35.1195 72.5115 36.9652 72.5115 39.6766C72.5115 42.4129 73.9401 44.2454 76.0641 44.2454C78.2261 44.2454 79.643 42.451 79.643 39.6766H79.6431Z" fill="white"/>
<path d="M97.4213 39.6766C97.4213 43.8968 95.1681 46.6082 91.7688 46.6082C90.9077 46.6534 90.0513 46.4545 89.2977 46.0343C88.5441 45.6141 87.9238 44.9896 87.5077 44.2322H87.4433V50.9588H84.6635V32.8856H87.3542V35.1444H87.4054C87.8406 34.3907 88.4714 33.7694 89.2308 33.3466C89.9901 32.9238 90.8495 32.7154 91.7176 32.7435C95.1549 32.7435 97.4213 35.4681 97.4213 39.6766ZM94.5633 39.6766C94.5633 36.9271 93.1463 35.1195 90.9844 35.1195C88.8604 35.1195 87.4317 36.9652 87.4317 39.6766C87.4317 42.4129 88.8604 44.2454 90.9844 44.2454C93.1463 44.2454 94.5633 42.451 94.5633 39.6766V39.6766Z" fill="white"/>
<path d="M107.272 41.2699C107.478 43.117 109.267 44.3298 111.713 44.3298C114.056 44.3298 115.742 43.117 115.742 41.4514C115.742 40.0056 114.725 39.1399 112.318 38.5466L109.91 37.9651C106.499 37.1389 104.916 35.5393 104.916 32.9436C104.916 29.7297 107.709 27.5222 111.673 27.5222C115.6 27.5222 118.291 29.7297 118.381 32.9436H115.575C115.407 31.0847 113.875 29.9627 111.635 29.9627C109.396 29.9627 107.864 31.0979 107.864 32.7503C107.864 34.0672 108.842 34.8421 111.237 35.4353L113.283 35.9392C117.094 36.843 118.676 38.3782 118.676 41.1027C118.676 44.5876 115.91 46.7702 111.507 46.7702C107.387 46.7702 104.606 44.6389 104.426 41.2697L107.272 41.2699Z" fill="white"/>
<path d="M124.671 29.6531V32.8669H127.246V35.0745H124.671V42.5613C124.671 43.7244 125.186 44.2664 126.318 44.2664C126.624 44.261 126.929 44.2395 127.233 44.2019V46.3962C126.724 46.4916 126.207 46.5348 125.689 46.5251C122.947 46.5251 121.878 45.4924 121.878 42.8586V35.0745H119.908V32.8669H121.878V29.6531H124.671Z" fill="white"/>
<path d="M128.739 39.6682C128.739 35.3953 131.249 32.7102 135.162 32.7102C139.089 32.7102 141.587 35.3952 141.587 39.6682C141.587 43.9529 139.102 46.6262 135.162 46.6262C131.224 46.6262 128.739 43.9529 128.739 39.6682ZM138.754 39.6682C138.754 36.7371 137.415 35.0071 135.162 35.0071C132.91 35.0071 131.57 36.7502 131.57 39.6682C131.57 42.6111 132.91 44.3279 135.162 44.3279C137.415 44.3279 138.754 42.6111 138.754 39.6682H138.754Z" fill="white"/>
<path d="M143.882 32.8854H146.534V35.1969H146.598C146.778 34.475 147.199 33.837 147.793 33.3902C148.386 32.9434 149.114 32.7149 149.856 32.7433C150.176 32.7422 150.496 32.7771 150.808 32.8473V35.4548C150.404 35.3308 149.982 35.2739 149.559 35.2863C149.155 35.2699 148.753 35.3413 148.379 35.4956C148.005 35.6499 147.669 35.8835 147.394 36.1804C147.119 36.4772 146.911 36.8303 146.785 37.2153C146.658 37.6003 146.617 38.0081 146.662 38.4108V46.466H143.882L143.882 32.8854Z" fill="white"/>
<path d="M163.621 42.469C163.247 44.9343 160.853 46.6262 157.789 46.6262C153.85 46.6262 151.404 43.9792 151.404 39.7327C151.404 35.4729 153.863 32.7102 157.672 32.7102C161.419 32.7102 163.776 35.2913 163.776 39.4089V40.364H154.21V40.5325C154.166 41.0323 154.229 41.5358 154.393 42.0095C154.558 42.4833 154.822 42.9165 155.166 43.2803C155.511 43.6441 155.929 43.9302 156.392 44.1197C156.855 44.3092 157.354 44.3976 157.854 44.3791C158.511 44.4409 159.17 44.2883 159.733 43.9441C160.297 43.6 160.734 43.0826 160.981 42.469L163.621 42.469ZM154.223 38.4158H160.994C161.019 37.9664 160.951 37.5167 160.795 37.0948C160.638 36.673 160.396 36.2882 160.084 35.9646C159.772 35.6409 159.397 35.3854 158.982 35.2141C158.567 35.0428 158.121 34.9593 157.672 34.969C157.22 34.9663 156.771 35.0535 156.352 35.2256C155.933 35.3977 155.552 35.6513 155.232 35.9718C154.911 36.2922 154.657 36.6732 154.484 37.0927C154.311 37.5121 154.222 37.9618 154.223 38.4158V38.4158Z" fill="white"/>
<path d="M56.5688 13.8139C57.1516 13.7719 57.7364 13.8602 58.2811 14.0724C58.8258 14.2845 59.3167 14.6152 59.7184 15.0407C60.1202 15.4661 60.4228 15.9757 60.6044 16.5326C60.786 17.0895 60.8421 17.6799 60.7686 18.2611C60.7686 21.1205 59.2275 22.7641 56.5688 22.7641H53.3448V13.8139H56.5688ZM54.7311 21.4984H56.414C56.8304 21.5233 57.2472 21.4549 57.6339 21.2979C58.0207 21.141 58.3676 20.8996 58.6496 20.5912C58.9316 20.2829 59.1414 19.9154 59.2638 19.5155C59.3863 19.1155 59.4183 18.6933 59.3575 18.2794C59.4139 17.8671 59.3786 17.4475 59.2543 17.0505C59.13 16.6535 58.9196 16.289 58.6383 15.9831C58.357 15.6772 58.0117 15.4375 57.6271 15.2811C57.2426 15.1248 56.8283 15.0556 56.414 15.0787H54.7311V21.4984Z" fill="white"/>
<path d="M62.3366 19.3849C62.2943 18.9411 62.3449 18.4932 62.4853 18.0701C62.6257 17.647 62.8527 17.258 63.1517 16.928C63.4508 16.598 63.8154 16.3344 64.222 16.154C64.6287 15.9736 65.0684 15.8804 65.5131 15.8804C65.9578 15.8804 66.3976 15.9736 66.8042 16.154C67.2109 16.3344 67.5754 16.598 67.8745 16.928C68.1736 17.258 68.4006 17.647 68.541 18.0701C68.6813 18.4932 68.732 18.9411 68.6896 19.3849C68.7328 19.8293 68.6827 20.2777 68.5427 20.7015C68.4027 21.1253 68.1759 21.515 67.8767 21.8457C67.5775 22.1763 67.2127 22.4405 66.8057 22.6213C66.3986 22.8021 65.9583 22.8955 65.5131 22.8955C65.0679 22.8955 64.6276 22.8021 64.2206 22.6213C63.8135 22.4405 63.4487 22.1763 63.1495 21.8457C62.8504 21.515 62.6235 21.1253 62.4835 20.7015C62.3435 20.2777 62.2935 19.8293 62.3366 19.3849V19.3849ZM67.3223 19.3849C67.3223 17.9208 66.6664 17.0646 65.5153 17.0646C64.3598 17.0646 63.7098 17.9208 63.7098 19.385C63.7098 20.8608 64.3599 21.7104 65.5153 21.7104C66.6664 21.7104 67.3223 20.8549 67.3223 19.3849H67.3223Z" fill="white"/>
<path d="M77.1437 22.7583H75.7647L74.3726 17.7837H74.2674L72.8811 22.7583H71.5152L69.6586 16.0039H71.0069L72.2135 21.1579H72.3128L73.6977 16.0039H74.973L76.3578 21.1579H76.463L77.6637 16.0039H78.993L77.1437 22.7583Z" fill="white"/>
<path d="M80.5446 16.002H81.8243V17.075H81.9236C82.0921 16.6896 82.3763 16.3666 82.7367 16.1509C83.097 15.9352 83.5154 15.8375 83.9337 15.8716C84.2614 15.8469 84.5905 15.8965 84.8965 16.0166C85.2026 16.1368 85.4778 16.3244 85.7017 16.5657C85.9256 16.807 86.0925 17.0956 86.19 17.4104C86.2875 17.7251 86.3132 18.0578 86.2651 18.3838V22.7563H84.9358V18.7186C84.9358 17.6331 84.4654 17.0933 83.4823 17.0933C83.2598 17.0829 83.0376 17.1209 82.8311 17.2047C82.6246 17.2884 82.4386 17.4159 82.2858 17.5785C82.1331 17.7411 82.0172 17.9349 81.9461 18.1466C81.875 18.3583 81.8504 18.5829 81.8739 18.805V22.7564H80.5446L80.5446 16.002Z" fill="white"/>
<path d="M88.382 13.3713H89.7113V22.7624H88.382V13.3713Z" fill="white"/>
<path d="M91.5534 19.3851C91.5111 18.9412 91.5618 18.4933 91.7022 18.0702C91.8426 17.647 92.0696 17.258 92.3688 16.928C92.6679 16.5981 93.0325 16.3344 93.4391 16.154C93.8458 15.9736 94.2856 15.8804 94.7303 15.8804C95.175 15.8804 95.6148 15.9736 96.0215 16.154C96.4282 16.3344 96.7927 16.5981 97.0919 16.928C97.391 17.258 97.618 17.647 97.7584 18.0702C97.8988 18.4933 97.9495 18.9412 97.9072 19.3851C97.9503 19.8294 97.9002 20.2779 97.7601 20.7017C97.6201 21.1255 97.3932 21.5152 97.094 21.8458C96.7948 22.1764 96.43 22.4406 96.0229 22.6214C95.6158 22.8022 95.1755 22.8956 94.7303 22.8956C94.2851 22.8956 93.8448 22.8022 93.4377 22.6214C93.0307 22.4406 92.6658 22.1764 92.3666 21.8458C92.0674 21.5152 91.8405 21.1255 91.7005 20.7017C91.5604 20.2779 91.5103 19.8294 91.5534 19.3851V19.3851ZM96.5391 19.3851C96.5391 17.921 95.8832 17.0648 94.7321 17.0648C93.5766 17.0648 92.9266 17.921 92.9266 19.3851C92.9266 20.8609 93.5767 21.7105 94.7321 21.7105C95.8832 21.7105 96.5391 20.855 96.5391 19.3851H96.5391Z" fill="white"/>
<path d="M99.3065 20.855C99.3065 19.6391 100.209 18.9382 101.812 18.8386L103.636 18.7331V18.1501C103.636 17.4368 103.166 17.0339 102.257 17.0339C101.515 17.0339 101.001 17.3071 100.854 17.7847H99.5665C99.7024 16.6245 100.791 15.8804 102.319 15.8804C104.007 15.8804 104.96 16.7234 104.96 18.1501V22.7651H103.68V21.8159H103.575C103.361 22.1564 103.062 22.434 102.706 22.6203C102.351 22.8066 101.952 22.895 101.552 22.8764C101.269 22.9059 100.983 22.8757 100.713 22.7876C100.442 22.6996 100.193 22.5557 99.9819 22.3652C99.7703 22.1748 99.601 21.942 99.4846 21.6819C99.3683 21.4217 99.3076 21.14 99.3065 20.855V20.855ZM103.636 20.2778V19.7131L101.991 19.8186C101.064 19.8808 100.643 20.1973 100.643 20.7927C100.643 21.4006 101.169 21.7544 101.892 21.7544C102.104 21.7759 102.318 21.7544 102.522 21.6913C102.725 21.6282 102.914 21.5246 103.076 21.3869C103.239 21.2491 103.373 21.0799 103.469 20.8894C103.565 20.6989 103.622 20.4909 103.636 20.2778V20.2778Z" fill="white"/>
<path d="M106.705 19.3823C106.705 17.2481 107.799 15.896 109.501 15.896C109.922 15.8766 110.34 15.9777 110.706 16.1875C111.071 16.3974 111.37 16.7073 111.567 17.081H111.666V13.3713H112.995V22.7624H111.721V21.6953H111.616C111.404 22.0665 111.095 22.3726 110.723 22.5803C110.35 22.788 109.927 22.8895 109.501 22.8738C107.788 22.8738 106.705 21.5218 106.705 19.3823ZM108.078 19.3823C108.078 20.815 108.752 21.677 109.878 21.677C110.998 21.677 111.691 20.8025 111.691 19.3882C111.691 17.9805 110.991 17.0935 109.878 17.0935C108.759 17.0935 108.078 17.9614 108.078 19.3823H108.078Z" fill="white"/>
<path d="M118.507 19.3849C118.465 18.9411 118.515 18.4932 118.656 18.0701C118.796 17.647 119.023 17.258 119.322 16.928C119.621 16.598 119.986 16.3344 120.392 16.154C120.799 15.9736 121.239 15.8804 121.683 15.8804C122.128 15.8804 122.568 15.9736 122.975 16.154C123.381 16.3344 123.746 16.598 124.045 16.928C124.344 17.258 124.571 17.647 124.711 18.0701C124.852 18.4932 124.902 18.9411 124.86 19.3849C124.903 19.8293 124.853 20.2777 124.713 20.7015C124.573 21.1253 124.346 21.515 124.047 21.8457C123.748 22.1763 123.383 22.4405 122.976 22.6213C122.569 22.8021 122.129 22.8955 121.683 22.8955C121.238 22.8955 120.798 22.8021 120.391 22.6213C119.984 22.4405 119.619 22.1763 119.32 21.8457C119.021 21.515 118.794 21.1253 118.654 20.7015C118.514 20.2777 118.464 19.8293 118.507 19.3849V19.3849ZM123.493 19.3849C123.493 17.9208 122.837 17.0646 121.686 17.0646C120.53 17.0646 119.88 17.9208 119.88 19.385C119.88 20.8608 120.53 21.7104 121.686 21.7104C122.837 21.7104 123.493 20.8549 123.493 19.3849Z" fill="white"/>
<path d="M126.645 16.002H127.925V17.075H128.024C128.192 16.6896 128.477 16.3666 128.837 16.1509C129.197 15.9352 129.616 15.8375 130.034 15.8716C130.362 15.8469 130.691 15.8965 130.997 16.0166C131.303 16.1368 131.578 16.3244 131.802 16.5657C132.026 16.807 132.193 17.0956 132.29 17.4104C132.388 17.7251 132.413 18.0578 132.365 18.3838V22.7563H131.036V18.7186C131.036 17.6331 130.566 17.0933 129.583 17.0933C129.36 17.0829 129.138 17.1209 128.931 17.2047C128.725 17.2884 128.539 17.4159 128.386 17.5785C128.233 17.7411 128.117 17.9349 128.046 18.1466C127.975 18.3583 127.951 18.5829 127.974 18.805V22.7564H126.645V16.002Z" fill="white"/>
<path d="M139.877 14.3286V16.041H141.336V17.1638H139.877V20.637C139.877 21.3445 140.168 21.6543 140.83 21.6543C140.999 21.6538 141.168 21.6435 141.336 21.6235V22.7339C141.098 22.7767 140.856 22.7995 140.613 22.802C139.135 22.802 138.546 22.2805 138.546 20.9783V17.1638H137.477V16.041H138.546V14.3286H139.877Z" fill="white"/>
<path d="M143.159 13.3713H144.476V17.0935H144.582C144.758 16.7045 145.05 16.3796 145.418 16.1631C145.785 15.9466 146.211 15.849 146.635 15.8836C146.961 15.8658 147.287 15.9203 147.59 16.0434C147.893 16.1665 148.164 16.355 148.386 16.5955C148.607 16.836 148.773 17.1226 148.872 17.4348C148.97 17.747 148.999 18.0771 148.955 18.4016V22.7625H147.625V18.7305C147.625 17.6516 147.123 17.1052 146.184 17.1052C145.956 17.0864 145.726 17.1179 145.511 17.1975C145.296 17.2771 145.101 17.4028 144.939 17.5659C144.778 17.729 144.653 17.9256 144.576 18.1418C144.498 18.358 144.468 18.5886 144.488 18.8176V22.7624H143.159L143.159 13.3713Z" fill="white"/>
<path d="M156.693 20.9415C156.513 21.5588 156.121 22.0928 155.588 22.45C155.054 22.8072 154.412 22.965 153.774 22.8956C153.331 22.9074 152.89 22.8221 152.482 22.6458C152.074 22.4695 151.71 22.2064 151.414 21.8747C151.118 21.543 150.897 21.1507 150.768 20.7249C150.638 20.2992 150.602 19.8503 150.663 19.4093C150.604 18.967 150.64 18.5171 150.77 18.0901C150.899 17.6631 151.118 17.2689 151.413 16.9343C151.707 16.5997 152.07 16.3324 152.477 16.1506C152.883 15.9688 153.324 15.8767 153.769 15.8805C155.643 15.8805 156.773 17.1645 156.773 19.2855V19.7506H152.017V19.8253C151.996 20.0732 152.027 20.3227 152.108 20.5578C152.189 20.7929 152.318 21.0085 152.487 21.1907C152.656 21.3729 152.861 21.5176 153.089 21.6157C153.317 21.7138 153.563 21.7631 153.811 21.7603C154.129 21.7986 154.451 21.7412 154.736 21.5954C155.022 21.4496 155.257 21.2219 155.413 20.9415L156.693 20.9415ZM152.017 18.7648H155.419C155.436 18.5381 155.405 18.3104 155.329 18.0963C155.253 17.8822 155.133 17.6865 154.977 17.5217C154.821 17.3569 154.632 17.2267 154.422 17.1395C154.213 17.0522 153.988 17.0098 153.761 17.015C153.531 17.0121 153.303 17.0554 153.09 17.1423C152.877 17.2292 152.684 17.358 152.521 17.5211C152.359 17.6842 152.23 17.8782 152.144 18.0918C152.057 18.3054 152.014 18.5342 152.017 18.7648H152.017Z" fill="white"/>
<path d="M38.535 31.3701C38.5523 30.032 38.9077 28.72 39.5683 27.5562C40.2288 26.3924 41.173 25.4146 42.313 24.7137C41.5888 23.6794 40.6334 22.8282 39.5227 22.2277C38.412 21.6273 37.1765 21.2941 35.9145 21.2546C33.2224 20.972 30.6125 22.8655 29.2407 22.8655C27.8423 22.8655 25.7301 21.2826 23.4556 21.3294C21.9844 21.377 20.5507 21.8048 19.294 22.5712C18.0373 23.3376 17.0006 24.4165 16.2848 25.7027C13.1843 31.0707 15.497 38.96 18.467 43.2992C19.953 45.4239 21.6897 47.7973 23.9621 47.7132C26.1858 47.6209 27.0163 46.2952 29.7005 46.2952C32.3597 46.2952 33.1389 47.7132 35.4574 47.6597C37.8436 47.6209 39.3469 45.5255 40.7808 43.3806C41.8485 41.8666 42.67 40.1934 43.2151 38.4228C41.8288 37.8365 40.6458 36.855 39.8135 35.6009C38.9813 34.3467 38.5367 32.8753 38.535 31.3701Z" fill="white"/>
<path d="M34.1579 18.4156C35.4589 16.8538 36.0999 14.8464 35.9447 12.8196C33.957 13.0283 32.121 13.9783 30.8024 15.4802C30.1577 16.2139 29.6639 17.0675 29.3493 17.9922C29.0347 18.9168 28.9054 19.8944 28.9688 20.8691C29.963 20.8793 30.9465 20.6638 31.8454 20.2389C32.7442 19.8139 33.5349 19.1905 34.1579 18.4156Z" fill="white"/>
</svg>
