<svg width="202" height="60" viewBox="0 0 202 60" fill="none" xmlns="http://www.w3.org/2000/svg">
<path d="M194.519 60H7.47999C3.36517 60 0 56.625 0 52.5V7.5C0 3.375 3.36517 0 7.47999 0H194.519C198.633 0 202 3.375 202 7.5V52.5C202 56.625 198.633 60 194.519 60Z" fill="black"/>
<path d="M30.9386 29.2361L15.0075 46.1861C15.009 46.1891 15.009 46.1921 15.0105 46.1951C15.4983 48.0371 17.1756 49.3916 19.1657 49.3916C19.9617 49.3916 20.7084 49.1756 21.3488 48.7976L21.3997 48.7676L39.3313 38.3951L30.9386 29.2361Z" fill="#EB4335"/>
<path d="M47.0479 26.3508L47.0329 26.3403L39.2911 21.8403L30.5692 29.6208L39.321 38.3928L47.0224 33.9393C48.3721 33.2088 49.2878 31.7823 49.2878 30.1368C49.2878 28.5033 48.3841 27.0828 47.0479 26.3508Z" fill="#FABC13"/>
<path d="M15.0081 14.0288C14.9124 14.3828 14.8615 14.7533 14.8615 15.1388V45.0893C14.8615 45.4748 14.9109 45.8468 15.0081 46.1993L31.4869 29.6828L15.0081 14.0288Z" fill="#547DBF"/>
<path d="M31.0553 30.1064L39.3014 21.8429L21.3892 11.4329C20.7383 11.0414 19.9797 10.8164 19.1657 10.8164C17.1756 10.8164 15.4968 12.1739 15.0075 14.0174V14.0219L31.0553 30.1064Z" fill="#30A851"/>
<path d="M101.888 32.5492C98.3686 32.5492 95.5002 35.2312 95.5002 38.9287C95.5002 42.6022 98.3686 45.3082 101.888 45.3082C105.407 45.3082 108.276 42.6022 108.276 38.9287C108.276 35.2312 105.407 32.5492 101.888 32.5492ZM101.888 42.7957C99.9591 42.7957 98.2953 41.2012 98.2953 38.9287C98.2953 36.6322 99.9591 35.0617 101.888 35.0617C103.817 35.0617 105.479 36.6322 105.479 38.9287C105.479 41.1997 103.817 42.7957 101.888 42.7957ZM87.9514 32.5492C84.4321 32.5492 81.5637 35.2312 81.5637 38.9287C81.5637 42.6022 84.4321 45.3082 87.9514 45.3082C91.4707 45.3082 94.3391 42.6022 94.3391 38.9287C94.3406 35.2312 91.4707 32.5492 87.9514 32.5492ZM87.9514 42.7957C86.0226 42.7957 84.3603 41.2012 84.3603 38.9287C84.3603 36.6322 86.0241 35.0617 87.9514 35.0617C89.8801 35.0617 91.5425 36.6322 91.5425 38.9287C91.544 41.1997 89.8801 42.7957 87.9514 42.7957ZM71.3754 34.5067V37.2127H77.8364C77.6434 38.7352 77.1376 39.8467 76.3655 40.6207C75.4259 41.5627 73.955 42.6022 71.3754 42.6022C67.3982 42.6022 64.2889 39.3877 64.2889 35.4007C64.2889 31.4137 67.3982 28.1992 71.3754 28.1992C73.5211 28.1992 75.0877 29.0452 76.2444 30.1327L78.1491 28.2232C76.5346 26.6767 74.3889 25.4917 71.3754 25.4917C65.9274 25.4917 61.3472 29.9377 61.3472 35.3992C61.3472 40.8607 65.9274 45.3067 71.3754 45.3067C74.3156 45.3067 76.5346 44.3407 78.2703 42.5272C80.0539 40.7392 80.609 38.2252 80.609 36.1957C80.609 35.5672 80.5612 34.9867 80.4639 34.5037H71.3754V34.5067ZM139.17 36.6082C138.64 35.1817 137.024 32.5477 133.722 32.5477C130.443 32.5477 127.72 35.1337 127.72 38.9272C127.72 42.5032 130.419 45.3067 134.036 45.3067C136.952 45.3067 138.64 43.5187 139.339 42.4792L137.169 41.0287C136.446 42.0922 135.457 42.7927 134.036 42.7927C132.613 42.7927 131.601 42.1402 130.95 40.8592L139.46 37.3312L139.17 36.6082ZM130.491 38.7352C130.419 36.2707 132.396 35.0137 133.817 35.0137C134.926 35.0137 135.866 35.5687 136.18 36.3667L130.491 38.7352ZM123.572 44.9212H126.369V26.1697H123.572V44.9212ZM118.992 33.9742H118.896C118.269 33.2257 117.065 32.5477 115.546 32.5477C112.363 32.5477 109.447 35.3512 109.447 38.9512C109.447 42.5272 112.363 45.3067 115.546 45.3067C117.065 45.3067 118.269 44.6302 118.896 43.8562H118.992V44.7742C118.992 47.2147 117.69 48.5197 115.592 48.5197C113.881 48.5197 112.82 47.2867 112.386 46.2487L109.951 47.2642C110.65 48.9562 112.507 51.0337 115.592 51.0337C118.871 51.0337 121.643 49.1002 121.643 44.3887V32.9347H118.992V33.9742V33.9742ZM115.787 42.7957C113.858 42.7957 112.244 41.1772 112.244 38.9527C112.244 36.7057 113.858 35.0617 115.787 35.0617C117.692 35.0617 119.185 36.7042 119.185 38.9527C119.185 41.1757 117.692 42.7957 115.787 42.7957ZM152.268 26.1697H145.578V44.9212H148.369V37.8172H152.267C155.361 37.8172 158.403 35.5717 158.403 31.9942C158.403 28.4167 155.362 26.1697 152.268 26.1697ZM152.34 35.2072H148.369V28.7797H152.34C154.427 28.7797 155.612 30.5122 155.612 31.9942C155.612 33.4462 154.427 35.2072 152.34 35.2072ZM169.595 32.5147C167.574 32.5147 165.48 33.4072 164.614 35.3857L167.093 36.4237C167.623 35.3857 168.609 35.0482 169.645 35.0482C171.089 35.0482 172.556 35.9167 172.58 37.4602V37.6537C172.075 37.3642 170.991 36.9292 169.669 36.9292C166.998 36.9292 164.277 38.4007 164.277 41.1517C164.277 43.6612 166.468 45.2767 168.922 45.2767C170.8 45.2767 171.834 44.4322 172.483 43.4437H172.579V44.8912H175.274V37.7017C175.274 34.3717 172.796 32.5147 169.595 32.5147ZM169.257 42.7912C168.343 42.7912 167.067 42.3322 167.067 41.1997C167.067 39.7522 168.656 39.1972 170.026 39.1972C171.253 39.1972 171.831 39.4627 172.577 39.8242C172.362 41.5612 170.87 42.7912 169.257 42.7912ZM185.092 32.9242L181.892 41.0542H181.796L178.476 32.9242H175.468L180.449 44.2867L177.609 50.6077H180.521L188.199 32.9242H185.092V32.9242ZM159.944 44.9212H162.736V26.1697H159.944V44.9212Z" fill="white"/>
<path d="M67.1725 15.6335H70.6656V20.4802C70.1416 20.658 69.6015 20.7901 69.0455 20.8767C68.4941 20.9633 67.8766 21.0066 67.193 21.0066C66.1539 21.0066 65.2767 20.7992 64.5612 20.3845C63.8502 19.9698 63.3102 19.3796 62.941 18.614C62.5719 17.8438 62.3873 16.9301 62.3873 15.8728C62.3873 14.8383 62.5901 13.936 62.9957 13.1658C63.4059 12.3956 63.9961 11.7986 64.7662 11.3748C65.541 10.9464 66.4707 10.7322 67.5553 10.7322C68.1113 10.7322 68.6377 10.7846 69.1344 10.8894C69.6357 10.9897 70.1005 11.1332 70.5289 11.3201L70.0846 12.3318C69.7155 12.1723 69.3076 12.0356 68.861 11.9216C68.4189 11.8077 67.9609 11.7507 67.4869 11.7507C66.6712 11.7507 65.9716 11.9194 65.3883 12.2566C64.8095 12.5938 64.3652 13.0701 64.0553 13.6853C63.75 14.3005 63.5973 15.0297 63.5973 15.8728C63.5973 16.7068 63.7317 17.4337 64.0006 18.0535C64.2695 18.6687 64.6888 19.1472 65.2584 19.489C65.8281 19.8308 66.5618 20.0017 67.4596 20.0017C67.9108 20.0017 68.2981 19.9766 68.6217 19.9265C68.9453 19.8718 69.2392 19.808 69.5035 19.7351V16.6726H67.1725V15.6335ZM78.65 20.8699H73.0856V10.8757H78.65V11.9011H74.2477V15.1345H78.3971V16.1462H74.2477V19.8445H78.65V20.8699ZM83.9342 20.8699H82.7653V11.9011H79.6207V10.8757H87.0651V11.9011H83.9342V20.8699ZM92.2125 20.8699V10.8757H93.3746V20.8699H92.2125ZM99.192 20.8699H98.0231V11.9011H94.8785V10.8757H102.323V11.9011H99.192V20.8699ZM116.138 15.8591C116.138 16.6293 116.04 17.3311 115.844 17.9646C115.648 18.5935 115.357 19.1358 114.969 19.5916C114.587 20.0427 114.11 20.3914 113.541 20.6375C112.971 20.8835 112.31 21.0066 111.558 21.0066C110.783 21.0066 110.107 20.8835 109.528 20.6375C108.954 20.3914 108.475 20.0404 108.092 19.5847C107.714 19.129 107.429 18.5844 107.238 17.9509C107.051 17.3175 106.958 16.6156 106.958 15.8455C106.958 14.8246 107.126 13.9291 107.464 13.1589C107.801 12.3888 108.311 11.7895 108.995 11.3611C109.683 10.9327 110.544 10.7185 111.579 10.7185C112.568 10.7185 113.399 10.9304 114.074 11.3542C114.753 11.7781 115.266 12.3751 115.612 13.1453C115.963 13.9109 116.138 14.8155 116.138 15.8591ZM108.181 15.8591C108.181 16.7068 108.302 17.4405 108.544 18.0603C108.785 18.6801 109.154 19.1586 109.651 19.4958C110.152 19.8331 110.788 20.0017 111.558 20.0017C112.333 20.0017 112.966 19.8331 113.459 19.4958C113.955 19.1586 114.322 18.6801 114.559 18.0603C114.796 17.4405 114.915 16.7068 114.915 15.8591C114.915 14.5694 114.644 13.5623 114.101 12.8376C113.563 12.1085 112.723 11.7439 111.579 11.7439C110.804 11.7439 110.166 11.9102 109.665 12.2429C109.163 12.5756 108.79 13.0496 108.544 13.6648C108.302 14.2755 108.181 15.0069 108.181 15.8591ZM126.18 20.8699H124.84L119.392 12.4753H119.338C119.351 12.6986 119.367 12.9539 119.385 13.241C119.404 13.5235 119.417 13.8266 119.426 14.1501C119.44 14.4692 119.447 14.795 119.447 15.1277V20.8699H118.367V10.8757H119.7L125.128 19.2429H125.175C125.166 19.0834 125.155 18.8578 125.141 18.5662C125.128 18.2699 125.114 17.9532 125.1 17.616C125.091 17.2742 125.087 16.9574 125.087 16.6658V10.8757H126.18V20.8699Z" fill="white"/>
</svg>
