<svg width="202" height="60" viewBox="0 0 202 60" fill="none" xmlns="http://www.w3.org/2000/svg">
<path d="M194.367 59.8051H7.47415C3.36254 59.8051 0 56.4411 0 52.3295V7.47564C0 3.36404 3.36254 0 7.47415 0H194.367C198.478 0 201.842 3.36404 201.842 7.47564V52.3295C201.842 56.4411 198.478 59.8051 194.367 59.8051Z" fill="black"/>
<path d="M30.903 29.1328L14.9844 46.0278C14.9859 46.0308 14.9859 46.0338 14.9874 46.0367C15.4748 47.8728 17.1508 49.2229 19.1393 49.2229C19.9347 49.2229 20.6808 49.0076 21.3207 48.6308L21.3716 48.6009L39.2892 38.2621L30.903 29.1328Z" fill="#EB4335"/>
<path d="M46.9971 26.2615L46.9822 26.251L39.2464 21.7656L30.5312 29.5209L39.2763 38.2644L46.9717 33.8253C48.3203 33.0972 49.2353 31.6753 49.2353 30.0352C49.2353 28.407 48.3323 26.9911 46.9971 26.2615Z" fill="#FABC13"/>
<path d="M14.9825 13.9766C14.8868 14.3294 14.8359 14.6987 14.8359 15.083V44.9362C14.8359 45.3204 14.8853 45.6912 14.9825 46.0426L31.4483 29.5797L14.9825 13.9766Z" fill="#547DBF"/>
<path d="M31.0196 30.0008L39.2593 21.7641L21.3611 11.3879C20.7107 10.9977 19.9527 10.7734 19.1393 10.7734C17.1508 10.7734 15.4733 12.1265 14.9844 13.964V13.9685L31.0196 30.0008Z" fill="#30A851"/>
<path d="M101.814 32.4486C98.2972 32.4486 95.431 35.1219 95.431 38.8074C95.431 42.469 98.2972 45.1662 101.814 45.1662C105.33 45.1662 108.196 42.469 108.196 38.8074C108.196 35.1219 105.33 32.4486 101.814 32.4486ZM101.814 42.6619C99.8865 42.6619 98.2239 41.0725 98.2239 38.8074C98.2239 36.5184 99.8865 34.953 101.814 34.953C103.741 34.953 105.402 36.5184 105.402 38.8074C105.402 41.071 103.741 42.6619 101.814 42.6619ZM87.8881 32.4486C84.3715 32.4486 81.5054 35.1219 81.5054 38.8074C81.5054 42.469 84.3715 45.1662 87.8881 45.1662C91.4046 45.1662 94.2708 42.469 94.2708 38.8074C94.2723 35.1219 91.4046 32.4486 87.8881 32.4486ZM87.8881 42.6619C85.9608 42.6619 84.2998 41.0725 84.2998 38.8074C84.2998 36.5184 85.9623 34.953 87.8881 34.953C89.8153 34.953 91.4764 36.5184 91.4764 38.8074C91.4779 41.071 89.8153 42.6619 87.8881 42.6619ZM71.325 34.3998V37.097H77.781C77.5881 38.6145 77.0828 39.7224 76.3113 40.4939C75.3723 41.4329 73.9026 42.469 71.325 42.469C67.351 42.469 64.2441 39.2649 64.2441 35.2909C64.2441 31.3168 67.351 28.1128 71.325 28.1128C73.4691 28.1128 75.0345 28.956 76.1902 30.04L78.0935 28.1367C76.4802 26.5952 74.3362 25.4141 71.325 25.4141C65.8813 25.4141 61.3047 29.8456 61.3047 35.2894C61.3047 40.7331 65.8813 45.1647 71.325 45.1647C74.263 45.1647 76.4802 44.2018 78.2146 42.3942C79.9968 40.612 80.5515 38.1062 80.5515 36.0833C80.5515 35.4568 80.5036 34.8782 80.4064 34.3968H71.325V34.3998ZM139.066 36.4945C138.537 35.0726 136.922 32.4471 133.623 32.4471C130.347 32.4471 127.626 35.0247 127.626 38.8059C127.626 42.3703 130.323 45.1647 133.937 45.1647C136.851 45.1647 138.537 43.3825 139.235 42.3464L137.067 40.9006C136.345 41.9606 135.357 42.6589 133.937 42.6589C132.515 42.6589 131.504 42.0085 130.854 40.7317L139.356 37.2151L139.066 36.4945ZM130.395 38.6145C130.323 36.1581 132.298 34.9051 133.718 34.9051C134.826 34.9051 135.765 35.4583 136.079 36.2537L130.395 38.6145ZM123.481 44.7805H126.275V26.0899H123.481V44.7805ZM118.905 33.869H118.809C118.182 33.1229 116.979 32.4471 115.461 32.4471C112.281 32.4471 109.367 35.2415 109.367 38.8298C109.367 42.3942 112.281 45.1647 115.461 45.1647C116.979 45.1647 118.182 44.4904 118.809 43.7189H118.905V44.6339C118.905 47.0665 117.604 48.3673 115.508 48.3673C113.797 48.3673 112.737 47.1383 112.304 46.1036L109.871 47.1159C110.569 48.8024 112.425 50.8731 115.508 50.8731C118.783 50.8731 121.554 48.9459 121.554 44.2497V32.8329H118.905V33.869V33.869ZM115.702 42.6619C113.775 42.6619 112.161 41.0486 112.161 38.8313C112.161 36.5916 113.775 34.953 115.702 34.953C117.605 34.953 119.097 36.5901 119.097 38.8313C119.097 41.0471 117.605 42.6619 115.702 42.6619ZM152.155 26.0899H145.47V44.7805H148.258V37.6995H152.153C155.245 37.6995 158.285 35.4613 158.285 31.8954C158.285 28.3296 155.247 26.0899 152.155 26.0899ZM152.226 35.098H148.258V28.6914H152.226C154.312 28.6914 155.496 30.4183 155.496 31.8954C155.496 33.3427 154.312 35.098 152.226 35.098ZM169.468 32.4143C167.448 32.4143 165.357 33.3039 164.491 35.2759L166.968 36.3106C167.498 35.2759 168.483 34.9395 169.518 34.9395C170.96 34.9395 172.427 35.8052 172.451 37.3437V37.5366C171.946 37.248 170.863 36.8144 169.542 36.8144C166.873 36.8144 164.155 38.2811 164.155 41.0232C164.155 43.5246 166.343 45.1348 168.795 45.1348C170.672 45.1348 171.705 44.293 172.354 43.3078H172.45V44.7506H175.142V37.5844C175.142 34.2652 172.666 32.4143 169.468 32.4143ZM169.13 42.6574C168.217 42.6574 166.941 42.1999 166.941 41.071C166.941 39.6282 168.529 39.075 169.899 39.075C171.125 39.075 171.702 39.3397 172.448 39.7C172.233 41.4314 170.742 42.6574 169.13 42.6574ZM184.953 32.8224L181.755 40.926H181.66L178.342 32.8224H175.337L180.314 44.148L177.476 50.4485H180.386L188.057 32.8224H184.953V32.8224ZM159.825 44.7805H162.615V26.0899H159.825V44.7805Z" fill="white"/>
<path fillRule="evenodd" clipRule="evenodd" d="M110.056 18.2795C109.174 19.1871 108.078 19.6386 106.767 19.6386C105.456 19.6386 104.36 19.1856 103.479 18.2795C102.597 17.3735 102.158 16.2641 102.158 14.9529C102.158 13.6416 102.597 12.5322 103.479 11.6262C104.36 10.7186 105.456 10.2656 106.767 10.2656C108.071 10.2656 109.165 10.7216 110.051 11.6322C110.936 12.5427 111.378 13.6491 111.378 14.9529C111.378 16.2656 110.937 17.375 110.056 18.2795ZM104.33 17.529C104.994 18.2018 105.806 18.5367 106.767 18.5367C107.729 18.5367 108.54 18.2003 109.204 17.529C109.868 16.8562 110.202 15.9979 110.202 14.9543C110.202 13.9107 109.868 13.051 109.204 12.3797C108.542 11.7069 107.729 11.372 106.767 11.372C105.806 11.372 104.994 11.7084 104.33 12.3797C103.668 13.0525 103.334 13.9107 103.334 14.9543C103.334 15.9979 103.668 16.8562 104.33 17.529Z" fill="white"/>
<path d="M70.8976 15.3177C70.8976 16.5706 70.5268 17.5678 69.7837 18.3124C68.9404 19.1975 67.84 19.6401 66.4884 19.6401C65.1937 19.6401 64.0918 19.1915 63.1872 18.2945C62.2811 17.3959 61.8281 16.2835 61.8281 14.9558C61.8281 13.6267 62.2811 12.5143 63.1872 11.6172C64.0918 10.7186 65.1937 10.2701 66.4884 10.2701C67.1313 10.2701 67.7458 10.3957 68.3289 10.6454C68.9135 10.8966 69.3815 11.23 69.7314 11.6471L68.9434 12.4365C68.3499 11.7264 67.532 11.372 66.4869 11.372C65.542 11.372 64.7257 11.7039 64.0364 12.3678C63.3487 13.0316 63.0048 13.8928 63.0048 14.9543C63.0048 16.0159 63.3487 16.8771 64.0379 17.5424C64.7272 18.2062 65.5435 18.5382 66.4884 18.5382C67.4902 18.5382 68.326 18.2048 68.9943 17.5364C69.4279 17.1013 69.679 16.4958 69.7463 15.7199H66.4884V14.6404H70.8348C70.8781 14.8751 70.8976 15.1009 70.8976 15.3177Z" fill="white"/>
<path d="M77.7901 11.5709H73.7054V14.4146H77.3894V15.4926H73.7054V18.3363H77.7901V19.4397H72.5527V10.469H77.7901V11.5709Z" fill="white"/>
<path d="M81.4965 19.4397H82.6493V11.5709H85.1551V10.469H78.9907V11.5709H81.4965V19.4397Z" fill="white"/>
<path d="M89.6166 19.4397V10.469H90.7693V19.4397H89.6166Z" fill="white"/>
<path d="M94.7269 19.4397H95.8797V11.5709H98.3855V10.469H92.2211V11.5709H94.7269V19.4397Z" fill="white"/>
<path d="M112.996 10.469V19.4397H114.146V13.8509L114.096 12.1226H114.146L118.707 19.4397H119.911V10.469H118.758V15.7199L118.807 17.4482H118.758L114.398 10.469H112.996Z" fill="white"/>
<path fillRule="evenodd" clipRule="evenodd" d="M110.056 18.2795C109.174 19.1871 108.078 19.6386 106.767 19.6386C105.456 19.6386 104.36 19.1856 103.479 18.2795C102.597 17.3735 102.158 16.2641 102.158 14.9529C102.158 13.6416 102.597 12.5322 103.479 11.6262C104.36 10.7186 105.456 10.2656 106.767 10.2656C108.071 10.2656 109.165 10.7216 110.051 11.6322C110.936 12.5427 111.378 13.6491 111.378 14.9529C111.378 16.2656 110.937 17.375 110.056 18.2795ZM104.33 17.529C104.994 18.2018 105.806 18.5367 106.767 18.5367C107.729 18.5367 108.54 18.2003 109.204 17.529C109.868 16.8562 110.202 15.9979 110.202 14.9543C110.202 13.9107 109.868 13.051 109.204 12.3797C108.542 11.7069 107.729 11.372 106.767 11.372C105.806 11.372 104.994 11.7084 104.33 12.3797C103.668 13.0525 103.334 13.9107 103.334 14.9543C103.334 15.9979 103.668 16.8562 104.33 17.529Z" stroke="black"/>
<path d="M70.8976 15.3177C70.8976 16.5706 70.5268 17.5678 69.7837 18.3124C68.9404 19.1975 67.84 19.6401 66.4884 19.6401C65.1937 19.6401 64.0918 19.1915 63.1872 18.2945C62.2811 17.3959 61.8281 16.2835 61.8281 14.9558C61.8281 13.6267 62.2811 12.5143 63.1872 11.6172C64.0918 10.7186 65.1937 10.2701 66.4884 10.2701C67.1313 10.2701 67.7458 10.3957 68.3289 10.6454C68.9135 10.8966 69.3815 11.23 69.7314 11.6471L68.9434 12.4365C68.3499 11.7264 67.532 11.372 66.4869 11.372C65.542 11.372 64.7257 11.7039 64.0364 12.3678C63.3487 13.0316 63.0048 13.8928 63.0048 14.9543C63.0048 16.0159 63.3487 16.8771 64.0379 17.5424C64.7272 18.2062 65.5435 18.5382 66.4884 18.5382C67.4902 18.5382 68.326 18.2048 68.9943 17.5364C69.4279 17.1013 69.679 16.4958 69.7463 15.7199H66.4884V14.6404H70.8348C70.8781 14.8751 70.8976 15.1009 70.8976 15.3177Z" stroke="black"/>
<path d="M77.7901 11.5709H73.7054V14.4146H77.3894V15.4926H73.7054V18.3363H77.7901V19.4397H72.5527V10.469H77.7901V11.5709Z" stroke="black"/>
<path d="M81.4965 19.4397H82.6493V11.5709H85.1551V10.469H78.9907V11.5709H81.4965V19.4397Z" stroke="black"/>
<path d="M89.6166 19.4397V10.469H90.7693V19.4397H89.6166Z" stroke="black"/>
<path d="M94.7269 19.4397H95.8797V11.5709H98.3855V10.469H92.2211V11.5709H94.7269V19.4397Z" stroke="black"/>
<path d="M112.996 10.469V19.4397H114.146V13.8509L114.096 12.1226H114.146L118.707 19.4397H119.911V10.469H118.758V15.7199L118.807 17.4482H118.758L114.398 10.469H112.996Z" stroke="black"/>
</svg>
