<svg width="48" height="48" viewBox="0 0 48 48" fill="none" xmlns="http://www.w3.org/2000/svg">
<path d="M21.253 13.0568L14.8253 5.63737C14.0843 4.78238 12.7258 4.78618 11.8651 5.64877L6.57933 10.944C5.00614 12.5191 4.55584 14.858 5.46594 16.7333C10.903 27.9907 19.9819 37.0824 31.2317 42.5352C33.1051 43.4453 35.4421 42.995 37.0153 41.4199L42.3504 36.0752C43.2149 35.2107 43.2168 33.8446 42.3542 33.1036L34.9063 26.7102C34.1273 26.0414 32.917 26.1288 32.1361 26.9116L29.5445 29.5069C29.4118 29.646 29.2372 29.7377 29.0474 29.7679C28.8576 29.7981 28.6631 29.7651 28.4938 29.6741C24.2577 27.2347 20.7437 23.7162 18.3099 19.4769C18.2187 19.3073 18.1857 19.1125 18.2159 18.9224C18.2461 18.7323 18.3379 18.5573 18.4771 18.4243L21.0611 15.8384C21.8439 15.0518 21.9293 13.8358 21.253 13.0549V13.0568Z" stroke="#4CA771" stroke-width="4.00405" stroke-linecap="round" stroke-linejoin="round"/>
</svg>
