<svg width="34" height="34" viewBox="0 0 34 34" fill="none" xmlns="http://www.w3.org/2000/svg">
<path fill-rule="evenodd" clip-rule="evenodd" d="M2.41333 0C1.08048 0 0 1.08048 0 2.41333V31.5866C0 32.9194 1.08049 33.9999 2.41333 33.9999H31.5867C32.9195 33.9999 34 32.9194 34 31.5866V2.41333C34 1.08048 32.9195 0 31.5867 0H2.41333ZM7.63144 10.5587C9.2604 10.5587 10.5809 9.23818 10.5809 7.60922C10.5809 5.98026 9.2604 4.65973 7.63144 4.65973C6.00248 4.65973 4.68195 5.98026 4.68195 7.60922C4.68195 9.23818 6.00248 10.5587 7.63144 10.5587ZM13.2822 12.7385H18.1704V14.9778C18.1704 14.9778 19.4969 12.3248 23.1061 12.3248C26.3257 12.3248 28.9928 13.9109 28.9928 18.7452V28.9395H23.9271V19.9805C23.9271 17.1287 22.4046 16.815 21.2444 16.815C18.8367 16.815 18.4245 18.8919 18.4245 20.3525V28.9395H13.2822V12.7385ZM10.2026 12.7385H5.06029V28.9395H10.2026V12.7385Z" fill="white"/>
</svg>
