<svg width="72" height="73" viewBox="0 0 72 73" fill="none" xmlns="http://www.w3.org/2000/svg">
<path fillRule="evenodd" clipRule="evenodd" d="M27.1385 61.7621L28.5231 72.2397H43.4769L44.1805 66.9158C42.9516 65.6045 41.3467 63.8653 40.7646 63.146L40.1538 68.4786H31.8462L30.7385 58.8069C28.0615 58.0905 25.7778 57.1735 23.8874 56.0559C21.9932 54.9347 20.1231 53.4338 18.2769 51.5532L9.13846 55.583L4.98461 48.5979L13.2923 42.9562C12.4615 40.8965 12.0462 38.6577 12.0462 36.2397C12.0462 33.8218 12.4615 31.583 13.2923 29.5233L5.26154 23.6129L9.13846 16.8965L18.2769 20.9263C20.1231 19.0457 21.9932 17.5448 23.8874 16.4236C25.7778 15.306 28.0615 14.389 30.7385 13.6726L31.8462 4.00094H40.1538L41.2615 13.6726C43.9385 14.389 46.224 15.306 48.1182 16.4236C50.0086 17.5448 51.8769 19.0457 53.7231 20.9263L62.8615 16.8965L66.7385 23.6129L61.0066 27.8314L63.6832 30.4867L72 24.6875L64.5231 12.0606L54.5539 16.3591C53.4462 15.2845 51.9471 14.2099 50.0566 13.1353C48.1625 12.0606 46.4308 11.2547 44.8615 10.7174L43.4769 0.239746H28.5231L27.1385 10.7174C25.5692 11.2547 23.8394 12.0606 21.9489 13.1353C20.0548 14.2099 18.5538 15.2845 17.4462 16.3591L7.47692 12.0606L0 24.6875L8.86154 30.8666C8.4 32.9263 8.16923 34.7174 8.16923 36.2397C8.16923 37.7621 8.4 39.5532 8.86154 41.6129L0 47.792L7.47692 60.4188L17.4462 56.1203C18.5538 57.195 20.0548 58.2696 21.9489 59.3442C23.8394 60.4188 25.5692 61.2248 27.1385 61.7621Z" fill="white"/>
<path fillRule="evenodd" clipRule="evenodd" d="M31.4735 29.505C33.0449 31.0764 34.9456 31.8621 37.1758 31.8621C39.406 31.8621 41.3073 31.0764 42.8797 29.505C44.451 27.9326 45.2367 26.0313 45.2367 23.8011C45.2367 21.571 44.451 19.6697 42.8797 18.0972C41.3073 16.5259 39.406 15.7402 37.1758 15.7402C34.9456 15.7402 33.0449 16.5259 31.4735 18.0972C29.9011 19.6697 29.1149 21.571 29.1149 23.8011C29.1149 26.0313 29.9011 27.9326 31.4735 29.505ZM37.1758 24.9297L34.3142 27.7913L33.1857 26.6628L36.0473 23.8011L33.1857 20.9395L34.3142 19.811L37.1758 22.6726L40.0374 19.811L41.166 20.9395L38.3043 23.8011L41.166 26.6628L39.9971 27.7913L37.1758 24.9297ZM40.3208 54.9894C39.6273 53.7917 39.1072 52.5624 38.7605 51.3016C38.4138 50.0408 38.2404 48.7485 38.2404 47.4247C38.2404 43.201 39.7061 39.6077 42.6375 36.6449C45.5688 33.682 49.1463 32.2006 53.37 32.2006H53.701L50.675 29.1746L53.3227 26.527L60.8875 34.0917L53.3227 41.6565L50.675 39.0089L53.701 35.9829H53.37C50.218 35.9829 47.5388 37.0937 45.3324 39.3152C43.126 41.538 42.0228 44.2412 42.0228 47.4247C42.0228 48.2442 42.1174 49.0479 42.3065 49.8359C42.4956 50.6239 42.7793 51.3962 43.1575 52.1527L40.3208 54.9894ZM53.4173 68.1332L45.8525 60.5685L53.4173 53.0037L56.0649 55.6514L53.039 58.6773H53.37C56.522 58.6773 59.2012 57.5665 61.4076 55.345C63.614 53.1222 64.7172 50.4191 64.7172 47.2355C64.7172 46.416 64.6226 45.6123 64.4335 44.8243C64.2444 44.0363 63.9607 43.264 63.5824 42.5076L66.4192 39.6708C67.1127 40.8685 67.6327 42.0978 67.9795 43.3586C68.3262 44.6194 68.4995 45.9117 68.4995 47.2355C68.4995 51.4592 67.0339 55.0525 64.1025 58.0154C61.1712 60.9782 57.5937 62.4597 53.37 62.4597H53.039L56.0649 65.4856L53.4173 68.1332ZM25.6189 46.9239L31.3019 41.2409L30.1733 40.1124L25.6189 44.6668L23.3215 42.3695L22.193 43.498L25.6189 46.9239ZM26.7474 51.2768C25.6323 51.2768 24.5844 51.065 23.6037 50.6416C22.6229 50.2187 21.7698 49.6444 21.0443 48.919C20.3189 48.1935 19.7447 47.3404 19.3217 46.3596C18.8983 45.3789 18.6865 44.331 18.6865 43.2159C18.6865 42.1008 18.8983 41.0529 19.3217 40.0721C19.7447 39.0914 20.3189 38.2382 21.0443 37.5128C21.7698 36.7873 22.6229 36.2128 23.6037 35.7893C24.5844 35.3664 25.6323 35.1549 26.7474 35.1549C27.8625 35.1549 28.9104 35.3664 29.8912 35.7893C30.8719 36.2128 31.7251 36.7873 32.4505 37.5128C33.176 38.2382 33.7502 39.0914 34.1732 40.0721C34.5966 41.0529 34.8084 42.1008 34.8084 43.2159C34.8084 44.331 34.5966 45.3789 34.1732 46.3596C33.7502 47.3404 33.176 48.1935 32.4505 48.919C31.7251 49.6444 30.8719 50.2187 29.8912 50.6416C28.9104 51.065 27.8625 51.2768 26.7474 51.2768ZM26.7474 49.6646C28.5477 49.6646 30.0726 49.0399 31.322 47.7904C32.5714 46.541 33.1962 45.0161 33.1962 43.2159C33.1962 41.4156 32.5714 39.8907 31.322 38.6413C30.0726 37.3919 28.5477 36.7671 26.7474 36.7671C24.9472 36.7671 23.4223 37.3919 22.1729 38.6413C20.9234 39.8907 20.2987 41.4156 20.2987 43.2159C20.2987 45.0161 20.9234 46.541 22.1729 47.7904C23.4223 49.0399 24.9472 49.6646 26.7474 49.6646Z" fill="white"/>
</svg>
