<svg width="72" height="72" viewBox="0 0 72 72" fill="none" xmlns="http://www.w3.org/2000/svg">
<path d="M36 72C32.2105 72 28.4842 71.4 24.8211 70.2C21.1579 69 17.7789 67.2316 14.6842 64.8947L18.7579 60.8211C21.4105 62.6526 24.1895 64.0257 27.0947 64.9402C30 65.8573 32.9684 66.3158 36 66.3158C44.4 66.3158 51.5533 63.3638 57.4598 57.4598C63.3638 51.5533 66.3158 44.4 66.3158 36C66.3158 27.6 63.3638 20.4467 57.4598 14.5402C51.5533 8.63621 44.4 5.68421 36 5.68421C27.6 5.68421 20.448 8.63621 14.544 14.5402C8.63747 20.4467 5.68421 27.6 5.68421 36H0C0 31.0105 0.947368 26.3368 2.84211 21.9789C4.73684 17.6211 7.3099 13.8152 10.5613 10.5613C13.8152 7.3099 17.6211 4.73684 21.9789 2.84211C26.3368 0.947368 31.0105 0 36 0C40.9895 0 45.6632 0.947368 50.0211 2.84211C54.3789 4.73684 58.1836 7.3099 61.4349 10.5613C64.6888 13.8152 67.2632 17.6211 69.1579 21.9789C71.0526 26.3368 72 31.0105 72 36C72 40.9263 71.0526 45.5848 69.1579 49.9756C67.2632 54.3638 64.6888 58.1836 61.4349 61.4349C58.1836 64.6888 54.3789 67.2632 50.0211 69.1579C45.6632 71.0526 40.9895 72 36 72ZM6.34737 56.2737L20.9368 41.5895L32.3053 51.0632L51.8211 31.6421V42.9158H57.3158V22.2632H36.6632V27.7579H47.9368L32.1158 43.6737L20.7474 34.2L3.50526 51.4421C4.01053 52.4526 4.45263 53.2901 4.83158 53.9545C5.21053 54.6164 5.71579 55.3895 6.34737 56.2737Z" fill="white"/>
</svg>
