<svg width="56" height="56" viewBox="0 0 56 56" fill="none" xmlns="http://www.w3.org/2000/svg">
<path d="M28.1092 48C22.5415 48 17.9017 46.0708 14.1898 42.2125C10.5268 38.3541 8.69531 33.6166 8.69531 28C8.69531 22.3346 10.5268 17.5971 14.1898 13.7875C17.8528 9.92918 22.4682 8 28.036 8C33.6037 8 38.1947 9.92918 41.8089 13.7875C45.4719 17.6459 47.3034 22.4078 47.3034 28.0733C47.3034 33.6899 45.4963 38.4273 41.8821 42.2857C38.268 46.0952 33.677 48 28.1092 48ZM27.9627 11.1502C23.4206 11.1502 19.6111 12.7863 16.5341 16.0586C13.4572 19.3309 11.9188 23.3114 11.9188 28C11.9188 32.6398 13.4572 36.5958 16.5341 39.8681C19.6111 43.1404 23.4206 44.7766 27.9627 44.7766C32.5537 44.7766 36.3876 43.1648 39.4645 39.9414C42.5415 36.6691 44.0799 32.6886 44.0799 28C44.0799 23.3114 42.5415 19.3309 39.4645 16.0586C36.3876 12.7863 32.5537 11.1502 27.9627 11.1502ZM24.2264 31.2967V39.1355H19.9774V16.9377H28.036C30.8199 16.9377 32.8956 17.475 34.2631 18.5494C35.6794 19.6239 36.3876 21.2357 36.3876 23.3846C36.3876 25.5336 36.0946 27.1453 35.5085 28.2198C34.9713 29.2454 34.0189 30.0757 32.6514 30.7106L36.6807 39.1355H32.2118L28.5488 31.2967H24.2264ZM24.1532 20.3809V27.8535H28.4755C29.7942 27.8535 30.7466 27.5604 31.3327 26.9744C31.9188 26.3883 32.2118 25.4359 32.2118 24.1172C32.2118 21.6264 30.6978 20.3809 27.6697 20.3809H24.1532Z" fill="#4CA771"/>
</svg>
