<svg width="72" height="72" viewBox="0 0 72 72" fill="none" xmlns="http://www.w3.org/2000/svg">
<path d="M15.2469 56.6018L15.2465 56.6013C9.65908 49.4183 6.88937 41.4876 6.88937 32.76V12.0033L35.9999 1.79824L65.1105 12.0033V32.76C65.1105 41.4878 62.3419 49.4185 56.757 56.6015C51.2618 63.6682 44.356 68.2004 35.9999 70.2546C27.6439 68.2005 20.7396 63.6683 15.2469 56.6018Z" stroke="white" stroke-width="3.39397"/>
<path d="M19.623 48.1446V44.5171L34.0483 24.2764H19.5947V19.2374H41.7268V22.8649L27.2873 43.1056H41.7551V48.1446H19.623Z" fill="white"/>
<path d="M46.3318 48.1446V26.4642H52.3447V48.1446H46.3318ZM49.3524 23.6694C48.4584 23.6694 47.6915 23.373 47.0517 22.7802C46.4212 22.178 46.106 21.4581 46.106 20.6206C46.106 19.7926 46.4212 19.0821 47.0517 18.4893C47.6915 17.8871 48.4584 17.5859 49.3524 17.5859C50.2463 17.5859 51.0085 17.8871 51.639 18.4893C52.2789 19.0821 52.5988 19.7926 52.5988 20.6206C52.5988 21.4581 52.2789 22.178 51.639 22.7802C51.0085 23.373 50.2463 23.6694 49.3524 23.6694Z" fill="white"/>
</svg>
