<svg width="139" height="138" viewBox="0 0 139 138" fill="none" xmlns="http://www.w3.org/2000/svg">
<path d="M0.267365 0H5.02599V4.75862H0.267365V0ZM5.02599 0H9.78461V4.75862H5.02599V0ZM9.78461 0H14.5432V4.75862H9.78461V0ZM14.5432 0H19.3018V4.75862H14.5432V0ZM19.3018 0H24.0605V4.75862H19.3018V0ZM24.0605 0H28.8191V4.75862H24.0605V0ZM28.8191 0H33.5777V4.75862H28.8191V0ZM38.3363 0H43.0949V4.75862H38.3363V0ZM43.0949 0H47.8536V4.75862H43.0949V0ZM47.8536 0H52.6122V4.75862H47.8536V0ZM52.6122 0H57.3708V4.75862H52.6122V0ZM66.8881 0H71.6467V4.75862H66.8881V0ZM71.6467 0H76.4053V4.75862H71.6467V0ZM76.4053 0H81.1639V4.75862H76.4053V0ZM81.1639 0H85.9225V4.75862H81.1639V0ZM85.9225 0H90.6812V4.75862H85.9225V0ZM90.6812 0H95.4398V4.75862H90.6812V0ZM104.957 0H109.716V4.75862H104.957V0ZM109.716 0H114.474V4.75862H109.716V0ZM114.474 0H119.233V4.75862H114.474V0ZM119.233 0H123.992V4.75862H119.233V0ZM123.992 0H128.75V4.75862H123.992V0ZM128.75 0H133.509V4.75862H128.75V0ZM133.509 0H138.267V4.75862H133.509V0ZM0.267365 4.75862H5.02599V9.51724H0.267365V4.75862ZM28.8191 4.75862H33.5777V9.51724H28.8191V4.75862ZM38.3363 4.75862H43.0949V9.51724H38.3363V4.75862ZM43.0949 4.75862H47.8536V9.51724H43.0949V4.75862ZM85.9225 4.75862H90.6812V9.51724H85.9225V4.75862ZM90.6812 4.75862H95.4398V9.51724H90.6812V4.75862ZM104.957 4.75862H109.716V9.51724H104.957V4.75862ZM133.509 4.75862H138.267V9.51724H133.509V4.75862ZM0.267365 9.51724H5.02599V14.2759H0.267365V9.51724ZM9.78461 9.51724H14.5432V14.2759H9.78461V9.51724ZM14.5432 9.51724H19.3018V14.2759H14.5432V9.51724ZM19.3018 9.51724H24.0605V14.2759H19.3018V9.51724ZM28.8191 9.51724H33.5777V14.2759H28.8191V9.51724ZM43.0949 9.51724H47.8536V14.2759H43.0949V9.51724ZM47.8536 9.51724H52.6122V14.2759H47.8536V9.51724ZM52.6122 9.51724H57.3708V14.2759H52.6122V9.51724ZM57.3708 9.51724H62.1294V14.2759H57.3708V9.51724ZM62.1294 9.51724H66.8881V14.2759H62.1294V9.51724ZM66.8881 9.51724H71.6467V14.2759H66.8881V9.51724ZM90.6812 9.51724H95.4398V14.2759H90.6812V9.51724ZM95.4398 9.51724H100.198V14.2759H95.4398V9.51724ZM104.957 9.51724H109.716V14.2759H104.957V9.51724ZM114.474 9.51724H119.233V14.2759H114.474V9.51724ZM119.233 9.51724H123.992V14.2759H119.233V9.51724ZM123.992 9.51724H128.75V14.2759H123.992V9.51724ZM133.509 9.51724H138.267V14.2759H133.509V9.51724ZM0.267365 14.2759H5.02599V19.0345H0.267365V14.2759ZM9.78461 14.2759H14.5432V19.0345H9.78461V14.2759ZM14.5432 14.2759H19.3018V19.0345H14.5432V14.2759ZM19.3018 14.2759H24.0605V19.0345H19.3018V14.2759ZM28.8191 14.2759H33.5777V19.0345H28.8191V14.2759ZM43.0949 14.2759H47.8536V19.0345H43.0949V14.2759ZM57.3708 14.2759H62.1294V19.0345H57.3708V14.2759ZM62.1294 14.2759H66.8881V19.0345H62.1294V14.2759ZM76.4053 14.2759H81.1639V19.0345H76.4053V14.2759ZM81.1639 14.2759H85.9225V19.0345H81.1639V14.2759ZM90.6812 14.2759H95.4398V19.0345H90.6812V14.2759ZM95.4398 14.2759H100.198V19.0345H95.4398V14.2759ZM104.957 14.2759H109.716V19.0345H104.957V14.2759ZM114.474 14.2759H119.233V19.0345H114.474V14.2759ZM119.233 14.2759H123.992V19.0345H119.233V14.2759ZM123.992 14.2759H128.75V19.0345H123.992V14.2759ZM133.509 14.2759H138.267V19.0345H133.509V14.2759ZM0.267365 19.0345H5.02599V23.7931H0.267365V19.0345ZM9.78461 19.0345H14.5432V23.7931H9.78461V19.0345ZM14.5432 19.0345H19.3018V23.7931H14.5432V19.0345ZM19.3018 19.0345H24.0605V23.7931H19.3018V19.0345ZM28.8191 19.0345H33.5777V23.7931H28.8191V19.0345ZM52.6122 19.0345H57.3708V23.7931H52.6122V19.0345ZM62.1294 19.0345H66.8881V23.7931H62.1294V19.0345ZM85.9225 19.0345H90.6812V23.7931H85.9225V19.0345ZM90.6812 19.0345H95.4398V23.7931H90.6812V19.0345ZM95.4398 19.0345H100.198V23.7931H95.4398V19.0345ZM104.957 19.0345H109.716V23.7931H104.957V19.0345ZM114.474 19.0345H119.233V23.7931H114.474V19.0345ZM119.233 19.0345H123.992V23.7931H119.233V19.0345ZM123.992 19.0345H128.75V23.7931H123.992V19.0345ZM133.509 19.0345H138.267V23.7931H133.509V19.0345ZM0.267365 23.7931H5.02599V28.5517H0.267365V23.7931ZM28.8191 23.7931H33.5777V28.5517H28.8191V23.7931ZM43.0949 23.7931H47.8536V28.5517H43.0949V23.7931ZM47.8536 23.7931H52.6122V28.5517H47.8536V23.7931ZM62.1294 23.7931H66.8881V28.5517H62.1294V23.7931ZM71.6467 23.7931H76.4053V28.5517H71.6467V23.7931ZM85.9225 23.7931H90.6812V28.5517H85.9225V23.7931ZM95.4398 23.7931H100.198V28.5517H95.4398V23.7931ZM104.957 23.7931H109.716V28.5517H104.957V23.7931ZM133.509 23.7931H138.267V28.5517H133.509V23.7931ZM0.267365 28.5517H5.02599V33.3103H0.267365V28.5517ZM5.02599 28.5517H9.78461V33.3103H5.02599V28.5517ZM9.78461 28.5517H14.5432V33.3103H9.78461V28.5517ZM14.5432 28.5517H19.3018V33.3103H14.5432V28.5517ZM19.3018 28.5517H24.0605V33.3103H19.3018V28.5517ZM24.0605 28.5517H28.8191V33.3103H24.0605V28.5517ZM28.8191 28.5517H33.5777V33.3103H28.8191V28.5517ZM38.3363 28.5517H43.0949V33.3103H38.3363V28.5517ZM47.8536 28.5517H52.6122V33.3103H47.8536V28.5517ZM57.3708 28.5517H62.1294V33.3103H57.3708V28.5517ZM66.8881 28.5517H71.6467V33.3103H66.8881V28.5517ZM76.4053 28.5517H81.1639V33.3103H76.4053V28.5517ZM85.9225 28.5517H90.6812V33.3103H85.9225V28.5517ZM95.4398 28.5517H100.198V33.3103H95.4398V28.5517ZM104.957 28.5517H109.716V33.3103H104.957V28.5517ZM109.716 28.5517H114.474V33.3103H109.716V28.5517ZM114.474 28.5517H119.233V33.3103H114.474V28.5517ZM119.233 28.5517H123.992V33.3103H119.233V28.5517ZM123.992 28.5517H128.75V33.3103H123.992V28.5517ZM128.75 28.5517H133.509V33.3103H128.75V28.5517ZM133.509 28.5517H138.267V33.3103H133.509V28.5517ZM43.0949 33.3103H47.8536V38.069H43.0949V33.3103ZM57.3708 33.3103H62.1294V38.069H57.3708V33.3103ZM62.1294 33.3103H66.8881V38.069H62.1294V33.3103ZM95.4398 33.3103H100.198V38.069H95.4398V33.3103ZM5.02599 38.069H9.78461V42.8276H5.02599V38.069ZM28.8191 38.069H33.5777V42.8276H28.8191V38.069ZM33.5777 38.069H38.3363V42.8276H33.5777V38.069ZM38.3363 38.069H43.0949V42.8276H38.3363V38.069ZM43.0949 38.069H47.8536V42.8276H43.0949V38.069ZM47.8536 38.069H52.6122V42.8276H47.8536V38.069ZM85.9225 38.069H90.6812V42.8276H85.9225V38.069ZM100.198 38.069H104.957V42.8276H100.198V38.069ZM128.75 38.069H133.509V42.8276H128.75V38.069ZM133.509 38.069H138.267V42.8276H133.509V38.069ZM0.267365 42.8276H5.02599V47.5862H0.267365V42.8276ZM5.02599 42.8276H9.78461V47.5862H5.02599V42.8276ZM24.0605 42.8276H28.8191V47.5862H24.0605V42.8276ZM38.3363 42.8276H43.0949V47.5862H38.3363V42.8276ZM43.0949 42.8276H47.8536V47.5862H43.0949V42.8276ZM47.8536 42.8276H52.6122V47.5862H47.8536V42.8276ZM57.3708 42.8276H62.1294V47.5862H57.3708V42.8276ZM62.1294 42.8276H66.8881V47.5862H62.1294V42.8276ZM66.8881 42.8276H71.6467V47.5862H66.8881V42.8276ZM71.6467 42.8276H76.4053V47.5862H71.6467V42.8276ZM81.1639 42.8276H85.9225V47.5862H81.1639V42.8276ZM95.4398 42.8276H100.198V47.5862H95.4398V42.8276ZM109.716 42.8276H114.474V47.5862H109.716V42.8276ZM114.474 42.8276H119.233V47.5862H114.474V42.8276ZM123.992 42.8276H128.75V47.5862H123.992V42.8276ZM128.75 42.8276H133.509V47.5862H128.75V42.8276ZM5.02599 47.5862H9.78461V52.3448H5.02599V47.5862ZM14.5432 47.5862H19.3018V52.3448H14.5432V47.5862ZM24.0605 47.5862H28.8191V52.3448H24.0605V47.5862ZM28.8191 47.5862H33.5777V52.3448H28.8191V47.5862ZM47.8536 47.5862H52.6122V52.3448H47.8536V47.5862ZM52.6122 47.5862H57.3708V52.3448H52.6122V47.5862ZM66.8881 47.5862H71.6467V52.3448H66.8881V47.5862ZM76.4053 47.5862H81.1639V52.3448H76.4053V47.5862ZM95.4398 47.5862H100.198V52.3448H95.4398V47.5862ZM100.198 47.5862H104.957V52.3448H100.198V47.5862ZM104.957 47.5862H109.716V52.3448H104.957V47.5862ZM114.474 47.5862H119.233V52.3448H114.474V47.5862ZM119.233 47.5862H123.992V52.3448H119.233V47.5862ZM0.267365 52.3448H5.02599V57.1034H0.267365V52.3448ZM5.02599 52.3448H9.78461V57.1034H5.02599V52.3448ZM14.5432 52.3448H19.3018V57.1034H14.5432V52.3448ZM38.3363 52.3448H43.0949V57.1034H38.3363V52.3448ZM47.8536 52.3448H52.6122V57.1034H47.8536V52.3448ZM57.3708 52.3448H62.1294V57.1034H57.3708V52.3448ZM62.1294 52.3448H66.8881V57.1034H62.1294V52.3448ZM66.8881 52.3448H71.6467V57.1034H66.8881V52.3448ZM71.6467 52.3448H76.4053V57.1034H71.6467V52.3448ZM85.9225 52.3448H90.6812V57.1034H85.9225V52.3448ZM90.6812 52.3448H95.4398V57.1034H90.6812V52.3448ZM95.4398 52.3448H100.198V57.1034H95.4398V52.3448ZM104.957 52.3448H109.716V57.1034H104.957V52.3448ZM109.716 52.3448H114.474V57.1034H109.716V52.3448ZM119.233 52.3448H123.992V57.1034H119.233V52.3448ZM0.267365 57.1034H5.02599V61.8621H0.267365V57.1034ZM5.02599 57.1034H9.78461V61.8621H5.02599V57.1034ZM9.78461 57.1034H14.5432V61.8621H9.78461V57.1034ZM14.5432 57.1034H19.3018V61.8621H14.5432V57.1034ZM19.3018 57.1034H24.0605V61.8621H19.3018V57.1034ZM24.0605 57.1034H28.8191V61.8621H24.0605V57.1034ZM28.8191 57.1034H33.5777V61.8621H28.8191V57.1034ZM33.5777 57.1034H38.3363V61.8621H33.5777V57.1034ZM62.1294 57.1034H66.8881V61.8621H62.1294V57.1034ZM95.4398 57.1034H100.198V61.8621H95.4398V57.1034ZM100.198 57.1034H104.957V61.8621H100.198V57.1034ZM104.957 57.1034H109.716V61.8621H104.957V57.1034ZM128.75 57.1034H133.509V61.8621H128.75V57.1034ZM0.267365 61.8621H5.02599V66.6207H0.267365V61.8621ZM9.78461 61.8621H14.5432V66.6207H9.78461V61.8621ZM14.5432 61.8621H19.3018V66.6207H14.5432V61.8621ZM19.3018 61.8621H24.0605V66.6207H19.3018V61.8621ZM24.0605 61.8621H28.8191V66.6207H24.0605V61.8621ZM43.0949 61.8621H47.8536V66.6207H43.0949V61.8621ZM57.3708 61.8621H62.1294V66.6207H57.3708V61.8621ZM62.1294 61.8621H66.8881V66.6207H62.1294V61.8621ZM66.8881 61.8621H71.6467V66.6207H66.8881V61.8621ZM71.6467 61.8621H76.4053V66.6207H71.6467V61.8621ZM76.4053 61.8621H81.1639V66.6207H76.4053V61.8621ZM81.1639 61.8621H85.9225V66.6207H81.1639V61.8621ZM90.6812 61.8621H95.4398V66.6207H90.6812V61.8621ZM95.4398 61.8621H100.198V66.6207H95.4398V61.8621ZM104.957 61.8621H109.716V66.6207H104.957V61.8621ZM114.474 61.8621H119.233V66.6207H114.474V61.8621ZM119.233 61.8621H123.992V66.6207H119.233V61.8621ZM133.509 61.8621H138.267V66.6207H133.509V61.8621ZM0.267365 66.6207H5.02599V71.3793H0.267365V66.6207ZM5.02599 66.6207H9.78461V71.3793H5.02599V66.6207ZM9.78461 66.6207H14.5432V71.3793H9.78461V66.6207ZM28.8191 66.6207H33.5777V71.3793H28.8191V66.6207ZM38.3363 66.6207H43.0949V71.3793H38.3363V66.6207ZM43.0949 66.6207H47.8536V71.3793H43.0949V66.6207ZM47.8536 66.6207H52.6122V71.3793H47.8536V66.6207ZM57.3708 66.6207H62.1294V71.3793H57.3708V66.6207ZM62.1294 66.6207H66.8881V71.3793H62.1294V66.6207ZM71.6467 66.6207H76.4053V71.3793H71.6467V66.6207ZM81.1639 66.6207H85.9225V71.3793H81.1639V66.6207ZM95.4398 66.6207H100.198V71.3793H95.4398V66.6207ZM100.198 66.6207H104.957V71.3793H100.198V66.6207ZM104.957 66.6207H109.716V71.3793H104.957V66.6207ZM109.716 66.6207H114.474V71.3793H109.716V66.6207ZM0.267365 71.3793H5.02599V76.1379H0.267365V71.3793ZM5.02599 71.3793H9.78461V76.1379H5.02599V71.3793ZM19.3018 71.3793H24.0605V76.1379H19.3018V71.3793ZM33.5777 71.3793H38.3363V76.1379H33.5777V71.3793ZM47.8536 71.3793H52.6122V76.1379H47.8536V71.3793ZM62.1294 71.3793H66.8881V76.1379H62.1294V71.3793ZM71.6467 71.3793H76.4053V76.1379H71.6467V71.3793ZM76.4053 71.3793H81.1639V76.1379H76.4053V71.3793ZM81.1639 71.3793H85.9225V76.1379H81.1639V71.3793ZM85.9225 71.3793H90.6812V76.1379H85.9225V71.3793ZM90.6812 71.3793H95.4398V76.1379H90.6812V71.3793ZM100.198 71.3793H104.957V76.1379H100.198V71.3793ZM104.957 71.3793H109.716V76.1379H104.957V71.3793ZM114.474 71.3793H119.233V76.1379H114.474V71.3793ZM119.233 71.3793H123.992V76.1379H119.233V71.3793ZM123.992 71.3793H128.75V76.1379H123.992V71.3793ZM0.267365 76.1379H5.02599V80.8966H0.267365V76.1379ZM9.78461 76.1379H14.5432V80.8966H9.78461V76.1379ZM19.3018 76.1379H24.0605V80.8966H19.3018V76.1379ZM24.0605 76.1379H28.8191V80.8966H24.0605V76.1379ZM28.8191 76.1379H33.5777V80.8966H28.8191V76.1379ZM33.5777 76.1379H38.3363V80.8966H33.5777V76.1379ZM47.8536 76.1379H52.6122V80.8966H47.8536V76.1379ZM57.3708 76.1379H62.1294V80.8966H57.3708V76.1379ZM66.8881 76.1379H71.6467V80.8966H66.8881V76.1379ZM71.6467 76.1379H76.4053V80.8966H71.6467V76.1379ZM76.4053 76.1379H81.1639V80.8966H76.4053V76.1379ZM119.233 76.1379H123.992V80.8966H119.233V76.1379ZM123.992 76.1379H128.75V80.8966H123.992V76.1379ZM133.509 76.1379H138.267V80.8966H133.509V76.1379ZM0.267365 80.8966H5.02599V85.6552H0.267365V80.8966ZM14.5432 80.8966H19.3018V85.6552H14.5432V80.8966ZM24.0605 80.8966H28.8191V85.6552H24.0605V80.8966ZM47.8536 80.8966H52.6122V85.6552H47.8536V80.8966ZM52.6122 80.8966H57.3708V85.6552H52.6122V80.8966ZM62.1294 80.8966H66.8881V85.6552H62.1294V80.8966ZM85.9225 80.8966H90.6812V85.6552H85.9225V80.8966ZM90.6812 80.8966H95.4398V85.6552H90.6812V80.8966ZM104.957 80.8966H109.716V85.6552H104.957V80.8966ZM109.716 80.8966H114.474V85.6552H109.716V80.8966ZM114.474 80.8966H119.233V85.6552H114.474V80.8966ZM133.509 80.8966H138.267V85.6552H133.509V80.8966ZM0.267365 85.6552H5.02599V90.4138H0.267365V85.6552ZM5.02599 85.6552H9.78461V90.4138H5.02599V85.6552ZM9.78461 85.6552H14.5432V90.4138H9.78461V85.6552ZM14.5432 85.6552H19.3018V90.4138H14.5432V85.6552ZM24.0605 85.6552H28.8191V90.4138H24.0605V85.6552ZM28.8191 85.6552H33.5777V90.4138H28.8191V85.6552ZM38.3363 85.6552H43.0949V90.4138H38.3363V85.6552ZM43.0949 85.6552H47.8536V90.4138H43.0949V85.6552ZM52.6122 85.6552H57.3708V90.4138H52.6122V85.6552ZM57.3708 85.6552H62.1294V90.4138H57.3708V85.6552ZM62.1294 85.6552H66.8881V90.4138H62.1294V85.6552ZM66.8881 85.6552H71.6467V90.4138H66.8881V85.6552ZM71.6467 85.6552H76.4053V90.4138H71.6467V85.6552ZM81.1639 85.6552H85.9225V90.4138H81.1639V85.6552ZM90.6812 85.6552H95.4398V90.4138H90.6812V85.6552ZM109.716 85.6552H114.474V90.4138H109.716V85.6552ZM119.233 85.6552H123.992V90.4138H119.233V85.6552ZM123.992 85.6552H128.75V90.4138H123.992V85.6552ZM133.509 85.6552H138.267V90.4138H133.509V85.6552ZM0.267365 90.4138H5.02599V95.1724H0.267365V90.4138ZM14.5432 90.4138H19.3018V95.1724H14.5432V90.4138ZM24.0605 90.4138H28.8191V95.1724H24.0605V90.4138ZM47.8536 90.4138H52.6122V95.1724H47.8536V90.4138ZM62.1294 90.4138H66.8881V95.1724H62.1294V90.4138ZM66.8881 90.4138H71.6467V95.1724H66.8881V90.4138ZM85.9225 90.4138H90.6812V95.1724H85.9225V90.4138ZM90.6812 90.4138H95.4398V95.1724H90.6812V90.4138ZM100.198 90.4138H104.957V95.1724H100.198V90.4138ZM104.957 90.4138H109.716V95.1724H104.957V90.4138ZM109.716 90.4138H114.474V95.1724H109.716V90.4138ZM119.233 90.4138H123.992V95.1724H119.233V90.4138ZM133.509 90.4138H138.267V95.1724H133.509V90.4138ZM0.267365 95.1724H5.02599V99.931H0.267365V95.1724ZM9.78461 95.1724H14.5432V99.931H9.78461V95.1724ZM28.8191 95.1724H33.5777V99.931H28.8191V95.1724ZM47.8536 95.1724H52.6122V99.931H47.8536V95.1724ZM57.3708 95.1724H62.1294V99.931H57.3708V95.1724ZM71.6467 95.1724H76.4053V99.931H71.6467V95.1724ZM81.1639 95.1724H85.9225V99.931H81.1639V95.1724ZM90.6812 95.1724H95.4398V99.931H90.6812V95.1724ZM95.4398 95.1724H100.198V99.931H95.4398V95.1724ZM100.198 95.1724H104.957V99.931H100.198V95.1724ZM104.957 95.1724H109.716V99.931H104.957V95.1724ZM109.716 95.1724H114.474V99.931H109.716V95.1724ZM114.474 95.1724H119.233V99.931H114.474V95.1724ZM119.233 95.1724H123.992V99.931H119.233V95.1724ZM123.992 95.1724H128.75V99.931H123.992V95.1724ZM128.75 95.1724H133.509V99.931H128.75V95.1724ZM133.509 95.1724H138.267V99.931H133.509V95.1724ZM38.3363 99.931H43.0949V104.69H38.3363V99.931ZM43.0949 99.931H47.8536V104.69H43.0949V99.931ZM57.3708 99.931H62.1294V104.69H57.3708V99.931ZM62.1294 99.931H66.8881V104.69H62.1294V99.931ZM71.6467 99.931H76.4053V104.69H71.6467V99.931ZM85.9225 99.931H90.6812V104.69H85.9225V99.931ZM90.6812 99.931H95.4398V104.69H90.6812V99.931ZM95.4398 99.931H100.198V104.69H95.4398V99.931ZM114.474 99.931H119.233V104.69H114.474V99.931ZM119.233 99.931H123.992V104.69H119.233V99.931ZM123.992 99.931H128.75V104.69H123.992V99.931ZM0.267365 104.69H5.02599V109.448H0.267365V104.69ZM5.02599 104.69H9.78461V109.448H5.02599V104.69ZM9.78461 104.69H14.5432V109.448H9.78461V104.69ZM14.5432 104.69H19.3018V109.448H14.5432V104.69ZM19.3018 104.69H24.0605V109.448H19.3018V104.69ZM24.0605 104.69H28.8191V109.448H24.0605V104.69ZM28.8191 104.69H33.5777V109.448H28.8191V104.69ZM38.3363 104.69H43.0949V109.448H38.3363V104.69ZM43.0949 104.69H47.8536V109.448H43.0949V104.69ZM47.8536 104.69H52.6122V109.448H47.8536V104.69ZM52.6122 104.69H57.3708V109.448H52.6122V104.69ZM71.6467 104.69H76.4053V109.448H71.6467V104.69ZM85.9225 104.69H90.6812V109.448H85.9225V104.69ZM90.6812 104.69H95.4398V109.448H90.6812V104.69ZM95.4398 104.69H100.198V109.448H95.4398V104.69ZM104.957 104.69H109.716V109.448H104.957V104.69ZM114.474 104.69H119.233V109.448H114.474V104.69ZM128.75 104.69H133.509V109.448H128.75V104.69ZM0.267365 109.448H5.02599V114.207H0.267365V109.448ZM28.8191 109.448H33.5777V114.207H28.8191V109.448ZM47.8536 109.448H52.6122V114.207H47.8536V109.448ZM52.6122 109.448H57.3708V114.207H52.6122V109.448ZM62.1294 109.448H66.8881V114.207H62.1294V109.448ZM71.6467 109.448H76.4053V114.207H71.6467V109.448ZM90.6812 109.448H95.4398V114.207H90.6812V109.448ZM95.4398 109.448H100.198V114.207H95.4398V109.448ZM114.474 109.448H119.233V114.207H114.474V109.448ZM119.233 109.448H123.992V114.207H119.233V109.448ZM128.75 109.448H133.509V114.207H128.75V109.448ZM0.267365 114.207H5.02599V118.966H0.267365V114.207ZM9.78461 114.207H14.5432V118.966H9.78461V114.207ZM14.5432 114.207H19.3018V118.966H14.5432V114.207ZM19.3018 114.207H24.0605V118.966H19.3018V114.207ZM28.8191 114.207H33.5777V118.966H28.8191V114.207ZM43.0949 114.207H47.8536V118.966H43.0949V114.207ZM52.6122 114.207H57.3708V118.966H52.6122V114.207ZM57.3708 114.207H62.1294V118.966H57.3708V114.207ZM76.4053 114.207H81.1639V118.966H76.4053V114.207ZM81.1639 114.207H85.9225V118.966H81.1639V114.207ZM85.9225 114.207H90.6812V118.966H85.9225V114.207ZM90.6812 114.207H95.4398V118.966H90.6812V114.207ZM95.4398 114.207H100.198V118.966H95.4398V114.207ZM100.198 114.207H104.957V118.966H100.198V114.207ZM104.957 114.207H109.716V118.966H104.957V114.207ZM109.716 114.207H114.474V118.966H109.716V114.207ZM114.474 114.207H119.233V118.966H114.474V114.207ZM128.75 114.207H133.509V118.966H128.75V114.207ZM0.267365 118.966H5.02599V123.724H0.267365V118.966ZM9.78461 118.966H14.5432V123.724H9.78461V118.966ZM14.5432 118.966H19.3018V123.724H14.5432V118.966ZM19.3018 118.966H24.0605V123.724H19.3018V118.966ZM28.8191 118.966H33.5777V123.724H28.8191V118.966ZM47.8536 118.966H52.6122V123.724H47.8536V118.966ZM57.3708 118.966H62.1294V123.724H57.3708V118.966ZM76.4053 118.966H81.1639V123.724H76.4053V118.966ZM81.1639 118.966H85.9225V123.724H81.1639V118.966ZM90.6812 118.966H95.4398V123.724H90.6812V118.966ZM95.4398 118.966H100.198V123.724H95.4398V118.966ZM109.716 118.966H114.474V123.724H109.716V118.966ZM128.75 118.966H133.509V123.724H128.75V118.966ZM0.267365 123.724H5.02599V128.483H0.267365V123.724ZM9.78461 123.724H14.5432V128.483H9.78461V123.724ZM14.5432 123.724H19.3018V128.483H14.5432V123.724ZM19.3018 123.724H24.0605V128.483H19.3018V123.724ZM28.8191 123.724H33.5777V128.483H28.8191V123.724ZM57.3708 123.724H62.1294V128.483H57.3708V123.724ZM66.8881 123.724H71.6467V128.483H66.8881V123.724ZM85.9225 123.724H90.6812V128.483H85.9225V123.724ZM90.6812 123.724H95.4398V128.483H90.6812V123.724ZM95.4398 123.724H100.198V128.483H95.4398V123.724ZM100.198 123.724H104.957V128.483H100.198V123.724ZM104.957 123.724H109.716V128.483H104.957V123.724ZM109.716 123.724H114.474V128.483H109.716V123.724ZM114.474 123.724H119.233V128.483H114.474V123.724ZM128.75 123.724H133.509V128.483H128.75V123.724ZM0.267365 128.483H5.02599V133.241H0.267365V128.483ZM28.8191 128.483H33.5777V133.241H28.8191V128.483ZM38.3363 128.483H43.0949V133.241H38.3363V128.483ZM57.3708 128.483H62.1294V133.241H57.3708V128.483ZM71.6467 128.483H76.4053V133.241H71.6467V128.483ZM85.9225 128.483H90.6812V133.241H85.9225V128.483ZM100.198 128.483H104.957V133.241H100.198V128.483ZM114.474 128.483H119.233V133.241H114.474V128.483ZM123.992 128.483H128.75V133.241H123.992V128.483ZM133.509 128.483H138.267V133.241H133.509V128.483ZM0.267365 133.241H5.02599V138H0.267365V133.241ZM5.02599 133.241H9.78461V138H5.02599V133.241ZM9.78461 133.241H14.5432V138H9.78461V133.241ZM14.5432 133.241H19.3018V138H14.5432V133.241ZM19.3018 133.241H24.0605V138H19.3018V133.241ZM24.0605 133.241H28.8191V138H24.0605V133.241ZM28.8191 133.241H33.5777V138H28.8191V133.241ZM43.0949 133.241H47.8536V138H43.0949V133.241ZM47.8536 133.241H52.6122V138H47.8536V133.241ZM52.6122 133.241H57.3708V138H52.6122V133.241ZM76.4053 133.241H81.1639V138H76.4053V133.241ZM81.1639 133.241H85.9225V138H81.1639V133.241ZM90.6812 133.241H95.4398V138H90.6812V133.241ZM100.198 133.241H104.957V138H100.198V133.241ZM104.957 133.241H109.716V138H104.957V133.241ZM114.474 133.241H119.233V138H114.474V133.241ZM123.992 133.241H128.75V138H123.992V133.241Z" fill="#00313A"/>
</svg>
