<svg width="34" height="33" viewBox="0 0 34 33" fill="none" xmlns="http://www.w3.org/2000/svg">
<path d="M33.7559 0.405273V12.4913L32.5555 13.7111H27.3513L30.5155 10.5847V6.35276L27.7325 3.5697H6.8013L3.98026 6.35276V13.6349H6.68714V7.72519C6.68714 7.72519 11.3386 7.72519 12.711 7.72519C14.0835 7.72519 15.4179 8.48792 15.4179 9.74596V12.2623H12.2153V10.9276H10.3869V13.6727H22.4519C26.3214 13.9397 28.0441 16.4937 28.0756 18.5529C28.1042 20.4401 27.3987 21.7361 25.8833 22.4796V22.594C28.8667 23.6992 28.9639 26.0589 29.0859 26.6358V27.9126C28.7235 29.7618 27.1415 32.4305 23.6149 32.4305H0.262887L0.243896 25.3777L4.52338 29.6284H17.2477V17.39H10.3869V20.5355H12.2153V19.1628H15.4177C15.4177 19.1628 15.4177 19.8492 15.4177 21.2216C15.4177 22.5563 15.3033 23.7381 13.2066 23.7381H6.78231V16.8753C6.78231 16.8753 4.03723 16.8753 3.06516 16.8753C1.34957 16.8753 0.26311 16.0748 0.26311 14.0922V0.405273H33.7559ZM20.4503 17.3329V21.4126H22.7758C25.7117 20.8786 25.8258 17.676 22.6996 17.3329H20.4503ZM20.4503 24.6914V29.6856H23.138C26.2834 29.3138 26.3692 25.0248 23.2812 24.6914H20.4503ZM33.7179 32.4311V18.7057H30.5155V29.9146L27.961 32.4311H33.7179ZM33.6799 16.4756C33.6799 15.5913 32.9628 14.8744 32.0787 14.8744C31.1945 14.8744 30.4775 15.5911 30.4775 16.4756C30.4775 17.3601 31.1945 18.0768 32.0787 18.0768C32.9628 18.0768 33.6799 17.3601 33.6799 16.4756Z" fill="#2E2A81"/>
</svg>
