<svg width="56" height="56" viewBox="0 0 56 56" fill="none" xmlns="http://www.w3.org/2000/svg">
<path d="M23.5368 30.3067L25.2098 24.7807L20.7992 21.384H26.2745L27.9982 15.9087L29.7219 21.384H35.1972L30.7358 24.7807L32.4088 30.3067L27.9982 26.8593L23.5368 30.3067ZM16.8448 48V33.5006C15.5605 32.1487 14.5635 30.594 13.8537 28.8365C13.1439 27.079 12.7891 25.2032 12.7891 23.2091C12.7891 18.9506 14.2593 15.3511 17.1997 12.4106C20.1401 9.47022 23.7396 8 27.9982 8C32.2567 8 35.8562 9.47022 38.7967 12.4106C41.7371 15.3511 43.2073 18.9506 43.2073 23.2091C43.2073 25.2032 42.8524 27.079 42.1427 28.8365C41.4329 30.594 40.4359 32.1487 39.1515 33.5006V48L27.9982 44.4512L16.8448 48ZM27.9982 35.3764C31.378 35.3764 34.2508 34.1935 36.6167 31.8276C38.9826 29.4618 40.1655 26.5889 40.1655 23.2091C40.1655 19.8293 38.9826 16.9565 36.6167 14.5906C34.2508 12.2248 31.378 11.0418 27.9982 11.0418C24.6184 11.0418 21.7455 12.2248 19.3797 14.5906C17.0138 16.9565 15.8309 19.8293 15.8309 23.2091C15.8309 26.5889 17.0138 29.4618 19.3797 31.8276C21.7455 34.1935 24.6184 35.3764 27.9982 35.3764ZM19.8867 43.5387L27.9982 41.3587L36.1097 43.5387V36.0355C34.9606 36.779 33.6932 37.3624 32.3074 37.7855C30.9217 38.2073 29.4853 38.4182 27.9982 38.4182C26.5111 38.4182 25.0747 38.2073 23.6889 37.7855C22.3032 37.3624 21.0358 36.779 19.8867 36.0355V43.5387Z" fill="#4CA771"/>
</svg>
