<svg width="62" height="72" viewBox="0 0 62 72" fill="none" xmlns="http://www.w3.org/2000/svg">
<path d="M10.2469 56.6018L10.2465 56.6013C4.65908 49.4183 1.88937 41.4876 1.88937 32.76V12.0033L30.9999 1.79824L60.1105 12.0033V32.76C60.1105 41.4878 57.3419 49.4186 51.7569 56.6016C46.2617 63.6682 39.356 68.2005 30.9999 70.2546C22.6439 68.2005 15.7396 63.6683 10.2469 56.6018Z" stroke="#4CA771" stroke-width="3.39397"/>
<path d="M14.623 48.1447V44.5172L29.0483 24.2765H14.5947V19.2375H36.7268V22.865L22.2873 43.1057H36.7551V48.1447H14.623Z" fill="#4CA771"/>
<path d="M41.3318 48.1447V26.4643H47.3447V48.1447H41.3318ZM44.3524 23.6696C43.4584 23.6696 42.6915 23.3732 42.0517 22.7803C41.4212 22.1781 41.106 21.4582 41.106 20.6208C41.106 19.7927 41.4212 19.0822 42.0517 18.4894C42.6915 17.8872 43.4584 17.5861 44.3524 17.5861C45.2463 17.5861 46.0085 17.8872 46.639 18.4894C47.2789 19.0822 47.5988 19.7927 47.5988 20.6208C47.5988 21.4582 47.2789 22.1781 46.639 22.7803C46.0085 23.3732 45.2463 23.6696 44.3524 23.6696Z" fill="#4CA771"/>
</svg>
