<svg width="65" height="72" viewBox="0 0 65 72" fill="none" xmlns="http://www.w3.org/2000/svg">
<path d="M47.4934 54.9024C49.0765 54.9024 50.4215 54.3476 51.5284 53.2382C52.6379 52.1313 53.1926 50.7863 53.1926 49.2032C53.1926 47.62 52.6379 46.275 51.5284 45.1681C50.4215 44.0587 49.0765 43.504 47.4934 43.504C45.9103 43.504 44.5653 44.0587 43.4584 45.1681C42.3489 46.275 41.7942 47.62 41.7942 49.2032C41.7942 50.7863 42.3489 52.1313 43.4584 53.2382C44.5653 54.3476 45.9103 54.9024 47.4934 54.9024ZM47.4934 66.3008C49.4565 66.3008 51.2612 65.841 52.9076 64.9216C54.5541 64.0046 55.8839 62.7863 56.8971 61.2665C55.5039 60.4433 54.0158 59.81 52.4327 59.3667C50.8496 58.9235 49.2032 58.7018 47.4934 58.7018C45.7836 58.7018 44.1372 58.9235 42.5541 59.3667C40.971 59.81 39.4828 60.4433 38.0897 61.2665C39.1029 62.7863 40.4327 64.0046 42.0791 64.9216C43.7256 65.841 45.5303 66.3008 47.4934 66.3008ZM28.496 71.905C20.2638 69.6887 13.4565 64.8608 8.07388 57.4214C2.69129 49.9795 0 41.6675 0 32.4855V10.6385L28.496 0L56.9921 10.6385V32.1055C56.1055 31.7889 55.1721 31.4875 54.1919 31.2013C53.2091 30.9176 52.2427 30.6807 51.2929 30.4908V14.628L28.496 6.07916L5.69921 14.628V32.4855C5.69921 35.8417 6.17414 39.1194 7.12401 42.3185C8.07388 45.5151 9.38849 48.5218 11.0679 51.3385C12.7447 54.1577 14.7394 56.6755 17.052 58.8918C19.3621 61.1082 21.8786 62.8813 24.6016 64.2111L24.6966 64.1161C25.2032 65.5092 25.8529 66.8391 26.6457 68.1055C27.436 69.372 28.3377 70.5435 29.3509 71.62C29.2243 71.6834 29.0976 71.7315 28.971 71.7644C28.8443 71.7948 28.686 71.8417 28.496 71.905ZM47.4934 72C42.7441 72 38.7065 70.3384 35.3807 67.0151C32.0574 63.6893 30.3958 59.6517 30.3958 54.9024C30.3958 50.153 32.0574 46.1155 35.3807 42.7897C38.7065 39.4664 42.7441 37.8047 47.4934 37.8047C52.2427 37.8047 56.2803 39.4664 59.6061 42.7897C62.9294 46.1155 64.591 50.153 64.591 54.9024C64.591 59.6517 62.9294 63.6893 59.6061 67.0151C56.2803 70.3384 52.2427 72 47.4934 72Z" fill="white"/>
</svg>
