<svg width="72" height="72" viewBox="0 0 72 72" fill="none" xmlns="http://www.w3.org/2000/svg">
<path fillRule="evenodd" clipRule="evenodd" d="M27.1385 61.5224L28.5231 72H43.4769L44.1805 66.676C42.9516 65.3647 41.3467 63.6255 40.7646 62.9062L40.1538 68.2388H31.8462L30.7385 58.5672C28.0615 57.8507 25.7778 56.9337 23.8874 55.8161C21.9932 54.6949 20.1231 53.194 18.2769 51.3134L9.13846 55.3433L4.98461 48.3582L13.2923 42.7164C12.4615 40.6567 12.0462 38.4179 12.0462 36C12.0462 33.5821 12.4615 31.3433 13.2923 29.2836L5.26154 23.3731L9.13846 16.6567L18.2769 20.6866C20.1231 18.806 21.9932 17.3051 23.8874 16.1839C25.7778 15.0663 28.0615 14.1493 30.7385 13.4328L31.8462 3.76119H40.1538L41.2615 13.4328C43.9385 14.1493 46.224 15.0663 48.1182 16.1839C50.0086 17.3051 51.8769 18.806 53.7231 20.6866L62.8615 16.6567L66.7385 23.3731L61.0066 27.5917L63.6832 30.247L72 24.4478L64.5231 11.8209L54.5539 16.1194C53.4462 15.0448 51.9471 13.9701 50.0566 12.8955C48.1625 11.8209 46.4308 11.0149 44.8615 10.4776L43.4769 0H28.5231L27.1385 10.4776C25.5692 11.0149 23.8394 11.8209 21.9489 12.8955C20.0548 13.9701 18.5538 15.0448 17.4462 16.1194L7.47692 11.8209L0 24.4478L8.86154 30.6269C8.4 32.6866 8.16923 34.4776 8.16923 36C8.16923 37.5224 8.4 39.3134 8.86154 41.3731L0 47.5522L7.47692 60.1791L17.4462 55.8806C18.5538 56.9552 20.0548 58.0298 21.9489 59.1045C23.8394 60.1791 25.5692 60.9851 27.1385 61.5224Z" fill="#4CA771"/>
<path fillRule="evenodd" clipRule="evenodd" d="M31.4735 29.2652C33.0449 30.8365 34.9456 31.6222 37.1758 31.6222C39.406 31.6222 41.3073 30.8365 42.8797 29.2652C44.451 27.6928 45.2367 25.7915 45.2367 23.5613C45.2367 21.3311 44.451 19.4298 42.8797 17.8574C41.3073 16.286 39.406 15.5004 37.1758 15.5004C34.9456 15.5004 33.0449 16.286 31.4735 17.8574C29.9011 19.4298 29.1149 21.3311 29.1149 23.5613C29.1149 25.7915 29.9011 27.6928 31.4735 29.2652ZM37.1758 24.6898L34.3142 27.5514L33.1857 26.4229L36.0473 23.5613L33.1857 20.6997L34.3142 19.5711L37.1758 22.4328L40.0374 19.5711L41.166 20.6997L38.3043 23.5613L41.166 26.4229L39.9971 27.5514L37.1758 24.6898ZM40.3208 54.7496C39.6273 53.5518 39.1072 52.3225 38.7605 51.0617C38.4138 49.801 38.2404 48.5086 38.2404 47.1848C38.2404 42.9611 39.7061 39.3679 42.6375 36.405C45.5688 33.4421 49.1463 31.9607 53.37 31.9607H53.701L50.675 28.9348L53.3227 26.2871L60.8875 33.8519L53.3227 41.4167L50.675 38.769L53.701 35.7431H53.37C50.218 35.7431 47.5388 36.8538 45.3324 39.0754C43.126 41.2981 42.0228 44.0013 42.0228 47.1848C42.0228 48.0043 42.1174 48.8081 42.3065 49.5961C42.4956 50.3841 42.7793 51.1563 43.1575 51.9128L40.3208 54.7496ZM53.4173 67.8934L45.8525 60.3286L53.4173 52.7638L56.0649 55.4115L53.039 58.4374H53.37C56.522 58.4374 59.2012 57.3266 61.4076 55.1051C63.614 52.8823 64.7172 50.1792 64.7172 46.9957C64.7172 46.1762 64.6226 45.3724 64.4335 44.5844C64.2444 43.7964 63.9607 43.0242 63.5824 42.2677L66.4192 39.4309C67.1127 40.6287 67.6328 41.8579 67.9795 43.1187C68.3262 44.3795 68.4995 45.6718 68.4995 46.9957C68.4995 51.2193 67.0339 54.8126 64.1025 57.7755C61.1712 60.7384 57.5937 62.2198 53.37 62.2198H53.039L56.0649 65.2457L53.4173 67.8934ZM25.6189 46.684L31.3019 41.0011L30.1733 39.8725L25.6189 44.427L23.3215 42.1296L22.193 43.2581L25.6189 46.684ZM26.7474 51.0369C25.6323 51.0369 24.5844 50.8252 23.6037 50.4017C22.6229 49.9788 21.7698 49.4046 21.0443 48.6791C20.3189 47.9536 19.7447 47.1005 19.3217 46.1198C18.8983 45.139 18.6865 44.0911 18.6865 42.976C18.6865 41.8609 18.8983 40.813 19.3217 39.8322C19.7447 38.8515 20.3189 37.9984 21.0443 37.2729C21.7698 36.5474 22.6229 35.9729 23.6037 35.5495C24.5844 35.1265 25.6323 34.9151 26.7474 34.9151C27.8625 34.9151 28.9104 35.1265 29.8912 35.5495C30.8719 35.9729 31.7251 36.5474 32.4505 37.2729C33.176 37.9984 33.7502 38.8515 34.1732 39.8322C34.5966 40.813 34.8084 41.8609 34.8084 42.976C34.8084 44.0911 34.5966 45.139 34.1732 46.1198C33.7502 47.1005 33.176 47.9536 32.4505 48.6791C31.7251 49.4046 30.8719 49.9788 29.8912 50.4017C28.9104 50.8252 27.8625 51.0369 26.7474 51.0369ZM26.7474 49.4247C28.5477 49.4247 30.0726 48.8 31.322 47.5506C32.5714 46.3011 33.1962 44.7763 33.1962 42.976C33.1962 41.1757 32.5714 39.6509 31.322 38.4014C30.0726 37.152 28.5477 36.5273 26.7474 36.5273C24.9472 36.5273 23.4223 37.152 22.1729 38.4014C20.9234 39.6509 20.2987 41.1757 20.2987 42.976C20.2987 44.7763 20.9234 46.3011 22.1729 47.5506C23.4223 48.8 24.9472 49.4247 26.7474 49.4247Z" fill="#4CA771"/>
</svg>
