<svg width="476" height="87" viewBox="0 0 476 87" fill="none" xmlns="http://www.w3.org/2000/svg">
<rect x="0.945312" width="148" height="87" rx="12" fill="url(#paint0_linear_3771_4112)"/>
<path d="M26.0707 43L20.2117 32.77V31.406H20.8937C21.989 31.406 22.9087 31.3027 23.6527 31.096C24.4174 30.8893 25.0167 30.5483 25.4507 30.073C25.8847 29.5977 26.143 28.9467 26.2257 28.12H20.2117V26.136H26.1947C26.05 25.3713 25.7607 24.7513 25.3267 24.276C24.8927 23.78 24.3037 23.4183 23.5597 23.191C22.8364 22.9637 21.9477 22.85 20.8937 22.85H20.2117V20.866H33.0457V22.85H27.1867C27.662 23.2427 28.0547 23.7077 28.3647 24.245C28.6747 24.7823 28.871 25.4127 28.9537 26.136H33.0457V28.12H29.0157C28.871 29.6287 28.2924 30.8067 27.2797 31.654C26.2877 32.4807 24.965 33.0077 23.3117 33.235L29.2327 43H26.0707ZM51.1829 21.88V25.72H41.7429L41.1989 30.296C42.5216 29.784 43.7803 29.528 44.9749 29.528C49.5403 29.528 51.8229 31.6507 51.8229 35.896C51.8229 38.2853 51.1936 40.1307 49.9349 41.432C48.6763 42.7333 46.8949 43.384 44.5909 43.384C43.6096 43.384 42.4896 43.288 41.2309 43.096C39.9936 42.904 39.0016 42.7013 38.2549 42.488L37.1029 42.2L37.5829 38.936C40.1643 39.3413 42.3189 39.544 44.0469 39.544C45.0923 39.544 45.8923 39.2667 46.4469 38.712C47.0016 38.1573 47.2789 37.368 47.2789 36.344C47.2789 35.2987 47.0443 34.5413 46.5749 34.072C46.1056 33.6027 45.4443 33.368 44.5909 33.368C43.1616 33.368 41.9029 33.5067 40.8149 33.784L40.3349 33.912L37.7109 33.304L38.2869 21.88H51.1829ZM56.2252 24.12C57.6118 22.3707 59.6598 21.496 62.3692 21.496C65.0785 21.496 67.1158 22.3707 68.4812 24.12C69.8678 25.8693 70.5612 28.6853 70.5612 32.568C70.5612 36.4293 69.8785 39.2027 68.5132 40.888C67.1478 42.552 65.0998 43.384 62.3692 43.384C59.6385 43.384 57.5905 42.552 56.2252 40.888C54.8598 39.2027 54.1772 36.4293 54.1772 32.568C54.1772 28.6853 54.8598 25.8693 56.2252 24.12ZM66.0172 32.472C66.0172 29.8267 65.7398 27.9813 65.1852 26.936C64.6305 25.8693 63.6918 25.336 62.3692 25.336C61.0678 25.336 60.1292 25.8693 59.5532 26.936C58.9985 28.0027 58.7212 29.848 58.7212 32.472C58.7212 35.096 59.0092 36.9307 59.5852 37.976C60.1612 39.0213 61.0998 39.544 62.4012 39.544C63.7025 39.544 64.6305 39.0213 65.1852 37.976C65.7398 36.9307 66.0172 35.096 66.0172 32.472ZM74.1314 24.12C75.5181 22.3707 77.5661 21.496 80.2754 21.496C82.9848 21.496 85.0221 22.3707 86.3874 24.12C87.7741 25.8693 88.4674 28.6853 88.4674 32.568C88.4674 36.4293 87.7848 39.2027 86.4194 40.888C85.0541 42.552 83.0061 43.384 80.2754 43.384C77.5448 43.384 75.4968 42.552 74.1314 40.888C72.7661 39.2027 72.0834 36.4293 72.0834 32.568C72.0834 28.6853 72.7661 25.8693 74.1314 24.12ZM83.9234 32.472C83.9234 29.8267 83.6461 27.9813 83.0914 26.936C82.5368 25.8693 81.5981 25.336 80.2754 25.336C78.9741 25.336 78.0354 25.8693 77.4594 26.936C76.9048 28.0027 76.6274 29.848 76.6274 32.472C76.6274 35.096 76.9154 36.9307 77.4914 37.976C78.0674 39.0213 79.0061 39.544 80.3074 39.544C81.6088 39.544 82.5368 39.0213 83.0914 37.976C83.6461 36.9307 83.9234 35.096 83.9234 32.472ZM97.5097 26.68C98.2137 26.68 99.4083 26.808 101.094 27.064L101.862 27.16L101.766 29.112C100.059 28.92 98.8003 28.824 97.9897 28.824C96.1763 28.824 94.939 29.2613 94.2777 30.136C93.6377 30.9893 93.3177 32.5893 93.3177 34.936C93.3177 37.2613 93.6163 38.8827 94.2137 39.8C94.8323 40.7173 96.1017 41.176 98.0217 41.176L101.798 40.888L101.894 42.872C99.9097 43.1707 98.427 43.32 97.4457 43.32C94.9497 43.32 93.2217 42.68 92.2617 41.4C91.323 40.12 90.8537 37.9653 90.8537 34.936C90.8537 31.8853 91.3657 29.752 92.3897 28.536C93.4137 27.2987 95.1203 26.68 97.5097 26.68ZM105.463 43V27H107.831V29.176C109.687 27.896 111.639 27.0533 113.687 26.648V29.08C112.791 29.2507 111.853 29.5173 110.871 29.88C109.911 30.2427 109.175 30.5627 108.663 30.84L107.863 31.256V43H105.463ZM115.982 36.056V33.88H122.03V27.64H124.27V33.88H130.382V36.056H124.27V42.36H122.03V36.056H115.982Z" fill="#023373"/>
<path d="M19.4153 71L22.4553 59.928H25.1433L28.1833 71H26.9673L26.1673 68.152H21.4313L20.6313 71H19.4153ZM23.3833 60.984L21.7033 67.048H25.8953L24.2153 60.984H23.3833ZM32.2265 63.912C31.0638 63.912 30.4825 64.3173 30.4825 65.128C30.4825 65.5013 30.6158 65.768 30.8825 65.928C31.1492 66.0773 31.7572 66.2373 32.7065 66.408C33.6558 66.568 34.3278 66.7973 34.7225 67.096C35.1172 67.3947 35.3145 67.9547 35.3145 68.776C35.3145 69.5973 35.0478 70.2 34.5145 70.584C33.9918 70.968 33.2238 71.16 32.2105 71.16C31.5492 71.16 30.7705 71.0853 29.8745 70.936L29.3945 70.856L29.4585 69.816C30.6745 69.9973 31.5918 70.088 32.2105 70.088C32.8292 70.088 33.2985 69.992 33.6185 69.8C33.9492 69.5973 34.1145 69.2667 34.1145 68.808C34.1145 68.3387 33.9758 68.024 33.6985 67.864C33.4212 67.6933 32.8132 67.5333 31.8745 67.384C30.9358 67.2347 30.2692 67.016 29.8745 66.728C29.4798 66.44 29.2825 65.9067 29.2825 65.128C29.2825 64.3493 29.5545 63.7733 30.0985 63.4C30.6532 63.0267 31.3412 62.84 32.1625 62.84C32.8132 62.84 33.6292 62.9147 34.6105 63.064L35.0585 63.144L35.0265 64.168C33.8425 63.9973 32.9092 63.912 32.2265 63.912ZM39.664 63.912C38.5013 63.912 37.92 64.3173 37.92 65.128C37.92 65.5013 38.0533 65.768 38.32 65.928C38.5867 66.0773 39.1947 66.2373 40.144 66.408C41.0933 66.568 41.7653 66.7973 42.16 67.096C42.5547 67.3947 42.752 67.9547 42.752 68.776C42.752 69.5973 42.4853 70.2 41.952 70.584C41.4293 70.968 40.6613 71.16 39.648 71.16C38.9867 71.16 38.208 71.0853 37.312 70.936L36.832 70.856L36.896 69.816C38.112 69.9973 39.0293 70.088 39.648 70.088C40.2667 70.088 40.736 69.992 41.056 69.8C41.3867 69.5973 41.552 69.2667 41.552 68.808C41.552 68.3387 41.4133 68.024 41.136 67.864C40.8587 67.6933 40.2507 67.5333 39.312 67.384C38.3733 67.2347 37.7067 67.016 37.312 66.728C36.9173 66.44 36.72 65.9067 36.72 65.128C36.72 64.3493 36.992 63.7733 37.536 63.4C38.0907 63.0267 38.7787 62.84 39.6 62.84C40.2507 62.84 41.0667 62.9147 42.048 63.064L42.496 63.144L42.464 64.168C41.28 63.9973 40.3467 63.912 39.664 63.912ZM50.0295 70.008L50.4935 69.96L50.5255 70.904C49.3095 71.0747 48.2695 71.16 47.4055 71.16C46.2535 71.16 45.4375 70.8293 44.9575 70.168C44.4775 69.496 44.2375 68.456 44.2375 67.048C44.2375 64.2427 45.3522 62.84 47.5815 62.84C48.6588 62.84 49.4642 63.144 49.9975 63.752C50.5308 64.3493 50.7975 65.2933 50.7975 66.584L50.7335 67.496H45.4535C45.4535 68.3813 45.6135 69.0373 45.9335 69.464C46.2535 69.8907 46.8082 70.104 47.5975 70.104C48.3975 70.104 49.2082 70.072 50.0295 70.008ZM49.5975 66.536C49.5975 65.5547 49.4375 64.8613 49.1175 64.456C48.8082 64.0507 48.2962 63.848 47.5815 63.848C46.8775 63.848 46.3442 64.0613 45.9815 64.488C45.6295 64.9147 45.4482 65.5973 45.4375 66.536H49.5975ZM56.7648 64.04H54.2208V67.864C54.2208 68.7813 54.2848 69.384 54.4128 69.672C54.5514 69.96 54.8714 70.104 55.3728 70.104L56.7968 70.008L56.8768 71C56.1621 71.1173 55.6181 71.176 55.2448 71.176C54.4128 71.176 53.8368 70.9733 53.5168 70.568C53.1968 70.1627 53.0368 69.3893 53.0368 68.248V64.04H51.9008V63H53.0368V60.552H54.2208V63H56.7648V64.04ZM60.7421 63.912C59.5795 63.912 58.9981 64.3173 58.9981 65.128C58.9981 65.5013 59.1315 65.768 59.3981 65.928C59.6648 66.0773 60.2728 66.2373 61.2221 66.408C62.1715 66.568 62.8435 66.7973 63.2381 67.096C63.6328 67.3947 63.8301 67.9547 63.8301 68.776C63.8301 69.5973 63.5635 70.2 63.0301 70.584C62.5075 70.968 61.7395 71.16 60.7261 71.16C60.0648 71.16 59.2861 71.0853 58.3901 70.936L57.9101 70.856L57.9741 69.816C59.1901 69.9973 60.1075 70.088 60.7261 70.088C61.3448 70.088 61.8141 69.992 62.1341 69.8C62.4648 69.5973 62.6301 69.2667 62.6301 68.808C62.6301 68.3387 62.4915 68.024 62.2141 67.864C61.9368 67.6933 61.3288 67.5333 60.3901 67.384C59.4515 67.2347 58.7848 67.016 58.3901 66.728C57.9955 66.44 57.7981 65.9067 57.7981 65.128C57.7981 64.3493 58.0701 63.7733 58.6141 63.4C59.1688 63.0267 59.8568 62.84 60.6781 62.84C61.3288 62.84 62.1448 62.9147 63.1261 63.064L63.5741 63.144L63.5421 64.168C62.3581 63.9973 61.4248 63.912 60.7421 63.912ZM69.3913 71V59.928H71.6153L74.7513 69.288L77.8873 59.928H80.1113V71H78.8793V61.24H78.6553L75.4393 70.6H74.0633L70.8473 61.24H70.6233V71H69.3913ZM88.2688 65.416V69.512C88.3008 69.9067 88.6101 70.1413 89.1968 70.216L89.1488 71.16C88.3061 71.16 87.6714 70.9467 87.2448 70.52C86.2848 70.9467 85.3248 71.16 84.3648 71.16C83.6288 71.16 83.0688 70.952 82.6848 70.536C82.3008 70.12 82.1088 69.5227 82.1088 68.744C82.1088 67.9653 82.3061 67.3947 82.7008 67.032C83.0954 66.6587 83.7141 66.4293 84.5568 66.344L87.0688 66.104V65.416C87.0688 64.872 86.9514 64.4827 86.7168 64.248C86.4821 64.0133 86.1621 63.896 85.7568 63.896C84.9034 63.896 84.0181 63.9493 83.1008 64.056L82.6048 64.104L82.5568 63.192C83.7301 62.9573 84.7701 62.84 85.6768 62.84C86.5834 62.84 87.2394 63.048 87.6448 63.464C88.0608 63.88 88.2688 64.5307 88.2688 65.416ZM83.3408 68.68C83.3408 69.6613 83.7461 70.152 84.5568 70.152C85.2821 70.152 85.9968 70.0293 86.7008 69.784L87.0688 69.656V67.016L84.7008 67.24C84.2208 67.2827 83.8741 67.4213 83.6608 67.656C83.4474 67.8907 83.3408 68.232 83.3408 68.68ZM91.8364 71H90.6364V63H91.8204V63.56C92.6844 63.08 93.511 62.84 94.3004 62.84C95.367 62.84 96.0817 63.128 96.4444 63.704C96.8177 64.28 97.0044 65.304 97.0044 66.776V71H95.8204V66.808C95.8204 65.6987 95.7084 64.9413 95.4844 64.536C95.271 64.12 94.807 63.912 94.0924 63.912C93.751 63.912 93.3884 63.9653 93.0044 64.072C92.631 64.168 92.343 64.264 92.1404 64.36L91.8364 64.504V71ZM104.878 65.416V69.512C104.91 69.9067 105.219 70.1413 105.806 70.216L105.758 71.16C104.915 71.16 104.281 70.9467 103.854 70.52C102.894 70.9467 101.934 71.16 100.974 71.16C100.238 71.16 99.6781 70.952 99.2941 70.536C98.9101 70.12 98.7181 69.5227 98.7181 68.744C98.7181 67.9653 98.9155 67.3947 99.3101 67.032C99.7048 66.6587 100.323 66.4293 101.166 66.344L103.678 66.104V65.416C103.678 64.872 103.561 64.4827 103.326 64.248C103.091 64.0133 102.771 63.896 102.366 63.896C101.513 63.896 100.627 63.9493 99.7101 64.056L99.2141 64.104L99.1661 63.192C100.339 62.9573 101.379 62.84 102.286 62.84C103.193 62.84 103.849 63.048 104.254 63.464C104.67 63.88 104.878 64.5307 104.878 65.416ZM99.9501 68.68C99.9501 69.6613 100.355 70.152 101.166 70.152C101.891 70.152 102.606 70.0293 103.31 69.784L103.678 69.656V67.016L101.31 67.24C100.83 67.2827 100.483 67.4213 100.27 67.656C100.057 67.8907 99.9501 68.232 99.9501 68.68ZM110.334 74.76C109.054 74.76 108.158 74.584 107.646 74.232C107.144 73.8907 106.894 73.2613 106.894 72.344C106.894 71.9067 106.99 71.5493 107.182 71.272C107.374 71.0053 107.699 70.7013 108.158 70.36C107.859 70.1573 107.71 69.7893 107.71 69.256C107.71 69.0747 107.843 68.7387 108.11 68.248L108.254 67.992C107.411 67.608 106.99 66.8027 106.99 65.576C106.99 63.752 107.987 62.84 109.982 62.84C110.494 62.84 110.968 62.8933 111.406 63L111.646 63.048L114.014 62.984V64.008L112.494 63.976C112.846 64.328 113.022 64.8613 113.022 65.576C113.022 66.5787 112.771 67.2827 112.27 67.688C111.779 68.0827 111 68.28 109.934 68.28C109.646 68.28 109.384 68.2587 109.15 68.216C108.958 68.6853 108.862 68.9893 108.862 69.128C108.862 69.4587 108.963 69.6667 109.166 69.752C109.368 69.8267 109.982 69.864 111.006 69.864C112.03 69.864 112.766 70.024 113.214 70.344C113.662 70.664 113.886 71.288 113.886 72.216C113.886 73.912 112.702 74.76 110.334 74.76ZM108.078 72.248C108.078 72.8133 108.232 73.2027 108.542 73.416C108.862 73.64 109.443 73.752 110.286 73.752C111.139 73.752 111.747 73.6347 112.11 73.4C112.483 73.1653 112.67 72.7707 112.67 72.216C112.67 71.672 112.536 71.32 112.27 71.16C112.003 71 111.48 70.92 110.702 70.92L108.974 70.84C108.622 71.096 108.382 71.32 108.254 71.512C108.136 71.704 108.078 71.9493 108.078 72.248ZM108.19 65.576C108.19 66.2053 108.328 66.6533 108.606 66.92C108.894 67.1867 109.363 67.32 110.014 67.32C110.664 67.32 111.128 67.1867 111.406 66.92C111.683 66.6533 111.822 66.2053 111.822 65.576C111.822 64.936 111.683 64.4827 111.406 64.216C111.128 63.9493 110.664 63.816 110.014 63.816C109.363 63.816 108.894 63.9547 108.606 64.232C108.328 64.4987 108.19 64.9467 108.19 65.576ZM120.905 70.008L121.369 69.96L121.401 70.904C120.185 71.0747 119.145 71.16 118.281 71.16C117.129 71.16 116.313 70.8293 115.833 70.168C115.353 69.496 115.113 68.456 115.113 67.048C115.113 64.2427 116.227 62.84 118.457 62.84C119.534 62.84 120.339 63.144 120.873 63.752C121.406 64.3493 121.673 65.2933 121.673 66.584L121.609 67.496H116.329C116.329 68.3813 116.489 69.0373 116.809 69.464C117.129 69.8907 117.683 70.104 118.473 70.104C119.273 70.104 120.083 70.072 120.905 70.008ZM120.473 66.536C120.473 65.5547 120.313 64.8613 119.993 64.456C119.683 64.0507 119.171 63.848 118.457 63.848C117.753 63.848 117.219 64.0613 116.857 64.488C116.505 64.9147 116.323 65.5973 116.312 66.536H120.473ZM129.687 59.512V71H128.503V70.456C127.681 70.9253 126.871 71.16 126.071 71.16C125.644 71.16 125.271 71.1067 124.951 71C124.631 70.8933 124.332 70.7013 124.055 70.424C123.479 69.848 123.191 68.7867 123.191 67.24C123.191 65.6827 123.447 64.5627 123.959 63.88C124.481 63.1867 125.34 62.84 126.535 62.84C127.153 62.84 127.809 62.9093 128.503 63.048V59.512H129.687ZM124.983 69.56C125.153 69.7627 125.335 69.9013 125.527 69.976C125.719 70.0507 125.964 70.088 126.263 70.088C126.572 70.088 126.913 70.04 127.287 69.944C127.671 69.8373 127.969 69.736 128.183 69.64L128.503 69.496V64.072C127.82 63.944 127.185 63.88 126.599 63.88C125.788 63.88 125.223 64.1413 124.903 64.664C124.583 65.176 124.423 65.976 124.423 67.064C124.423 68.3013 124.609 69.1333 124.983 69.56Z" fill="#023373"/>
<rect x="164.945" width="148" height="87" rx="12" fill="url(#paint1_linear_3771_4112)"/>
<path d="M209.86 21.88V25.72H200.42L199.876 30.296C201.198 29.784 202.457 29.528 203.652 29.528C208.217 29.528 210.5 31.6507 210.5 35.896C210.5 38.2853 209.87 40.1307 208.612 41.432C207.353 42.7333 205.572 43.384 203.268 43.384C202.286 43.384 201.166 43.288 199.908 43.096C198.67 42.904 197.678 42.7013 196.932 42.488L195.78 42.2L196.26 38.936C198.841 39.3413 200.996 39.544 202.724 39.544C203.769 39.544 204.569 39.2667 205.124 38.712C205.678 38.1573 205.956 37.368 205.956 36.344C205.956 35.2987 205.721 34.5413 205.252 34.072C204.782 33.6027 204.121 33.368 203.268 33.368C201.838 33.368 200.58 33.5067 199.492 33.784L199.012 33.912L196.388 33.304L196.964 21.88H209.86ZM214.902 24.12C216.289 22.3707 218.337 21.496 221.046 21.496C223.755 21.496 225.793 22.3707 227.158 24.12C228.545 25.8693 229.238 28.6853 229.238 32.568C229.238 36.4293 228.555 39.2027 227.19 40.888C225.825 42.552 223.777 43.384 221.046 43.384C218.315 43.384 216.267 42.552 214.902 40.888C213.537 39.2027 212.854 36.4293 212.854 32.568C212.854 28.6853 213.537 25.8693 214.902 24.12ZM224.694 32.472C224.694 29.8267 224.417 27.9813 223.862 26.936C223.307 25.8693 222.369 25.336 221.046 25.336C219.745 25.336 218.806 25.8693 218.23 26.936C217.675 28.0027 217.398 29.848 217.398 32.472C217.398 35.096 217.686 36.9307 218.262 37.976C218.838 39.0213 219.777 39.544 221.078 39.544C222.379 39.544 223.307 39.0213 223.862 37.976C224.417 36.9307 224.694 35.096 224.694 32.472ZM232.808 24.12C234.195 22.3707 236.243 21.496 238.952 21.496C241.662 21.496 243.699 22.3707 245.064 24.12C246.451 25.8693 247.144 28.6853 247.144 32.568C247.144 36.4293 246.462 39.2027 245.096 40.888C243.731 42.552 241.683 43.384 238.952 43.384C236.222 43.384 234.174 42.552 232.808 40.888C231.443 39.2027 230.76 36.4293 230.76 32.568C230.76 28.6853 231.443 25.8693 232.808 24.12ZM242.6 32.472C242.6 29.8267 242.323 27.9813 241.768 26.936C241.214 25.8693 240.275 25.336 238.952 25.336C237.651 25.336 236.712 25.8693 236.136 26.936C235.582 28.0027 235.304 29.848 235.304 32.472C235.304 35.096 235.592 36.9307 236.168 37.976C236.744 39.0213 237.683 39.544 238.984 39.544C240.286 39.544 241.214 39.0213 241.768 37.976C242.323 36.9307 242.6 35.096 242.6 32.472ZM250.714 24.12C252.101 22.3707 254.149 21.496 256.858 21.496C259.568 21.496 261.605 22.3707 262.97 24.12C264.357 25.8693 265.05 28.6853 265.05 32.568C265.05 36.4293 264.368 39.2027 263.002 40.888C261.637 42.552 259.589 43.384 256.858 43.384C254.128 43.384 252.08 42.552 250.714 40.888C249.349 39.2027 248.666 36.4293 248.666 32.568C248.666 28.6853 249.349 25.8693 250.714 24.12ZM260.506 32.472C260.506 29.8267 260.229 27.9813 259.674 26.936C259.12 25.8693 258.181 25.336 256.858 25.336C255.557 25.336 254.618 25.8693 254.042 26.936C253.488 28.0027 253.21 29.848 253.21 32.472C253.21 35.096 253.498 36.9307 254.074 37.976C254.65 39.0213 255.589 39.544 256.89 39.544C258.192 39.544 259.12 39.0213 259.674 37.976C260.229 36.9307 260.506 35.096 260.506 32.472ZM267.565 36.056V33.88H273.613V27.64H275.853V33.88H281.965V36.056H275.853V42.36H273.613V36.056H267.565Z" fill="#023373"/>
<path d="M187.294 71V65.992H181.662V71H180.43V59.928H181.662V64.888H187.294V59.928H188.51V71H187.294ZM196.667 65.416V69.512C196.699 69.9067 197.009 70.1413 197.595 70.216L197.547 71.16C196.705 71.16 196.07 70.9467 195.643 70.52C194.683 70.9467 193.723 71.16 192.763 71.16C192.027 71.16 191.467 70.952 191.083 70.536C190.699 70.12 190.507 69.5227 190.507 68.744C190.507 67.9653 190.705 67.3947 191.099 67.032C191.494 66.6587 192.113 66.4293 192.955 66.344L195.467 66.104V65.416C195.467 64.872 195.35 64.4827 195.115 64.248C194.881 64.0133 194.561 63.896 194.155 63.896C193.302 63.896 192.417 63.9493 191.499 64.056L191.003 64.104L190.955 63.192C192.129 62.9573 193.169 62.84 194.075 62.84C194.982 62.84 195.638 63.048 196.043 63.464C196.459 63.88 196.667 64.5307 196.667 65.416ZM191.739 68.68C191.739 69.6613 192.145 70.152 192.955 70.152C193.681 70.152 194.395 70.0293 195.099 69.784L195.467 69.656V67.016L193.099 67.24C192.619 67.2827 192.273 67.4213 192.059 67.656C191.846 67.8907 191.739 68.232 191.739 68.68ZM199.035 74.552V63H200.219V63.576C201.029 63.0853 201.829 62.84 202.619 62.84C203.632 62.84 204.368 63.1653 204.827 63.816C205.285 64.456 205.515 65.5173 205.515 67C205.515 68.4827 205.243 69.5493 204.699 70.2C204.165 70.84 203.275 71.16 202.027 71.16C201.376 71.16 200.779 71.1013 200.235 70.984V74.552H199.035ZM202.443 63.912C202.123 63.912 201.776 63.9653 201.403 64.072C201.04 64.1787 200.752 64.2853 200.539 64.392L200.235 64.552V69.944C200.992 70.0613 201.568 70.12 201.963 70.12C202.827 70.12 203.429 69.8747 203.771 69.384C204.123 68.8933 204.299 68.0933 204.299 66.984C204.299 65.8747 204.139 65.0853 203.819 64.616C203.509 64.1467 203.051 63.912 202.443 63.912ZM207.472 74.552V63H208.656V63.576C209.467 63.0853 210.267 62.84 211.056 62.84C212.07 62.84 212.806 63.1653 213.264 63.816C213.723 64.456 213.952 65.5173 213.952 67C213.952 68.4827 213.68 69.5493 213.136 70.2C212.603 70.84 211.712 71.16 210.464 71.16C209.814 71.16 209.216 71.1013 208.672 70.984V74.552H207.472ZM210.88 63.912C210.56 63.912 210.214 63.9653 209.84 64.072C209.478 64.1787 209.19 64.2853 208.976 64.392L208.672 64.552V69.944C209.43 70.0613 210.006 70.12 210.4 70.12C211.264 70.12 211.867 69.8747 212.208 69.384C212.56 68.8933 212.736 68.0933 212.736 66.984C212.736 65.8747 212.576 65.0853 212.256 64.616C211.947 64.1467 211.488 63.912 210.88 63.912ZM215.017 63H216.217L218.217 69.96H218.745L220.761 63H221.961L218.633 74.552H217.433L218.473 71H217.289L215.017 63ZM233.915 70.824C232.817 71.048 231.83 71.16 230.955 71.16C230.081 71.16 229.371 71.0427 228.827 70.808C228.294 70.5627 227.878 70.1893 227.579 69.688C227.291 69.176 227.089 68.5947 226.971 67.944C226.865 67.2827 226.811 66.4613 226.811 65.48C226.811 64.4987 226.865 63.6773 226.971 63.016C227.089 62.344 227.291 61.752 227.579 61.24C227.878 60.728 228.294 60.3547 228.827 60.12C229.361 59.8853 230.054 59.768 230.907 59.768C231.761 59.768 232.763 59.8853 233.915 60.12L233.867 61.16C232.79 60.968 231.83 60.872 230.987 60.872C229.814 60.872 229.035 61.224 228.651 61.928C228.278 62.6213 228.091 63.8107 228.091 65.496C228.091 66.3387 228.123 67.016 228.187 67.528C228.262 68.04 228.401 68.504 228.603 68.92C228.806 69.3253 229.099 69.6187 229.483 69.8C229.878 69.9707 230.449 70.056 231.195 70.056C231.953 70.056 232.843 69.96 233.867 69.768L233.915 70.824ZM240.542 63H241.742V71H240.542V70.44C239.742 70.92 238.953 71.16 238.174 71.16C237.086 71.16 236.361 70.8773 235.998 70.312C235.646 69.7467 235.47 68.7013 235.47 67.176V63H236.67V67.16C236.67 68.3227 236.772 69.1013 236.974 69.496C237.177 69.8907 237.636 70.088 238.35 70.088C238.702 70.088 239.06 70.04 239.422 69.944C239.785 69.8373 240.062 69.736 240.254 69.64L240.542 69.496V63ZM246.562 63.912C245.4 63.912 244.818 64.3173 244.818 65.128C244.818 65.5013 244.952 65.768 245.218 65.928C245.485 66.0773 246.093 66.2373 247.042 66.408C247.992 66.568 248.664 66.7973 249.058 67.096C249.453 67.3947 249.65 67.9547 249.65 68.776C249.65 69.5973 249.384 70.2 248.85 70.584C248.328 70.968 247.56 71.16 246.546 71.16C245.885 71.16 245.106 71.0853 244.21 70.936L243.73 70.856L243.794 69.816C245.01 69.9973 245.928 70.088 246.546 70.088C247.165 70.088 247.634 69.992 247.954 69.8C248.285 69.5973 248.45 69.2667 248.45 68.808C248.45 68.3387 248.312 68.024 248.034 67.864C247.757 67.6933 247.149 67.5333 246.21 67.384C245.272 67.2347 244.605 67.016 244.21 66.728C243.816 66.44 243.618 65.9067 243.618 65.128C243.618 64.3493 243.89 63.7733 244.434 63.4C244.989 63.0267 245.677 62.84 246.498 62.84C247.149 62.84 247.965 62.9147 248.946 63.064L249.394 63.144L249.362 64.168C248.178 63.9973 247.245 63.912 246.562 63.912ZM255.632 64.04H253.088V67.864C253.088 68.7813 253.152 69.384 253.28 69.672C253.419 69.96 253.739 70.104 254.24 70.104L255.664 70.008L255.744 71C255.029 71.1173 254.485 71.176 254.112 71.176C253.28 71.176 252.704 70.9733 252.384 70.568C252.064 70.1627 251.904 69.3893 251.904 68.248V64.04H250.768V63H251.904V60.552H253.088V63H255.632V64.04ZM256.745 66.984C256.745 65.5227 257.007 64.4667 257.529 63.816C258.052 63.1653 258.932 62.84 260.169 62.84C261.417 62.84 262.297 63.1653 262.809 63.816C263.332 64.4667 263.593 65.5227 263.593 66.984C263.593 68.4453 263.348 69.5067 262.857 70.168C262.367 70.8293 261.471 71.16 260.169 71.16C258.868 71.16 257.972 70.8293 257.481 70.168C256.991 69.5067 256.745 68.4453 256.745 66.984ZM257.977 66.968C257.977 68.1307 258.116 68.9467 258.393 69.416C258.681 69.8853 259.273 70.12 260.169 70.12C261.076 70.12 261.668 69.8907 261.945 69.432C262.223 68.9627 262.361 68.1413 262.361 66.968C262.361 65.7947 262.207 64.9893 261.897 64.552C261.588 64.104 261.012 63.88 260.169 63.88C259.337 63.88 258.761 64.104 258.441 64.552C258.132 64.9893 257.977 65.7947 257.977 66.968ZM266.75 71H265.55V63H266.734V63.56C267.534 63.08 268.313 62.84 269.07 62.84C270.062 62.84 270.756 63.112 271.15 63.656C271.502 63.4427 271.956 63.256 272.51 63.096C273.076 62.9253 273.572 62.84 273.998 62.84C275.065 62.84 275.78 63.128 276.142 63.704C276.516 64.2693 276.702 65.2933 276.702 66.776V71H275.502V66.808C275.502 65.6987 275.396 64.9413 275.182 64.536C274.969 64.12 274.516 63.912 273.822 63.912C273.47 63.912 273.108 63.9653 272.734 64.072C272.361 64.168 272.073 64.264 271.87 64.36L271.566 64.504C271.705 64.856 271.774 65.6347 271.774 66.84V71H270.574V66.872C270.574 65.72 270.468 64.9413 270.254 64.536C270.052 64.12 269.598 63.912 268.894 63.912C268.553 63.912 268.201 63.9653 267.838 64.072C267.486 64.168 267.214 64.264 267.022 64.36L266.75 64.504V71ZM284.365 70.008L284.829 69.96L284.861 70.904C283.645 71.0747 282.605 71.16 281.741 71.16C280.589 71.16 279.773 70.8293 279.293 70.168C278.813 69.496 278.573 68.456 278.573 67.048C278.573 64.2427 279.688 62.84 281.917 62.84C282.995 62.84 283.8 63.144 284.333 63.752C284.867 64.3493 285.133 65.2933 285.133 66.584L285.069 67.496H279.789C279.789 68.3813 279.949 69.0373 280.269 69.464C280.589 69.8907 281.144 70.104 281.933 70.104C282.733 70.104 283.544 70.072 284.365 70.008ZM283.933 66.536C283.933 65.5547 283.773 64.8613 283.453 64.456C283.144 64.0507 282.632 63.848 281.917 63.848C281.213 63.848 280.68 64.0613 280.317 64.488C279.965 64.9147 279.784 65.5973 279.773 66.536H283.933ZM287.004 71V63H288.188V64.088C289.116 63.448 290.092 63.0267 291.116 62.824V64.04C290.668 64.1253 290.198 64.2587 289.708 64.44C289.228 64.6213 288.86 64.7813 288.604 64.92L288.204 65.128V71H287.004ZM295.047 63.912C293.884 63.912 293.303 64.3173 293.303 65.128C293.303 65.5013 293.436 65.768 293.703 65.928C293.969 66.0773 294.577 66.2373 295.527 66.408C296.476 66.568 297.148 66.7973 297.543 67.096C297.937 67.3947 298.135 67.9547 298.135 68.776C298.135 69.5973 297.868 70.2 297.335 70.584C296.812 70.968 296.044 71.16 295.031 71.16C294.369 71.16 293.591 71.0853 292.695 70.936L292.215 70.856L292.279 69.816C293.495 69.9973 294.412 70.088 295.031 70.088C295.649 70.088 296.119 69.992 296.439 69.8C296.769 69.5973 296.935 69.2667 296.935 68.808C296.935 68.3387 296.796 68.024 296.519 67.864C296.241 67.6933 295.633 67.5333 294.695 67.384C293.756 67.2347 293.089 67.016 292.695 66.728C292.3 66.44 292.103 65.9067 292.103 65.128C292.103 64.3493 292.375 63.7733 292.919 63.4C293.473 63.0267 294.161 62.84 294.983 62.84C295.633 62.84 296.449 62.9147 297.431 63.064L297.879 63.144L297.847 64.168C296.663 63.9973 295.729 63.912 295.047 63.912Z" fill="#023373"/>
<rect x="328.945" width="146" height="87" rx="12" fill="url(#paint2_linear_3771_4112)"/>
<path d="M380.806 21.88V43H376.39V26.872L371.814 29.816L369.798 26.52L376.774 21.88H380.806ZM388.152 24.12C389.539 22.3707 391.587 21.496 394.296 21.496C397.005 21.496 399.043 22.3707 400.408 24.12C401.795 25.8693 402.488 28.6853 402.488 32.568C402.488 36.4293 401.805 39.2027 400.44 40.888C399.075 42.552 397.027 43.384 394.296 43.384C391.565 43.384 389.517 42.552 388.152 40.888C386.787 39.2027 386.104 36.4293 386.104 32.568C386.104 28.6853 386.787 25.8693 388.152 24.12ZM397.944 32.472C397.944 29.8267 397.667 27.9813 397.112 26.936C396.557 25.8693 395.619 25.336 394.296 25.336C392.995 25.336 392.056 25.8693 391.48 26.936C390.925 28.0027 390.648 29.848 390.648 32.472C390.648 35.096 390.936 36.9307 391.512 37.976C392.088 39.0213 393.027 39.544 394.328 39.544C395.629 39.544 396.557 39.0213 397.112 37.976C397.667 36.9307 397.944 35.096 397.944 32.472ZM407.946 43H405.546V20.024H407.946V33.592L410.442 33.464L415.018 27H417.738L412.522 34.36L417.962 43H415.242L410.474 35.576L407.946 35.672V43ZM420.315 36.056V33.88H426.363V27.64H428.603V33.88H434.715V36.056H428.603V42.36H426.363V36.056H420.315Z" fill="#023373"/>
<path d="M359.552 61.032V59.928H367.552V61.032H364.176V71H362.96V61.032H359.552ZM367.543 71V63H368.727V64.088C369.655 63.448 370.631 63.0267 371.655 62.824V64.04C371.207 64.1253 370.737 64.2587 370.247 64.44C369.767 64.6213 369.399 64.7813 369.143 64.92L368.743 65.128V71H367.543ZM378.722 65.416V69.512C378.754 69.9067 379.063 70.1413 379.65 70.216L379.602 71.16C378.759 71.16 378.125 70.9467 377.698 70.52C376.738 70.9467 375.778 71.16 374.818 71.16C374.082 71.16 373.522 70.952 373.138 70.536C372.754 70.12 372.562 69.5227 372.562 68.744C372.562 67.9653 372.759 67.3947 373.154 67.032C373.549 66.6587 374.167 66.4293 375.01 66.344L377.522 66.104V65.416C377.522 64.872 377.405 64.4827 377.17 64.248C376.935 64.0133 376.615 63.896 376.21 63.896C375.357 63.896 374.471 63.9493 373.554 64.056L373.058 64.104L373.01 63.192C374.183 62.9573 375.223 62.84 376.13 62.84C377.037 62.84 377.693 63.048 378.098 63.464C378.514 63.88 378.722 64.5307 378.722 65.416ZM373.794 68.68C373.794 69.6613 374.199 70.152 375.01 70.152C375.735 70.152 376.45 70.0293 377.154 69.784L377.522 69.656V67.016L375.154 67.24C374.674 67.2827 374.327 67.4213 374.114 67.656C373.901 67.8907 373.794 68.232 373.794 68.68ZM382.289 71H381.09V63H382.274V63.56C383.138 63.08 383.964 62.84 384.754 62.84C385.82 62.84 386.535 63.128 386.898 63.704C387.271 64.28 387.458 65.304 387.458 66.776V71H386.274V66.808C386.274 65.6987 386.162 64.9413 385.938 64.536C385.724 64.12 385.26 63.912 384.546 63.912C384.204 63.912 383.842 63.9653 383.458 64.072C383.084 64.168 382.796 64.264 382.594 64.36L382.289 64.504V71ZM392.195 63.912C391.033 63.912 390.451 64.3173 390.451 65.128C390.451 65.5013 390.585 65.768 390.851 65.928C391.118 66.0773 391.726 66.2373 392.675 66.408C393.625 66.568 394.297 66.7973 394.691 67.096C395.086 67.3947 395.283 67.9547 395.283 68.776C395.283 69.5973 395.017 70.2 394.483 70.584C393.961 70.968 393.193 71.16 392.179 71.16C391.518 71.16 390.739 71.0853 389.843 70.936L389.363 70.856L389.427 69.816C390.643 69.9973 391.561 70.088 392.179 70.088C392.798 70.088 393.267 69.992 393.587 69.8C393.918 69.5973 394.083 69.2667 394.083 68.808C394.083 68.3387 393.945 68.024 393.667 67.864C393.39 67.6933 392.782 67.5333 391.843 67.384C390.905 67.2347 390.238 67.016 389.843 66.728C389.449 66.44 389.251 65.9067 389.251 65.128C389.251 64.3493 389.523 63.7733 390.067 63.4C390.622 63.0267 391.31 62.84 392.131 62.84C392.782 62.84 393.598 62.9147 394.579 63.064L395.027 63.144L394.995 64.168C393.811 63.9973 392.878 63.912 392.195 63.912ZM402.769 65.416V69.512C402.801 69.9067 403.11 70.1413 403.697 70.216L403.649 71.16C402.806 71.16 402.171 70.9467 401.745 70.52C400.785 70.9467 399.825 71.16 398.865 71.16C398.129 71.16 397.569 70.952 397.185 70.536C396.801 70.12 396.609 69.5227 396.609 68.744C396.609 67.9653 396.806 67.3947 397.201 67.032C397.595 66.6587 398.214 66.4293 399.057 66.344L401.569 66.104V65.416C401.569 64.872 401.451 64.4827 401.217 64.248C400.982 64.0133 400.662 63.896 400.257 63.896C399.403 63.896 398.518 63.9493 397.601 64.056L397.105 64.104L397.057 63.192C398.23 62.9573 399.27 62.84 400.177 62.84C401.083 62.84 401.739 63.048 402.145 63.464C402.561 63.88 402.769 64.5307 402.769 65.416ZM397.841 68.68C397.841 69.6613 398.246 70.152 399.057 70.152C399.782 70.152 400.497 70.0293 401.201 69.784L401.569 69.656V67.016L399.201 67.24C398.721 67.2827 398.374 67.4213 398.161 67.656C397.947 67.8907 397.841 68.232 397.841 68.68ZM408.128 62.84C408.48 62.84 409.078 62.904 409.92 63.032L410.304 63.08L410.256 64.056C409.403 63.96 408.774 63.912 408.368 63.912C407.462 63.912 406.843 64.1307 406.512 64.568C406.192 64.9947 406.032 65.7947 406.032 66.968C406.032 68.1307 406.182 68.9413 406.48 69.4C406.79 69.8587 407.424 70.088 408.384 70.088L410.272 69.944L410.32 70.936C409.328 71.0853 408.587 71.16 408.096 71.16C406.848 71.16 405.984 70.84 405.504 70.2C405.035 69.56 404.8 68.4827 404.8 66.968C404.8 65.4427 405.056 64.376 405.568 63.768C406.08 63.1493 406.934 62.84 408.128 62.84ZM416.249 64.04H413.705V67.864C413.705 68.7813 413.769 69.384 413.897 69.672C414.036 69.96 414.356 70.104 414.857 70.104L416.281 70.008L416.361 71C415.646 71.1173 415.102 71.176 414.729 71.176C413.897 71.176 413.321 70.9733 413.001 70.568C412.681 70.1627 412.521 69.3893 412.521 68.248V64.04H411.385V63H412.521V60.552H413.705V63H416.249V64.04ZM417.715 71V63H418.914V71H417.715ZM417.715 61.192V59.8H418.914V61.192H417.715ZM420.863 66.984C420.863 65.5227 421.124 64.4667 421.647 63.816C422.169 63.1653 423.049 62.84 424.286 62.84C425.535 62.84 426.415 63.1653 426.927 63.816C427.449 64.4667 427.711 65.5227 427.711 66.984C427.711 68.4453 427.465 69.5067 426.975 70.168C426.484 70.8293 425.588 71.16 424.286 71.16C422.985 71.16 422.089 70.8293 421.599 70.168C421.108 69.5067 420.863 68.4453 420.863 66.984ZM422.095 66.968C422.095 68.1307 422.233 68.9467 422.511 69.416C422.799 69.8853 423.391 70.12 424.286 70.12C425.193 70.12 425.785 69.8907 426.063 69.432C426.34 68.9627 426.479 68.1413 426.479 66.968C426.479 65.7947 426.324 64.9893 426.015 64.552C425.705 64.104 425.129 63.88 424.286 63.88C423.455 63.88 422.879 64.104 422.559 64.552C422.249 64.9893 422.095 65.7947 422.095 66.968ZM430.868 71H429.668V63H430.852V63.56C431.716 63.08 432.542 62.84 433.332 62.84C434.398 62.84 435.113 63.128 435.476 63.704C435.849 64.28 436.036 65.304 436.036 66.776V71H434.852V66.808C434.852 65.6987 434.74 64.9413 434.516 64.536C434.302 64.12 433.838 63.912 433.124 63.912C432.782 63.912 432.42 63.9653 432.036 64.072C431.662 64.168 431.374 64.264 431.172 64.36L430.868 64.504V71ZM440.773 63.912C439.611 63.912 439.029 64.3173 439.029 65.128C439.029 65.5013 439.163 65.768 439.429 65.928C439.696 66.0773 440.304 66.2373 441.253 66.408C442.203 66.568 442.875 66.7973 443.269 67.096C443.664 67.3947 443.861 67.9547 443.861 68.776C443.861 69.5973 443.595 70.2 443.061 70.584C442.539 70.968 441.771 71.16 440.757 71.16C440.096 71.16 439.317 71.0853 438.421 70.936L437.941 70.856L438.005 69.816C439.221 69.9973 440.139 70.088 440.757 70.088C441.376 70.088 441.845 69.992 442.165 69.8C442.496 69.5973 442.661 69.2667 442.661 68.808C442.661 68.3387 442.523 68.024 442.245 67.864C441.968 67.6933 441.36 67.5333 440.421 67.384C439.483 67.2347 438.816 67.016 438.421 66.728C438.027 66.44 437.829 65.9067 437.829 65.128C437.829 64.3493 438.101 63.7733 438.645 63.4C439.2 63.0267 439.888 62.84 440.709 62.84C441.36 62.84 442.176 62.9147 443.157 63.064L443.605 63.144L443.573 64.168C442.389 63.9973 441.456 63.912 440.773 63.912Z" fill="#023373"/>
<defs>
<linearGradient id="paint0_linear_3771_4112" x1="74.9453" y1="0" x2="74.9453" y2="87" gradientUnits="userSpaceOnUse">
<stop stop-color="white"/>
<stop offset="1" stop-color="white" stop-opacity="0"/>
</linearGradient>
<linearGradient id="paint1_linear_3771_4112" x1="238.945" y1="0" x2="238.945" y2="87" gradientUnits="userSpaceOnUse">
<stop stop-color="white"/>
<stop offset="1" stop-color="white" stop-opacity="0"/>
</linearGradient>
<linearGradient id="paint2_linear_3771_4112" x1="401.945" y1="0" x2="401.945" y2="87" gradientUnits="userSpaceOnUse">
<stop stop-color="white"/>
<stop offset="1" stop-color="white" stop-opacity="0"/>
</linearGradient>
</defs>
</svg>
