<svg width="471" height="61" viewBox="0 0 471 61" fill="none" xmlns="http://www.w3.org/2000/svg">
<path d="M197.334 60.718H7.58824C3.41387 60.718 0 57.3026 0 53.1283V7.58975C0 3.41539 3.41387 0 7.58824 0H197.334C201.508 0 204.923 3.41539 204.923 7.58975V53.1283C204.923 57.3026 201.508 60.718 197.334 60.718Z" fill="black"/>
<path d="M31.3864 29.5858L15.2247 46.7387C15.2262 46.7417 15.2262 46.7447 15.2278 46.7478C15.7226 48.6118 17.4242 49.9825 19.4431 49.9825C20.2507 49.9825 21.0081 49.7639 21.6578 49.3814L21.7094 49.3511L39.9005 38.8544L31.3864 29.5858Z" fill="#EB4335"/>
<path d="M47.7287 26.6662L47.7136 26.6555L39.8597 22.1017L31.0115 29.9753L39.89 38.8523L47.7029 34.3455C49.0721 33.6062 50.0011 32.1627 50.0011 30.4975C50.0011 28.8444 49.0843 27.4069 47.7287 26.6662Z" fill="#FABC13"/>
<path d="M15.2254 14.1965C15.1282 14.5548 15.0766 14.9297 15.0766 15.3198V45.6287C15.0766 46.0189 15.1267 46.3953 15.2254 46.752L31.9426 30.0379L15.2254 14.1965Z" fill="#547DBF"/>
<path d="M31.5048 30.4665L39.8702 22.1041L21.6988 11.5696C21.0385 11.1734 20.2689 10.9457 19.4431 10.9457C17.4242 10.9457 15.7211 12.3194 15.2247 14.185V14.1895L31.5048 30.4665Z" fill="#30A851"/>
<path d="M103.362 32.9387C99.7922 32.9387 96.8823 35.6528 96.8823 39.3946C96.8823 43.112 99.7922 45.8504 103.362 45.8504C106.933 45.8504 109.843 43.112 109.843 39.3946C109.843 35.6528 106.933 32.9387 103.362 32.9387ZM103.362 43.3078C101.406 43.3078 99.7178 41.6942 99.7178 39.3946C99.7178 37.0706 101.406 35.4813 103.362 35.4813C105.319 35.4813 107.005 37.0706 107.005 39.3946C107.005 41.6927 105.319 43.3078 103.362 43.3078ZM89.2242 32.9387C85.654 32.9387 82.7441 35.6528 82.7441 39.3946C82.7441 43.112 85.654 45.8504 89.2242 45.8504C92.7944 45.8504 95.7043 43.112 95.7043 39.3946C95.7058 35.6528 92.7944 32.9387 89.2242 32.9387ZM89.2242 43.3078C87.2676 43.3078 85.5811 41.6942 85.5811 39.3946C85.5811 37.0706 87.2691 35.4813 89.2242 35.4813C91.1808 35.4813 92.8673 37.0706 92.8673 39.3946C92.8688 41.6927 91.1808 43.3078 89.2242 43.3078ZM72.4083 34.9196V37.658H78.9629C78.767 39.1987 78.254 40.3235 77.4707 41.1068C76.5174 42.0601 75.0253 43.112 72.4083 43.112C68.3736 43.112 65.2193 39.859 65.2193 35.8243C65.2193 31.7896 68.3736 28.5367 72.4083 28.5367C74.5851 28.5367 76.1744 29.3928 77.3478 30.4933L79.2801 28.5609C77.6422 26.9959 75.4655 25.7968 72.4083 25.7968C66.8815 25.7968 62.235 30.296 62.235 35.8228C62.235 41.3497 66.8815 45.8489 72.4083 45.8489C75.3911 45.8489 77.6422 44.8713 79.4031 43.0361C81.2125 41.2267 81.7756 38.6826 81.7756 36.6288C81.7756 35.9928 81.727 35.4054 81.6284 34.9166H72.4083V34.9196ZM141.184 37.0463C140.646 35.6027 139.007 32.9372 135.657 32.9372C132.331 32.9372 129.568 35.5541 129.568 39.393C129.568 43.0118 132.307 45.8489 135.976 45.8489C138.934 45.8489 140.646 44.0395 141.355 42.9875L139.154 41.5197C138.421 42.5959 137.418 43.3048 135.976 43.3048C134.532 43.3048 133.506 42.6445 132.846 41.3482L141.478 37.7779L141.184 37.0463ZM132.38 39.1987C132.307 36.7047 134.312 35.4327 135.754 35.4327C136.879 35.4327 137.832 35.9943 138.151 36.8019L132.38 39.1987ZM125.361 45.4588H128.198V26.4829H125.361V45.4588ZM120.714 34.3808H120.617C119.981 33.6233 118.759 32.9372 117.218 32.9372C113.99 32.9372 111.031 35.7742 111.031 39.4173C111.031 43.0361 113.99 45.8489 117.218 45.8489C118.759 45.8489 119.981 45.1643 120.617 44.381H120.714V45.31C120.714 47.7797 119.393 49.1003 117.265 49.1003C115.529 49.1003 114.453 47.8526 114.012 46.8022L111.543 47.8298C112.252 49.5421 114.135 51.6444 117.265 51.6444C120.591 51.6444 123.404 49.6878 123.404 44.9199V33.3288H120.714V34.3808ZM117.463 43.3078C115.506 43.3078 113.868 41.67 113.868 39.4188C113.868 37.145 115.506 35.4813 117.463 35.4813C119.395 35.4813 120.91 37.1434 120.91 39.4188C120.91 41.6684 119.395 43.3078 117.463 43.3078ZM154.472 26.4829H147.685V45.4588H150.516V38.2698H154.47C157.609 38.2698 160.695 35.9974 160.695 32.3771C160.695 28.7568 157.611 26.4829 154.472 26.4829ZM154.545 35.6285H150.516V29.1241H154.545C156.662 29.1241 157.864 30.8773 157.864 32.3771C157.864 33.8464 156.662 35.6285 154.545 35.6285ZM172.05 32.9038C169.999 32.9038 167.875 33.807 166.996 35.8092L169.512 36.8596C170.049 35.8092 171.049 35.4676 172.1 35.4676C173.565 35.4676 175.054 36.3465 175.078 37.9085V38.1043C174.565 37.8113 173.466 37.3711 172.124 37.3711C169.414 37.3711 166.655 38.8602 166.655 41.6442C166.655 44.1837 168.877 45.8185 171.367 45.8185C173.272 45.8185 174.321 44.9639 174.979 43.9636H175.076V45.4284H177.81V38.1529C177.81 34.783 175.297 32.9038 172.05 32.9038ZM171.707 43.3033C170.779 43.3033 169.484 42.8388 169.484 41.6927C169.484 40.2279 171.096 39.6663 172.487 39.6663C173.732 39.6663 174.317 39.9349 175.075 40.3008C174.856 42.0586 173.343 43.3033 171.707 43.3033ZM187.771 33.3182L184.524 41.5455H184.427L181.059 33.3182H178.008L183.061 44.8167L180.18 51.2133H183.134L190.922 33.3182H187.771ZM162.259 45.4588H165.091V26.4829H162.259V45.4588Z" fill="white"/>
<path fillRule="evenodd" clipRule="evenodd" d="M111.745 18.5516C110.85 19.473 109.737 19.9314 108.406 19.9314C107.075 19.9314 105.962 19.4715 105.068 18.5516C104.172 17.6317 103.726 16.5054 103.726 15.1742C103.726 13.8429 104.172 12.7166 105.068 11.7967C105.962 10.8753 107.075 10.4154 108.406 10.4154C109.729 10.4154 110.841 10.8784 111.739 11.8028C112.638 12.7272 113.087 13.8505 113.087 15.1742C113.087 16.5069 112.639 17.6333 111.745 18.5516ZM105.932 17.7896C106.606 18.4727 107.43 18.8127 108.406 18.8127C109.382 18.8127 110.206 18.4712 110.88 17.7896C111.554 17.1065 111.893 16.2352 111.893 15.1757C111.893 14.1162 111.554 13.2433 110.88 12.5618C110.208 11.8787 109.382 11.5387 108.406 11.5387C107.43 11.5387 106.606 11.8802 105.932 12.5618C105.259 13.2449 104.921 14.1162 104.921 15.1757C104.921 16.2352 105.259 17.1065 105.932 17.7896Z" fill="white"/>
<path d="M71.9886 15.5446C71.9886 16.8166 71.6122 17.8291 70.8578 18.585C70.0017 19.4836 68.8844 19.933 67.5122 19.933C66.1977 19.933 65.0789 19.4776 64.1606 18.5668C63.2407 17.6545 62.7808 16.5252 62.7808 15.1772C62.7808 13.8278 63.2407 12.6984 64.1606 11.7876C65.0789 10.8753 66.1977 10.42 67.5122 10.42C68.1649 10.42 68.7888 10.5475 69.3808 10.801C69.9743 11.056 70.4494 11.3945 70.8046 11.818L70.0047 12.6195C69.4021 11.8984 68.5717 11.5387 67.5107 11.5387C66.5513 11.5387 65.7225 11.8757 65.0228 12.5496C64.3245 13.2236 63.9754 14.098 63.9754 15.1757C63.9754 16.2534 64.3245 17.1278 65.0243 17.8033C65.7241 18.4772 66.5529 18.8142 67.5122 18.8142C68.5292 18.8142 69.3778 18.4757 70.0563 17.7972C70.4965 17.3555 70.7515 16.7407 70.8198 15.9529H67.5122V14.8569H71.9249C71.9689 15.0952 71.9886 15.3245 71.9886 15.5446Z" fill="white"/>
<path d="M78.9864 11.7406H74.8394V14.6277H78.5796V15.7222H74.8394V18.6093H78.9864V19.7296H73.669V10.6218H78.9864V11.7406Z" fill="white"/>
<path d="M82.7494 19.7296H83.9197V11.7406H86.4638V10.6218H80.2053V11.7406H82.7494V19.7296Z" fill="white"/>
<path d="M90.9934 19.7296V10.6218H92.1637V19.7296H90.9934Z" fill="white"/>
<path d="M96.1818 19.7296H97.3521V11.7406H99.8962V10.6218H93.6377V11.7406H96.1818V19.7296Z" fill="white"/>
<path d="M114.73 10.6218V19.7296H115.897V14.0555L115.847 12.3007H115.897L120.528 19.7296H121.75V10.6218H120.58V15.9529L120.63 17.7076H120.58L116.153 10.6218H114.73Z" fill="white"/>
<path fillRule="evenodd" clipRule="evenodd" d="M111.745 18.5516C110.85 19.473 109.737 19.9314 108.406 19.9314C107.075 19.9314 105.962 19.4715 105.068 18.5516C104.172 17.6317 103.726 16.5054 103.726 15.1742C103.726 13.8429 104.172 12.7166 105.068 11.7967C105.962 10.8753 107.075 10.4154 108.406 10.4154C109.729 10.4154 110.841 10.8784 111.739 11.8028C112.638 12.7272 113.087 13.8505 113.087 15.1742C113.087 16.5069 112.639 17.6333 111.745 18.5516ZM105.932 17.7896C106.606 18.4727 107.43 18.8127 108.406 18.8127C109.382 18.8127 110.206 18.4712 110.88 17.7896C111.554 17.1065 111.893 16.2352 111.893 15.1757C111.893 14.1162 111.554 13.2433 110.88 12.5618C110.208 11.8787 109.382 11.5387 108.406 11.5387C107.43 11.5387 106.606 11.8802 105.932 12.5618C105.259 13.2449 104.921 14.1162 104.921 15.1757C104.921 16.2352 105.259 17.1065 105.932 17.7896Z" stroke="black"/>
<path d="M71.9886 15.5446C71.9886 16.8166 71.6122 17.8291 70.8578 18.585C70.0017 19.4836 68.8844 19.933 67.5122 19.933C66.1977 19.933 65.0789 19.4776 64.1606 18.5668C63.2407 17.6545 62.7808 16.5252 62.7808 15.1772C62.7808 13.8278 63.2407 12.6984 64.1606 11.7876C65.0789 10.8753 66.1977 10.42 67.5122 10.42C68.1649 10.42 68.7888 10.5475 69.3808 10.801C69.9743 11.056 70.4494 11.3945 70.8046 11.818L70.0047 12.6195C69.4021 11.8984 68.5717 11.5387 67.5107 11.5387C66.5513 11.5387 65.7225 11.8757 65.0228 12.5496C64.3245 13.2236 63.9754 14.098 63.9754 15.1757C63.9754 16.2534 64.3245 17.1278 65.0243 17.8033C65.7241 18.4772 66.5529 18.8142 67.5122 18.8142C68.5292 18.8142 69.3778 18.4757 70.0563 17.7972C70.4965 17.3555 70.7515 16.7407 70.8198 15.9529H67.5122V14.8569H71.9249C71.9689 15.0952 71.9886 15.3245 71.9886 15.5446Z" stroke="black"/>
<path d="M78.9864 11.7406H74.8394V14.6277H78.5796V15.7222H74.8394V18.6093H78.9864V19.7296H73.669V10.6218H78.9864V11.7406Z" stroke="black"/>
<path d="M82.7494 19.7296H83.9197V11.7406H86.4638V10.6218H80.2053V11.7406H82.7494V19.7296Z" stroke="black"/>
<path d="M90.9934 19.7296V10.6218H92.1637V19.7296H90.9934Z" stroke="black"/>
<path d="M96.1818 19.7296H97.3521V11.7406H99.8962V10.6218H93.6377V11.7406H96.1818V19.7296Z" stroke="black"/>
<path d="M114.73 10.6218V19.7296H115.897V14.0555L115.847 12.3007H115.897L120.528 19.7296H121.75V10.6218H120.58V15.9529L120.63 17.7076H120.58L116.153 10.6218H114.73Z" stroke="black"/>
<rect x="216.78" width="181.644" height="60.718" rx="7.7083" fill="black"/>
<path d="M280.992 41.2003H273.807L272.081 46.2952H269.038L275.844 27.4453H279.006L285.811 46.2952H282.716L280.992 41.2003ZM274.551 38.8492H280.246L277.439 30.5806H277.36L274.551 38.8492Z" fill="white"/>
<path d="M300.499 39.4249C300.499 43.6956 298.213 46.4395 294.764 46.4395C293.89 46.4852 293.021 46.2839 292.256 45.8586C291.492 45.4334 290.862 44.8014 290.44 44.035H290.375V50.8421H287.554V32.5526H290.284V34.8384H290.336C290.778 34.0757 291.418 33.447 292.189 33.0191C292.959 32.5913 293.831 32.3804 294.712 32.4088C298.2 32.4088 300.499 35.166 300.499 39.4249ZM297.6 39.4249C297.6 36.6425 296.162 34.8132 293.968 34.8132C291.813 34.8132 290.363 36.681 290.363 39.4249C290.363 42.1939 291.813 44.0484 293.968 44.0484C296.162 44.0484 297.6 42.2325 297.6 39.4249H297.6Z" fill="white"/>
<path d="M315.641 39.4249C315.641 43.6956 313.354 46.4395 309.905 46.4395C309.031 46.4852 308.162 46.2839 307.397 45.8586C306.632 45.4334 306.003 44.8014 305.581 44.035H305.515V50.8421H302.694V32.5526H305.425V34.8384H305.477C305.918 34.0757 306.559 33.447 307.329 33.0191C308.1 32.5913 308.972 32.3804 309.853 32.4088C313.341 32.4088 315.641 35.166 315.641 39.4249ZM312.74 39.4249C312.74 36.6425 311.303 34.8132 309.109 34.8132C306.953 34.8132 305.503 36.681 305.503 39.4249C305.503 42.1939 306.953 44.0484 309.109 44.0484C311.303 44.0484 312.74 42.2325 312.74 39.4249Z" fill="white"/>
<path d="M325.637 41.0372C325.846 42.9064 327.662 44.1338 330.143 44.1338C332.521 44.1338 334.232 42.9064 334.232 41.2209C334.232 39.7578 333.2 38.8817 330.757 38.2814L328.314 37.6928C324.853 36.8568 323.246 35.238 323.246 32.6113C323.246 29.3589 326.08 27.125 330.103 27.125C334.088 27.125 336.818 29.3589 336.91 32.6113H334.063C333.892 30.7301 332.337 29.5946 330.065 29.5946C327.792 29.5946 326.237 30.7435 326.237 32.4156C326.237 33.7483 327.23 34.5324 329.66 35.1327L331.737 35.6427C335.604 36.5573 337.21 38.1109 337.21 40.868C337.21 44.3946 334.402 46.6033 329.934 46.6033C325.754 46.6033 322.931 44.4465 322.749 41.037L325.637 41.0372Z" fill="white"/>
<path d="M343.292 29.2812V32.5336H345.906V34.7675H343.292V42.3439C343.292 43.5209 343.816 44.0694 344.965 44.0694C345.275 44.064 345.585 44.0422 345.893 44.0041V46.2247C345.376 46.3212 344.851 46.365 344.326 46.3552C341.543 46.3552 340.458 45.3101 340.458 42.6448V34.7675H338.46V32.5336H340.458V29.2812H343.292Z" fill="white"/>
<path d="M347.421 39.4163C347.421 35.0922 349.968 32.375 353.939 32.375C357.924 32.375 360.458 35.0921 360.458 39.4163C360.458 43.7522 357.937 46.4575 353.939 46.4575C349.942 46.4575 347.421 43.7522 347.421 39.4163ZM357.584 39.4163C357.584 36.45 356.225 34.6994 353.939 34.6994C351.653 34.6994 350.294 36.4634 350.294 39.4163C350.294 42.3944 351.653 44.1317 353.939 44.1317C356.225 44.1317 357.584 42.3944 357.584 39.4163H357.584Z" fill="white"/>
<path d="M362.788 32.5525H365.479V34.8916H365.544C365.726 34.161 366.154 33.5154 366.756 33.0632C367.358 32.6111 368.097 32.3799 368.85 32.4086C369.175 32.4075 369.499 32.4428 369.816 32.5139V35.1525C369.406 35.0271 368.978 34.9695 368.549 34.9821C368.139 34.9654 367.73 35.0377 367.351 35.1939C366.972 35.35 366.631 35.5864 366.352 35.8868C366.072 36.1872 365.861 36.5445 365.733 36.9341C365.605 37.3237 365.563 37.7364 365.609 38.1439V46.2955H362.788L362.788 32.5525Z" fill="white"/>
<path d="M382.818 42.2506C382.439 44.7454 380.009 46.4575 376.9 46.4575C372.902 46.4575 370.421 43.7789 370.421 39.4815C370.421 35.1708 372.916 32.375 376.782 32.375C380.584 32.375 382.975 34.9869 382.975 39.1539V40.1204H373.269V40.2909C373.224 40.7967 373.287 41.3062 373.454 41.7856C373.622 42.265 373.889 42.7034 374.239 43.0716C374.588 43.4397 375.012 43.7293 375.482 43.921C375.953 44.1128 376.458 44.2023 376.966 44.1836C377.632 44.246 378.301 44.0916 378.873 43.7434C379.445 43.3951 379.889 42.8715 380.139 42.2506L382.818 42.2506ZM373.282 38.1488H380.153C380.178 37.6941 380.109 37.239 379.95 36.8121C379.791 36.3852 379.546 35.9958 379.229 35.6683C378.913 35.3408 378.532 35.0822 378.111 34.9089C377.69 34.7355 377.237 34.651 376.782 34.6608C376.322 34.6581 375.867 34.7463 375.442 34.9205C375.017 35.0947 374.63 35.3513 374.305 35.6756C373.98 35.9999 373.722 36.3854 373.546 36.8099C373.37 37.2344 373.281 37.6895 373.282 38.1489V38.1488Z" fill="white"/>
<path d="M274.185 13.2525C274.776 13.21 275.37 13.2994 275.922 13.5141C276.475 13.7287 276.973 14.0634 277.381 14.494C277.789 14.9245 278.096 15.4401 278.28 16.0037C278.464 16.5673 278.521 17.1647 278.447 17.7529C278.447 20.6465 276.883 22.3098 274.185 22.3098H270.913V13.2525H274.185ZM272.32 21.0289H274.028C274.45 21.0542 274.873 20.9849 275.266 20.8261C275.658 20.6673 276.01 20.423 276.296 20.1109C276.582 19.7989 276.795 19.427 276.92 19.0223C277.044 18.6176 277.076 18.1902 277.015 17.7714C277.072 17.3542 277.036 16.9295 276.91 16.5278C276.784 16.126 276.57 15.7572 276.285 15.4476C275.999 15.1381 275.649 14.8955 275.259 14.7373C274.868 14.579 274.448 14.5091 274.028 14.5324H272.32V21.0289Z" fill="white"/>
<path d="M280.038 18.8903C279.995 18.4411 280.046 17.9879 280.189 17.5597C280.331 17.1315 280.561 16.7379 280.865 16.4039C281.168 16.07 281.538 15.8032 281.951 15.6206C282.364 15.4381 282.81 15.3438 283.261 15.3438C283.712 15.3438 284.159 15.4381 284.571 15.6206C284.984 15.8032 285.354 16.07 285.657 16.4039C285.961 16.7379 286.191 17.1315 286.334 17.5597C286.476 17.9879 286.528 18.4411 286.485 18.8903C286.528 19.3399 286.478 19.7937 286.335 20.2226C286.193 20.6515 285.963 21.0459 285.66 21.3804C285.356 21.715 284.986 21.9824 284.573 22.1653C284.16 22.3483 283.713 22.4428 283.261 22.4428C282.809 22.4428 282.363 22.3483 281.95 22.1653C281.536 21.9824 281.166 21.715 280.863 21.3804C280.559 21.0459 280.329 20.6515 280.187 20.2226C280.045 19.7937 279.994 19.3399 280.038 18.8903ZM285.097 18.8903C285.097 17.4086 284.431 16.5422 283.263 16.5422C282.091 16.5422 281.431 17.4086 281.431 18.8903C281.431 20.3838 282.091 21.2435 283.263 21.2435C284.431 21.2435 285.097 20.3778 285.097 18.8903H285.097Z" fill="white"/>
<path d="M295.063 22.304H293.664L292.251 17.2698H292.145L290.738 22.304H289.352L287.468 15.4688H288.836L290.06 20.6844H290.161L291.567 15.4688H292.861L294.266 20.6844H294.373L295.591 15.4688H296.94L295.063 22.304Z" fill="white"/>
<path d="M298.515 15.4668H299.813V16.5526H299.914C300.085 16.1626 300.373 15.8357 300.739 15.6174C301.105 15.3991 301.529 15.3004 301.954 15.3349C302.286 15.3098 302.62 15.36 302.931 15.4816C303.241 15.6032 303.521 15.7931 303.748 16.0372C303.975 16.2814 304.144 16.5735 304.243 16.892C304.342 17.2105 304.368 17.5472 304.32 17.8771V22.3019H302.971V18.2159C302.971 17.1174 302.493 16.5712 301.496 16.5712C301.27 16.5606 301.044 16.5991 300.835 16.6838C300.625 16.7686 300.437 16.8976 300.282 17.0622C300.127 17.2267 300.009 17.4228 299.937 17.637C299.865 17.8512 299.84 18.0785 299.864 18.3033V22.302H298.515L298.515 15.4668Z" fill="white"/>
<path d="M306.468 12.8047H307.817V22.3082H306.468V12.8047Z" fill="white"/>
<path d="M309.686 18.8904C309.643 18.4412 309.695 17.9879 309.837 17.5597C309.98 17.1316 310.21 16.7379 310.513 16.4039C310.817 16.07 311.187 15.8032 311.6 15.6206C312.012 15.4381 312.459 15.3438 312.91 15.3438C313.361 15.3438 313.807 15.4381 314.22 15.6206C314.633 15.8032 315.003 16.07 315.306 16.4039C315.61 16.7379 315.84 17.1316 315.983 17.5597C316.125 17.9879 316.177 18.4412 316.134 18.8904C316.177 19.3401 316.127 19.7939 315.984 20.2228C315.842 20.6516 315.612 21.046 315.309 21.3806C315.005 21.7151 314.635 21.9825 314.222 22.1654C313.808 22.3484 313.362 22.4429 312.91 22.4429C312.458 22.4429 312.011 22.3484 311.598 22.1654C311.185 21.9825 310.815 21.7151 310.511 21.3806C310.208 21.046 309.977 20.6516 309.835 20.2228C309.693 19.7939 309.642 19.3401 309.686 18.8904ZM314.745 18.8904C314.745 17.4088 314.08 16.5423 312.912 16.5423C311.739 16.5423 311.08 17.4088 311.08 18.8904C311.08 20.3839 311.739 21.2437 312.912 21.2437C314.08 21.2436 314.745 20.3779 314.745 18.8904H314.745Z" fill="white"/>
<path d="M317.554 20.3779C317.554 19.1475 318.47 18.4382 320.096 18.3374L321.947 18.2307V17.6407C321.947 16.9188 321.47 16.5111 320.548 16.5111C319.795 16.5111 319.273 16.7876 319.124 17.2708H317.818C317.955 16.0968 319.06 15.3438 320.61 15.3438C322.324 15.3438 323.29 16.1968 323.29 17.6407V22.3109H321.992V21.3503H321.885C321.669 21.6949 321.364 21.9758 321.004 22.1643C320.643 22.3529 320.239 22.4423 319.832 22.4235C319.545 22.4534 319.255 22.4228 318.981 22.3336C318.706 22.2445 318.454 22.0989 318.239 21.9062C318.024 21.7135 317.852 21.4779 317.734 21.2147C317.616 20.9514 317.555 20.6664 317.554 20.3779ZM321.947 19.7938V19.2224L320.278 19.3291C319.337 19.3921 318.91 19.7123 318.91 20.3149C318.91 20.9301 319.444 21.288 320.178 21.288C320.393 21.3098 320.61 21.2881 320.816 21.2242C321.023 21.1603 321.214 21.0556 321.379 20.9161C321.544 20.7767 321.68 20.6055 321.777 20.4127C321.875 20.2199 321.933 20.0094 321.947 19.7938Z" fill="white"/>
<path d="M325.062 18.8876C325.062 16.7278 326.172 15.3596 327.899 15.3596C328.326 15.3399 328.75 15.4422 329.121 15.6546C329.492 15.8669 329.795 16.1805 329.995 16.5588H330.096V12.8047H331.445V22.3082H330.152V21.2283H330.045C329.83 21.6039 329.517 21.9137 329.138 22.1239C328.76 22.3341 328.331 22.4368 327.899 22.4208C326.16 22.4209 325.062 21.0526 325.062 18.8876ZM326.455 18.8876C326.455 20.3374 327.138 21.2098 328.281 21.2098C329.418 21.2098 330.121 20.3248 330.121 18.8936C330.121 17.469 329.411 16.5714 328.281 16.5714C327.146 16.5714 326.455 17.4497 326.455 18.8876H326.455Z" fill="white"/>
<path d="M337.038 18.8903C336.995 18.4411 337.046 17.9879 337.189 17.5597C337.331 17.1315 337.561 16.7379 337.865 16.4039C338.168 16.07 338.538 15.8032 338.951 15.6206C339.364 15.4381 339.81 15.3438 340.261 15.3438C340.712 15.3438 341.159 15.4381 341.571 15.6206C341.984 15.8032 342.354 16.07 342.657 16.4039C342.961 16.7379 343.191 17.1315 343.334 17.5597C343.476 17.9879 343.528 18.4411 343.485 18.8903C343.528 19.3399 343.478 19.7937 343.335 20.2226C343.193 20.6515 342.963 21.0459 342.66 21.3804C342.356 21.715 341.986 21.9824 341.573 22.1653C341.16 22.3483 340.713 22.4428 340.261 22.4428C339.809 22.4428 339.363 22.3483 338.949 22.1653C338.536 21.9824 338.166 21.715 337.863 21.3804C337.559 21.0459 337.329 20.6515 337.187 20.2226C337.045 19.7937 336.994 19.3399 337.038 18.8903ZM342.097 18.8903C342.097 17.4086 341.431 16.5422 340.263 16.5422C339.091 16.5422 338.431 17.4086 338.431 18.8903C338.431 20.3838 339.091 21.2435 340.263 21.2435C341.431 21.2435 342.097 20.3778 342.097 18.8903Z" fill="white"/>
<path d="M345.296 15.4668H346.594V16.5526H346.695C346.866 16.1626 347.155 15.8357 347.52 15.6174C347.886 15.3991 348.311 15.3004 348.735 15.3349C349.068 15.3098 349.402 15.36 349.712 15.4816C350.023 15.6032 350.302 15.7931 350.529 16.0372C350.756 16.2814 350.926 16.5735 351.025 16.892C351.124 17.2105 351.15 17.5472 351.101 17.8771V22.3019H349.752V18.2159C349.752 17.1174 349.275 16.5712 348.277 16.5712C348.051 16.5606 347.826 16.5991 347.616 16.6838C347.407 16.7686 347.218 16.8976 347.063 17.0622C346.908 17.2267 346.79 17.4228 346.718 17.637C346.646 17.8512 346.621 18.0785 346.645 18.3033V22.302H345.296V15.4668Z" fill="white"/>
<path d="M358.724 13.7734V15.5063H360.205V16.6426H358.724V20.1573C358.724 20.8733 359.019 21.1868 359.69 21.1868C359.862 21.1862 360.034 21.1758 360.205 21.1557V22.2793C359.962 22.3226 359.717 22.3457 359.471 22.3482C357.971 22.3482 357.373 21.8205 357.373 20.5027V16.6425H356.288V15.5063H357.373V13.7734H358.724Z" fill="white"/>
<path d="M362.054 12.8047H363.391V16.5714H363.498C363.677 16.1778 363.973 15.849 364.346 15.6299C364.719 15.4108 365.151 15.312 365.582 15.347C365.913 15.329 366.243 15.3842 366.55 15.5087C366.857 15.6333 367.133 15.824 367.358 16.0674C367.583 16.3108 367.751 16.6008 367.851 16.9168C367.951 17.2327 367.98 17.5668 367.936 17.8952V22.3082H366.585V18.2279C366.585 17.1362 366.077 16.5832 365.124 16.5832C364.892 16.5642 364.659 16.5961 364.44 16.6766C364.222 16.7572 364.024 16.8844 363.86 17.0495C363.696 17.2145 363.57 17.4134 363.491 17.6322C363.412 17.851 363.382 18.0844 363.403 18.3161V22.3082H362.054L362.054 12.8047Z" fill="white"/>
<path d="M375.788 20.4655C375.605 21.0902 375.208 21.6305 374.666 21.992C374.125 22.3535 373.473 22.5131 372.826 22.4429C372.376 22.4548 371.928 22.3686 371.515 22.1902C371.101 22.0118 370.731 21.7455 370.431 21.4098C370.13 21.0741 369.907 20.6771 369.775 20.2463C369.643 19.8155 369.607 19.3612 369.669 18.9149C369.609 18.4673 369.646 18.012 369.777 17.5799C369.908 17.1478 370.131 16.7489 370.43 16.4103C370.729 16.0717 371.097 15.8012 371.509 15.6172C371.922 15.4332 372.369 15.34 372.82 15.3439C374.722 15.3439 375.87 16.6432 375.87 18.7896V19.2603H371.043V19.3359C371.022 19.5867 371.053 19.8392 371.136 20.0772C371.218 20.3151 371.349 20.5332 371.52 20.7176C371.691 20.902 371.899 21.0485 372.131 21.1478C372.362 21.247 372.612 21.2969 372.863 21.2941C373.186 21.3328 373.513 21.2747 373.802 21.1271C374.092 20.9796 374.331 20.7492 374.489 20.4654L375.788 20.4655ZM371.043 18.2627H374.495C374.512 18.0333 374.481 17.8028 374.404 17.5862C374.326 17.3695 374.205 17.1715 374.046 17.0047C373.888 16.838 373.696 16.7062 373.484 16.6179C373.271 16.5296 373.043 16.4867 372.813 16.492C372.58 16.489 372.348 16.5328 372.132 16.6208C371.916 16.7088 371.719 16.8391 371.555 17.0041C371.39 17.1691 371.259 17.3655 371.171 17.5816C371.084 17.7978 371.04 18.0293 371.043 18.2627H371.043Z" fill="white"/>
<path d="M255.315 30.6521C255.332 29.314 255.688 28.002 256.348 26.8382C257.009 25.6744 257.953 24.6965 259.093 23.9957C258.369 22.9614 257.414 22.1102 256.303 21.5097C255.192 20.9093 253.957 20.5761 252.695 20.5366C250.003 20.254 247.393 22.1475 246.021 22.1475C244.622 22.1475 242.51 20.5646 240.236 20.6114C238.765 20.6589 237.331 21.0868 236.074 21.8532C234.818 22.6196 233.781 23.6984 233.065 24.9846C229.965 30.3527 232.277 38.242 235.247 42.5812C236.733 44.7059 238.47 47.0793 240.742 46.9952C242.966 46.9029 243.797 45.5772 246.481 45.5772C249.14 45.5772 249.919 46.9952 252.238 46.9417C254.624 46.9029 256.127 44.8075 257.561 42.6626C258.629 41.1486 259.45 39.4753 259.995 37.7048C258.609 37.1184 257.426 36.137 256.594 34.8828C255.762 33.6287 255.317 32.1573 255.315 30.6521Z" fill="white"/>
<path d="M250.938 17.6976C252.239 16.1358 252.88 14.1283 252.725 12.1016C250.737 12.3103 248.901 13.2603 247.583 14.7622C246.938 15.4959 246.444 16.3495 246.13 17.2741C245.815 18.1988 245.686 19.1764 245.749 20.1511C246.743 20.1613 247.727 19.9458 248.626 19.5208C249.524 19.0959 250.315 18.4725 250.938 17.6976Z" fill="white"/>
<path d="M410.281 0H412.375V2.09372H410.281V0ZM412.375 0H414.469V2.09372H412.375V0ZM414.469 0H416.562V2.09372H414.469V0ZM416.562 0H418.656V2.09372H416.562V0ZM418.656 0H420.75V2.09372H418.656V0ZM420.75 0H422.844V2.09372H420.75V0ZM422.844 0H424.937V2.09372H422.844V0ZM427.031 0H429.125V2.09372H427.031V0ZM429.125 0H431.218V2.09372H429.125V0ZM431.218 0H433.312V2.09372H431.218V0ZM433.312 0H435.406V2.09372H433.312V0ZM439.593 0H441.687V2.09372H439.593V0ZM441.687 0H443.781V2.09372H441.687V0ZM443.781 0H445.875V2.09372H443.781V0ZM445.875 0H447.968V2.09372H445.875V0ZM447.968 0H450.062V2.09372H447.968V0ZM450.062 0H452.156V2.09372H450.062V0ZM456.343 0H458.437V2.09372H456.343V0ZM458.437 0H460.531V2.09372H458.437V0ZM460.531 0H462.624V2.09372H460.531V0ZM462.624 0H464.718V2.09372H462.624V0ZM464.718 0H466.812V2.09372H464.718V0ZM466.812 0H468.906V2.09372H466.812V0ZM468.906 0H470.999V2.09372H468.906V0ZM410.281 2.09372H412.375V4.18745H410.281V2.09372ZM422.844 2.09372H424.937V4.18745H422.844V2.09372ZM427.031 2.09372H429.125V4.18745H427.031V2.09372ZM429.125 2.09372H431.218V4.18745H429.125V2.09372ZM447.968 2.09372H450.062V4.18745H447.968V2.09372ZM450.062 2.09372H452.156V4.18745H450.062V2.09372ZM456.343 2.09372H458.437V4.18745H456.343V2.09372ZM468.906 2.09372H470.999V4.18745H468.906V2.09372ZM410.281 4.18745H412.375V6.28117H410.281V4.18745ZM414.469 4.18745H416.562V6.28117H414.469V4.18745ZM416.562 4.18745H418.656V6.28117H416.562V4.18745ZM418.656 4.18745H420.75V6.28117H418.656V4.18745ZM422.844 4.18745H424.937V6.28117H422.844V4.18745ZM429.125 4.18745H431.218V6.28117H429.125V4.18745ZM431.218 4.18745H433.312V6.28117H431.218V4.18745ZM433.312 4.18745H435.406V6.28117H433.312V4.18745ZM435.406 4.18745H437.5V6.28117H435.406V4.18745ZM437.5 4.18745H439.593V6.28117H437.5V4.18745ZM439.593 4.18745H441.687V6.28117H439.593V4.18745ZM450.062 4.18745H452.156V6.28117H450.062V4.18745ZM452.156 4.18745H454.249V6.28117H452.156V4.18745ZM456.343 4.18745H458.437V6.28117H456.343V4.18745ZM460.531 4.18745H462.624V6.28117H460.531V4.18745ZM462.624 4.18745H464.718V6.28117H462.624V4.18745ZM464.718 4.18745H466.812V6.28117H464.718V4.18745ZM468.906 4.18745H470.999V6.28117H468.906V4.18745ZM410.281 6.28117H412.375V8.3749H410.281V6.28117ZM414.469 6.28117H416.562V8.3749H414.469V6.28117ZM416.562 6.28117H418.656V8.3749H416.562V6.28117ZM418.656 6.28117H420.75V8.3749H418.656V6.28117ZM422.844 6.28117H424.937V8.3749H422.844V6.28117ZM429.125 6.28117H431.218V8.3749H429.125V6.28117ZM435.406 6.28117H437.5V8.3749H435.406V6.28117ZM437.5 6.28117H439.593V8.3749H437.5V6.28117ZM443.781 6.28117H445.875V8.3749H443.781V6.28117ZM445.875 6.28117H447.968V8.3749H445.875V6.28117ZM450.062 6.28117H452.156V8.3749H450.062V6.28117ZM452.156 6.28117H454.249V8.3749H452.156V6.28117ZM456.343 6.28117H458.437V8.3749H456.343V6.28117ZM460.531 6.28117H462.624V8.3749H460.531V6.28117ZM462.624 6.28117H464.718V8.3749H462.624V6.28117ZM464.718 6.28117H466.812V8.3749H464.718V6.28117ZM468.906 6.28117H470.999V8.3749H468.906V6.28117ZM410.281 8.3749H412.375V10.4686H410.281V8.3749ZM414.469 8.3749H416.562V10.4686H414.469V8.3749ZM416.562 8.3749H418.656V10.4686H416.562V8.3749ZM418.656 8.3749H420.75V10.4686H418.656V8.3749ZM422.844 8.3749H424.937V10.4686H422.844V8.3749ZM433.312 8.3749H435.406V10.4686H433.312V8.3749ZM437.5 8.3749H439.593V10.4686H437.5V8.3749ZM447.968 8.3749H450.062V10.4686H447.968V8.3749ZM450.062 8.3749H452.156V10.4686H450.062V8.3749ZM452.156 8.3749H454.249V10.4686H452.156V8.3749ZM456.343 8.3749H458.437V10.4686H456.343V8.3749ZM460.531 8.3749H462.624V10.4686H460.531V8.3749ZM462.624 8.3749H464.718V10.4686H462.624V8.3749ZM464.718 8.3749H466.812V10.4686H464.718V8.3749ZM468.906 8.3749H470.999V10.4686H468.906V8.3749ZM410.281 10.4686H412.375V12.5623H410.281V10.4686ZM422.844 10.4686H424.937V12.5623H422.844V10.4686ZM429.125 10.4686H431.218V12.5623H429.125V10.4686ZM431.218 10.4686H433.312V12.5623H431.218V10.4686ZM437.5 10.4686H439.593V12.5623H437.5V10.4686ZM441.687 10.4686H443.781V12.5623H441.687V10.4686ZM447.968 10.4686H450.062V12.5623H447.968V10.4686ZM452.156 10.4686H454.249V12.5623H452.156V10.4686ZM456.343 10.4686H458.437V12.5623H456.343V10.4686ZM468.906 10.4686H470.999V12.5623H468.906V10.4686ZM410.281 12.5623H412.375V14.6561H410.281V12.5623ZM412.375 12.5623H414.469V14.6561H412.375V12.5623ZM414.469 12.5623H416.562V14.6561H414.469V12.5623ZM416.562 12.5623H418.656V14.6561H416.562V12.5623ZM418.656 12.5623H420.75V14.6561H418.656V12.5623ZM420.75 12.5623H422.844V14.6561H420.75V12.5623ZM422.844 12.5623H424.937V14.6561H422.844V12.5623ZM427.031 12.5623H429.125V14.6561H427.031V12.5623ZM431.218 12.5623H433.312V14.6561H431.218V12.5623ZM435.406 12.5623H437.5V14.6561H435.406V12.5623ZM439.593 12.5623H441.687V14.6561H439.593V12.5623ZM443.781 12.5623H445.875V14.6561H443.781V12.5623ZM447.968 12.5623H450.062V14.6561H447.968V12.5623ZM452.156 12.5623H454.249V14.6561H452.156V12.5623ZM456.343 12.5623H458.437V14.6561H456.343V12.5623ZM458.437 12.5623H460.531V14.6561H458.437V12.5623ZM460.531 12.5623H462.624V14.6561H460.531V12.5623ZM462.624 12.5623H464.718V14.6561H462.624V12.5623ZM464.718 12.5623H466.812V14.6561H464.718V12.5623ZM466.812 12.5623H468.906V14.6561H466.812V12.5623ZM468.906 12.5623H470.999V14.6561H468.906V12.5623ZM429.125 14.6561H431.218V16.7498H429.125V14.6561ZM435.406 14.6561H437.5V16.7498H435.406V14.6561ZM437.5 14.6561H439.593V16.7498H437.5V14.6561ZM452.156 14.6561H454.249V16.7498H452.156V14.6561ZM412.375 16.7498H414.469V18.8435H412.375V16.7498ZM422.844 16.7498H424.937V18.8435H422.844V16.7498ZM424.937 16.7498H427.031V18.8435H424.937V16.7498ZM427.031 16.7498H429.125V18.8435H427.031V16.7498ZM429.125 16.7498H431.218V18.8435H429.125V16.7498ZM431.218 16.7498H433.312V18.8435H431.218V16.7498ZM447.968 16.7498H450.062V18.8435H447.968V16.7498ZM454.249 16.7498H456.343V18.8435H454.249V16.7498ZM466.812 16.7498H468.906V18.8435H466.812V16.7498ZM468.906 16.7498H470.999V18.8435H468.906V16.7498ZM410.281 18.8435H412.375V20.9372H410.281V18.8435ZM412.375 18.8435H414.469V20.9372H412.375V18.8435ZM420.75 18.8435H422.844V20.9372H420.75V18.8435ZM427.031 18.8435H429.125V20.9372H427.031V18.8435ZM429.125 18.8435H431.218V20.9372H429.125V18.8435ZM431.218 18.8435H433.312V20.9372H431.218V18.8435ZM435.406 18.8435H437.5V20.9372H435.406V18.8435ZM437.5 18.8435H439.593V20.9372H437.5V18.8435ZM439.593 18.8435H441.687V20.9372H439.593V18.8435ZM441.687 18.8435H443.781V20.9372H441.687V18.8435ZM445.875 18.8435H447.968V20.9372H445.875V18.8435ZM452.156 18.8435H454.249V20.9372H452.156V18.8435ZM458.437 18.8435H460.531V20.9372H458.437V18.8435ZM460.531 18.8435H462.624V20.9372H460.531V18.8435ZM464.718 18.8435H466.812V20.9372H464.718V18.8435ZM466.812 18.8435H468.906V20.9372H466.812V18.8435ZM412.375 20.9372H414.469V23.031H412.375V20.9372ZM416.562 20.9372H418.656V23.031H416.562V20.9372ZM420.75 20.9372H422.844V23.031H420.75V20.9372ZM422.844 20.9372H424.937V23.031H422.844V20.9372ZM431.218 20.9372H433.312V23.031H431.218V20.9372ZM433.312 20.9372H435.406V23.031H433.312V20.9372ZM439.593 20.9372H441.687V23.031H439.593V20.9372ZM443.781 20.9372H445.875V23.031H443.781V20.9372ZM452.156 20.9372H454.249V23.031H452.156V20.9372ZM454.249 20.9372H456.343V23.031H454.249V20.9372ZM456.343 20.9372H458.437V23.031H456.343V20.9372ZM460.531 20.9372H462.624V23.031H460.531V20.9372ZM462.624 20.9372H464.718V23.031H462.624V20.9372ZM410.281 23.031H412.375V25.1247H410.281V23.031ZM412.375 23.031H414.469V25.1247H412.375V23.031ZM416.562 23.031H418.656V25.1247H416.562V23.031ZM427.031 23.031H429.125V25.1247H427.031V23.031ZM431.218 23.031H433.312V25.1247H431.218V23.031ZM435.406 23.031H437.5V25.1247H435.406V23.031ZM437.5 23.031H439.593V25.1247H437.5V23.031ZM439.593 23.031H441.687V25.1247H439.593V23.031ZM441.687 23.031H443.781V25.1247H441.687V23.031ZM447.968 23.031H450.062V25.1247H447.968V23.031ZM450.062 23.031H452.156V25.1247H450.062V23.031ZM452.156 23.031H454.249V25.1247H452.156V23.031ZM456.343 23.031H458.437V25.1247H456.343V23.031ZM458.437 23.031H460.531V25.1247H458.437V23.031ZM462.624 23.031H464.718V25.1247H462.624V23.031ZM410.281 25.1247H412.375V27.2184H410.281V25.1247ZM412.375 25.1247H414.469V27.2184H412.375V25.1247ZM414.469 25.1247H416.562V27.2184H414.469V25.1247ZM416.562 25.1247H418.656V27.2184H416.562V25.1247ZM418.656 25.1247H420.75V27.2184H418.656V25.1247ZM420.75 25.1247H422.844V27.2184H420.75V25.1247ZM422.844 25.1247H424.937V27.2184H422.844V25.1247ZM424.937 25.1247H427.031V27.2184H424.937V25.1247ZM437.5 25.1247H439.593V27.2184H437.5V25.1247ZM452.156 25.1247H454.249V27.2184H452.156V25.1247ZM454.249 25.1247H456.343V27.2184H454.249V25.1247ZM456.343 25.1247H458.437V27.2184H456.343V25.1247ZM466.812 25.1247H468.906V27.2184H466.812V25.1247ZM410.281 27.2184H412.375V29.3121H410.281V27.2184ZM414.469 27.2184H416.562V29.3121H414.469V27.2184ZM416.562 27.2184H418.656V29.3121H416.562V27.2184ZM418.656 27.2184H420.75V29.3121H418.656V27.2184ZM420.75 27.2184H422.844V29.3121H420.75V27.2184ZM429.125 27.2184H431.218V29.3121H429.125V27.2184ZM435.406 27.2184H437.5V29.3121H435.406V27.2184ZM437.5 27.2184H439.593V29.3121H437.5V27.2184ZM439.593 27.2184H441.687V29.3121H439.593V27.2184ZM441.687 27.2184H443.781V29.3121H441.687V27.2184ZM443.781 27.2184H445.875V29.3121H443.781V27.2184ZM445.875 27.2184H447.968V29.3121H445.875V27.2184ZM450.062 27.2184H452.156V29.3121H450.062V27.2184ZM452.156 27.2184H454.249V29.3121H452.156V27.2184ZM456.343 27.2184H458.437V29.3121H456.343V27.2184ZM460.531 27.2184H462.624V29.3121H460.531V27.2184ZM462.624 27.2184H464.718V29.3121H462.624V27.2184ZM468.906 27.2184H470.999V29.3121H468.906V27.2184ZM410.281 29.3121H412.375V31.4059H410.281V29.3121ZM412.375 29.3121H414.469V31.4059H412.375V29.3121ZM414.469 29.3121H416.562V31.4059H414.469V29.3121ZM422.844 29.3121H424.937V31.4059H422.844V29.3121ZM427.031 29.3121H429.125V31.4059H427.031V29.3121ZM429.125 29.3121H431.218V31.4059H429.125V29.3121ZM431.218 29.3121H433.312V31.4059H431.218V29.3121ZM435.406 29.3121H437.5V31.4059H435.406V29.3121ZM437.5 29.3121H439.593V31.4059H437.5V29.3121ZM441.687 29.3121H443.781V31.4059H441.687V29.3121ZM445.875 29.3121H447.968V31.4059H445.875V29.3121ZM452.156 29.3121H454.249V31.4059H452.156V29.3121ZM454.249 29.3121H456.343V31.4059H454.249V29.3121ZM456.343 29.3121H458.437V31.4059H456.343V29.3121ZM458.437 29.3121H460.531V31.4059H458.437V29.3121ZM410.281 31.4059H412.375V33.4996H410.281V31.4059ZM412.375 31.4059H414.469V33.4996H412.375V31.4059ZM418.656 31.4059H420.75V33.4996H418.656V31.4059ZM424.937 31.4059H427.031V33.4996H424.937V31.4059ZM431.218 31.4059H433.312V33.4996H431.218V31.4059ZM437.5 31.4059H439.593V33.4996H437.5V31.4059ZM441.687 31.4059H443.781V33.4996H441.687V31.4059ZM443.781 31.4059H445.875V33.4996H443.781V31.4059ZM445.875 31.4059H447.968V33.4996H445.875V31.4059ZM447.968 31.4059H450.062V33.4996H447.968V31.4059ZM450.062 31.4059H452.156V33.4996H450.062V31.4059ZM454.249 31.4059H456.343V33.4996H454.249V31.4059ZM456.343 31.4059H458.437V33.4996H456.343V31.4059ZM460.531 31.4059H462.624V33.4996H460.531V31.4059ZM462.624 31.4059H464.718V33.4996H462.624V31.4059ZM464.718 31.4059H466.812V33.4996H464.718V31.4059ZM410.281 33.4996H412.375V35.5933H410.281V33.4996ZM414.469 33.4996H416.562V35.5933H414.469V33.4996ZM418.656 33.4996H420.75V35.5933H418.656V33.4996ZM420.75 33.4996H422.844V35.5933H420.75V33.4996ZM422.844 33.4996H424.937V35.5933H422.844V33.4996ZM424.937 33.4996H427.031V35.5933H424.937V33.4996ZM431.218 33.4996H433.312V35.5933H431.218V33.4996ZM435.406 33.4996H437.5V35.5933H435.406V33.4996ZM439.593 33.4996H441.687V35.5933H439.593V33.4996ZM441.687 33.4996H443.781V35.5933H441.687V33.4996ZM443.781 33.4996H445.875V35.5933H443.781V33.4996ZM462.624 33.4996H464.718V35.5933H462.624V33.4996ZM464.718 33.4996H466.812V35.5933H464.718V33.4996ZM468.906 33.4996H470.999V35.5933H468.906V33.4996ZM410.281 35.5933H412.375V37.687H410.281V35.5933ZM416.562 35.5933H418.656V37.687H416.562V35.5933ZM420.75 35.5933H422.844V37.687H420.75V35.5933ZM431.218 35.5933H433.312V37.687H431.218V35.5933ZM433.312 35.5933H435.406V37.687H433.312V35.5933ZM437.5 35.5933H439.593V37.687H437.5V35.5933ZM447.968 35.5933H450.062V37.687H447.968V35.5933ZM450.062 35.5933H452.156V37.687H450.062V35.5933ZM456.343 35.5933H458.437V37.687H456.343V35.5933ZM458.437 35.5933H460.531V37.687H458.437V35.5933ZM460.531 35.5933H462.624V37.687H460.531V35.5933ZM468.906 35.5933H470.999V37.687H468.906V35.5933ZM410.281 37.687H412.375V39.7808H410.281V37.687ZM412.375 37.687H414.469V39.7808H412.375V37.687ZM414.469 37.687H416.562V39.7808H414.469V37.687ZM416.562 37.687H418.656V39.7808H416.562V37.687ZM420.75 37.687H422.844V39.7808H420.75V37.687ZM422.844 37.687H424.937V39.7808H422.844V37.687ZM427.031 37.687H429.125V39.7808H427.031V37.687ZM429.125 37.687H431.218V39.7808H429.125V37.687ZM433.312 37.687H435.406V39.7808H433.312V37.687ZM435.406 37.687H437.5V39.7808H435.406V37.687ZM437.5 37.687H439.593V39.7808H437.5V37.687ZM439.593 37.687H441.687V39.7808H439.593V37.687ZM441.687 37.687H443.781V39.7808H441.687V37.687ZM445.875 37.687H447.968V39.7808H445.875V37.687ZM450.062 37.687H452.156V39.7808H450.062V37.687ZM458.437 37.687H460.531V39.7808H458.437V37.687ZM462.624 37.687H464.718V39.7808H462.624V37.687ZM464.718 37.687H466.812V39.7808H464.718V37.687ZM468.906 37.687H470.999V39.7808H468.906V37.687ZM410.281 39.7808H412.375V41.8745H410.281V39.7808ZM416.562 39.7808H418.656V41.8745H416.562V39.7808ZM420.75 39.7808H422.844V41.8745H420.75V39.7808ZM431.218 39.7808H433.312V41.8745H431.218V39.7808ZM437.5 39.7808H439.593V41.8745H437.5V39.7808ZM439.593 39.7808H441.687V41.8745H439.593V39.7808ZM447.968 39.7808H450.062V41.8745H447.968V39.7808ZM450.062 39.7808H452.156V41.8745H450.062V39.7808ZM454.249 39.7808H456.343V41.8745H454.249V39.7808ZM456.343 39.7808H458.437V41.8745H456.343V39.7808ZM458.437 39.7808H460.531V41.8745H458.437V39.7808ZM462.624 39.7808H464.718V41.8745H462.624V39.7808ZM468.906 39.7808H470.999V41.8745H468.906V39.7808ZM410.281 41.8745H412.375V43.9682H410.281V41.8745ZM414.469 41.8745H416.562V43.9682H414.469V41.8745ZM422.844 41.8745H424.937V43.9682H422.844V41.8745ZM431.218 41.8745H433.312V43.9682H431.218V41.8745ZM435.406 41.8745H437.5V43.9682H435.406V41.8745ZM441.687 41.8745H443.781V43.9682H441.687V41.8745ZM445.875 41.8745H447.968V43.9682H445.875V41.8745ZM450.062 41.8745H452.156V43.9682H450.062V41.8745ZM452.156 41.8745H454.249V43.9682H452.156V41.8745ZM454.249 41.8745H456.343V43.9682H454.249V41.8745ZM456.343 41.8745H458.437V43.9682H456.343V41.8745ZM458.437 41.8745H460.531V43.9682H458.437V41.8745ZM460.531 41.8745H462.624V43.9682H460.531V41.8745ZM462.624 41.8745H464.718V43.9682H462.624V41.8745ZM464.718 41.8745H466.812V43.9682H464.718V41.8745ZM466.812 41.8745H468.906V43.9682H466.812V41.8745ZM468.906 41.8745H470.999V43.9682H468.906V41.8745ZM427.031 43.9682H429.125V46.0619H427.031V43.9682ZM429.125 43.9682H431.218V46.0619H429.125V43.9682ZM435.406 43.9682H437.5V46.0619H435.406V43.9682ZM437.5 43.9682H439.593V46.0619H437.5V43.9682ZM441.687 43.9682H443.781V46.0619H441.687V43.9682ZM447.968 43.9682H450.062V46.0619H447.968V43.9682ZM450.062 43.9682H452.156V46.0619H450.062V43.9682ZM452.156 43.9682H454.249V46.0619H452.156V43.9682ZM460.531 43.9682H462.624V46.0619H460.531V43.9682ZM462.624 43.9682H464.718V46.0619H462.624V43.9682ZM464.718 43.9682H466.812V46.0619H464.718V43.9682ZM410.281 46.0619H412.375V48.1557H410.281V46.0619ZM412.375 46.0619H414.469V48.1557H412.375V46.0619ZM414.469 46.0619H416.562V48.1557H414.469V46.0619ZM416.562 46.0619H418.656V48.1557H416.562V46.0619ZM418.656 46.0619H420.75V48.1557H418.656V46.0619ZM420.75 46.0619H422.844V48.1557H420.75V46.0619ZM422.844 46.0619H424.937V48.1557H422.844V46.0619ZM427.031 46.0619H429.125V48.1557H427.031V46.0619ZM429.125 46.0619H431.218V48.1557H429.125V46.0619ZM431.218 46.0619H433.312V48.1557H431.218V46.0619ZM433.312 46.0619H435.406V48.1557H433.312V46.0619ZM441.687 46.0619H443.781V48.1557H441.687V46.0619ZM447.968 46.0619H450.062V48.1557H447.968V46.0619ZM450.062 46.0619H452.156V48.1557H450.062V46.0619ZM452.156 46.0619H454.249V48.1557H452.156V46.0619ZM456.343 46.0619H458.437V48.1557H456.343V46.0619ZM460.531 46.0619H462.624V48.1557H460.531V46.0619ZM466.812 46.0619H468.906V48.1557H466.812V46.0619ZM410.281 48.1557H412.375V50.2494H410.281V48.1557ZM422.844 48.1557H424.937V50.2494H422.844V48.1557ZM431.218 48.1557H433.312V50.2494H431.218V48.1557ZM433.312 48.1557H435.406V50.2494H433.312V48.1557ZM437.5 48.1557H439.593V50.2494H437.5V48.1557ZM441.687 48.1557H443.781V50.2494H441.687V48.1557ZM450.062 48.1557H452.156V50.2494H450.062V48.1557ZM452.156 48.1557H454.249V50.2494H452.156V48.1557ZM460.531 48.1557H462.624V50.2494H460.531V48.1557ZM462.624 48.1557H464.718V50.2494H462.624V48.1557ZM466.812 48.1557H468.906V50.2494H466.812V48.1557ZM410.281 50.2494H412.375V52.3431H410.281V50.2494ZM414.469 50.2494H416.562V52.3431H414.469V50.2494ZM416.562 50.2494H418.656V52.3431H416.562V50.2494ZM418.656 50.2494H420.75V52.3431H418.656V50.2494ZM422.844 50.2494H424.937V52.3431H422.844V50.2494ZM429.125 50.2494H431.218V52.3431H429.125V50.2494ZM433.312 50.2494H435.406V52.3431H433.312V50.2494ZM435.406 50.2494H437.5V52.3431H435.406V50.2494ZM443.781 50.2494H445.875V52.3431H443.781V50.2494ZM445.875 50.2494H447.968V52.3431H445.875V50.2494ZM447.968 50.2494H450.062V52.3431H447.968V50.2494ZM450.062 50.2494H452.156V52.3431H450.062V50.2494ZM452.156 50.2494H454.249V52.3431H452.156V50.2494ZM454.249 50.2494H456.343V52.3431H454.249V50.2494ZM456.343 50.2494H458.437V52.3431H456.343V50.2494ZM458.437 50.2494H460.531V52.3431H458.437V50.2494ZM460.531 50.2494H462.624V52.3431H460.531V50.2494ZM466.812 50.2494H468.906V52.3431H466.812V50.2494ZM410.281 52.3431H412.375V54.4368H410.281V52.3431ZM414.469 52.3431H416.562V54.4368H414.469V52.3431ZM416.562 52.3431H418.656V54.4368H416.562V52.3431ZM418.656 52.3431H420.75V54.4368H418.656V52.3431ZM422.844 52.3431H424.937V54.4368H422.844V52.3431ZM431.218 52.3431H433.312V54.4368H431.218V52.3431ZM435.406 52.3431H437.5V54.4368H435.406V52.3431ZM443.781 52.3431H445.875V54.4368H443.781V52.3431ZM445.875 52.3431H447.968V54.4368H445.875V52.3431ZM450.062 52.3431H452.156V54.4368H450.062V52.3431ZM452.156 52.3431H454.249V54.4368H452.156V52.3431ZM458.437 52.3431H460.531V54.4368H458.437V52.3431ZM466.812 52.3431H468.906V54.4368H466.812V52.3431ZM410.281 54.4368H412.375V56.5306H410.281V54.4368ZM414.469 54.4368H416.562V56.5306H414.469V54.4368ZM416.562 54.4368H418.656V56.5306H416.562V54.4368ZM418.656 54.4368H420.75V56.5306H418.656V54.4368ZM422.844 54.4368H424.937V56.5306H422.844V54.4368ZM435.406 54.4368H437.5V56.5306H435.406V54.4368ZM439.593 54.4368H441.687V56.5306H439.593V54.4368ZM447.968 54.4368H450.062V56.5306H447.968V54.4368ZM450.062 54.4368H452.156V56.5306H450.062V54.4368ZM452.156 54.4368H454.249V56.5306H452.156V54.4368ZM454.249 54.4368H456.343V56.5306H454.249V54.4368ZM456.343 54.4368H458.437V56.5306H456.343V54.4368ZM458.437 54.4368H460.531V56.5306H458.437V54.4368ZM460.531 54.4368H462.624V56.5306H460.531V54.4368ZM466.812 54.4368H468.906V56.5306H466.812V54.4368ZM410.281 56.5306H412.375V58.6243H410.281V56.5306ZM422.844 56.5306H424.937V58.6243H422.844V56.5306ZM427.031 56.5306H429.125V58.6243H427.031V56.5306ZM435.406 56.5306H437.5V58.6243H435.406V56.5306ZM441.687 56.5306H443.781V58.6243H441.687V56.5306ZM447.968 56.5306H450.062V58.6243H447.968V56.5306ZM454.249 56.5306H456.343V58.6243H454.249V56.5306ZM460.531 56.5306H462.624V58.6243H460.531V56.5306ZM464.718 56.5306H466.812V58.6243H464.718V56.5306ZM468.906 56.5306H470.999V58.6243H468.906V56.5306ZM410.281 58.6243H412.375V60.718H410.281V58.6243ZM412.375 58.6243H414.469V60.718H412.375V58.6243ZM414.469 58.6243H416.562V60.718H414.469V58.6243ZM416.562 58.6243H418.656V60.718H416.562V58.6243ZM418.656 58.6243H420.75V60.718H418.656V58.6243ZM420.75 58.6243H422.844V60.718H420.75V58.6243ZM422.844 58.6243H424.937V60.718H422.844V58.6243ZM429.125 58.6243H431.218V60.718H429.125V58.6243ZM431.218 58.6243H433.312V60.718H431.218V58.6243ZM433.312 58.6243H435.406V60.718H433.312V58.6243ZM443.781 58.6243H445.875V60.718H443.781V58.6243ZM445.875 58.6243H447.968V60.718H445.875V58.6243ZM450.062 58.6243H452.156V60.718H450.062V58.6243ZM454.249 58.6243H456.343V60.718H454.249V58.6243ZM456.343 58.6243H458.437V60.718H456.343V58.6243ZM460.531 58.6243H462.624V60.718H460.531V58.6243ZM464.718 58.6243H466.812V60.718H464.718V58.6243Z" fill="#C1E7BB"/>
</svg>
