<svg width="8" height="8" viewBox="0 0 8 8" fill="none" xmlns="http://www.w3.org/2000/svg">
<path d="M1.24219 3.50658C0.948104 3.50658 0.709702 3.74498 0.709702 4.03906C0.709702 4.33315 0.948104 4.57155 1.24219 4.57155L1.24219 3.50658ZM7.6431 4.41559C7.85105 4.20764 7.85105 3.87049 7.6431 3.66254L4.25438 0.273819C4.04643 0.0658698 3.70928 0.0658698 3.50133 0.273818C3.29339 0.481767 3.29339 0.818918 3.50133 1.02687L6.51353 4.03906L3.50133 7.05126C3.29338 7.25921 3.29338 7.59636 3.50133 7.80431C3.70928 8.01226 4.04643 8.01226 4.25438 7.80431L7.6431 4.41559ZM1.24219 4.57155L7.26658 4.57155L7.26658 3.50658L1.24219 3.50658L1.24219 4.57155Z" fill="#4CA771"/>
</svg>
