<svg width="479" height="495" viewBox="0 0 479 495" fill="none" xmlns="http://www.w3.org/2000/svg">
<rect x="162.703" y="392.188" width="151.479" height="44.2261" rx="22.1131" fill="#FE2A00" fill-opacity="0.1"/>
<path d="M196.58 420.797L199.299 408.714H203.955L206.673 420.797H204.221L203.741 418.611H199.512L199.032 420.797H196.58ZM201.2 410.74L199.974 416.479H203.279L202.053 410.74H201.2ZM215.98 421.899C215.98 422.917 215.589 423.67 214.807 424.155C214.025 424.641 212.965 424.884 211.626 424.884C210.3 424.884 209.275 424.706 208.552 424.351C207.842 423.995 207.486 423.35 207.486 422.414C207.486 421.668 207.913 420.963 208.766 420.299C208.327 420.003 208.108 419.553 208.108 418.949C208.108 418.712 208.286 418.321 208.641 417.776L208.801 417.527C207.996 416.947 207.593 416.094 207.593 414.969C207.593 413.831 207.93 413.008 208.606 412.499C209.293 411.989 210.199 411.735 211.324 411.735C211.834 411.735 212.337 411.794 212.835 411.912L213.119 411.966L215.98 411.877V413.778L214.647 413.671C214.908 414.074 215.038 414.477 215.038 414.88C215.038 416.064 214.736 416.882 214.132 417.332C213.528 417.782 212.58 418.007 211.289 418.007C211.016 418.007 210.773 417.983 210.56 417.936C210.442 418.244 210.383 418.499 210.383 418.7C210.383 418.89 210.483 419.02 210.685 419.091C210.886 419.162 211.36 419.204 212.106 419.215C213.599 419.227 214.618 419.429 215.162 419.82C215.707 420.199 215.98 420.892 215.98 421.899ZM209.832 422.165C209.832 422.674 210.454 422.929 211.697 422.929C212.953 422.929 213.581 422.633 213.581 422.041C213.581 421.721 213.474 421.514 213.261 421.419C213.048 421.336 212.598 421.288 211.911 421.277L210.311 421.152C209.992 421.472 209.832 421.81 209.832 422.165ZM209.974 414.898C209.974 415.762 210.424 416.195 211.324 416.195C212.236 416.195 212.693 415.762 212.693 414.898C212.693 414.021 212.236 413.583 211.324 413.583C210.424 413.583 209.974 414.021 209.974 414.898ZM225.472 421.899C225.472 422.917 225.081 423.67 224.299 424.155C223.517 424.641 222.457 424.884 221.118 424.884C219.792 424.884 218.767 424.706 218.044 424.351C217.333 423.995 216.978 423.35 216.978 422.414C216.978 421.668 217.405 420.963 218.257 420.299C217.819 420.003 217.6 419.553 217.6 418.949C217.6 418.712 217.778 418.321 218.133 417.776L218.293 417.527C217.487 416.947 217.085 416.094 217.085 414.969C217.085 413.831 217.422 413.008 218.098 412.499C218.785 411.989 219.691 411.735 220.816 411.735C221.326 411.735 221.829 411.794 222.327 411.912L222.611 411.966L225.472 411.877V413.778L224.139 413.671C224.4 414.074 224.53 414.477 224.53 414.88C224.53 416.064 224.228 416.882 223.624 417.332C223.02 417.782 222.072 418.007 220.781 418.007C220.508 418.007 220.265 417.983 220.052 417.936C219.934 418.244 219.874 418.499 219.874 418.7C219.874 418.89 219.975 419.02 220.177 419.091C220.378 419.162 220.852 419.204 221.598 419.215C223.091 419.227 224.109 419.429 224.654 419.82C225.199 420.199 225.472 420.892 225.472 421.899ZM219.324 422.165C219.324 422.674 219.946 422.929 221.189 422.929C222.445 422.929 223.073 422.633 223.073 422.041C223.073 421.721 222.966 421.514 222.753 421.419C222.54 421.336 222.09 421.288 221.403 421.277L219.803 421.152C219.484 421.472 219.324 421.81 219.324 422.165ZM219.466 414.898C219.466 415.762 219.916 416.195 220.816 416.195C221.728 416.195 222.184 415.762 222.184 414.898C222.184 414.021 221.728 413.583 220.816 413.583C219.916 413.583 219.466 414.021 219.466 414.898ZM226.914 420.797V411.912H229.278V412.854C230.273 412.262 231.22 411.877 232.121 411.699V414.098C231.161 414.299 230.338 414.507 229.651 414.72L229.295 414.844V420.797H226.914ZM235.48 417.367C235.492 417.912 235.634 418.309 235.907 418.558C236.191 418.795 236.594 418.913 237.115 418.913C238.217 418.913 239.2 418.878 240.065 418.807L240.562 418.753L240.598 420.513C239.235 420.844 238.003 421.01 236.902 421.01C235.563 421.01 234.592 420.655 233.988 419.944C233.383 419.233 233.081 418.078 233.081 416.479C233.081 413.292 234.39 411.699 237.008 411.699C239.591 411.699 240.882 413.038 240.882 415.715L240.704 417.367H235.48ZM238.537 415.555C238.537 414.844 238.424 414.353 238.199 414.08C237.974 413.796 237.577 413.654 237.008 413.654C236.452 413.654 236.055 413.802 235.818 414.098C235.593 414.382 235.474 414.868 235.462 415.555H238.537ZM248.963 414.133C247.494 413.944 246.463 413.849 245.871 413.849C245.291 413.849 244.911 413.902 244.734 414.009C244.568 414.116 244.485 414.287 244.485 414.524C244.485 414.749 244.598 414.909 244.823 415.004C245.06 415.087 245.652 415.217 246.6 415.395C247.559 415.561 248.24 415.839 248.643 416.23C249.046 416.621 249.247 417.255 249.247 418.132C249.247 420.051 248.057 421.01 245.676 421.01C244.894 421.01 243.946 420.903 242.832 420.69L242.264 420.584L242.335 418.593C243.804 418.783 244.823 418.878 245.391 418.878C245.972 418.878 246.363 418.824 246.564 418.718C246.777 418.599 246.884 418.428 246.884 418.203C246.884 417.978 246.771 417.812 246.546 417.705C246.333 417.598 245.764 417.468 244.84 417.314C243.928 417.16 243.247 416.9 242.797 416.532C242.347 416.165 242.122 415.514 242.122 414.578C242.122 413.63 242.442 412.919 243.081 412.445C243.721 411.96 244.544 411.717 245.551 411.717C246.25 411.717 247.204 411.829 248.412 412.054L248.998 412.161L248.963 414.133ZM257.344 414.133C255.875 413.944 254.845 413.849 254.252 413.849C253.672 413.849 253.293 413.902 253.115 414.009C252.949 414.116 252.866 414.287 252.866 414.524C252.866 414.749 252.979 414.909 253.204 415.004C253.441 415.087 254.033 415.217 254.981 415.395C255.94 415.561 256.622 415.839 257.024 416.23C257.427 416.621 257.629 417.255 257.629 418.132C257.629 420.051 256.438 421.01 254.057 421.01C253.275 421.01 252.327 420.903 251.214 420.69L250.645 420.584L250.716 418.593C252.185 418.783 253.204 418.878 253.773 418.878C254.353 418.878 254.744 418.824 254.945 418.718C255.159 418.599 255.265 418.428 255.265 418.203C255.265 417.978 255.153 417.812 254.928 417.705C254.714 417.598 254.146 417.468 253.222 417.314C252.31 417.16 251.628 416.9 251.178 416.532C250.728 416.165 250.503 415.514 250.503 414.578C250.503 413.63 250.823 412.919 251.463 412.445C252.102 411.96 252.926 411.717 253.933 411.717C254.631 411.717 255.585 411.829 256.793 412.054L257.38 412.161L257.344 414.133ZM259.346 420.797V411.912H261.727V420.797H259.346ZM259.346 410.775V408.358H261.727V410.775H259.346ZM263.092 411.912H265.58L267.002 418.771H267.499L268.992 411.912H271.408L269.276 420.797H265.225L263.092 411.912ZM274.611 417.367C274.622 417.912 274.765 418.309 275.037 418.558C275.321 418.795 275.724 418.913 276.245 418.913C277.347 418.913 278.33 418.878 279.195 418.807L279.693 418.753L279.728 420.513C278.366 420.844 277.134 421.01 276.032 421.01C274.693 421.01 273.722 420.655 273.118 419.944C272.514 419.233 272.212 418.078 272.212 416.479C272.212 413.292 273.521 411.699 276.139 411.699C278.721 411.699 280.012 413.038 280.012 415.715L279.835 417.367H274.611ZM277.667 415.555C277.667 414.844 277.554 414.353 277.329 414.08C277.104 413.796 276.707 413.654 276.139 413.654C275.582 413.654 275.185 413.802 274.948 414.098C274.723 414.382 274.605 414.868 274.593 415.555H277.667Z" fill="#FE2A00"/>
<rect x="253.594" y="450.531" width="223.41" height="44.2261" rx="22.1131" fill="#FF8800" fill-opacity="0.1"/>
<path d="M278.339 479.141V467.058H282.514L284.647 475.871L286.779 467.058H290.955V479.141H288.503V469.794H288.236L285.873 478.608H283.421L281.057 469.794H280.791V479.141H278.339ZM293.754 471.269C294.382 470.452 295.43 470.043 296.899 470.043C298.368 470.043 299.416 470.452 300.044 471.269C300.672 472.074 300.986 473.212 300.986 474.681C300.986 477.796 299.624 479.354 296.899 479.354C294.175 479.354 292.812 477.796 292.812 474.681C292.812 473.212 293.126 472.074 293.754 471.269ZM295.584 476.688C295.833 477.115 296.271 477.328 296.899 477.328C297.527 477.328 297.959 477.115 298.196 476.688C298.445 476.262 298.57 475.593 298.57 474.681C298.57 473.768 298.445 473.105 298.196 472.69C297.959 472.276 297.527 472.068 296.899 472.068C296.271 472.068 295.833 472.276 295.584 472.69C295.347 473.105 295.229 473.768 295.229 474.681C295.229 475.593 295.347 476.262 295.584 476.688ZM310.283 466.702V479.141H307.92V478.767C307.091 479.158 306.374 479.354 305.77 479.354C304.479 479.354 303.579 478.981 303.069 478.234C302.56 477.488 302.305 476.309 302.305 474.698C302.305 473.075 302.607 471.897 303.211 471.162C303.827 470.416 304.751 470.043 305.983 470.043C306.362 470.043 306.889 470.102 307.565 470.221L307.902 470.292V466.702H310.283ZM307.654 477.008L307.902 476.955V472.282C307.251 472.163 306.67 472.104 306.161 472.104C305.201 472.104 304.722 472.957 304.722 474.663C304.722 475.587 304.828 476.244 305.042 476.635C305.255 477.026 305.604 477.222 306.09 477.222C306.587 477.222 307.109 477.15 307.654 477.008ZM314.438 475.711C314.45 476.256 314.592 476.653 314.865 476.902C315.149 477.139 315.552 477.257 316.073 477.257C317.175 477.257 318.158 477.222 319.023 477.15L319.52 477.097L319.556 478.856C318.194 479.188 316.962 479.354 315.86 479.354C314.521 479.354 313.55 478.998 312.946 478.288C312.342 477.577 312.04 476.422 312.04 474.823C312.04 471.636 313.348 470.043 315.966 470.043C318.549 470.043 319.84 471.381 319.84 474.059L319.662 475.711H314.438ZM317.495 473.899C317.495 473.188 317.382 472.696 317.157 472.424C316.932 472.14 316.535 471.997 315.966 471.997C315.41 471.997 315.013 472.145 314.776 472.442C314.551 472.726 314.432 473.212 314.421 473.899H317.495ZM321.542 479.141V470.256H323.905V471.198C324.9 470.606 325.848 470.221 326.748 470.043V472.442C325.789 472.643 324.965 472.85 324.278 473.064L323.923 473.188V479.141H321.542ZM334.959 473.028V476.724C334.982 477.008 335.03 477.21 335.101 477.328C335.172 477.435 335.32 477.512 335.545 477.559L335.474 479.354C334.87 479.354 334.384 479.312 334.017 479.229C333.662 479.147 333.3 478.981 332.933 478.732C332.08 479.147 331.21 479.354 330.321 479.354C328.485 479.354 327.567 478.382 327.567 476.44C327.567 475.492 327.822 474.823 328.331 474.432C328.84 474.029 329.622 473.792 330.676 473.721L332.578 473.579V473.028C332.578 472.661 332.495 472.412 332.329 472.282C332.163 472.14 331.897 472.068 331.529 472.068L328.189 472.211L328.118 470.558C329.385 470.215 330.588 470.043 331.725 470.043C332.874 470.043 333.697 470.28 334.195 470.754C334.704 471.227 334.959 471.986 334.959 473.028ZM330.961 475.374C330.297 475.433 329.966 475.788 329.966 476.44C329.966 477.091 330.256 477.417 330.836 477.417C331.287 477.417 331.778 477.346 332.311 477.204L332.578 477.133V475.231L330.961 475.374ZM342.151 472.282H339.965V475.924C339.965 476.28 339.971 476.534 339.983 476.688C340.007 476.831 340.072 476.955 340.178 477.062C340.297 477.168 340.475 477.222 340.711 477.222L342.062 477.186L342.169 479.087C341.375 479.265 340.771 479.354 340.356 479.354C339.29 479.354 338.561 479.117 338.17 478.643C337.78 478.157 337.584 477.269 337.584 475.978V472.282H336.536V470.256H337.584V467.786H339.965V470.256H342.151V472.282ZM345.656 475.711C345.668 476.256 345.81 476.653 346.082 476.902C346.367 477.139 346.769 477.257 347.291 477.257C348.392 477.257 349.376 477.222 350.24 477.15L350.738 477.097L350.773 478.856C349.411 479.188 348.179 479.354 347.077 479.354C345.739 479.354 344.767 478.998 344.163 478.288C343.559 477.577 343.257 476.422 343.257 474.823C343.257 471.636 344.566 470.043 347.184 470.043C349.766 470.043 351.058 471.381 351.058 474.059L350.88 475.711H345.656ZM348.712 473.899C348.712 473.188 348.6 472.696 348.375 472.424C348.149 472.14 347.753 471.997 347.184 471.997C346.627 471.997 346.23 472.145 345.993 472.442C345.768 472.726 345.65 473.212 345.638 473.899H348.712ZM352.866 479.141V466.702H355.247V479.141H352.866ZM356.731 470.256H359.077L360.694 477.115H361.103L362.72 470.256H365.065L361.938 482.872H359.61L360.587 479.141H358.917L356.731 470.256ZM369.538 479.141L372.257 467.058H376.912L379.631 479.141H377.179L376.699 476.955H372.47L371.99 479.141H369.538ZM374.158 469.083L372.932 474.823H376.237L375.011 469.083H374.158ZM388.937 480.242C388.937 481.261 388.547 482.013 387.765 482.499C386.983 482.985 385.923 483.228 384.584 483.228C383.257 483.228 382.233 483.05 381.51 482.694C380.799 482.339 380.444 481.693 380.444 480.758C380.444 480.011 380.87 479.306 381.723 478.643C381.285 478.347 381.066 477.897 381.066 477.293C381.066 477.056 381.243 476.665 381.599 476.12L381.759 475.871C380.953 475.291 380.55 474.438 380.55 473.312C380.55 472.175 380.888 471.352 381.563 470.842C382.25 470.333 383.157 470.078 384.282 470.078C384.791 470.078 385.295 470.138 385.792 470.256L386.077 470.309L388.937 470.221V472.122L387.605 472.015C387.865 472.418 387.996 472.821 387.996 473.223C387.996 474.408 387.694 475.225 387.09 475.676C386.485 476.126 385.538 476.351 384.246 476.351C383.974 476.351 383.731 476.327 383.518 476.28C383.399 476.588 383.34 476.842 383.34 477.044C383.34 477.233 383.441 477.364 383.642 477.435C383.844 477.506 384.318 477.547 385.064 477.559C386.556 477.571 387.575 477.772 388.12 478.163C388.665 478.542 388.937 479.235 388.937 480.242ZM382.789 480.509C382.789 481.018 383.411 481.273 384.655 481.273C385.911 481.273 386.539 480.977 386.539 480.384C386.539 480.065 386.432 479.857 386.219 479.763C386.006 479.68 385.555 479.632 384.868 479.62L383.269 479.496C382.949 479.816 382.789 480.153 382.789 480.509ZM382.932 473.241C382.932 474.106 383.382 474.538 384.282 474.538C385.194 474.538 385.65 474.106 385.65 473.241C385.65 472.365 385.194 471.926 384.282 471.926C383.382 471.926 382.932 472.365 382.932 473.241ZM398.429 480.242C398.429 481.261 398.039 482.013 397.257 482.499C396.475 482.985 395.415 483.228 394.076 483.228C392.749 483.228 391.725 483.05 391.002 482.694C390.291 482.339 389.936 481.693 389.936 480.758C389.936 480.011 390.362 479.306 391.215 478.643C390.777 478.347 390.558 477.897 390.558 477.293C390.558 477.056 390.735 476.665 391.091 476.12L391.251 475.871C390.445 475.291 390.042 474.438 390.042 473.312C390.042 472.175 390.38 471.352 391.055 470.842C391.742 470.333 392.649 470.078 393.774 470.078C394.283 470.078 394.787 470.138 395.284 470.256L395.569 470.309L398.429 470.221V472.122L397.097 472.015C397.357 472.418 397.488 472.821 397.488 473.223C397.488 474.408 397.186 475.225 396.581 475.676C395.977 476.126 395.03 476.351 393.738 476.351C393.466 476.351 393.223 476.327 393.01 476.28C392.891 476.588 392.832 476.842 392.832 477.044C392.832 477.233 392.933 477.364 393.134 477.435C393.336 477.506 393.809 477.547 394.556 477.559C396.048 477.571 397.067 477.772 397.612 478.163C398.157 478.542 398.429 479.235 398.429 480.242ZM392.281 480.509C392.281 481.018 392.903 481.273 394.147 481.273C395.403 481.273 396.031 480.977 396.031 480.384C396.031 480.065 395.924 479.857 395.711 479.763C395.498 479.68 395.047 479.632 394.36 479.62L392.761 479.496C392.441 479.816 392.281 480.153 392.281 480.509ZM392.423 473.241C392.423 474.106 392.874 474.538 393.774 474.538C394.686 474.538 395.142 474.106 395.142 473.241C395.142 472.365 394.686 471.926 393.774 471.926C392.874 471.926 392.423 472.365 392.423 473.241ZM399.872 479.141V470.256H402.235V471.198C403.23 470.606 404.178 470.221 405.078 470.043V472.442C404.119 472.643 403.295 472.85 402.608 473.064L402.253 473.188V479.141H399.872ZM408.438 475.711C408.45 476.256 408.592 476.653 408.864 476.902C409.149 477.139 409.551 477.257 410.073 477.257C411.174 477.257 412.158 477.222 413.022 477.15L413.52 477.097L413.555 478.856C412.193 479.188 410.961 479.354 409.859 479.354C408.521 479.354 407.549 478.998 406.945 478.288C406.341 477.577 406.039 476.422 406.039 474.823C406.039 471.636 407.348 470.043 409.966 470.043C412.549 470.043 413.84 471.381 413.84 474.059L413.662 475.711H408.438ZM411.494 473.899C411.494 473.188 411.382 472.696 411.157 472.424C410.932 472.14 410.535 471.997 409.966 471.997C409.409 471.997 409.012 472.145 408.776 472.442C408.55 472.726 408.432 473.212 408.42 473.899H411.494ZM421.921 472.477C420.452 472.288 419.421 472.193 418.829 472.193C418.248 472.193 417.869 472.246 417.691 472.353C417.526 472.459 417.443 472.631 417.443 472.868C417.443 473.093 417.555 473.253 417.78 473.348C418.017 473.431 418.61 473.561 419.557 473.739C420.517 473.905 421.198 474.183 421.601 474.574C422.003 474.965 422.205 475.599 422.205 476.475C422.205 478.394 421.014 479.354 418.633 479.354C417.851 479.354 416.904 479.247 415.79 479.034L415.222 478.927L415.293 476.937C416.762 477.127 417.78 477.222 418.349 477.222C418.929 477.222 419.32 477.168 419.522 477.062C419.735 476.943 419.842 476.771 419.842 476.546C419.842 476.321 419.729 476.155 419.504 476.049C419.291 475.942 418.722 475.812 417.798 475.658C416.886 475.504 416.205 475.243 415.755 474.876C415.304 474.509 415.079 473.857 415.079 472.921C415.079 471.974 415.399 471.263 416.039 470.789C416.679 470.303 417.502 470.061 418.509 470.061C419.208 470.061 420.161 470.173 421.37 470.398L421.956 470.505L421.921 472.477ZM430.302 472.477C428.833 472.288 427.802 472.193 427.21 472.193C426.63 472.193 426.251 472.246 426.073 472.353C425.907 472.459 425.824 472.631 425.824 472.868C425.824 473.093 425.937 473.253 426.162 473.348C426.399 473.431 426.991 473.561 427.939 473.739C428.898 473.905 429.579 474.183 429.982 474.574C430.385 474.965 430.586 475.599 430.586 476.475C430.586 478.394 429.396 479.354 427.015 479.354C426.233 479.354 425.285 479.247 424.172 479.034L423.603 478.927L423.674 476.937C425.143 477.127 426.162 477.222 426.73 477.222C427.311 477.222 427.702 477.168 427.903 477.062C428.116 476.943 428.223 476.771 428.223 476.546C428.223 476.321 428.11 476.155 427.885 476.049C427.672 475.942 427.103 475.812 426.179 475.658C425.267 475.504 424.586 475.243 424.136 474.876C423.686 474.509 423.461 473.857 423.461 472.921C423.461 471.974 423.781 471.263 424.42 470.789C425.06 470.303 425.883 470.061 426.89 470.061C427.589 470.061 428.543 470.173 429.751 470.398L430.337 470.505L430.302 472.477ZM432.304 479.141V470.256H434.685V479.141H432.304ZM432.304 469.119V466.702H434.685V469.119H432.304ZM436.05 470.256H438.538L439.959 477.115H440.457L441.949 470.256H444.366L442.234 479.141H438.182L436.05 470.256ZM447.568 475.711C447.58 476.256 447.722 476.653 447.995 476.902C448.279 477.139 448.682 477.257 449.203 477.257C450.305 477.257 451.288 477.222 452.153 477.15L452.65 477.097L452.686 478.856C451.323 479.188 450.091 479.354 448.99 479.354C447.651 479.354 446.68 478.998 446.076 478.288C445.471 477.577 445.169 476.422 445.169 474.823C445.169 471.636 446.478 470.043 449.096 470.043C451.679 470.043 452.97 471.381 452.97 474.059L452.792 475.711H447.568ZM450.625 473.899C450.625 473.188 450.512 472.696 450.287 472.424C450.062 472.14 449.665 471.997 449.096 471.997C448.54 471.997 448.143 472.145 447.906 472.442C447.681 472.726 447.562 473.212 447.55 473.899H450.625Z" fill="#FF8800"/>
<rect x="0.0078125" y="392.188" width="151.479" height="44.2261" rx="22.1131" fill="#1EA614" fill-opacity="0.1"/>
<path d="M34.9732 420.601C33.7176 420.874 32.5862 421.01 31.5793 421.01C30.5724 421.01 29.7669 420.886 29.1627 420.637C28.5586 420.388 28.0847 419.991 27.7412 419.446C27.3977 418.901 27.1607 418.262 27.0304 417.527C26.9001 416.793 26.835 415.869 26.835 414.755C26.835 412.422 27.1607 410.799 27.8123 409.887C28.4756 408.963 29.6899 408.501 31.4549 408.501C32.4737 408.501 33.6524 408.661 34.991 408.98L34.9199 410.935C33.7472 410.757 32.7699 410.668 31.988 410.668C31.218 410.668 30.6672 410.775 30.3355 410.988C30.0038 411.19 29.755 411.581 29.5892 412.161C29.4352 412.742 29.3582 413.731 29.3582 415.129C29.3582 416.526 29.5181 417.498 29.838 418.043C30.1696 418.576 30.8212 418.842 31.7926 418.842C32.7758 418.842 33.8182 418.759 34.9199 418.593L34.9732 420.601ZM37.0905 412.925C37.7184 412.108 38.7668 411.699 40.2357 411.699C41.7046 411.699 42.753 412.108 43.3808 412.925C44.0087 413.731 44.3226 414.868 44.3226 416.337C44.3226 419.452 42.9603 421.01 40.2357 421.01C37.5111 421.01 36.1488 419.452 36.1488 416.337C36.1488 414.868 36.4627 413.731 37.0905 412.925ZM38.9208 418.345C39.1695 418.771 39.6078 418.984 40.2357 418.984C40.8635 418.984 41.2959 418.771 41.5328 418.345C41.7816 417.918 41.906 417.249 41.906 416.337C41.906 415.425 41.7816 414.761 41.5328 414.347C41.2959 413.932 40.8635 413.725 40.2357 413.725C39.6078 413.725 39.1695 413.932 38.9208 414.347C38.6838 414.761 38.5654 415.425 38.5654 416.337C38.5654 417.249 38.6838 417.918 38.9208 418.345ZM48.4491 420.797H46.068V411.912H48.4313V412.41C49.2368 411.936 49.9772 411.699 50.6524 411.699C51.8371 411.699 52.6544 412.049 53.1046 412.747C53.5547 413.446 53.7798 414.524 53.7798 415.981V420.797H51.3987V416.053C51.3987 415.294 51.3099 414.738 51.1322 414.382C50.9545 414.015 50.5991 413.831 50.0661 413.831C49.5804 413.831 49.1125 413.914 48.6623 414.08L48.4491 414.151V420.797ZM62.2688 414.133C60.7998 413.944 59.7692 413.849 59.1769 413.849C58.5965 413.849 58.2174 413.902 58.0397 414.009C57.8739 414.116 57.7909 414.287 57.7909 414.524C57.7909 414.749 57.9035 414.909 58.1285 415.004C58.3655 415.087 58.9578 415.217 59.9055 415.395C60.865 415.561 61.5461 415.839 61.9489 416.23C62.3517 416.621 62.5531 417.255 62.5531 418.132C62.5531 420.051 61.3625 421.01 58.9815 421.01C58.1996 421.01 57.2519 420.903 56.1384 420.69L55.5698 420.584L55.6409 418.593C57.1098 418.783 58.1285 418.878 58.6972 418.878C59.2776 418.878 59.6685 418.824 59.8699 418.718C60.0832 418.599 60.1898 418.428 60.1898 418.203C60.1898 417.978 60.0772 417.812 59.8522 417.705C59.6389 417.598 59.0703 417.468 58.1463 417.314C57.2342 417.16 56.553 416.9 56.1029 416.532C55.6527 416.165 55.4276 415.514 55.4276 414.578C55.4276 413.63 55.7475 412.919 56.3872 412.445C57.0269 411.96 57.8502 411.717 58.8571 411.717C59.556 411.717 60.5096 411.829 61.7179 412.054L62.3043 412.161L62.2688 414.133ZM66.2256 417.367C66.2374 417.912 66.3796 418.309 66.652 418.558C66.9364 418.795 67.3391 418.913 67.8604 418.913C68.962 418.913 69.9453 418.878 70.81 418.807L71.3076 418.753L71.3431 420.513C69.9808 420.844 68.7488 421.01 67.6471 421.01C66.3085 421.01 65.3371 420.655 64.733 419.944C64.1288 419.233 63.8268 418.078 63.8268 416.479C63.8268 413.292 65.1357 411.699 67.7537 411.699C70.3362 411.699 71.6274 413.038 71.6274 415.715L71.4497 417.367H66.2256ZM69.2819 415.555C69.2819 414.844 69.1693 414.353 68.9443 414.08C68.7192 413.796 68.3224 413.654 67.7537 413.654C67.197 413.654 66.8001 413.802 66.5632 414.098C66.3381 414.382 66.2197 414.868 66.2078 415.555H69.2819ZM73.3291 420.797V411.912H75.6924V412.854C76.6875 412.262 77.6352 411.877 78.5355 411.699V414.098C77.5759 414.299 76.7526 414.507 76.0655 414.72L75.7102 414.844V420.797H73.3291ZM79.1053 411.912H81.593L83.0145 418.771H83.5121L85.0047 411.912H87.4213L85.289 420.797H81.2376L79.1053 411.912ZM95.4918 414.684V418.38C95.5155 418.665 95.5629 418.866 95.634 418.984C95.705 419.091 95.8531 419.168 96.0782 419.215L96.0071 421.01C95.403 421.01 94.9173 420.969 94.5501 420.886C94.1947 420.803 93.8334 420.637 93.4661 420.388C92.6132 420.803 91.7425 421.01 90.8541 421.01C89.0179 421.01 88.0998 420.039 88.0998 418.096C88.0998 417.148 88.3545 416.479 88.8639 416.088C89.3733 415.685 90.1551 415.448 91.2095 415.377L93.1108 415.235V414.684C93.1108 414.317 93.0278 414.068 92.862 413.938C92.6961 413.796 92.4296 413.725 92.0624 413.725L88.7218 413.867L88.6507 412.214C89.9182 411.871 91.1206 411.699 92.2578 411.699C93.4069 411.699 94.2302 411.936 94.7277 412.41C95.2371 412.884 95.4918 413.642 95.4918 414.684ZM91.4938 417.03C90.8304 417.089 90.4987 417.444 90.4987 418.096C90.4987 418.747 90.7889 419.073 91.3694 419.073C91.8195 419.073 92.3111 419.002 92.8442 418.86L93.1108 418.789V416.888L91.4938 417.03ZM102.684 413.938H100.498V417.581C100.498 417.936 100.504 418.191 100.516 418.345C100.54 418.487 100.605 418.611 100.711 418.718C100.83 418.824 101.008 418.878 101.244 418.878L102.595 418.842L102.702 420.744C101.908 420.921 101.304 421.01 100.889 421.01C99.8229 421.01 99.0944 420.773 98.7035 420.299C98.3125 419.814 98.1171 418.925 98.1171 417.634V413.938H97.0687V411.912H98.1171V409.442H100.498V411.912H102.684V413.938ZM104.234 420.797V411.912H106.615V420.797H104.234ZM104.234 410.775V408.358H106.615V410.775H104.234ZM107.98 411.912H110.468L111.889 418.771H112.387L113.88 411.912H116.296L114.164 420.797H110.113L107.98 411.912ZM119.498 417.367C119.51 417.912 119.652 418.309 119.925 418.558C120.209 418.795 120.612 418.913 121.133 418.913C122.235 418.913 123.218 418.878 124.083 418.807L124.58 418.753L124.616 420.513C123.254 420.844 122.022 421.01 120.92 421.01C119.581 421.01 118.61 420.655 118.006 419.944C117.402 419.233 117.1 418.078 117.1 416.479C117.1 413.292 118.409 411.699 121.027 411.699C123.609 411.699 124.9 413.038 124.9 415.715L124.723 417.367H119.498ZM122.555 415.555C122.555 414.844 122.442 414.353 122.217 414.08C121.992 413.796 121.595 413.654 121.027 413.654C120.47 413.654 120.073 413.802 119.836 414.098C119.611 414.382 119.492 414.868 119.481 415.555H122.555Z" fill="#1EA614"/>
<rect x="0.0078125" y="450.531" width="237.997" height="44.2261" rx="22.1131" fill="#9FCC00" fill-opacity="0.1"/>
<path d="M24.4664 479.141V467.058H28.6422L30.7745 475.871L32.9068 467.058H37.0825V479.141H34.6304V469.794H34.3638L32.0005 478.608H29.5484L27.1851 469.794H26.9186V479.141H24.4664ZM39.8819 471.269C40.5097 470.452 41.5581 470.043 43.027 470.043C44.4959 470.043 45.5443 470.452 46.1721 471.269C46.8 472.074 47.1139 473.212 47.1139 474.681C47.1139 477.796 45.7516 479.354 43.027 479.354C40.3024 479.354 38.9401 477.796 38.9401 474.681C38.9401 473.212 39.254 472.074 39.8819 471.269ZM41.7121 476.688C41.9609 477.115 42.3992 477.328 43.027 477.328C43.6549 477.328 44.0872 477.115 44.3242 476.688C44.5729 476.262 44.6973 475.593 44.6973 474.681C44.6973 473.768 44.5729 473.105 44.3242 472.69C44.0872 472.276 43.6549 472.068 43.027 472.068C42.3992 472.068 41.9609 472.276 41.7121 472.69C41.4752 473.105 41.3567 473.768 41.3567 474.681C41.3567 475.593 41.4752 476.262 41.7121 476.688ZM56.4112 466.702V479.141H54.0479V478.767C53.2187 479.158 52.502 479.354 51.8978 479.354C50.6066 479.354 49.7063 478.981 49.1969 478.234C48.6876 477.488 48.4329 476.309 48.4329 474.698C48.4329 473.075 48.7349 471.897 49.3391 471.162C49.9551 470.416 50.8791 470.043 52.1111 470.043C52.4902 470.043 53.0173 470.102 53.6925 470.221L54.0301 470.292V466.702H56.4112ZM53.7814 477.008L54.0301 476.955V472.282C53.3786 472.163 52.7982 472.104 52.2888 472.104C51.3292 472.104 50.8495 472.957 50.8495 474.663C50.8495 475.587 50.9561 476.244 51.1693 476.635C51.3825 477.026 51.732 477.222 52.2177 477.222C52.7152 477.222 53.2365 477.15 53.7814 477.008ZM60.5661 475.711C60.578 476.256 60.7201 476.653 60.9926 476.902C61.2769 477.139 61.6797 477.257 62.2009 477.257C63.3026 477.257 64.2858 477.222 65.1506 477.15L65.6481 477.097L65.6837 478.856C64.3214 479.188 63.0894 479.354 61.9877 479.354C60.6491 479.354 59.6777 478.998 59.0735 478.288C58.4694 477.577 58.1673 476.422 58.1673 474.823C58.1673 471.636 59.4763 470.043 62.0943 470.043C64.6767 470.043 65.968 471.381 65.968 474.059L65.7903 475.711H60.5661ZM63.6224 473.899C63.6224 473.188 63.5099 472.696 63.2848 472.424C63.0598 472.14 62.6629 471.997 62.0943 471.997C61.5375 471.997 61.1407 472.145 60.9038 472.442C60.6787 472.726 60.5602 473.212 60.5484 473.899H63.6224ZM67.6696 479.141V470.256H70.0329V471.198C71.028 470.606 71.9757 470.221 72.876 470.043V472.442C71.9165 472.643 71.0932 472.85 70.4061 473.064L70.0507 473.188V479.141H67.6696ZM81.0866 473.028V476.724C81.1103 477.008 81.1577 477.21 81.2288 477.328C81.2998 477.435 81.4479 477.512 81.673 477.559L81.6019 479.354C80.9978 479.354 80.5121 479.312 80.1448 479.229C79.7895 479.147 79.4282 478.981 79.0609 478.732C78.208 479.147 77.3373 479.354 76.4489 479.354C74.6127 479.354 73.6946 478.382 73.6946 476.44C73.6946 475.492 73.9493 474.823 74.4587 474.432C74.9681 474.029 75.7499 473.792 76.8042 473.721L78.7055 473.579V473.028C78.7055 472.661 78.6226 472.412 78.4568 472.282C78.2909 472.14 78.0244 472.068 77.6572 472.068L74.3166 472.211L74.2455 470.558C75.513 470.215 76.7154 470.043 77.8526 470.043C79.0017 470.043 79.825 470.28 80.3225 470.754C80.8319 471.227 81.0866 471.986 81.0866 473.028ZM77.0885 475.374C76.4252 475.433 76.0935 475.788 76.0935 476.44C76.0935 477.091 76.3837 477.417 76.9642 477.417C77.4143 477.417 77.9059 477.346 78.439 477.204L78.7055 477.133V475.231L77.0885 475.374ZM88.2785 472.282H86.0929V475.924C86.0929 476.28 86.0989 476.534 86.1107 476.688C86.1344 476.831 86.1995 476.955 86.3062 477.062C86.4246 477.168 86.6023 477.222 86.8392 477.222L88.1897 477.186L88.2963 479.087C87.5026 479.265 86.8985 479.354 86.4839 479.354C85.4177 479.354 84.6892 479.117 84.2982 478.643C83.9073 478.157 83.7119 477.269 83.7119 475.978V472.282H82.6635V470.256H83.7119V467.786H86.0929V470.256H88.2785V472.282ZM91.7837 475.711C91.7955 476.256 91.9377 476.653 92.2101 476.902C92.4944 477.139 92.8972 477.257 93.4184 477.257C94.5201 477.257 95.5033 477.222 96.3681 477.15L96.8656 477.097L96.9012 478.856C95.5389 479.188 94.3069 479.354 93.2052 479.354C91.8666 479.354 90.8952 478.998 90.291 478.288C89.6869 477.577 89.3848 476.422 89.3848 474.823C89.3848 471.636 90.6938 470.043 93.3118 470.043C95.8943 470.043 97.1855 471.381 97.1855 474.059L97.0078 475.711H91.7837ZM94.8399 473.899C94.8399 473.188 94.7274 472.696 94.5023 472.424C94.2773 472.14 93.8804 471.997 93.3118 471.997C92.755 471.997 92.3582 472.145 92.1213 472.442C91.8962 472.726 91.7777 473.212 91.7659 473.899H94.8399ZM98.9938 479.141V466.702H101.375V479.141H98.9938ZM102.859 470.256H105.205L106.822 477.115H107.23L108.847 470.256H111.193L108.065 482.872H105.738L106.715 479.141H105.045L102.859 470.256ZM124.337 478.945C123.081 479.218 121.95 479.354 120.943 479.354C119.936 479.354 119.131 479.229 118.527 478.981C117.923 478.732 117.449 478.335 117.105 477.79C116.762 477.245 116.525 476.606 116.394 475.871C116.264 475.137 116.199 474.213 116.199 473.099C116.199 470.765 116.525 469.143 117.176 468.23C117.84 467.306 119.054 466.844 120.819 466.844C121.838 466.844 123.016 467.004 124.355 467.324L124.284 469.279C123.111 469.101 122.134 469.012 121.352 469.012C120.582 469.012 120.031 469.119 119.699 469.332C119.368 469.533 119.119 469.924 118.953 470.505C118.799 471.085 118.722 472.074 118.722 473.472C118.722 474.87 118.882 475.841 119.202 476.386C119.534 476.919 120.185 477.186 121.156 477.186C122.14 477.186 123.182 477.103 124.284 476.937L124.337 478.945ZM126.454 471.269C127.082 470.452 128.131 470.043 129.6 470.043C131.069 470.043 132.117 470.452 132.745 471.269C133.373 472.074 133.687 473.212 133.687 474.681C133.687 477.796 132.324 479.354 129.6 479.354C126.875 479.354 125.513 477.796 125.513 474.681C125.513 473.212 125.827 472.074 126.454 471.269ZM128.285 476.688C128.533 477.115 128.972 477.328 129.6 477.328C130.227 477.328 130.66 477.115 130.897 476.688C131.146 476.262 131.27 475.593 131.27 474.681C131.27 473.768 131.146 473.105 130.897 472.69C130.66 472.276 130.227 472.068 129.6 472.068C128.972 472.068 128.533 472.276 128.285 472.69C128.048 473.105 127.929 473.768 127.929 474.681C127.929 475.593 128.048 476.262 128.285 476.688ZM137.813 479.141H135.432V470.256H137.795V470.754C138.601 470.28 139.341 470.043 140.016 470.043C141.201 470.043 142.018 470.392 142.469 471.091C142.919 471.79 143.144 472.868 143.144 474.325V479.141H140.763V474.396C140.763 473.638 140.674 473.081 140.496 472.726C140.318 472.359 139.963 472.175 139.43 472.175C138.944 472.175 138.476 472.258 138.026 472.424L137.813 472.495V479.141ZM151.633 472.477C150.164 472.288 149.133 472.193 148.541 472.193C147.96 472.193 147.581 472.246 147.404 472.353C147.238 472.459 147.155 472.631 147.155 472.868C147.155 473.093 147.267 473.253 147.492 473.348C147.729 473.431 148.322 473.561 149.269 473.739C150.229 473.905 150.91 474.183 151.313 474.574C151.716 474.965 151.917 475.599 151.917 476.475C151.917 478.394 150.726 479.354 148.345 479.354C147.564 479.354 146.616 479.247 145.502 479.034L144.934 478.927L145.005 476.937C146.474 477.127 147.492 477.222 148.061 477.222C148.642 477.222 149.032 477.168 149.234 477.062C149.447 476.943 149.554 476.771 149.554 476.546C149.554 476.321 149.441 476.155 149.216 476.049C149.003 475.942 148.434 475.812 147.51 475.658C146.598 475.504 145.917 475.243 145.467 474.876C145.017 474.509 144.792 473.857 144.792 472.921C144.792 471.974 145.111 471.263 145.751 470.789C146.391 470.303 147.214 470.061 148.221 470.061C148.92 470.061 149.874 470.173 151.082 470.398L151.668 470.505L151.633 472.477ZM155.59 475.711C155.601 476.256 155.744 476.653 156.016 476.902C156.3 477.139 156.703 477.257 157.224 477.257C158.326 477.257 159.309 477.222 160.174 477.15L160.671 477.097L160.707 478.856C159.345 479.188 158.113 479.354 157.011 479.354C155.672 479.354 154.701 478.998 154.097 478.288C153.493 477.577 153.191 476.422 153.191 474.823C153.191 471.636 154.5 470.043 157.118 470.043C159.7 470.043 160.991 471.381 160.991 474.059L160.814 475.711H155.59ZM158.646 473.899C158.646 473.188 158.533 472.696 158.308 472.424C158.083 472.14 157.686 471.997 157.118 471.997C156.561 471.997 156.164 472.145 155.927 472.442C155.702 472.726 155.584 473.212 155.572 473.899H158.646ZM162.693 479.141V470.256H165.056V471.198C166.051 470.606 166.999 470.221 167.899 470.043V472.442C166.94 472.643 166.117 472.85 165.429 473.064L165.074 473.188V479.141H162.693ZM168.469 470.256H170.957L172.378 477.115H172.876L174.369 470.256H176.785L174.653 479.141H170.602L168.469 470.256ZM184.856 473.028V476.724C184.879 477.008 184.927 477.21 184.998 477.328C185.069 477.435 185.217 477.512 185.442 477.559L185.371 479.354C184.767 479.354 184.281 479.312 183.914 479.229C183.559 479.147 183.197 478.981 182.83 478.732C181.977 479.147 181.106 479.354 180.218 479.354C178.382 479.354 177.464 478.382 177.464 476.44C177.464 475.492 177.718 474.823 178.228 474.432C178.737 474.029 179.519 473.792 180.573 473.721L182.475 473.579V473.028C182.475 472.661 182.392 472.412 182.226 472.282C182.06 472.14 181.794 472.068 181.426 472.068L178.086 472.211L178.015 470.558C179.282 470.215 180.485 470.043 181.622 470.043C182.771 470.043 183.594 470.28 184.092 470.754C184.601 471.227 184.856 471.986 184.856 473.028ZM180.858 475.374C180.194 475.433 179.863 475.788 179.863 476.44C179.863 477.091 180.153 477.417 180.733 477.417C181.183 477.417 181.675 477.346 182.208 477.204L182.475 477.133V475.231L180.858 475.374ZM192.048 472.282H189.862V475.924C189.862 476.28 189.868 476.534 189.88 476.688C189.904 476.831 189.969 476.955 190.075 477.062C190.194 477.168 190.371 477.222 190.608 477.222L191.959 477.186L192.065 479.087C191.272 479.265 190.668 479.354 190.253 479.354C189.187 479.354 188.458 479.117 188.067 478.643C187.676 478.157 187.481 477.269 187.481 475.978V472.282H186.433V470.256H187.481V467.786H189.862V470.256H192.048V472.282ZM193.598 479.141V470.256H195.979V479.141H193.598ZM193.598 469.119V466.702H195.979V469.119H193.598ZM197.344 470.256H199.832L201.253 477.115H201.751L203.244 470.256H205.66L203.528 479.141H199.476L197.344 470.256ZM208.862 475.711C208.874 476.256 209.016 476.653 209.289 476.902C209.573 477.139 209.976 477.257 210.497 477.257C211.599 477.257 212.582 477.222 213.447 477.15L213.944 477.097L213.98 478.856C212.618 479.188 211.386 479.354 210.284 479.354C208.945 479.354 207.974 478.998 207.37 478.288C206.766 477.577 206.463 476.422 206.463 474.823C206.463 471.636 207.772 470.043 210.39 470.043C212.973 470.043 214.264 471.381 214.264 474.059L214.086 475.711H208.862ZM211.919 473.899C211.919 473.188 211.806 472.696 211.581 472.424C211.356 472.14 210.959 471.997 210.39 471.997C209.834 471.997 209.437 472.145 209.2 472.442C208.975 472.726 208.856 473.212 208.845 473.899H211.919Z" fill="#9FCC00"/>
<rect x="325.406" y="392.188" width="151.479" height="44.2261" rx="22.1131" fill="#FEAF00" fill-opacity="0.1"/>
<path d="M367.333 408.714H372.077C373.333 408.714 374.275 408.969 374.902 409.478C375.53 409.975 375.844 410.787 375.844 411.912C375.844 412.588 375.744 413.127 375.542 413.529C375.341 413.92 374.997 414.27 374.512 414.578C375.045 414.803 375.436 415.129 375.684 415.555C375.945 415.981 376.075 416.574 376.075 417.332C376.075 418.505 375.732 419.375 375.045 419.944C374.358 420.513 373.392 420.797 372.148 420.797H367.333V408.714ZM372.024 415.75H369.785V418.7H372.024C372.557 418.7 372.948 418.593 373.197 418.38C373.457 418.167 373.588 417.776 373.588 417.208C373.588 416.236 373.066 415.75 372.024 415.75ZM371.953 410.811H369.785V413.689H371.971C372.895 413.689 373.357 413.209 373.357 412.25C373.357 411.29 372.889 410.811 371.953 410.811ZM384.753 414.684V418.38C384.777 418.665 384.824 418.866 384.895 418.984C384.966 419.091 385.115 419.168 385.34 419.215L385.269 421.01C384.664 421.01 384.179 420.969 383.811 420.886C383.456 420.803 383.095 420.637 382.728 420.388C381.875 420.803 381.004 421.01 380.116 421.01C378.279 421.01 377.361 420.039 377.361 418.096C377.361 417.148 377.616 416.479 378.125 416.088C378.635 415.685 379.417 415.448 380.471 415.377L382.372 415.235V414.684C382.372 414.317 382.289 414.068 382.123 413.938C381.958 413.796 381.691 413.725 381.324 413.725L377.983 413.867L377.912 412.214C379.18 411.871 380.382 411.699 381.519 411.699C382.668 411.699 383.492 411.936 383.989 412.41C384.499 412.884 384.753 413.642 384.753 414.684ZM380.755 417.03C380.092 417.089 379.76 417.444 379.76 418.096C379.76 418.747 380.05 419.073 380.631 419.073C381.081 419.073 381.573 419.002 382.106 418.86L382.372 418.789V416.888L380.755 417.03ZM387.13 420.797V408.358H389.511V420.797H387.13ZM398.618 414.684V418.38C398.642 418.665 398.689 418.866 398.76 418.984C398.831 419.091 398.979 419.168 399.204 419.215L399.133 421.01C398.529 421.01 398.044 420.969 397.676 420.886C397.321 420.803 396.96 420.637 396.592 420.388C395.739 420.803 394.869 421.01 393.98 421.01C392.144 421.01 391.226 420.039 391.226 418.096C391.226 417.148 391.481 416.479 391.99 416.088C392.5 415.685 393.281 415.448 394.336 415.377L396.237 415.235V414.684C396.237 414.317 396.154 414.068 395.988 413.938C395.822 413.796 395.556 413.725 395.189 413.725L391.848 413.867L391.777 412.214C393.044 411.871 394.247 411.699 395.384 411.699C396.533 411.699 397.356 411.936 397.854 412.41C398.363 412.884 398.618 413.642 398.618 414.684ZM394.62 417.03C393.957 417.089 393.625 417.444 393.625 418.096C393.625 418.747 393.915 419.073 394.496 419.073C394.946 419.073 395.437 419.002 395.97 418.86L396.237 418.789V416.888L394.62 417.03ZM403.269 420.797H400.888V411.912H403.251V412.41C404.057 411.936 404.797 411.699 405.472 411.699C406.657 411.699 407.474 412.049 407.925 412.747C408.375 413.446 408.6 414.524 408.6 415.981V420.797H406.219V416.053C406.219 415.294 406.13 414.738 405.952 414.382C405.774 414.015 405.419 413.831 404.886 413.831C404.4 413.831 403.932 413.914 403.482 414.08L403.269 414.151V420.797ZM414.032 411.699C414.648 411.699 415.436 411.794 416.396 411.983L416.875 412.09L416.804 413.974C415.869 413.879 415.176 413.831 414.725 413.831C413.908 413.831 413.363 414.009 413.091 414.364C412.83 414.708 412.7 415.365 412.7 416.337C412.7 417.308 412.83 417.978 413.091 418.345C413.363 418.7 413.914 418.878 414.743 418.878L416.804 418.736L416.875 420.637C415.608 420.886 414.642 421.01 413.979 421.01C412.664 421.01 411.716 420.643 411.136 419.908C410.567 419.162 410.283 417.972 410.283 416.337C410.283 414.702 410.579 413.523 411.172 412.801C411.764 412.066 412.717 411.699 414.032 411.699ZM420.525 417.367C420.537 417.912 420.679 418.309 420.951 418.558C421.236 418.795 421.638 418.913 422.16 418.913C423.261 418.913 424.245 418.878 425.109 418.807L425.607 418.753L425.642 420.513C424.28 420.844 423.048 421.01 421.946 421.01C420.608 421.01 419.636 420.655 419.032 419.944C418.428 419.233 418.126 418.078 418.126 416.479C418.126 413.292 419.435 411.699 422.053 411.699C424.636 411.699 425.927 413.038 425.927 415.715L425.749 417.367H420.525ZM423.581 415.555C423.581 414.844 423.469 414.353 423.244 414.08C423.019 413.796 422.622 413.654 422.053 413.654C421.496 413.654 421.099 413.802 420.863 414.098C420.637 414.382 420.519 414.868 420.507 415.555H423.581ZM435.18 408.358V420.797H432.817V420.424C431.988 420.815 431.271 421.01 430.667 421.01C429.376 421.01 428.475 420.637 427.966 419.891C427.457 419.144 427.202 417.966 427.202 416.355C427.202 414.732 427.504 413.553 428.108 412.819C428.724 412.072 429.648 411.699 430.88 411.699C431.259 411.699 431.786 411.758 432.462 411.877L432.799 411.948V408.358H435.18ZM432.551 418.665L432.799 418.611V413.938C432.148 413.82 431.567 413.76 431.058 413.76C430.098 413.76 429.619 414.613 429.619 416.319C429.619 417.243 429.725 417.901 429.938 418.291C430.152 418.682 430.501 418.878 430.987 418.878C431.484 418.878 432.006 418.807 432.551 418.665Z" fill="#FEAF00"/>
<mask id="mask0_3776_6794" style="mask-type:alpha" maskUnits="userSpaceOnUse" x="-1" y="-2" width="482" height="335">
<rect x="0.41222" y="-1.00184" width="478.881" height="332.612" fill="#D9D9D9" stroke="black" stroke-width="2.00369"/>
</mask>
<g mask="url(#mask0_3776_6794)">
<path d="M366.497 187.204C373.565 204.183 377.211 222.395 377.227 240.79C377.242 259.186 373.626 277.403 366.587 294.394L457.947 330.853C469.955 302.05 476.141 271.147 476.146 239.933C476.152 208.72 469.978 177.815 457.981 149.007C457.82 148.62 457.659 148.233 457.513 147.882L365.966 186.023C366.141 186.445 366.337 186.818 366.497 187.204Z" fill="#FE2A00"/>
<path d="M365.998 186.073L457.511 147.946C433.789 91.421 389.011 46.3768 332.678 22.3707L294.303 113.088C326.583 127.421 352.214 153.513 365.998 186.073Z" fill="#FF8800"/>
<path d="M190.723 108.999C224.49 96.9648 261.59 98.4365 294.301 113.108L332.676 22.3905C275.875 -2.00699 211.77 -3.04514 154.21 19.5004L190.708 108.964L190.723 108.999Z" fill="#FEAF00"/>
<path d="M183.613 111.697C185.93 110.732 188.247 109.766 190.722 108.983L154.223 19.519C152.538 20.2209 150.889 20.9083 149.169 21.6249C119.549 33.942 92.7501 52.1834 70.4127 75.2327C48.0754 98.282 30.6692 125.654 19.2596 155.674C38.7202 164.063 81.6993 183.274 105.735 194.251C112.219 175.795 122.502 158.909 135.918 144.688C149.334 130.466 165.583 119.227 183.613 111.697Z" fill="#9FCC00"/>
<path d="M108.01 293.904C94.9834 262.122 94.1335 226.641 105.623 194.27L19.2092 155.543C-2.37577 211.858 -1.58959 274.317 21.4059 330.068C38.2111 323.438 78.2107 306.525 108.01 293.904Z" fill="#1EA614"/>
<path d="M192.075 231.572C200.862 202.881 231.207 186.758 259.852 195.559C288.498 204.36 304.596 234.752 295.809 263.442C287.022 292.133 256.677 308.256 228.031 299.455C199.386 290.654 183.288 260.262 192.075 231.572Z" fill="#E0E0E0"/>
<path d="M240.545 265.928C238.528 265.791 236.559 265.252 234.752 264.343C232.946 263.434 231.338 262.174 230.023 260.635C228.709 259.097 227.714 257.311 227.097 255.383C226.479 253.455 226.252 251.423 226.428 249.405L240.732 53.489L257.139 249.242C257.33 251.476 257.033 253.724 256.267 255.831C255.502 257.938 254.287 259.852 252.707 261.441C251.128 263.029 249.221 264.253 247.121 265.029C245.02 265.804 242.777 266.111 240.545 265.928Z" fill="#023373"/>
<path d="M176.961 142.201C177.216 142.103 177.456 141.968 177.672 141.8L179.763 140.525C180.695 139.994 181.77 139.24 183.12 138.481L188.071 135.793C189.871 134.828 192.019 133.815 194.157 132.888C196.295 131.96 198.907 130.93 201.603 129.91C207.745 127.735 214.052 126.058 220.462 124.894C237.131 121.971 254.239 122.771 270.565 127.235C280.2 129.915 289.407 133.954 297.908 139.231C316.268 150.605 331.052 166.938 340.557 186.353C344.987 195.34 348.104 204.918 349.812 214.794C352.681 231.559 351.8 248.753 347.234 265.136C345.436 271.39 343.159 277.495 340.424 283.398C339.163 285.983 337.941 288.366 336.779 290.515C335.618 292.665 334.411 294.604 333.285 296.278C332.159 297.952 331.22 299.476 330.353 300.819C329.486 302.162 328.645 303.113 328.065 303.871C327.485 304.629 327.074 305.406 326.584 305.814C326.393 306.02 326.239 306.258 326.13 306.518L326.584 305.814C326.894 305.335 327.327 304.663 328.108 303.945C328.889 303.226 329.664 302.096 330.492 300.954C331.32 299.812 332.309 298.14 333.615 296.538C334.922 294.935 335.928 292.956 337.269 290.878C338.611 288.8 339.726 286.302 341.019 283.739C343.857 277.823 346.202 271.682 348.029 265.379C352.725 248.901 353.684 231.58 350.833 214.684C349.129 204.716 345.992 195.048 341.522 185.98C331.956 166.384 317.033 149.909 298.488 138.473C289.918 133.155 280.631 129.095 270.912 126.416C254.394 121.92 237.082 121.181 220.242 124.253C213.793 125.458 207.448 127.171 201.268 129.376C198.572 130.396 196.098 131.424 193.813 132.438C191.528 133.452 189.538 134.431 187.77 135.417L183.062 138.081C181.723 138.892 180.648 139.646 179.728 140.229L177.711 141.599C177.445 141.779 177.194 141.98 176.961 142.201Z" fill="#263238"/>
<path d="M198.814 149.701C199.309 149.595 199.791 149.436 200.252 149.227C201.176 148.918 202.496 148.277 204.27 147.703C209.179 145.854 214.23 144.409 219.374 143.383C232.627 140.666 246.305 140.8 259.503 143.774C272.701 146.748 285.118 152.496 295.932 160.637C302.203 165.327 307.903 170.738 312.914 176.76C316.302 180.809 319.36 185.125 322.058 189.665C323.029 191.246 323.669 192.568 324.177 193.396C324.401 193.85 324.668 194.281 324.975 194.684C324.822 194.203 324.621 193.739 324.376 193.298C323.942 192.427 323.354 191.094 322.339 189.439C319.756 184.775 316.765 180.349 313.402 176.214C304.865 165.538 294.126 156.835 281.921 150.698C269.716 144.562 256.332 141.138 242.684 140.659C234.799 140.339 226.906 141 219.184 142.625C213.979 143.693 208.877 145.213 203.935 147.169C202.184 147.848 200.896 148.51 199.963 148.904C199.03 149.297 198.814 149.701 198.814 149.701Z" fill="#263238"/>
</g>
</svg>
