<svg width="56" height="56" viewBox="0 0 56 56" fill="none" xmlns="http://www.w3.org/2000/svg">
<path d="M11.7189 37.5946V21.2865H14.9805V37.5946H11.7189ZM23.6781 37.5946V21.2865H26.9397V37.5946H23.6781ZM5.25 16.9377V13.8392L25.3089 4L45.3678 13.8392V16.9377H5.25ZM12.9691 13.6761H37.6486L25.3089 7.69649L12.9691 13.6761ZM5.25 45.205V41.9434H30.4187C30.455 42.5232 30.5188 43.0755 30.6101 43.6003C30.7 44.1265 30.8174 44.6614 30.9623 45.205H5.25ZM35.6373 30.5277V21.2865H38.8989V28.8969L35.6373 30.5277ZM42.7041 52C40.3848 51.4202 38.464 50.0887 36.942 48.0056C35.4199 45.9211 34.6588 43.6104 34.6588 41.0736V35.9094L42.7041 31.8867L50.7494 35.9094V41.0736C50.7494 43.6104 49.9884 45.9211 48.4663 48.0056C46.9442 50.0887 45.0235 51.4202 42.7041 52ZM41.1277 45.8573L48.1945 38.7905L46.4006 36.9422L41.1277 42.1608L39.0076 40.0408L37.1594 41.889L41.1277 45.8573Z" fill="#4CA771"/>
</svg>
