<svg width="18" height="18" viewBox="0 0 18 18" fill="none" xmlns="http://www.w3.org/2000/svg">
<path d="M16.5484 17.575L10.2484 11.3C9.74844 11.7167 9.17344 12.0417 8.52344 12.275C7.87344 12.5083 7.20677 12.625 6.52344 12.625C4.80677 12.625 3.35677 12.0333 2.17344 10.85C0.990104 9.66667 0.398438 8.21667 0.398438 6.5C0.398438 4.8 0.990104 3.354 2.17344 2.162C3.35677 0.970667 4.80677 0.375 6.52344 0.375C8.22344 0.375 9.6651 0.966667 10.8484 2.15C12.0318 3.33333 12.6234 4.78333 12.6234 6.5C12.6234 7.21667 12.5068 7.9 12.2734 8.55C12.0401 9.2 11.7234 9.76667 11.3234 10.25L17.5984 16.525L16.5484 17.575ZM6.52344 11.125C7.80677 11.125 8.89444 10.675 9.78644 9.775C10.6778 8.875 11.1234 7.78333 11.1234 6.5C11.1234 5.21667 10.6778 4.125 9.78644 3.225C8.89444 2.325 7.80677 1.875 6.52344 1.875C5.22344 1.875 4.12777 2.325 3.23644 3.225C2.34444 4.125 1.89844 5.21667 1.89844 6.5C1.89844 7.78333 2.34444 8.875 3.23644 9.775C4.12777 10.675 5.22344 11.125 6.52344 11.125Z" fill="#999999"/>
</svg>
