<svg width="195" height="36" viewBox="0 0 195 36" fill="none" xmlns="http://www.w3.org/2000/svg">
<path fillRule="evenodd" clipRule="evenodd" d="M0 18C0 26.9 6.5 34.3 15 35.8L15.1003 35.7197C15.0669 35.7133 15.0334 35.7067 15 35.7V23H10.5V18H15V14C15 9.5 17.9 7 22 7C23.3 7 24.7 7.2 26 7.4V12H23.7C21.5 12 21 13.1 21 14.5V18H25.8L25 23H21V35.7C20.9666 35.7067 20.9331 35.7133 20.8997 35.7197L21 35.8C29.5 34.3 36 26.9 36 18C36 8.1 27.9 0 18 0C8.1 0 0 8.1 0 18Z" fill="white"/>
<path fillRule="evenodd" clipRule="evenodd" d="M86.4524 7.9175C86.466 8.26727 86.4705 8.6169 86.4705 8.96667C86.4705 19.5711 79.0108 31.8132 65.3697 31.8132C61.1793 31.8132 57.2829 30.4777 54 28.2042C54.5803 28.2678 55.1697 28.3156 55.7681 28.3156C59.2424 28.3156 62.4425 27.0275 64.9808 24.8653C61.7355 24.8176 58.9953 22.4805 58.0502 19.3008C58.5039 19.3962 58.9711 19.444 59.4489 19.444C60.1227 19.444 60.7769 19.3487 61.4039 19.158C58.0079 18.4266 55.45 15.1834 55.45 11.2882C55.45 11.2405 55.45 11.2245 55.45 11.1927C56.4509 11.781 57.5964 12.1464 58.8128 12.1941C56.8202 10.7474 55.5103 8.28314 55.5103 5.50087C55.5103 4.0382 55.8751 2.65495 56.5172 1.46255C60.1739 6.32754 65.641 9.52322 71.8044 9.85709C71.6778 9.26884 71.6129 8.64895 71.6129 8.0289C71.6129 3.59317 74.9335 0 79.0304 0C81.1633 0 83.0896 0.969958 84.4417 2.52803C86.1344 2.17826 87.7201 1.51056 89.155 0.588437C88.5988 2.46448 87.4246 4.03812 85.8902 5.02383C87.3915 4.83305 88.8234 4.40411 90.1514 3.76817C89.1551 5.37393 87.901 6.78869 86.4524 7.9175Z" fill="white"/>
<path fillRule="evenodd" clipRule="evenodd" d="M110.413 0C109.08 0 108 1.08048 108 2.41333V31.5866C108 32.9194 109.08 33.9999 110.413 33.9999H139.587C140.92 33.9999 142 32.9194 142 31.5866V2.41333C142 1.08048 140.92 0 139.587 0H110.413ZM115.631 10.5587C117.26 10.5587 118.581 9.23818 118.581 7.60922C118.581 5.98026 117.26 4.65973 115.631 4.65973C114.002 4.65973 112.682 5.98026 112.682 7.60922C112.682 9.23818 114.002 10.5587 115.631 10.5587ZM121.282 12.7385H126.17V14.9778C126.17 14.9778 127.497 12.3248 131.106 12.3248C134.326 12.3248 136.993 13.9109 136.993 18.7452V28.9395H131.927V19.9805C131.927 17.1287 130.405 16.815 129.244 16.815C126.837 16.815 126.424 18.8919 126.424 20.3525V28.9395H121.282V12.7385ZM118.203 12.7385H113.06V28.9395H118.203V12.7385Z" fill="white"/>
<path d="M177.455 0C172.715 0 172.12 0.0207276 170.259 0.105455C168.4 0.190546 167.132 0.484727 166.022 0.916364C164.874 1.36218 163.901 1.95855 162.93 2.92909C161.96 3.89927 161.363 4.87309 160.916 6.02073C160.483 7.13091 160.189 8.39964 160.105 10.2571C160.022 12.1189 160 12.7142 160 17.4545C160 22.1949 160.021 22.788 160.105 24.6498C160.191 26.508 160.485 27.7764 160.916 28.8862C161.363 30.0342 161.959 31.008 162.929 31.9782C163.899 32.9491 164.873 33.5469 166.02 33.9927C167.131 34.4244 168.399 34.7185 170.257 34.8036C172.119 34.8884 172.713 34.9091 177.453 34.9091C182.194 34.9091 182.787 34.8884 184.649 34.8036C186.507 34.7185 187.777 34.4244 188.887 33.9927C190.035 33.5469 191.007 32.9491 191.977 31.9782C192.948 31.008 193.544 30.0342 193.991 28.8865C194.42 27.7764 194.715 26.5076 194.802 24.6502C194.886 22.7884 194.908 22.1949 194.908 17.4545C194.908 12.7142 194.886 12.1193 194.802 10.2575C194.715 8.39927 194.42 7.13091 193.991 6.02109C193.544 4.87309 192.948 3.89927 191.977 2.92909C191.006 1.95818 190.035 1.36182 188.886 0.916364C187.773 0.484727 186.504 0.190546 184.646 0.105455C182.784 0.0207276 182.192 0 177.45 0H177.455ZM175.89 3.14545C176.354 3.14473 176.873 3.14545 177.455 3.14545C182.116 3.14545 182.668 3.16218 184.508 3.24582C186.21 3.32364 187.134 3.608 187.749 3.84691C188.563 4.16327 189.144 4.54145 189.755 5.15236C190.366 5.76327 190.744 6.34509 191.061 7.15964C191.3 7.77418 191.584 8.69782 191.662 10.3996C191.746 12.2396 191.764 12.7924 191.764 17.4505C191.764 22.1087 191.746 22.6615 191.662 24.5015C191.584 26.2033 191.3 27.1269 191.061 27.7415C190.745 28.556 190.366 29.136 189.755 29.7465C189.144 30.3575 188.564 30.7356 187.749 31.052C187.134 31.292 186.21 31.5756 184.508 31.6535C182.668 31.7371 182.116 31.7553 177.455 31.7553C172.795 31.7553 172.243 31.7371 170.403 31.6535C168.701 31.5749 167.777 31.2905 167.162 31.0516C166.347 30.7353 165.765 30.3571 165.154 29.7462C164.543 29.1353 164.165 28.5549 163.848 27.74C163.609 27.1255 163.325 26.2018 163.247 24.5C163.164 22.66 163.147 22.1073 163.147 17.4462C163.147 12.7851 163.164 12.2353 163.247 10.3953C163.325 8.69345 163.609 7.76982 163.848 7.15454C164.165 6.34 164.543 5.75818 165.154 5.14727C165.765 4.53636 166.347 4.15818 167.162 3.84109C167.777 3.60109 168.701 3.31745 170.403 3.23927C172.013 3.16655 172.637 3.14473 175.89 3.14109V3.14545ZM186.772 6.04364C185.616 6.04364 184.678 6.98073 184.678 8.13745C184.678 9.29382 185.616 10.232 186.772 10.232C187.929 10.232 188.867 9.29382 188.867 8.13745C188.867 6.98109 187.929 6.04291 186.772 6.04291V6.04364ZM177.455 8.49091C172.505 8.49091 168.492 12.5044 168.492 17.4545C168.492 22.4047 172.505 26.4164 177.455 26.4164C182.406 26.4164 186.417 22.4047 186.417 17.4545C186.417 12.5044 182.405 8.49091 177.455 8.49091H177.455ZM177.455 11.6364C180.668 11.6364 183.273 14.2411 183.273 17.4545C183.273 20.6676 180.668 23.2727 177.455 23.2727C174.242 23.2727 171.637 20.6676 171.637 17.4545C171.637 14.2411 174.242 11.6364 177.455 11.6364Z" fill="white"/>
</svg>
