<svg width="469" height="500" viewBox="0 0 469 500" fill="none" xmlns="http://www.w3.org/2000/svg">
<path d="M415.983 474.612C415.974 474.54 415.974 474.466 415.983 474.393C415.983 474.222 415.983 474.022 415.983 473.765C415.983 473.183 415.983 472.383 415.983 471.345C415.983 469.23 415.983 466.191 415.907 462.352L415.983 462.514L369.637 462.609C369.741 462.504 369.398 462.847 369.865 462.371V474.612L369.637 474.384L402.665 474.489L412.41 474.555H415.049H415.735H415.983C415.91 474.564 415.836 474.564 415.764 474.555H415.106H412.515L402.827 474.622L369.637 474.727H369.398V462.371L369.637 462.133L415.983 462.228H416.126V462.371C416.126 466.248 416.069 469.316 416.049 471.45C416.049 472.469 416.049 473.269 416.049 473.831C416.049 474.079 416.049 474.279 416.049 474.441C416.032 474.5 416.009 474.557 415.983 474.612Z" fill="#E0E0E0"/>
<path d="M422.254 462.351C422.254 462.351 422.254 462.265 422.254 462.123C422.254 461.98 422.254 461.732 422.254 461.465C422.254 460.865 422.254 460.046 422.254 459.007C422.254 456.864 422.254 453.825 422.168 450.091L422.33 450.262L394.484 450.329L394.722 450.091V456.388C394.722 458.436 394.722 460.427 394.722 462.332L394.494 462.104L414.413 462.218L420.224 462.275H421.787C421.971 462.263 422.155 462.263 422.339 462.275C422.171 462.289 422.002 462.289 421.834 462.275H420.32L414.604 462.332L394.532 462.446H394.312V462.218C394.312 460.313 394.312 458.322 394.312 456.273V450.129L394.551 449.891L422.396 449.957H422.568V450.129C422.568 453.939 422.501 456.978 422.482 459.15C422.482 460.17 422.482 460.979 422.482 461.57C422.429 461.837 422.352 462.098 422.254 462.351Z" fill="#E0E0E0"/>
<path d="M177.803 499.886C177.795 499.813 177.795 499.74 177.803 499.667C177.803 499.495 177.803 499.295 177.803 499.038C177.803 498.457 177.803 497.657 177.803 496.618C177.803 494.503 177.803 491.465 177.727 487.625L177.803 487.787L131.457 487.883C131.562 487.778 131.219 488.121 131.686 487.644V499.886L131.457 499.657L164.485 499.762L174.231 499.829H176.87H177.555H177.803C177.73 499.838 177.657 499.838 177.584 499.829H176.927H174.335L164.647 499.895L131.457 500H131.219V487.644L131.457 487.406L177.803 487.502H177.946V487.644C177.946 491.522 177.889 494.589 177.87 496.723C177.87 497.742 177.87 498.543 177.87 499.105C177.87 499.352 177.87 499.552 177.87 499.714C177.852 499.773 177.83 499.831 177.803 499.886Z" fill="#E0E0E0"/>
<path d="M184.074 487.625C184.074 487.625 184.074 487.539 184.074 487.396C184.074 487.253 184.074 487.005 184.074 486.739C184.074 486.139 184.074 485.319 184.074 484.281C184.074 482.137 184.074 479.098 183.988 475.364L184.15 475.536L156.304 475.602L156.542 475.364V481.661C156.542 483.709 156.542 485.7 156.542 487.606L156.314 487.377L176.234 487.491L182.045 487.548H183.607C183.791 487.537 183.976 487.537 184.16 487.548C183.992 487.562 183.823 487.562 183.655 487.548H182.14L176.424 487.606L156.352 487.72H156.133V487.491C156.133 485.586 156.133 483.595 156.133 481.547V475.402L156.371 475.164L184.217 475.231H184.388V475.402C184.388 479.213 184.322 482.252 184.303 484.424C184.303 485.443 184.303 486.253 184.303 486.843C184.249 487.11 184.173 487.371 184.074 487.625Z" fill="#E0E0E0"/>
<path d="M289.085 281.133C289.077 281.064 289.077 280.995 289.085 280.926C289.085 280.765 289.085 280.576 289.085 280.334C289.085 279.786 289.085 279.032 289.085 278.054C289.085 276.062 289.085 273.198 289.013 269.581L289.085 269.734L245.42 269.824C245.518 269.725 245.195 270.048 245.635 269.599V281.133L245.42 280.917L276.537 281.016L285.719 281.079H288.205H288.851H289.085C289.016 281.087 288.947 281.087 288.878 281.079H288.259H285.818L276.69 281.142L245.42 281.24H245.195V269.599L245.42 269.375L289.085 269.465H289.219V269.599C289.219 273.252 289.165 276.142 289.147 278.153C289.147 279.113 289.147 279.867 289.147 280.397C289.147 280.63 289.147 280.818 289.147 280.971C289.131 281.026 289.11 281.081 289.085 281.133Z" fill="#E0E0E0"/>
<path d="M294.989 269.583C294.989 269.583 294.989 269.503 294.989 269.368C294.989 269.233 294.989 269 294.989 268.749C294.989 268.183 294.989 267.411 294.989 266.433C294.989 264.414 294.989 261.551 294.908 258.032L295.06 258.194L268.826 258.257L269.05 258.032V263.965C269.05 265.895 269.05 267.77 269.05 269.565L268.835 269.35L287.602 269.458L293.077 269.512H294.549C294.722 269.501 294.896 269.501 295.069 269.512C294.911 269.524 294.752 269.524 294.594 269.512H293.167L287.781 269.565L268.87 269.673H268.664V269.458C268.664 267.663 268.664 265.787 268.664 263.857V258.068L268.888 257.844L295.123 257.907H295.285V258.068C295.285 261.658 295.222 264.521 295.204 266.568C295.204 267.528 295.204 268.291 295.204 268.847C295.154 269.099 295.082 269.345 294.989 269.583Z" fill="#E0E0E0"/>
<path d="M445.495 345.945H405.43V356.545H445.495V345.945Z" fill="#EBEBEB"/>
<path d="M428.556 367.71C428.556 367.71 428.556 367.638 428.556 367.512C428.556 367.387 428.556 367.189 428.556 366.974C428.556 366.471 428.556 365.78 428.556 364.882C428.556 363.087 428.556 360.395 428.484 357.11L428.61 357.227L388.544 357.307C388.634 357.218 388.337 357.514 388.75 357.11V367.71L388.553 367.503L417.103 367.602L425.531 367.656H427.811H428.376H428.583H428.376H427.802H425.567L417.184 367.719L388.463 367.808H388.266V367.611C388.266 365.906 388.266 364.164 388.266 362.396V357.011L388.472 356.805L428.538 356.885H428.663V357.011C428.663 360.359 428.61 363.016 428.592 364.856C428.592 365.753 428.592 366.426 428.592 366.92C428.592 367.135 428.592 367.306 428.592 367.44C428.592 367.575 428.565 367.71 428.556 367.71Z" fill="#E0E0E0"/>
<path d="M304.48 399.203H261.242V410.642H304.48V399.203Z" fill="#EBEBEB"/>
<path d="M286.19 422.69C286.19 422.69 286.19 422.613 286.19 422.477C286.19 422.341 286.19 422.128 286.19 421.896C286.19 421.353 286.19 420.608 286.19 419.639C286.19 417.702 286.19 414.796 286.113 411.251L286.249 411.377L243.011 411.464C243.108 411.367 242.788 411.687 243.234 411.251V422.69L243.021 422.467L273.831 422.574L282.926 422.632H285.387H285.997H286.219H285.997H285.377H282.965L273.919 422.7L242.924 422.797H242.711V422.584C242.711 420.743 242.711 418.864 242.711 416.956V411.145L242.934 410.922L286.171 411.009H286.307V411.145C286.307 414.757 286.249 417.624 286.229 419.61C286.229 420.579 286.229 421.305 286.229 421.838C286.229 422.07 286.229 422.254 286.229 422.4C286.229 422.545 286.2 422.69 286.19 422.69Z" fill="#E0E0E0"/>
<path fillRule="evenodd" clipRule="evenodd" d="M322.261 171.992L306.369 222.257L296.094 206.887L148.961 293.487L132.443 268.774L279.573 182.175L270.092 167.995L322.261 171.992Z" fill="#E0E0E0"/>
<mask id="path-12-inside-1_3771_3143" fill="white">
<path fillRule="evenodd" clipRule="evenodd" d="M315.05 160.672L299.158 210.937L289.171 195.997L146.712 295.827L130.193 271.114L272.65 171.286L262.881 156.674L315.05 160.672Z"/>
</mask>
<path fillRule="evenodd" clipRule="evenodd" d="M315.05 160.672L299.158 210.937L289.171 195.997L146.712 295.827L130.193 271.114L272.65 171.286L262.881 156.674L315.05 160.672Z" fill="white"/>
<path d="M299.158 210.937L300.066 211.224L299.468 213.113L298.367 211.466L299.158 210.937ZM315.05 160.672L315.122 159.722L316.319 159.814L315.957 160.959L315.05 160.672ZM289.171 195.997L288.624 195.218L289.421 194.659L289.962 195.468L289.171 195.997ZM146.712 295.827L147.258 296.607L146.461 297.165L145.92 296.356L146.712 295.827ZM130.193 271.114L129.402 271.643L128.885 270.869L129.647 270.335L130.193 271.114ZM272.65 171.286L273.441 170.757L273.959 171.531L273.196 172.066L272.65 171.286ZM262.881 156.674L262.09 157.203L261.002 155.576L262.954 155.725L262.881 156.674ZM298.251 210.65L314.142 160.385L315.957 160.959L300.066 211.224L298.251 210.65ZM289.962 195.468L299.95 210.408L298.367 211.466L288.379 196.526L289.962 195.468ZM289.717 196.777L147.258 296.607L146.166 295.048L288.624 195.218L289.717 196.777ZM145.92 296.356L129.402 271.643L130.985 270.586L147.503 295.298L145.92 296.356ZM129.647 270.335L272.104 170.507L273.196 172.066L130.74 271.894L129.647 270.335ZM263.673 156.145L273.441 170.757L271.859 171.815L262.09 157.203L263.673 156.145ZM314.977 161.621L262.809 157.623L262.954 155.725L315.122 159.722L314.977 161.621Z" fill="#263238" mask="url(#path-12-inside-1_3771_3143)"/>
<path d="M114.8 359.898L106.23 379.332C106.23 379.332 123.138 394.57 121.87 398.353L83.5943 383.083L95.7046 352.258L114.8 359.898Z" fill="#4CA771"/>
<path opacity="0.5" d="M114.8 359.898L106.23 379.332C106.23 379.332 123.138 394.57 121.87 398.353L83.5943 383.083L95.7046 352.258L114.8 359.898Z" fill="#4CA771"/>
<path d="M83.6055 383.088L84.9476 379.992L121.152 395.843C121.152 395.843 122.557 397.259 121.891 398.39L83.6055 383.088Z" fill="#35754F"/>
<path d="M47.4037 387.452L36.6672 405.787C36.6672 405.787 51.694 422.843 50.0455 426.478L13.757 406.949L29.3017 377.656L47.4037 387.452Z" fill="#4CA771"/>
<path opacity="0.5" d="M47.4037 387.452L36.6672 405.787C36.6672 405.787 51.694 422.843 50.0455 426.478L13.757 406.949L29.3017 377.656L47.4037 387.452Z" fill="#4CA771"/>
<path d="M13.7588 406.893L15.4707 404.008L49.6035 423.811C49.6035 423.811 50.8398 425.386 50.0473 426.421L13.7588 406.893Z" fill="#35754F"/>
<path d="M94.2206 130.35L117.744 132.188L118.526 119.021C118.526 119.021 128.036 118.884 129.431 109.616C130.826 100.349 132.242 78.8124 132.242 78.8124C127.283 75.8034 121.611 74.1729 115.811 74.0893C110.011 74.0057 104.294 75.4721 99.2507 78.3369L97.729 79.2034L94.2206 130.35Z" fill="#FFBE9D"/>
<path d="M118.555 118.894C114.256 118.373 110.21 116.585 106.931 113.758C106.931 113.758 108.981 121.049 118.364 121.514L118.555 118.894Z" fill="#EB996E"/>
<path d="M97.5234 88.9653C97.3755 88.8701 91.4049 86.1755 90.718 92.5582C90.0311 98.9409 96.5724 98.3069 96.6041 98.1272C96.6358 97.9476 97.5234 88.9653 97.5234 88.9653Z" fill="#FFBE9D"/>
<path d="M94.9172 95.4911C94.9172 95.4911 94.801 95.5545 94.6002 95.6285C94.3262 95.7111 94.0309 95.6846 93.776 95.5545C93.3825 95.2538 93.0768 94.8529 92.8909 94.3938C92.7051 93.9347 92.6458 93.4342 92.7192 92.9444C92.7582 92.3973 92.9207 91.8661 93.1947 91.391C93.2771 91.1987 93.4046 91.0291 93.5665 90.8966C93.7284 90.7642 93.9199 90.6727 94.1247 90.6301C94.2567 90.6106 94.3914 90.638 94.5053 90.7075C94.6192 90.777 94.7051 90.8842 94.7482 91.0105C94.8116 91.1902 94.7482 91.317 94.7482 91.3276C94.7482 91.3381 94.8961 91.243 94.875 90.9683C94.8559 90.8071 94.7811 90.6576 94.6636 90.5456C94.5864 90.4681 94.4939 90.4074 94.3921 90.3674C94.2902 90.3274 94.1812 90.3089 94.0718 90.3131C93.8044 90.3382 93.5477 90.4309 93.3258 90.5825C93.104 90.7341 92.9243 90.9395 92.8037 91.1796C92.4716 91.7013 92.2721 92.2962 92.2225 92.9127C92.1317 93.4775 92.2096 94.0565 92.4465 94.5772C92.6833 95.0979 93.0686 95.5372 93.554 95.8399C93.722 95.9144 93.9052 95.9485 94.0887 95.9393C94.2723 95.9302 94.4511 95.878 94.6108 95.787C94.8961 95.6496 94.9384 95.5123 94.9172 95.4911Z" fill="#EB996E"/>
<path d="M128.238 93.3941C128.19 93.7392 128.01 94.0523 127.736 94.2672C127.462 94.4822 127.115 94.5821 126.769 94.546C126.598 94.5368 126.431 94.4932 126.278 94.418C126.125 94.3427 125.989 94.2373 125.877 94.108C125.765 93.9787 125.681 93.8283 125.629 93.6657C125.577 93.503 125.559 93.3316 125.575 93.1616C125.617 92.8155 125.794 92.4998 126.066 92.2825C126.339 92.0651 126.686 91.9634 127.033 91.9992C127.204 92.0099 127.372 92.0546 127.526 92.1309C127.679 92.2072 127.816 92.3134 127.929 92.4433C128.041 92.5732 128.126 92.7243 128.179 92.8875C128.232 93.0508 128.252 93.2231 128.238 93.3941Z" fill="#263238"/>
<path d="M128.651 91.6218C128.461 91.7697 127.594 90.8821 126.136 90.6918C124.678 90.5016 123.558 91.0617 123.431 90.8609C123.304 90.6601 123.579 90.4805 124.076 90.2163C124.756 89.8791 125.522 89.7575 126.274 89.8676C127.016 89.9695 127.707 90.3022 128.25 90.8187C128.641 91.2202 128.736 91.5584 128.651 91.6218Z" fill="#263238"/>
<path d="M114.363 91.7838C114.315 92.1289 114.135 92.442 113.861 92.6569C113.587 92.8719 113.24 92.9718 112.894 92.9356C112.724 92.925 112.558 92.8805 112.405 92.8048C112.253 92.729 112.117 92.6236 112.005 92.4947C111.894 92.3657 111.81 92.2158 111.757 92.0538C111.705 91.8918 111.685 91.721 111.7 91.5513C111.745 91.2063 111.922 90.8923 112.194 90.6754C112.466 90.4586 112.812 90.3558 113.158 90.3889C113.329 90.3995 113.497 90.4443 113.651 90.5206C113.804 90.5968 113.941 90.703 114.054 90.833C114.166 90.9629 114.251 91.1139 114.304 91.2772C114.357 91.4405 114.377 91.6127 114.363 91.7838Z" fill="#263238"/>
<path d="M114.592 89.9192C114.402 90.0777 113.536 89.19 112.077 88.9893C110.619 88.7885 109.509 89.3591 109.372 89.1689C109.235 88.9787 109.52 88.7885 110.027 88.5243C110.701 88.1783 111.466 88.0527 112.215 88.165C112.959 88.2678 113.651 88.6046 114.191 89.1266C114.582 89.5282 114.687 89.8558 114.592 89.9192Z" fill="#263238"/>
<path d="M118.274 101.217C119.06 101.097 119.858 101.068 120.651 101.132C121.021 101.132 121.38 101.132 121.476 100.879C121.548 100.525 121.515 100.157 121.38 99.822C121.169 98.8921 120.937 97.9093 120.694 96.8949C120.025 94.404 119.558 91.863 119.299 89.2969C120.166 91.7262 120.837 94.221 121.307 96.7575L121.941 99.6952C122.114 100.166 122.114 100.683 121.941 101.154C121.87 101.275 121.772 101.378 121.654 101.455C121.537 101.532 121.404 101.581 121.264 101.597C121.058 101.629 120.847 101.629 120.641 101.597C119.839 101.572 119.043 101.444 118.274 101.217Z" fill="#263238"/>
<path d="M113.945 101.61C114.178 101.61 113.945 103.174 115.139 104.463C116.333 105.753 117.982 105.806 117.961 106.027C117.94 106.249 117.549 106.281 116.851 106.197C115.944 106.082 115.106 105.652 114.484 104.981C113.885 104.337 113.562 103.483 113.586 102.604C113.618 101.948 113.839 101.589 113.945 101.61Z" fill="#263238"/>
<path d="M115.749 84.3638C115.548 84.7337 114.153 84.3638 112.452 84.3638C110.751 84.3638 109.282 84.5963 109.155 84.2159C109.081 84.0362 109.366 83.6981 109.969 83.4022C110.758 83.0342 111.624 82.8603 112.494 82.895C113.365 82.9168 114.219 83.1411 114.988 83.5501C115.559 83.846 115.865 84.1947 115.749 84.3638Z" fill="#263238"/>
<path d="M128.698 87.4103C128.402 87.6957 127.462 87.2307 126.289 87.0405C125.116 86.8503 124.069 86.9559 123.89 86.5861C123.816 86.4064 124.017 86.1 124.492 85.8569C125.13 85.5649 125.842 85.4763 126.532 85.6033C127.226 85.7074 127.87 86.0293 128.37 86.5227C128.74 86.9137 128.835 87.2624 128.698 87.4103Z" fill="#263238"/>
<path d="M137.59 73.58C137.732 73.0125 137.73 72.4185 137.585 71.8518C137.439 71.2852 137.154 70.7641 136.755 70.3358C136.335 69.9335 135.787 69.6926 135.207 69.6558C134.626 69.6191 134.052 69.7888 133.585 70.135C133.725 69.7593 133.785 69.3583 133.761 68.9579C133.737 68.5576 133.63 68.1667 133.445 67.8103C133.261 67.454 133.005 67.1402 132.692 66.889C132.379 66.6378 132.017 66.4549 131.63 66.3519C130.129 66.0454 128.671 67.0071 127.149 67.1973C125.657 67.2928 124.175 66.9036 122.922 66.0877C121.622 65.348 120.45 64.3969 119.129 63.6995C116.342 62.2131 113.082 61.8866 110.056 62.791C107.031 63.6953 104.485 65.7573 102.971 68.5288C101.971 68.1233 100.871 68.0335 99.8192 68.2715C98.7669 68.5096 97.8127 69.064 97.0849 69.8603C95.6468 71.489 94.8669 73.595 94.8974 75.7675C94.8977 77.2177 95.0571 78.6635 95.373 80.079C95.373 80.1952 95.373 80.3115 95.3201 80.4383C94.6967 85.5529 94.4325 91.6292 96.5988 91.9673C100.393 92.5591 100.488 85.2782 100.488 85.2782C105.401 84.1369 104.651 76.9088 105.962 76.0211C107.272 75.1334 110.062 73.0094 119.107 79.3604C122.507 81.4956 126.493 82.505 130.499 82.2453H130.753H130.816H130.901C131.812 82.1469 132.704 81.908 133.542 81.5373C134.532 81.1394 135.369 80.4359 135.931 79.5295C136.2 79.0737 136.331 78.5496 136.309 78.0207C136.286 77.4918 136.111 76.9807 135.804 76.5495C136.677 75.7555 137.298 74.7232 137.59 73.58Z" fill="#263238"/>
<path d="M118.555 127.077L117.509 163.936L94.5772 114.576L95.1479 110L118.555 127.077Z" fill="#EBEBEB"/>
<path d="M103.359 237.248C104.194 237.523 151.969 285.806 150.912 294.482C149.856 303.157 115.86 367.397 115.86 367.397L91.5552 355.445L114.307 299.142L114.011 295.644L86.2081 272.871L87.6981 236.266L103.359 237.248Z" fill="#263238"/>
<path d="M93.0547 246.765C92.4946 247.599 84.2309 323.452 82.0117 327.373C79.7926 331.294 46.5897 396.061 46.5897 396.061L21.9359 386.128L52.0319 314.956L48.6081 247.6L50.4574 228.578L87.6865 236.261L93.0547 246.765Z" fill="#263238"/>
<path d="M82.4443 326.089C82.5237 325.841 82.5768 325.586 82.6028 325.328C82.6979 324.778 82.8141 324.049 82.9621 323.141C83.258 321.175 83.6807 318.438 84.1879 315.078C85.1707 308.198 86.5233 298.804 88.0238 288.427C89.5244 278.049 90.7503 268.623 91.7014 261.754C92.1346 258.373 92.4939 255.625 92.7581 253.66L93.0117 251.451C93.0378 251.195 93.0378 250.936 93.0117 250.68C93.0117 250.68 92.9483 250.944 92.8532 251.441C92.7581 251.937 92.6419 252.719 92.4939 253.628L91.2786 261.702C90.2853 268.57 88.9327 277.965 87.4426 288.353C85.9526 298.74 84.7057 308.145 83.7652 315.025C83.3214 318.396 82.9621 321.143 82.7085 323.109C82.6028 324.028 82.5077 324.768 82.4443 325.317C82.4185 325.574 82.4185 325.832 82.4443 326.089Z" fill="#455A64"/>
<path d="M52.6653 312.781C52.9771 314.822 53.4578 316.833 54.1024 318.794C54.5825 320.801 55.233 322.763 56.0469 324.659C55.7238 322.632 55.2325 320.634 54.578 318.688C54.1163 316.667 53.4762 314.69 52.6653 312.781Z" fill="#455A64"/>
<path d="M48.9315 329.97C49.4837 329.427 49.9409 328.795 50.2841 328.1C52.1242 324.823 52.924 321.064 52.5772 317.321C52.5512 316.55 52.3939 315.789 52.1123 315.07C52.6948 320.249 51.5824 325.477 48.942 329.97H48.9315Z" fill="#455A64"/>
<path d="M122.206 290.953C119.249 292.118 116.823 294.33 115.39 297.167C115.517 297.251 116.7 295.529 118.56 293.827C120.42 292.126 122.322 291.091 122.206 290.953Z" fill="#455A64"/>
<path d="M118.508 288.711C117.52 289.393 116.714 290.308 116.162 291.374C115.453 292.347 114.992 293.479 114.82 294.671C115.47 293.697 116.067 292.688 116.606 291.649C117.293 290.705 117.928 289.724 118.508 288.711Z" fill="#455A64"/>
<path d="M115.211 178.05L109.114 208.336L104.147 250.606C104.147 250.606 83.6673 247.742 74.9386 244.984C64.815 241.814 42.7925 239.045 42.7925 239.045L46.5122 242.723C38.6289 240.514 33.6094 233.001 33.6094 233.001C47.178 220.415 58.8022 194.461 58.8022 194.461L69.1265 143.188C69.1265 143.188 70.6905 135.96 71.6416 132.737C72.5927 129.514 88.2641 119.147 90.441 117.837L91.8042 117.192L92.2375 113.082L93.8543 112.109L110.804 127.527C114.109 130.521 116.209 134.616 116.712 139.046C117.428 145.448 117.675 151.893 117.451 158.331C117.251 164.408 115.211 178.05 115.211 178.05Z" fill="#4CA771"/>
<path d="M103.56 125.614C103.56 125.614 112.521 130.423 114.075 134.502C115.628 138.581 111.01 183.302 111.01 183.302L143.209 183.915L143.336 203.095C143.336 203.095 92.2001 207.142 90.2029 204.374C87.5188 200.633 84.3908 165.686 84.3908 165.686L83.2284 140.536C83.2284 140.536 86.1556 121.366 103.56 125.614Z" fill="#4CA771"/>
<g opacity="0.3">
<path d="M109.105 208.335C104.94 209.638 100.547 210.045 96.2131 209.529C91.6797 209.117 87.0618 206.634 85.3499 202.407C84.0395 199.183 84.589 195.538 84.3882 192.061C84.2085 189.028 83.4688 186.069 83.0038 183.079C82.5389 180.088 84.0606 174.625 85.1173 171.719C85.1173 171.719 86.2587 192.473 89.5134 201.191C89.8755 202.409 90.5623 203.505 91.5001 204.362C92.6519 205.291 94.2371 205.418 95.7271 205.524C99.8378 205.957 109.75 205.239 109.75 205.239" fill="black"/>
</g>
<path d="M83.2524 143.273C83.2387 143.428 83.2387 143.584 83.2524 143.738C83.2524 144.055 83.2524 144.499 83.3052 145.07C83.3052 146.275 83.4426 147.997 83.5483 150.206C83.6539 152.414 83.8125 155.172 83.9816 158.332C84.1506 161.492 84.2774 165.116 84.6684 169.09C85.0594 173.063 85.4293 177.417 85.9259 182.088C86.4226 186.758 86.9827 191.746 87.8809 196.956C88.0921 198.287 88.3886 199.604 88.7686 200.898C89.2078 202.252 90.0123 203.459 91.0934 204.385C92.2041 205.343 93.6323 205.852 95.0984 205.811C96.5145 205.811 97.9411 205.811 99.3254 205.811C105.074 205.664 111.013 205.378 117.1 205.04C126.241 204.543 135.064 203.983 143.275 203.392H143.508V203.159C143.508 196.343 143.434 189.929 143.392 184V183.778H143.17L112.091 183.113L103.404 182.965H101.111C100.594 182.965 100.329 182.965 100.329 182.965C100.329 182.965 100.594 182.965 101.111 183.018L103.394 183.113L112.091 183.387L143.159 184.243L142.937 184.021C142.937 189.939 142.937 196.354 143.001 203.17L143.244 202.916C135.012 203.476 126.198 204.047 117.068 204.543C110.992 204.871 105.053 205.177 99.3149 205.325C97.8777 205.325 96.4617 205.378 95.0879 205.325C93.735 205.376 92.4132 204.911 91.3893 204.026C90.3799 203.162 89.6299 202.035 89.223 200.771C88.8509 199.501 88.558 198.209 88.3459 196.903C87.4477 191.715 86.877 186.727 86.3381 182.109C85.7991 177.491 85.387 173.105 85.0171 169.132C84.6473 165.159 84.4677 161.545 84.2563 158.385C84.045 155.225 83.8758 152.509 83.7385 150.269C83.6011 148.029 83.4743 146.338 83.3898 145.144C83.3898 144.573 83.3158 144.087 83.2841 143.802C83.2942 143.625 83.2836 143.448 83.2524 143.273Z" fill="#263238"/>
<path d="M136.999 202.802C137.249 199.709 137.323 196.604 137.221 193.502C137.291 190.399 137.185 187.294 136.904 184.203C136.655 187.296 136.581 190.401 136.682 193.502C136.613 196.606 136.718 199.71 136.999 202.802Z" fill="#263238"/>
<path d="M140.408 187.119C140.471 187.119 140.154 186.717 139.541 186.929C139.362 186.991 139.205 187.104 139.088 187.254C138.972 187.404 138.902 187.585 138.886 187.774C138.858 188.01 138.906 188.249 139.021 188.456C139.137 188.664 139.315 188.83 139.53 188.93C139.745 189.031 139.987 189.061 140.22 189.017C140.454 188.972 140.667 188.855 140.83 188.683C140.966 188.558 141.067 188.399 141.123 188.223C141.178 188.047 141.187 187.859 141.147 187.679C140.999 187.066 140.577 186.939 140.566 187.003C140.556 187.066 140.767 187.288 140.778 187.721C140.781 187.835 140.759 187.948 140.713 188.052C140.667 188.156 140.599 188.249 140.513 188.324C140.411 188.409 140.286 188.465 140.154 188.485C140.022 188.506 139.887 188.49 139.763 188.44C139.646 188.38 139.548 188.289 139.479 188.177C139.41 188.066 139.373 187.937 139.372 187.806C139.375 187.695 139.407 187.587 139.464 187.493C139.522 187.398 139.603 187.32 139.7 187.267C140.07 187.045 140.376 187.182 140.408 187.119Z" fill="#263238"/>
<path d="M68.9688 147.578C68.9688 147.578 52.2088 169.484 50.1693 175.444C48.1298 181.404 49.7043 189.985 53.1176 194.085C56.5309 198.186 59.2784 196.516 59.2784 196.516L68.9688 147.578Z" fill="#4CA771"/>
<path d="M59.8577 194.776C61.2231 195.268 62.6419 195.598 64.0846 195.758C65.4901 196.09 66.9312 196.246 68.375 196.223C67.0101 195.729 65.5911 195.399 64.148 195.241C62.7426 194.909 61.3015 194.753 59.8577 194.776Z" fill="#263238"/>
<path d="M56.6953 210.906C56.5062 211.274 56.354 211.66 56.2409 212.058C55.9873 212.819 55.6069 213.897 55.1102 215.228C53.8088 218.698 52.3056 222.089 50.6085 225.384C48.8993 228.669 47.0229 231.864 44.9866 234.958C44.2046 236.152 43.56 237.071 43.1056 237.758C42.8472 238.084 42.6273 238.438 42.4504 238.815C42.7592 238.537 43.0357 238.225 43.2747 237.885C43.7713 237.261 44.4688 236.342 45.2931 235.169C47.4354 232.133 49.3701 228.955 51.084 225.658C52.7984 222.349 54.2609 218.916 55.4589 215.387C55.9133 214.034 56.2515 212.925 56.4417 212.153C56.581 211.751 56.6663 211.331 56.6953 210.906Z" fill="#263238"/>
<g opacity="0.3">
<path d="M55.5234 213.492C52.8604 218.226 50.134 223.003 46.0972 226.67C44.5701 227.829 43.1866 229.167 41.976 230.654C40.9192 232.228 40.4226 234.426 41.4582 236.043C41.6126 236.344 41.855 236.592 42.1532 236.752C42.4514 236.913 42.7912 236.979 43.1278 236.941C43.5695 236.772 43.9415 236.459 44.1845 236.054C49.2393 229.544 53.0151 222.136 55.3121 214.221" fill="black"/>
</g>
<g opacity="0.3">
<path d="M57.7481 196.433C55.455 194.785 54.6518 191.657 54.99 188.846C55.3282 186.035 56.6174 183.456 57.7692 180.888C61.251 173.21 63.9796 165.212 65.9167 157.006L67.5547 150.93L59.2698 194.256L57.7481 196.433Z" fill="black"/>
</g>
<path d="M99.2031 123.663C98.2146 122.556 97.1557 121.515 96.0329 120.545C95.0423 119.424 93.9835 118.366 92.8627 117.375C93.5682 118.692 94.498 119.875 95.6102 120.873C96.6249 122.017 97.8431 122.963 99.2031 123.663Z" fill="#263238"/>
<path d="M100.893 127.414C100.893 127.509 101.866 127.805 103.345 128.534C107.228 130.461 110.356 133.63 112.232 137.538C112.951 139.028 113.289 140.021 113.289 140C113.292 139.752 113.253 139.505 113.173 139.271C113.01 138.625 112.798 137.993 112.539 137.379C110.792 133.274 107.546 129.99 103.461 128.196C102.852 127.929 102.223 127.71 101.58 127.541C101.36 127.461 101.128 127.418 100.893 127.414Z" fill="#263238"/>
<path d="M55.9047 200.809C56.0114 200.681 56.1002 200.539 56.1689 200.386L56.8347 199.129C57.437 197.956 58.2507 196.36 59.2546 194.416C60.3113 189.618 61.7802 182.623 63.397 174.834C64.8976 167.448 66.1974 160.801 67.2541 155.961L68.3109 150.223C68.4165 149.599 68.5117 149.082 68.5856 148.659C68.6294 148.479 68.6472 148.294 68.6385 148.109C68.5675 148.28 68.5143 148.457 68.4799 148.638C68.3848 149.05 68.258 149.568 68.1101 150.191C67.7931 151.607 67.3598 153.53 66.842 155.887C65.7852 160.769 64.4115 167.405 62.8686 174.729C61.2518 182.517 59.8358 189.523 58.8953 194.352C57.9548 196.329 57.194 197.945 56.6339 199.139L56.0421 200.439C55.9842 200.558 55.9382 200.682 55.9047 200.809Z" fill="#263238"/>
<path d="M111.558 183.288C111.693 182.769 111.778 182.238 111.812 181.703C111.928 180.583 112.086 179.114 112.277 177.349C112.657 173.682 113.143 168.599 113.64 162.999C114.136 157.398 114.559 152.304 114.844 148.616C114.971 146.852 115.066 145.383 115.151 144.262C115.2 143.728 115.2 143.191 115.151 142.656C115.031 143.178 114.949 143.708 114.908 144.241C114.792 145.362 114.633 146.83 114.432 148.595C114.063 152.262 113.576 157.334 113.08 162.946C112.583 168.557 112.16 173.64 111.875 177.317C111.748 179.082 111.653 180.551 111.569 181.682C111.528 182.216 111.524 182.753 111.558 183.288Z" fill="#263238"/>
<path d="M142.801 186.14C142.801 186.14 149.754 180.856 151.445 180.55C152.745 180.307 160.491 180.444 164.052 180.55C164.718 180.544 165.359 180.8 165.837 181.262C166.315 181.725 166.593 182.357 166.609 183.022C166.62 183.107 166.62 183.192 166.609 183.276C166.521 183.698 166.315 184.086 166.016 184.396C165.717 184.706 165.337 184.926 164.919 185.03C165.459 185.204 165.93 185.543 166.266 186.001C166.602 186.458 166.785 187.01 166.789 187.577C166.789 189.585 164.39 190.007 164.39 190.007L164.739 190.324C165.04 190.629 165.254 191.009 165.358 191.424C165.463 191.84 165.454 192.275 165.333 192.686C165.212 193.097 164.984 193.468 164.671 193.761C164.359 194.053 163.973 194.257 163.555 194.351L162.499 194.604C162.904 194.769 163.256 195.043 163.516 195.395C163.775 195.748 163.931 196.165 163.968 196.601C163.968 199.243 157.965 199.772 157.965 199.772C157.965 199.772 143.245 202.107 142.928 202.001C142.611 201.896 142.801 186.14 142.801 186.14Z" fill="#FFBE9D"/>
<path d="M162.683 177.39C162.62 178.268 162.408 180.127 160.929 180.962L152.718 180.645C152.718 180.645 158.826 178.532 159.703 177.475C160.043 177.042 160.437 176.655 160.876 176.323C161.058 176.201 161.271 176.132 161.491 176.126C161.71 176.119 161.927 176.175 162.116 176.287C162.305 176.398 162.459 176.561 162.559 176.757C162.66 176.952 162.702 177.172 162.683 177.39Z" fill="#FFBE9D"/>
<path d="M156.589 180.562C157.813 180.852 159.076 180.941 160.329 180.826C161.583 180.9 162.84 180.812 164.07 180.562C162.84 180.286 161.576 180.197 160.319 180.298C159.069 180.235 157.817 180.324 156.589 180.562Z" fill="#EB996E"/>
<path d="M158.432 185.14C159.475 185.476 160.577 185.588 161.666 185.468C162.75 185.508 163.831 185.317 164.836 184.907C163.765 184.791 162.684 184.791 161.613 184.907C160.547 184.865 159.48 184.943 158.432 185.14Z" fill="#EB996E"/>
<path d="M154.263 184.55C154.136 184.635 154.263 185.079 154.76 185.375C155.256 185.671 155.7 185.639 155.711 185.491C155.721 185.343 155.415 185.163 155.055 184.931C154.696 184.698 154.39 184.487 154.263 184.55Z" fill="#EB996E"/>
<path d="M157.53 190.333C159.878 190.608 162.253 190.53 164.578 190.1C163.413 189.869 162.219 189.815 161.038 189.942C159.856 189.897 158.673 190.029 157.53 190.333Z" fill="#EB996E"/>
<path d="M152.843 188.141C152.779 188.141 152.653 188.289 152.61 188.606C152.565 189.037 152.69 189.47 152.958 189.811C153.227 190.152 153.617 190.376 154.047 190.434C154.364 190.434 154.555 190.434 154.555 190.318C154.555 190.201 153.847 190.085 153.382 189.483C152.917 188.88 152.97 188.172 152.843 188.141Z" fill="#EB996E"/>
<path d="M156.292 195.418C157.349 195.547 158.42 195.504 159.463 195.291C160.549 195.253 161.621 195.031 162.633 194.636C161.576 194.506 160.506 194.549 159.463 194.762C158.377 194.807 157.306 195.028 156.292 195.418Z" fill="#EB996E"/>
<path d="M151.709 192.836C151.646 192.836 151.54 193.005 151.551 193.333C151.592 193.721 151.746 194.088 151.994 194.389C152.586 195.119 153.263 195.383 153.337 195.277C153.411 195.171 152.903 194.675 152.407 194.062C151.91 193.449 151.794 192.868 151.709 192.836Z" fill="#EB996E"/>
<path d="M49.2821 243.141C47.8292 243.001 46.4293 242.523 45.1943 241.745C43.9594 240.967 42.9238 239.911 42.1702 238.661C42.0011 238.375 41.8532 237.984 42.0751 237.741C42.1612 237.67 42.2607 237.616 42.3678 237.584C42.4748 237.551 42.5872 237.54 42.6986 237.551C44.9972 237.534 47.2804 237.928 49.4406 238.713C49.5674 238.742 49.6867 238.798 49.7905 238.876C49.8943 238.954 49.9803 239.054 50.0429 239.168C50.1003 239.347 50.1003 239.539 50.0429 239.717C49.7576 240.827 49.4723 241.937 49.1764 243.057" fill="#4CA771"/>
<g opacity="0.4">
<path d="M49.2899 243.149C47.837 243.009 46.4371 242.531 45.2022 241.753C43.9672 240.975 42.9316 239.918 42.178 238.668C42.0089 238.383 41.861 237.992 42.0829 237.749C42.169 237.678 42.2685 237.624 42.3756 237.591C42.4826 237.559 42.595 237.548 42.7064 237.559C45.005 237.542 47.2882 237.935 49.4484 238.721C49.5752 238.75 49.6945 238.806 49.7983 238.884C49.9021 238.962 49.9882 239.062 50.0507 239.176C50.1081 239.354 50.1081 239.547 50.0507 239.725C49.7654 240.835 49.4801 241.944 49.1842 243.065" fill="black"/>
</g>
<path d="M118.558 127.086C118.558 127.086 121.94 138.425 121.01 137.78C120.08 137.136 118.062 135.35 118.062 135.35L118.558 127.086Z" fill="#EBEBEB"/>
<path d="M118.375 132.305L120.214 136.722C120.397 137.179 120.518 137.659 120.573 138.148C120.731 139.385 120.9 141.646 120.171 141.805C119.802 141.826 119.433 141.763 119.091 141.622C118.749 141.482 118.443 141.266 118.195 140.991L118.375 132.305Z" fill="#263238"/>
<path d="M61.1026 133.001C61.1026 133.001 79.1623 125.953 89.1696 132.177C99.177 138.401 100.995 148.335 106.955 148.335C118.579 148.335 118.198 140.134 118.198 140.134L120.671 140.885C120.671 142.565 123.355 154.622 111.16 156.091C98.9656 157.56 93.7664 140.895 82.7552 140.885C75.8666 141.001 69.1514 143.064 63.3852 146.834L55.4702 141.836L61.1026 133.001Z" fill="#263238"/>
<path d="M107.414 155.956C104.299 154.1 101.859 151.297 100.45 147.957C97.6392 141.479 91.6157 134.092 86.5856 132.232C81.5556 130.372 69.9208 129.062 61.879 134.346L56.7327 141.299L63.4113 145.642C67.1672 143.669 71.1154 142.087 75.194 140.919C83.5 138.604 88.5512 141.225 93.3805 145.79C93.6764 146.076 93.9617 146.361 94.1942 146.636C96.5282 149.124 99.0896 151.388 101.845 153.399C104.244 155.016 106.357 155.956 107.414 155.956Z" fill="#455A64"/>
<path d="M184.189 112.628L206.485 97.3942L208.75 100.708L214.554 88.6294L201.191 89.6417L203.457 92.9555L181.158 108.194" stroke="#E2E2E2" stroke-width="0.613876" stroke-linecap="round" stroke-linejoin="round"/>
<path d="M315.89 22.3454H250.755C250.707 22.3451 250.661 22.3308 250.621 22.3041C250.581 22.2774 250.55 22.2396 250.532 22.1954C250.515 22.1513 250.511 22.1032 250.521 22.0569C250.53 22.0106 250.553 21.968 250.586 21.9341C250.963 21.5567 251.965 20.4534 252.115 19.8534C252.332 18.9872 255.086 18.7405 256.29 18.6776C256.921 18.4699 257.499 18.1267 257.983 17.6719C258.467 17.2172 258.846 16.6619 259.092 16.0452C259.75 14.2452 262.741 13.9452 264.928 13.7275C265.62 13.6549 266.215 13.5968 266.641 13.5049C267.258 13.3525 267.834 13.0667 268.329 12.6678C268.381 12.6285 268.446 12.611 268.51 12.6191C268.574 12.6273 268.633 12.6604 268.673 12.7113C268.712 12.762 268.729 12.8262 268.721 12.8897C268.713 12.9531 268.68 13.0108 268.629 13.05C268.078 13.4956 267.433 13.8115 266.742 13.9742C266.158 14.0828 265.569 14.1603 264.976 14.2065C262.92 14.4146 260.099 14.6904 259.547 16.2098C259.278 16.9059 258.855 17.5321 258.309 18.0416C257.764 18.5511 257.11 18.9306 256.397 19.1518H256.349C254.413 19.2485 252.666 19.6356 252.584 19.9647C252.292 20.6711 251.863 21.3126 251.321 21.8518H315.75C316.084 21.2566 317.4 18.4308 314.332 15.7017C312.88 14.4146 310.795 14.7339 308.956 14.9855C306.967 15.2759 305.085 15.5517 304.674 13.5726C304.661 13.5084 304.674 13.4418 304.71 13.3874C304.747 13.3329 304.803 13.2951 304.867 13.2823C304.931 13.2694 304.998 13.2826 305.053 13.3189C305.107 13.3552 305.145 13.4117 305.158 13.4758C305.462 14.9275 306.711 14.8259 308.893 14.5065C310.829 14.2259 313.045 13.9016 314.666 15.3388C318.363 18.6292 316.118 22.1905 316.118 22.2244C316.095 22.2643 316.062 22.297 316.022 22.3185C315.981 22.3399 315.936 22.3493 315.89 22.3454Z" fill="#263238"/>
<path d="M270.187 11.2252C270.138 11.2243 270.091 11.2092 270.051 11.1816C270.025 11.1641 270.002 11.1415 269.985 11.1151C269.967 11.0887 269.955 11.0591 269.949 11.028C269.944 10.9969 269.944 10.9649 269.951 10.9339C269.957 10.903 269.97 10.8737 269.988 10.8478C270.566 9.97745 271.052 9.04996 271.44 8.07997C271.669 7.47145 272.029 6.92089 272.495 6.46755C272.961 6.01421 273.521 5.66927 274.135 5.45734C276.114 4.77506 278.814 5.31217 281.742 6.96704C283.571 7.99771 284.834 8.33159 285.729 8.01707C286.794 7.64448 287.311 6.34284 287.974 4.69764C288.788 2.84698 290.299 1.3918 292.179 0.647559C293.272 0.19895 294.445 -0.0209066 295.626 0.00156412C296.807 0.0240349 297.971 0.288356 299.045 0.778208C302.215 2.11856 303.788 5.66541 304.547 8.40901C304.556 8.43919 304.559 8.47083 304.555 8.50208C304.552 8.53333 304.542 8.56358 304.527 8.59104C304.511 8.61851 304.491 8.64266 304.466 8.66208C304.441 8.68151 304.413 8.69582 304.383 8.70418C304.352 8.71299 304.32 8.71558 304.288 8.71182C304.256 8.70805 304.225 8.698 304.197 8.68224C304.169 8.66648 304.145 8.64534 304.125 8.62003C304.106 8.59472 304.091 8.56576 304.083 8.53482C303.352 5.89767 301.852 2.49115 298.857 1.22338C297.841 0.759235 296.74 0.508185 295.623 0.485715C294.507 0.463245 293.397 0.669831 292.363 1.09273C290.61 1.79812 289.197 3.15388 288.419 4.87668C287.747 6.56542 287.161 8.02674 285.889 8.47191C284.853 8.83482 283.469 8.47191 281.505 7.38802C278.698 5.80089 276.139 5.2783 274.295 5.93638C273.743 6.12387 273.24 6.43167 272.821 6.83755C272.403 7.24342 272.08 7.73721 271.876 8.2832C271.473 9.28286 270.97 10.2393 270.376 11.1381C270.352 11.1652 270.323 11.187 270.291 11.202C270.258 11.2171 270.223 11.225 270.187 11.2252Z" fill="#263238"/>
<path d="M49.9886 29.8264H35.6456C35.6049 29.8264 35.5659 29.8103 35.5371 29.7815C35.5083 29.7527 35.4922 29.7137 35.4922 29.673C35.4922 29.6323 35.5083 29.5933 35.5371 29.5646C35.5659 29.5358 35.6049 29.5196 35.6456 29.5196H49.8996C50.0408 29.2466 50.4457 28.2403 49.3505 27.2677C48.8166 26.7922 48.0312 26.9057 47.3378 27.0069C46.7242 27.0928 46.172 27.1757 45.8468 26.8504C45.6136 26.6173 45.54 26.2368 45.632 25.6232C45.6044 25.3717 45.2393 22.4847 43.4353 21.7207C42.9514 21.4999 42.4184 21.4087 41.8886 21.456C41.3588 21.5033 40.8504 21.6876 40.4133 21.9907C40.3801 22.014 40.3392 22.0235 40.2991 22.0172C40.259 22.0109 40.223 21.9893 40.1985 21.957C40.1868 21.9405 40.1784 21.9218 40.1739 21.9021C40.1693 21.8823 40.1688 21.8619 40.1722 21.8419C40.1756 21.8219 40.183 21.8028 40.1938 21.7857C40.2046 21.7686 40.2188 21.7538 40.2354 21.7422C40.7139 21.406 41.272 21.2009 41.8543 21.147C42.4366 21.0932 43.0229 21.1926 43.555 21.4354C45.6013 22.3006 45.9265 25.476 45.9388 25.611C45.9403 25.6232 45.9403 25.6356 45.9388 25.6478C45.8652 26.1448 45.9081 26.4761 46.0646 26.6326C46.2794 26.8504 46.7488 26.783 47.2918 26.7032C48.0159 26.5989 48.9117 26.4669 49.556 27.0376C51.0103 28.3323 50.1267 29.7405 50.1175 29.7559C50.1032 29.7771 50.0841 29.7946 50.0616 29.8069C50.0392 29.8191 50.0142 29.8259 49.9886 29.8264Z" fill="#263238"/>
<path d="M33.3912 29.8221H25.0033C24.973 29.822 24.9434 29.8129 24.9183 29.7959C24.8932 29.779 24.8736 29.755 24.8621 29.727C24.8513 29.6991 24.8487 29.6686 24.8547 29.6392C24.8607 29.6099 24.875 29.5828 24.8959 29.5613C25.1315 29.3416 25.3249 29.0806 25.4665 28.7913C25.5524 28.4507 26.4054 28.3341 27.1171 28.2942C27.3487 28.2173 27.5607 28.0906 27.7382 27.9232C27.9158 27.7557 28.0546 27.5515 28.1449 27.3248C28.4088 26.5976 29.5777 26.481 30.4337 26.4043C30.6509 26.3874 30.867 26.3587 31.081 26.3184C31.7621 26.1681 32.4003 25.441 32.882 24.2721C32.9746 24.0316 33.1184 23.8141 33.3032 23.6346C33.4881 23.455 33.7096 23.3177 33.9527 23.232C34.7289 22.9651 35.7935 23.1706 36.9195 23.8149C37.5944 24.1954 38.0761 24.3273 38.3983 24.2138C38.7818 24.0788 38.9751 23.6002 39.2236 22.9866C39.2392 22.9492 39.2688 22.9194 39.3059 22.9034C39.3431 22.8874 39.3851 22.8864 39.423 22.9007C39.4603 22.9163 39.4899 22.946 39.5054 22.9833C39.5209 23.0207 39.5211 23.0626 39.5058 23.1001C39.242 23.7628 39.0149 24.3273 38.4995 24.5144C38.0853 24.6617 37.5361 24.5144 36.7691 24.0941C35.7076 23.4805 34.7442 23.2964 34.0539 23.5357C33.8513 23.6052 33.6665 23.7189 33.5132 23.8685C33.3598 24.0181 33.2417 24.2 33.1673 24.4009C32.4985 26.0208 31.7008 26.5087 31.1485 26.6314C30.9225 26.675 30.694 26.7047 30.4644 26.7203C29.6912 26.8001 28.6235 26.9044 28.4333 27.4505C28.3259 27.726 28.1579 27.9738 27.9417 28.1756C27.7256 28.3774 27.4668 28.5281 27.1846 28.6164H27.1509C26.4851 28.6532 25.8347 28.7821 25.7611 28.8925C25.6671 29.1241 25.5296 29.3355 25.3561 29.5153H33.3912C33.4319 29.5153 33.471 29.5315 33.4997 29.5603C33.5285 29.589 33.5446 29.628 33.5446 29.6687C33.5446 29.7094 33.5285 29.7484 33.4997 29.7772C33.471 29.806 33.4319 29.8221 33.3912 29.8221Z" fill="#263238"/>
<path d="M451.697 44.0491H432.827C432.773 44.0491 432.722 44.0278 432.684 43.9899C432.646 43.9521 432.625 43.9007 432.625 43.8471C432.625 43.7935 432.646 43.7422 432.684 43.7043C432.722 43.6664 432.773 43.6451 432.827 43.6451H451.592C451.782 43.2856 452.315 41.9605 450.873 40.6798C450.17 40.0537 449.136 40.2031 448.223 40.3364C447.415 40.4496 446.688 40.5586 446.256 40.1304C445.953 39.8234 445.852 39.3224 445.977 38.5145C445.936 38.1832 445.46 34.3816 443.084 33.3757C442.447 33.0849 441.745 32.9648 441.048 33.0271C440.35 33.0895 439.681 33.3321 439.105 33.7312C439.061 33.7619 439.007 33.7744 438.955 33.7661C438.902 33.7578 438.854 33.7294 438.822 33.6868C438.807 33.6651 438.796 33.6405 438.79 33.6145C438.784 33.5885 438.783 33.5616 438.788 33.5353C438.792 33.509 438.802 33.4838 438.816 33.4613C438.83 33.4388 438.849 33.4193 438.871 33.404C439.501 32.9613 440.236 32.6912 441.003 32.6203C441.769 32.5494 442.541 32.6803 443.242 33C445.936 34.1392 446.365 38.3205 446.381 38.4983V38.5468C446.284 39.2012 446.336 39.6375 446.542 39.8436C446.829 40.1304 447.447 40.0415 448.158 39.9365C449.108 39.7991 450.291 39.6254 451.136 40.3768C453.055 42.0817 451.887 43.936 451.875 43.9562C451.856 43.9858 451.83 44.01 451.799 44.0263C451.767 44.0426 451.733 44.0504 451.697 44.0491Z" fill="#263238"/>
<path d="M429.887 44.0411H418.826C418.786 44.0409 418.747 44.0289 418.714 44.0067C418.681 43.9844 418.655 43.9528 418.64 43.9159C418.625 43.8793 418.621 43.8389 418.629 43.8C418.637 43.7611 418.656 43.7255 418.685 43.6977C418.994 43.4074 419.248 43.0639 419.436 42.6837C419.545 42.2353 420.672 42.0818 421.61 42.0293C421.914 41.9272 422.193 41.7601 422.427 41.5397C422.66 41.3193 422.843 41.0508 422.963 40.7527C423.31 39.7952 424.85 39.6417 425.973 39.5407C426.26 39.5181 426.546 39.4803 426.829 39.4276C427.726 39.2296 428.566 38.2722 429.201 36.733C429.323 36.4163 429.512 36.1299 429.755 35.8935C429.999 35.6571 430.291 35.4762 430.611 35.3634C431.629 35.012 433.035 35.2826 434.517 36.131C435.402 36.632 436.04 36.8057 436.464 36.6562C436.965 36.4784 437.224 35.8482 437.547 35.0402C437.567 34.9904 437.607 34.9507 437.656 34.9299C437.706 34.9091 437.762 34.9088 437.812 34.9291C437.862 34.9495 437.901 34.9888 437.922 35.0384C437.943 35.0881 437.943 35.1439 437.923 35.1938C437.575 36.0623 437.272 36.8097 436.598 37.0521C436.052 37.246 435.325 37.0521 434.315 36.4986C432.921 35.6907 431.649 35.4483 430.74 35.7634C430.474 35.8561 430.231 36.0062 430.029 36.2031C429.828 36.3999 429.672 36.6388 429.572 36.9026C428.696 39.0357 427.645 39.678 426.918 39.8396C426.619 39.8967 426.317 39.9359 426.013 39.9568C424.995 40.0618 423.589 40.1992 423.343 40.9183C423.201 41.2813 422.979 41.6078 422.693 41.8735C422.408 42.1392 422.067 42.3374 421.694 42.4535H421.654C420.777 42.5019 419.921 42.6716 419.824 42.817C419.701 43.1307 419.519 43.4175 419.287 43.6614H429.887C429.941 43.6614 429.992 43.6827 430.03 43.7205C430.068 43.7584 430.089 43.8098 430.089 43.8634C430.089 43.917 430.068 43.9683 430.03 44.0062C429.992 44.0441 429.941 44.0654 429.887 44.0654V44.0411Z" fill="#263238"/>
<path d="M141.578 457.711L0.00637817 480.885V457.711H141.578Z" fill="#F6F6F6"/>
<path d="M-0.00149536 426.406H141.57V457.216H-0.00149536V426.406Z" fill="#4CA771"/>
<g opacity="0.3">
<path d="M0.00297928 426.43H30.6484V457.239H0.00297928V426.43Z" fill="black"/>
</g>
<path d="M53.1785 450.523V434.695H55.3866V448.941H59.4316V450.523H53.1785ZM62.3913 450.68C61.9484 450.68 61.6031 450.563 61.3556 450.328C61.1081 450.094 60.9322 449.8 60.828 449.449C60.7368 449.097 60.6912 448.739 60.6912 448.374V439.229H62.7821V447.749C62.7821 448.152 62.8407 448.472 62.958 448.706C63.0752 448.928 63.3162 449.038 63.681 449.038C63.9155 449.038 64.1565 448.973 64.404 448.843C64.6645 448.7 64.9121 448.53 65.1465 448.335V439.229H67.2374V450.523H65.1465V449.41C64.7818 449.761 64.3649 450.061 63.8959 450.308C63.44 450.556 62.9384 450.68 62.3913 450.68ZM69.3758 450.523V439.229H71.3103V440.304C71.6881 439.874 72.105 439.554 72.5609 439.346C73.0169 439.138 73.4859 439.033 73.9679 439.033C74.3848 439.033 74.756 439.138 75.0817 439.346C75.4204 439.554 75.6614 439.926 75.8047 440.46C76.2086 439.965 76.645 439.607 77.114 439.385C77.596 439.151 78.0975 439.033 78.6186 439.033C78.9834 439.033 79.3156 439.125 79.6152 439.307C79.9148 439.476 80.1558 439.756 80.3382 440.147C80.5206 440.525 80.6118 441.027 80.6118 441.652V450.523H78.6968V441.789C78.6968 441.242 78.6056 440.877 78.4232 440.694C78.2538 440.499 78.0194 440.401 77.7197 440.401C77.4331 440.401 77.1335 440.486 76.8209 440.655C76.5082 440.812 76.2216 441.033 75.9611 441.32C75.9611 441.372 75.9611 441.424 75.9611 441.476C75.9611 441.528 75.9611 441.587 75.9611 441.652V450.523H74.046V441.789C74.046 441.242 73.9549 440.877 73.7725 440.694C73.6031 440.499 73.3686 440.401 73.069 440.401C72.7824 440.401 72.4828 440.486 72.1701 440.655C71.8705 440.812 71.5839 441.033 71.3103 441.32V450.523H69.3758ZM82.6575 454.236V439.229H84.7483V440.128C84.9959 439.841 85.2955 439.594 85.6472 439.385C85.999 439.177 86.4158 439.072 86.8978 439.072C87.4841 439.072 87.9465 439.229 88.2852 439.541C88.637 439.841 88.8975 440.225 89.0669 440.694C89.2362 441.15 89.347 441.619 89.3991 442.101C89.4512 442.57 89.4772 442.974 89.4772 443.313V446.049C89.4772 446.843 89.3991 447.599 89.2427 448.315C89.0864 449.019 88.7998 449.592 88.3829 450.035C87.9791 450.465 87.4059 450.68 86.6634 450.68C86.2595 450.68 85.9013 450.582 85.5886 450.387C85.2759 450.178 84.9959 449.944 84.7483 449.683V454.236H82.6575ZM86.253 449.038C86.6178 449.038 86.8783 448.908 87.0346 448.648C87.191 448.374 87.2887 448.009 87.3277 447.553C87.3668 447.097 87.3864 446.596 87.3864 446.049V443.313C87.3864 442.844 87.3603 442.414 87.3082 442.023C87.2561 441.619 87.1454 441.3 86.976 441.066C86.8067 440.831 86.5396 440.714 86.1748 440.714C85.9013 440.714 85.6407 440.773 85.3932 440.89C85.1457 441.007 84.9307 441.144 84.7483 441.3V448.53C84.9438 448.674 85.1652 448.797 85.4127 448.902C85.6603 448.993 85.9403 449.038 86.253 449.038ZM93.9968 450.68C93.0719 450.68 92.3293 450.393 91.7692 449.82C91.209 449.234 90.8898 448.465 90.8117 447.514L92.5508 446.987C92.655 447.703 92.8309 448.244 93.0784 448.608C93.3259 448.96 93.6907 449.136 94.1727 449.136C94.5505 449.136 94.8371 449.032 95.0325 448.823C95.2279 448.602 95.3256 448.309 95.3256 447.944C95.3256 447.618 95.254 447.325 95.1107 447.065C94.9674 446.804 94.7329 446.537 94.4072 446.264L92.4726 444.603C92.0818 444.264 91.7496 443.886 91.4761 443.469C91.2155 443.052 91.0852 442.512 91.0852 441.847C91.0852 441.248 91.2025 440.746 91.437 440.343C91.6845 439.926 92.0232 439.613 92.4531 439.405C92.896 439.183 93.4106 439.072 93.9968 439.072C94.8957 439.072 95.5796 439.366 96.0486 439.952C96.5306 440.525 96.8042 441.222 96.8693 442.043L95.4624 442.57C95.4103 442.179 95.3321 441.841 95.2279 441.554C95.1237 441.255 94.9804 441.027 94.798 440.87C94.6156 440.701 94.3746 440.616 94.075 440.616C93.7363 440.616 93.4627 440.733 93.2543 440.968C93.0589 441.189 92.9612 441.456 92.9612 441.769C92.9612 441.965 93.0002 442.16 93.0784 442.355C93.1696 442.538 93.3194 442.72 93.5279 442.902L95.521 444.739C95.7946 444.987 96.0486 445.254 96.2831 445.541C96.5306 445.827 96.7326 446.153 96.8889 446.518C97.0452 446.882 97.1234 447.306 97.1234 447.788C97.1234 448.426 96.9931 448.96 96.7326 449.39C96.472 449.82 96.1073 450.146 95.6383 450.367C95.1693 450.576 94.6221 450.68 93.9968 450.68ZM100.309 450.68C99.8661 450.68 99.5208 450.563 99.2733 450.328C99.0258 450.094 98.8499 449.8 98.7457 449.449C98.6545 449.097 98.6089 448.739 98.6089 448.374V439.229H100.7V447.749C100.7 448.152 100.758 448.472 100.876 448.706C100.993 448.928 101.234 449.038 101.599 449.038C101.833 449.038 102.074 448.973 102.322 448.843C102.582 448.7 102.83 448.53 103.064 448.335V439.229H105.155V450.523H103.064V449.41C102.7 449.761 102.283 450.061 101.814 450.308C101.358 450.556 100.856 450.68 100.309 450.68ZM107.293 450.523V439.229H109.228V440.304C109.606 439.874 110.023 439.554 110.479 439.346C110.935 439.138 111.404 439.033 111.886 439.033C112.302 439.033 112.674 439.138 112.999 439.346C113.338 439.554 113.579 439.926 113.722 440.46C114.126 439.965 114.563 439.607 115.032 439.385C115.514 439.151 116.015 439.033 116.536 439.033C116.901 439.033 117.233 439.125 117.533 439.307C117.833 439.476 118.074 439.756 118.256 440.147C118.438 440.525 118.529 441.027 118.529 441.652V450.523H116.614V441.789C116.614 441.242 116.523 440.877 116.341 440.694C116.172 440.499 115.937 440.401 115.637 440.401C115.351 440.401 115.051 440.486 114.739 440.655C114.426 440.812 114.139 441.033 113.879 441.32C113.879 441.372 113.879 441.424 113.879 441.476C113.879 441.528 113.879 441.587 113.879 441.652V450.523H111.964V441.789C111.964 441.242 111.873 440.877 111.69 440.694C111.521 440.499 111.286 440.401 110.987 440.401C110.7 440.401 110.4 440.486 110.088 440.655C109.788 440.812 109.502 441.033 109.228 441.32V450.523H107.293Z" fill="white"/>
<path d="M304.828 350.828L163.246 374.002V350.828H304.828Z" fill="#F6F6F6"/>
<path d="M163.249 319.852H304.82V350.664H163.249V319.852Z" fill="#4CA771"/>
<g opacity="0.3">
<path d="M163.214 319.867H193.859V350.68H163.214V319.867Z" fill="black"/>
</g>
<path d="M208.218 344.516L208.511 328.688H210.68L213.474 341.526L216.288 328.688H218.438L218.731 344.516H216.953L216.777 333.026L214.1 344.516H212.849L210.191 333.026L210.016 344.516H208.218ZM224.088 344.672C223.254 344.672 222.596 344.503 222.114 344.164C221.632 343.825 221.287 343.343 221.079 342.718C220.883 342.093 220.786 341.357 220.786 340.51V337.227C220.786 336.38 220.883 335.644 221.079 335.019C221.287 334.393 221.632 333.911 222.114 333.573C222.596 333.234 223.254 333.065 224.088 333.065C224.922 333.065 225.573 333.234 226.042 333.573C226.524 333.911 226.863 334.393 227.058 335.019C227.267 335.644 227.371 336.38 227.371 337.227V340.51C227.371 341.357 227.267 342.093 227.058 342.718C226.863 343.343 226.524 343.825 226.042 344.164C225.573 344.503 224.922 344.672 224.088 344.672ZM224.088 343.128C224.492 343.128 224.772 343.011 224.928 342.776C225.098 342.542 225.195 342.236 225.221 341.858C225.261 341.467 225.28 341.063 225.28 340.647V337.11C225.28 336.68 225.261 336.276 225.221 335.898C225.195 335.52 225.098 335.214 224.928 334.98C224.772 334.732 224.492 334.608 224.088 334.608C223.684 334.608 223.398 334.732 223.228 334.98C223.059 335.214 222.955 335.52 222.916 335.898C222.89 336.276 222.877 336.68 222.877 337.11V340.647C222.877 341.063 222.89 341.467 222.916 341.858C222.955 342.236 223.059 342.542 223.228 342.776C223.398 343.011 223.684 343.128 224.088 343.128ZM229.282 344.516V333.221H231.373V334.335C231.751 333.983 232.168 333.683 232.624 333.436C233.08 333.188 233.581 333.065 234.128 333.065C234.584 333.065 234.929 333.182 235.164 333.416C235.411 333.651 235.581 333.944 235.672 334.296C235.776 334.647 235.828 335.006 235.828 335.37V344.516H233.737V335.976C233.737 335.572 233.679 335.26 233.562 335.038C233.444 334.817 233.203 334.706 232.839 334.706C232.604 334.706 232.357 334.778 232.096 334.921C231.849 335.051 231.608 335.214 231.373 335.41V344.516H229.282ZM240.879 344.672C240.293 344.672 239.817 344.561 239.452 344.34C239.101 344.118 238.84 343.806 238.671 343.402C238.514 342.998 238.436 342.522 238.436 341.975V334.608H237.244V333.221H238.436V329.919H240.527V333.221H242.344V334.608H240.527V341.839C240.527 342.281 240.599 342.601 240.742 342.796C240.885 342.978 241.159 343.07 241.563 343.07C241.667 343.07 241.784 343.063 241.914 343.05C242.058 343.037 242.195 343.024 242.325 343.011V344.555C242.064 344.594 241.823 344.62 241.602 344.633C241.38 344.659 241.139 344.672 240.879 344.672ZM243.939 344.516V328.688H246.03V334.393C246.408 334.029 246.831 333.716 247.3 333.455C247.769 333.195 248.29 333.065 248.864 333.065C249.306 333.065 249.645 333.182 249.88 333.416C250.127 333.651 250.297 333.944 250.388 334.296C250.492 334.647 250.544 335.006 250.544 335.37V344.516H248.453V335.976C248.453 335.572 248.395 335.26 248.277 335.038C248.16 334.817 247.919 334.706 247.554 334.706C247.307 334.706 247.046 334.778 246.773 334.921C246.512 335.064 246.265 335.24 246.03 335.449V344.516H243.939ZM252.778 344.516V328.688H254.869V344.516H252.778ZM256.872 347.349V345.747C257.38 345.747 257.784 345.721 258.083 345.669C258.383 345.629 258.598 345.545 258.728 345.415C258.859 345.297 258.924 345.128 258.924 344.906C258.924 344.789 258.878 344.529 258.787 344.125C258.696 343.721 258.598 343.291 258.494 342.835L256.227 333.221H258.337L259.862 341.663L261.327 333.221H263.438L260.741 345.141C260.624 345.688 260.409 346.118 260.096 346.431C259.784 346.756 259.38 346.991 258.885 347.134C258.403 347.277 257.816 347.349 257.126 347.349H256.872ZM273.074 344.691C272.162 344.691 271.4 344.496 270.787 344.105C270.188 343.714 269.732 343.174 269.419 342.483C269.107 341.793 268.924 340.992 268.872 340.08L270.826 339.552C270.865 340.112 270.95 340.653 271.08 341.174C271.224 341.695 271.452 342.125 271.764 342.464C272.077 342.79 272.513 342.952 273.074 342.952C273.647 342.952 274.077 342.796 274.363 342.483C274.663 342.158 274.813 341.695 274.813 341.096C274.813 340.379 274.65 339.806 274.324 339.376C273.999 338.933 273.588 338.491 273.093 338.048L270.436 335.703C269.914 335.247 269.53 334.752 269.283 334.218C269.035 333.67 268.911 333 268.911 332.205C268.911 331.045 269.244 330.147 269.908 329.508C270.572 328.87 271.478 328.551 272.624 328.551C273.249 328.551 273.797 328.635 274.266 328.805C274.748 328.961 275.145 329.209 275.458 329.547C275.783 329.886 276.037 330.316 276.22 330.837C276.415 331.345 276.545 331.944 276.611 332.635L274.735 333.143C274.695 332.622 274.617 332.146 274.5 331.716C274.383 331.273 274.174 330.922 273.875 330.661C273.588 330.388 273.171 330.251 272.624 330.251C272.077 330.251 271.647 330.401 271.334 330.7C271.035 330.987 270.885 331.417 270.885 331.99C270.885 332.472 270.963 332.869 271.12 333.182C271.289 333.495 271.556 333.814 271.921 334.139L274.598 336.484C275.197 337.005 275.725 337.631 276.181 338.36C276.637 339.077 276.865 339.93 276.865 340.92C276.865 341.702 276.702 342.379 276.376 342.952C276.05 343.513 275.601 343.942 275.028 344.242C274.468 344.542 273.816 344.691 273.074 344.691ZM278.695 344.516V328.688H280.864V344.516H278.695ZM283.424 344.516V328.688H287.352C288.303 328.688 289.059 328.863 289.619 329.215C290.192 329.554 290.609 330.049 290.87 330.7C291.13 331.352 291.26 332.14 291.26 333.065C291.26 333.898 291.111 334.621 290.811 335.234C290.524 335.846 290.094 336.321 289.521 336.66C288.948 336.986 288.232 337.149 287.372 337.149H285.633V344.516H283.424ZM285.633 335.566H286.649C287.287 335.566 287.789 335.494 288.153 335.351C288.518 335.208 288.779 334.96 288.935 334.608C289.091 334.244 289.169 333.736 289.169 333.084C289.169 332.329 289.111 331.749 288.994 331.345C288.889 330.941 288.661 330.661 288.31 330.505C287.958 330.348 287.411 330.27 286.668 330.27H285.633V335.566Z" fill="white"/>
<path d="M365.98 154.617C365.98 154.617 347.211 182.305 347.211 195.956C347.211 205.02 349.498 212.728 361.466 213.007C373.435 213.285 389.009 213.176 389.009 213.176C389.009 213.176 405.867 209.328 397.892 188.586C393.154 176.693 387.17 165.336 380.042 154.702L365.98 154.617Z" fill="#EBEBEB"/>
<path d="M387.691 136.729C387.497 135.386 385.851 134.793 384.484 134.805C379.643 134.89 375.541 138.98 370.737 138.738C367.723 138.581 365.097 136.741 362.326 135.543C361.665 135.216 360.945 135.027 360.208 134.986C359.842 134.965 359.476 135.032 359.142 135.181C358.807 135.331 358.513 135.559 358.284 135.846C357.607 136.802 358.03 138.109 358.478 139.198C360.705 144.51 364.383 149.787 367.058 154.93L380.95 155.498C380.915 149.678 382.871 144.02 386.493 139.464C386.872 139.117 387.174 138.694 387.381 138.223C387.587 137.752 387.693 137.243 387.691 136.729Z" fill="#EBEBEB"/>
<path d="M366.297 162.46C366.366 160.211 366.868 157.997 367.773 155.938C367.689 158.184 367.189 160.396 366.297 162.46Z" fill="#E0E0E0"/>
<path d="M367.43 171.103C367.421 168.412 367.689 165.728 368.229 163.092C368.571 160.424 369.179 157.797 370.044 155.25C369.787 157.92 369.383 160.575 368.834 163.201C368.511 165.859 368.043 168.497 367.43 171.103Z" fill="#E0E0E0"/>
<path d="M377.302 163.671C376.47 161.131 376.041 158.477 376.031 155.805C376.547 157.042 376.865 158.353 376.975 159.689C377.289 160.992 377.399 162.335 377.302 163.671Z" fill="#E0E0E0"/>
<path d="M366.055 144.633C368.646 147.035 370.753 149.91 372.263 153.104C371.079 151.821 370.007 150.441 369.056 148.977C367.937 147.615 366.933 146.162 366.055 144.633Z" fill="#E0E0E0"/>
<path d="M370.352 140.82C371.035 142.841 371.593 144.902 372.022 146.992C372.644 149.031 373.129 151.109 373.474 153.212C372.529 151.292 371.833 149.258 371.404 147.161C370.777 145.103 370.423 142.971 370.352 140.82Z" fill="#E0E0E0"/>
<path d="M387.484 200.842C388.501 199.604 389.225 198.152 389.602 196.595C389.758 194.997 389.556 193.384 389.009 191.875C389.009 191.875 389.469 192.262 389.832 193.085C390.297 194.214 390.436 195.451 390.231 196.655C390.023 197.864 389.483 198.991 388.67 199.91C388.041 200.636 387.533 200.903 387.484 200.842Z" fill="#E0E0E0"/>
<path d="M356.949 192.227C356.888 192.227 356.538 191.973 356.187 191.331C355.733 190.476 355.52 189.514 355.569 188.548C355.604 187.583 355.892 186.643 356.404 185.825C356.804 185.208 357.179 184.942 357.239 184.99C356.603 186.085 356.244 187.319 356.193 188.584C356.142 189.85 356.402 191.109 356.949 192.251V192.227Z" fill="#E0E0E0"/>
<path d="M468.008 244.258L326.425 267.432V244.258H468.008Z" fill="#F6F6F6"/>
<path d="M326.436 212.969H468.008V243.781H326.436V212.969Z" fill="#4CA771"/>
<g opacity="0.3">
<path d="M326.433 212.961H357.078V243.774H326.433V212.961Z" fill="black"/>
</g>
<path d="M396.174 121.227C396.174 121.227 366.744 164.792 366.695 186.211C366.695 200.455 370.326 212.581 389.119 213.004C407.913 213.428 432.406 213.27 432.406 213.27C432.406 213.27 458.896 207.22 446.359 174.618C435.286 145.829 418.308 121.372 418.308 121.372L396.174 121.227Z" fill="#4CA771"/>
<path d="M430.328 93.1123C430.014 90.9825 427.424 90.0507 425.27 90.087C417.719 90.208 411.22 96.646 403.669 96.2587C398.925 96.0288 394.798 93.1244 390.442 91.2366C389.404 90.7309 388.278 90.4309 387.126 90.3532C386.548 90.3207 385.971 90.4268 385.443 90.6626C384.915 90.8983 384.45 91.257 384.089 91.7086C383.024 93.2092 383.689 95.2785 384.391 96.9848C387.888 105.335 393.685 113.624 397.884 121.66L419.727 122.555C419.662 113.389 422.737 104.476 428.441 97.2994C429.433 96.0651 430.558 94.6734 430.328 93.1123Z" fill="#4CA771"/>
<path d="M396.68 133.461C396.753 131.703 397.037 129.96 397.527 128.269C397.814 126.532 398.306 124.834 398.991 123.211C398.918 124.969 398.633 126.712 398.144 128.402C397.859 130.141 397.367 131.839 396.68 133.461Z" fill="#263238"/>
<path d="M398.456 147.142C398.415 145.903 398.492 144.663 398.686 143.438C398.928 141.163 399.327 138.029 399.896 134.58C400.465 131.131 401.106 128.021 401.603 125.795C401.812 124.557 402.136 123.342 402.571 122.164C402.491 123.387 402.313 124.601 402.038 125.795C401.615 128.215 401.094 131.252 400.525 134.592C399.957 137.932 399.509 140.958 399.122 143.414C399.003 144.673 398.78 145.92 398.456 147.142Z" fill="#263238"/>
<path d="M413.978 135.469C413.338 133.473 412.9 131.418 412.671 129.334C412.232 127.285 411.997 125.197 411.969 123.102C412.602 125.098 413.027 127.154 413.239 129.237C413.694 131.284 413.941 133.372 413.978 135.469Z" fill="#263238"/>
<path d="M396.294 105.547C398.306 107.433 400.103 109.535 401.655 111.815C403.368 113.979 404.844 116.32 406.06 118.798C405.902 118.895 403.845 115.845 401.146 112.191C398.448 108.536 396.173 105.668 396.294 105.547Z" fill="#263238"/>
<path d="M403.047 99.5391C403.406 100.458 403.669 101.411 403.834 102.383C404.318 104.38 404.874 106.703 405.503 109.281C406.133 111.858 406.786 114.121 407.307 116.142C407.624 117.078 407.847 118.043 407.972 119.022C407.504 118.152 407.139 117.23 406.883 116.275C406.302 114.545 405.576 112.137 404.886 109.438C404.197 106.739 403.676 104.271 403.398 102.468C403.165 101.509 403.047 100.526 403.047 99.5391Z" fill="#263238"/>
<path d="M429.99 193.878C429.917 193.805 430.595 193.237 431.406 192.111C432.467 190.679 433.187 189.023 433.511 187.271C433.794 185.495 433.67 183.678 433.148 181.958C432.737 180.639 432.301 179.877 432.386 179.828C432.944 180.382 433.36 181.063 433.596 181.813C434.287 183.579 434.485 185.5 434.167 187.37C433.85 189.239 433.029 190.987 431.793 192.426C431.318 193.049 430.699 193.547 429.99 193.878Z" fill="#263238"/>
<path d="M381.999 180.34C381.938 180.34 381.43 179.892 380.909 178.876C380.244 177.541 379.932 176.057 380.002 174.567C380.045 173.077 380.461 171.62 381.212 170.332C381.805 169.364 382.362 168.916 382.422 168.964C382.483 169.013 382.083 169.582 381.611 170.55C381.005 171.813 380.663 173.188 380.607 174.588C380.551 175.989 380.781 177.386 381.285 178.694C381.569 179.221 381.808 179.772 381.999 180.34Z" fill="#263238"/>
<g opacity="0.3">
<path d="M395.603 123.601L394.805 124.158C396.818 124.963 398.966 125.374 401.134 125.368C400.902 129.935 400.409 134.484 399.657 138.995C401.569 134.549 403.268 130.019 404.752 125.405C409.355 126.023 414.041 125.427 418.342 123.674C410.769 123.238 403.179 123.214 395.603 123.601Z" fill="black"/>
</g>
<path d="M418.986 118.185L394.627 118.041C393.029 118.031 391.727 119.318 391.717 120.916L391.714 121.424C391.705 123.021 392.992 124.324 394.589 124.333L418.949 124.478C420.546 124.487 421.849 123.2 421.858 121.603L421.861 121.095C421.871 119.497 420.584 118.195 418.986 118.185Z" fill="#263238"/>
<path d="M406.692 193.734L397.189 177.157V173.251H400.357C401.624 173.251 402.733 173.075 403.683 172.723C404.668 172.335 405.478 171.79 406.111 171.086C406.78 170.382 407.238 169.537 407.484 168.552H397.189V164.645H407.431C407.22 163.73 406.851 162.921 406.323 162.217C405.83 161.513 405.161 160.967 404.316 160.58C403.507 160.158 402.522 159.947 401.36 159.947H397.189V156.04H420.999V159.947H412.711C413.309 160.615 413.802 161.337 414.189 162.111C414.611 162.885 414.893 163.73 415.034 164.645H420.999V168.552H415.139C414.787 171.156 413.784 173.198 412.13 174.676C410.476 176.119 408.346 177.104 405.742 177.632L416.089 193.734H406.692Z" fill="black" fill-opacity="0.6"/>
<path d="M388.437 236.586V220.758H392.365C393.316 220.758 394.071 220.934 394.632 221.285C395.205 221.624 395.622 222.119 395.882 222.771C396.143 223.422 396.273 224.21 396.273 225.135C396.273 225.969 396.123 226.692 395.824 227.304C395.537 227.916 395.107 228.392 394.534 228.731C393.961 229.056 393.244 229.219 392.384 229.219H390.645V236.586H388.437ZM390.645 227.636H391.661C392.3 227.636 392.801 227.565 393.166 227.421C393.531 227.278 393.791 227.03 393.948 226.679C394.104 226.314 394.182 225.806 394.182 225.155C394.182 224.399 394.124 223.819 394.006 223.415C393.902 223.012 393.674 222.731 393.322 222.575C392.971 222.419 392.423 222.341 391.681 222.341H390.645V227.636ZM397.709 236.586V225.291H399.8V226.894C400.216 226.203 400.633 225.741 401.05 225.506C401.467 225.272 401.884 225.155 402.301 225.155C402.353 225.155 402.398 225.155 402.438 225.155C402.49 225.155 402.555 225.161 402.633 225.174V227.48C402.477 227.415 402.294 227.363 402.086 227.324C401.89 227.271 401.689 227.245 401.48 227.245C401.154 227.245 400.855 227.324 400.581 227.48C400.321 227.623 400.06 227.91 399.8 228.34V236.586H397.709ZM407.035 236.742C406.202 236.742 405.544 236.573 405.062 236.234C404.58 235.895 404.234 235.413 404.026 234.788C403.831 234.163 403.733 233.427 403.733 232.58V229.297C403.733 228.45 403.831 227.714 404.026 227.089C404.234 226.464 404.58 225.982 405.062 225.643C405.544 225.304 406.202 225.135 407.035 225.135C407.869 225.135 408.52 225.304 408.989 225.643C409.471 225.982 409.81 226.464 410.006 227.089C410.214 227.714 410.318 228.45 410.318 229.297V232.58C410.318 233.427 410.214 234.163 410.006 234.788C409.81 235.413 409.471 235.895 408.989 236.234C408.52 236.573 407.869 236.742 407.035 236.742ZM407.035 235.199C407.439 235.199 407.719 235.081 407.876 234.847C408.045 234.612 408.143 234.306 408.169 233.928C408.208 233.538 408.227 233.134 408.227 232.717V229.18C408.227 228.75 408.208 228.346 408.169 227.968C408.143 227.591 408.045 227.284 407.876 227.05C407.719 226.802 407.439 226.679 407.035 226.679C406.631 226.679 406.345 226.802 406.176 227.05C406.006 227.284 405.902 227.591 405.863 227.968C405.837 228.346 405.824 228.75 405.824 229.18V232.717C405.824 233.134 405.837 233.538 405.863 233.928C405.902 234.306 406.006 234.612 406.176 234.847C406.345 235.081 406.631 235.199 407.035 235.199ZM412.894 236.586V226.835H411.545V225.291H412.894V224.705C412.894 223.949 412.972 223.324 413.128 222.829C413.298 222.334 413.578 221.963 413.969 221.715C414.359 221.468 414.893 221.344 415.571 221.344C415.74 221.344 415.916 221.351 416.098 221.364C416.294 221.377 416.496 221.396 416.704 221.422V222.985C416.574 222.959 416.444 222.94 416.313 222.927C416.196 222.914 416.085 222.907 415.981 222.907C415.577 222.907 415.31 223.018 415.18 223.24C415.05 223.461 414.985 223.832 414.985 224.353V225.291H419.596V236.586H417.505V226.835H414.985V236.586H412.894ZM417.701 223.611V221.422H419.616V223.611H417.701ZM424.837 236.742C424.251 236.742 423.776 236.632 423.411 236.41C423.059 236.189 422.799 235.876 422.629 235.472C422.473 235.068 422.395 234.593 422.395 234.046V226.679H421.203V225.291H422.395V221.989H424.486V225.291H426.303V226.679H424.486V233.909C424.486 234.352 424.557 234.671 424.701 234.866C424.844 235.049 425.117 235.14 425.521 235.14C425.626 235.14 425.743 235.133 425.873 235.12C426.016 235.107 426.153 235.094 426.283 235.081V236.625C426.023 236.664 425.782 236.69 425.56 236.703C425.339 236.729 425.098 236.742 424.837 236.742Z" fill="white"/>
</svg>
