<svg width="475" height="138" viewBox="0 0 475 138" fill="none" xmlns="http://www.w3.org/2000/svg">
<path d="M194.367 59.8051H7.47415C3.36254 59.8051 0 56.4411 0 52.3295V7.47564C0 3.36404 3.36254 0 7.47415 0H194.367C198.478 0 201.842 3.36404 201.842 7.47564V52.3295C201.842 56.4411 198.478 59.8051 194.367 59.8051Z" fill="black"/>
<path d="M30.903 29.1328L14.9844 46.0278C14.9859 46.0308 14.9859 46.0338 14.9874 46.0367C15.4748 47.8728 17.1508 49.2229 19.1393 49.2229C19.9347 49.2229 20.6808 49.0076 21.3207 48.6308L21.3716 48.6009L39.2892 38.2621L30.903 29.1328Z" fill="#EB4335"/>
<path d="M46.9971 26.2615L46.9822 26.251L39.2464 21.7656L30.5312 29.5209L39.2763 38.2644L46.9717 33.8253C48.3203 33.0972 49.2353 31.6753 49.2353 30.0352C49.2353 28.407 48.3323 26.9911 46.9971 26.2615Z" fill="#FABC13"/>
<path d="M14.9825 13.9766C14.8868 14.3294 14.8359 14.6987 14.8359 15.083V44.9362C14.8359 45.3204 14.8853 45.6912 14.9825 46.0426L31.4483 29.5797L14.9825 13.9766Z" fill="#547DBF"/>
<path d="M31.0196 30.0008L39.2593 21.7641L21.3611 11.3879C20.7107 10.9977 19.9527 10.7734 19.1393 10.7734C17.1508 10.7734 15.4733 12.1265 14.9844 13.964V13.9685L31.0196 30.0008Z" fill="#30A851"/>
<path d="M101.814 32.4486C98.2972 32.4486 95.431 35.1219 95.431 38.8074C95.431 42.469 98.2972 45.1662 101.814 45.1662C105.33 45.1662 108.196 42.469 108.196 38.8074C108.196 35.1219 105.33 32.4486 101.814 32.4486ZM101.814 42.6619C99.8865 42.6619 98.2239 41.0725 98.2239 38.8074C98.2239 36.5184 99.8865 34.953 101.814 34.953C103.741 34.953 105.402 36.5184 105.402 38.8074C105.402 41.071 103.741 42.6619 101.814 42.6619ZM87.8881 32.4486C84.3715 32.4486 81.5054 35.1219 81.5054 38.8074C81.5054 42.469 84.3715 45.1662 87.8881 45.1662C91.4046 45.1662 94.2708 42.469 94.2708 38.8074C94.2723 35.1219 91.4046 32.4486 87.8881 32.4486ZM87.8881 42.6619C85.9608 42.6619 84.2998 41.0725 84.2998 38.8074C84.2998 36.5184 85.9623 34.953 87.8881 34.953C89.8153 34.953 91.4764 36.5184 91.4764 38.8074C91.4779 41.071 89.8153 42.6619 87.8881 42.6619ZM71.325 34.3998V37.097H77.781C77.5881 38.6145 77.0828 39.7224 76.3113 40.4939C75.3723 41.4329 73.9026 42.469 71.325 42.469C67.351 42.469 64.2441 39.2649 64.2441 35.2909C64.2441 31.3168 67.351 28.1128 71.325 28.1128C73.4691 28.1128 75.0345 28.956 76.1902 30.04L78.0935 28.1367C76.4802 26.5952 74.3362 25.4141 71.325 25.4141C65.8813 25.4141 61.3047 29.8456 61.3047 35.2894C61.3047 40.7331 65.8813 45.1647 71.325 45.1647C74.263 45.1647 76.4802 44.2018 78.2146 42.3942C79.9968 40.612 80.5515 38.1062 80.5515 36.0833C80.5515 35.4568 80.5036 34.8782 80.4064 34.3968H71.325V34.3998ZM139.066 36.4945C138.537 35.0726 136.922 32.4471 133.623 32.4471C130.347 32.4471 127.626 35.0247 127.626 38.8059C127.626 42.3703 130.323 45.1647 133.937 45.1647C136.851 45.1647 138.537 43.3825 139.235 42.3464L137.067 40.9006C136.345 41.9606 135.357 42.6589 133.937 42.6589C132.515 42.6589 131.504 42.0085 130.854 40.7317L139.356 37.2151L139.066 36.4945ZM130.395 38.6145C130.323 36.1581 132.298 34.9051 133.718 34.9051C134.826 34.9051 135.765 35.4583 136.079 36.2537L130.395 38.6145ZM123.481 44.7805H126.275V26.0899H123.481V44.7805ZM118.905 33.869H118.809C118.182 33.1229 116.979 32.4471 115.461 32.4471C112.281 32.4471 109.367 35.2415 109.367 38.8298C109.367 42.3942 112.281 45.1647 115.461 45.1647C116.979 45.1647 118.182 44.4904 118.809 43.7189H118.905V44.6339C118.905 47.0665 117.604 48.3673 115.508 48.3673C113.797 48.3673 112.737 47.1383 112.304 46.1036L109.871 47.1159C110.569 48.8024 112.425 50.8731 115.508 50.8731C118.783 50.8731 121.554 48.9459 121.554 44.2497V32.8329H118.905V33.869V33.869ZM115.702 42.6619C113.775 42.6619 112.161 41.0486 112.161 38.8313C112.161 36.5916 113.775 34.953 115.702 34.953C117.605 34.953 119.097 36.5901 119.097 38.8313C119.097 41.0471 117.605 42.6619 115.702 42.6619ZM152.155 26.0899H145.47V44.7805H148.258V37.6995H152.153C155.245 37.6995 158.285 35.4613 158.285 31.8954C158.285 28.3296 155.247 26.0899 152.155 26.0899ZM152.226 35.098H148.258V28.6914H152.226C154.312 28.6914 155.496 30.4183 155.496 31.8954C155.496 33.3427 154.312 35.098 152.226 35.098ZM169.468 32.4143C167.448 32.4143 165.357 33.3039 164.491 35.2759L166.968 36.3106C167.498 35.2759 168.483 34.9395 169.518 34.9395C170.96 34.9395 172.427 35.8052 172.451 37.3437V37.5366C171.946 37.248 170.863 36.8144 169.542 36.8144C166.873 36.8144 164.155 38.2811 164.155 41.0232C164.155 43.5246 166.343 45.1348 168.795 45.1348C170.672 45.1348 171.705 44.293 172.354 43.3078H172.45V44.7506H175.142V37.5844C175.142 34.2652 172.666 32.4143 169.468 32.4143ZM169.13 42.6574C168.217 42.6574 166.941 42.1999 166.941 41.071C166.941 39.6282 168.529 39.075 169.899 39.075C171.125 39.075 171.702 39.3397 172.448 39.7C172.233 41.4314 170.742 42.6574 169.13 42.6574ZM184.953 32.8224L181.755 40.926H181.66L178.342 32.8224H175.337L180.314 44.148L177.476 50.4485H180.386L188.057 32.8224H184.953V32.8224ZM159.825 44.7805H162.615V26.0899H159.825V44.7805Z" fill="white"/>
<path fillRule="evenodd" clipRule="evenodd" d="M110.056 18.2795C109.174 19.1871 108.078 19.6386 106.767 19.6386C105.456 19.6386 104.36 19.1856 103.479 18.2795C102.597 17.3735 102.158 16.2641 102.158 14.9529C102.158 13.6416 102.597 12.5322 103.479 11.6262C104.36 10.7186 105.456 10.2656 106.767 10.2656C108.071 10.2656 109.165 10.7216 110.051 11.6322C110.936 12.5427 111.378 13.6491 111.378 14.9529C111.378 16.2656 110.937 17.375 110.056 18.2795ZM104.33 17.529C104.994 18.2018 105.806 18.5367 106.767 18.5367C107.729 18.5367 108.54 18.2003 109.204 17.529C109.868 16.8562 110.202 15.9979 110.202 14.9543C110.202 13.9107 109.868 13.051 109.204 12.3797C108.542 11.7069 107.729 11.372 106.767 11.372C105.806 11.372 104.994 11.7084 104.33 12.3797C103.668 13.0525 103.334 13.9107 103.334 14.9543C103.334 15.9979 103.668 16.8562 104.33 17.529Z" fill="white"/>
<path d="M70.8976 15.3177C70.8976 16.5706 70.5268 17.5678 69.7837 18.3124C68.9404 19.1975 67.84 19.6401 66.4884 19.6401C65.1937 19.6401 64.0918 19.1915 63.1872 18.2945C62.2811 17.3959 61.8281 16.2835 61.8281 14.9558C61.8281 13.6267 62.2811 12.5143 63.1872 11.6172C64.0918 10.7186 65.1937 10.2701 66.4884 10.2701C67.1313 10.2701 67.7458 10.3957 68.3289 10.6454C68.9135 10.8966 69.3815 11.23 69.7314 11.6471L68.9434 12.4365C68.3499 11.7264 67.532 11.372 66.4869 11.372C65.542 11.372 64.7257 11.7039 64.0364 12.3678C63.3487 13.0316 63.0048 13.8928 63.0048 14.9543C63.0048 16.0159 63.3487 16.8771 64.0379 17.5424C64.7272 18.2062 65.5435 18.5382 66.4884 18.5382C67.4902 18.5382 68.326 18.2048 68.9943 17.5364C69.4279 17.1013 69.679 16.4958 69.7463 15.7199H66.4884V14.6404H70.8348C70.8781 14.8751 70.8976 15.1009 70.8976 15.3177Z" fill="white"/>
<path d="M77.7901 11.5709H73.7054V14.4146H77.3894V15.4926H73.7054V18.3363H77.7901V19.4397H72.5527V10.469H77.7901V11.5709Z" fill="white"/>
<path d="M81.4965 19.4397H82.6493V11.5709H85.1551V10.469H78.9907V11.5709H81.4965V19.4397Z" fill="white"/>
<path d="M89.6166 19.4397V10.469H90.7693V19.4397H89.6166Z" fill="white"/>
<path d="M94.7269 19.4397H95.8797V11.5709H98.3855V10.469H92.2211V11.5709H94.7269V19.4397Z" fill="white"/>
<path d="M112.996 10.469V19.4397H114.146V13.8509L114.096 12.1226H114.146L118.707 19.4397H119.911V10.469H118.758V15.7199L118.807 17.4482H118.758L114.398 10.469H112.996Z" fill="white"/>
<path fillRule="evenodd" clipRule="evenodd" d="M110.056 18.2795C109.174 19.1871 108.078 19.6386 106.767 19.6386C105.456 19.6386 104.36 19.1856 103.479 18.2795C102.597 17.3735 102.158 16.2641 102.158 14.9529C102.158 13.6416 102.597 12.5322 103.479 11.6262C104.36 10.7186 105.456 10.2656 106.767 10.2656C108.071 10.2656 109.165 10.7216 110.051 11.6322C110.936 12.5427 111.378 13.6491 111.378 14.9529C111.378 16.2656 110.937 17.375 110.056 18.2795ZM104.33 17.529C104.994 18.2018 105.806 18.5367 106.767 18.5367C107.729 18.5367 108.54 18.2003 109.204 17.529C109.868 16.8562 110.202 15.9979 110.202 14.9543C110.202 13.9107 109.868 13.051 109.204 12.3797C108.542 11.7069 107.729 11.372 106.767 11.372C105.806 11.372 104.994 11.7084 104.33 12.3797C103.668 13.0525 103.334 13.9107 103.334 14.9543C103.334 15.9979 103.668 16.8562 104.33 17.529Z" stroke="black"/>
<path d="M70.8976 15.3177C70.8976 16.5706 70.5268 17.5678 69.7837 18.3124C68.9404 19.1975 67.84 19.6401 66.4884 19.6401C65.1937 19.6401 64.0918 19.1915 63.1872 18.2945C62.2811 17.3959 61.8281 16.2835 61.8281 14.9558C61.8281 13.6267 62.2811 12.5143 63.1872 11.6172C64.0918 10.7186 65.1937 10.2701 66.4884 10.2701C67.1313 10.2701 67.7458 10.3957 68.3289 10.6454C68.9135 10.8966 69.3815 11.23 69.7314 11.6471L68.9434 12.4365C68.3499 11.7264 67.532 11.372 66.4869 11.372C65.542 11.372 64.7257 11.7039 64.0364 12.3678C63.3487 13.0316 63.0048 13.8928 63.0048 14.9543C63.0048 16.0159 63.3487 16.8771 64.0379 17.5424C64.7272 18.2062 65.5435 18.5382 66.4884 18.5382C67.4902 18.5382 68.326 18.2048 68.9943 17.5364C69.4279 17.1013 69.679 16.4958 69.7463 15.7199H66.4884V14.6404H70.8348C70.8781 14.8751 70.8976 15.1009 70.8976 15.3177Z" stroke="black"/>
<path d="M77.7901 11.5709H73.7054V14.4146H77.3894V15.4926H73.7054V18.3363H77.7901V19.4397H72.5527V10.469H77.7901V11.5709Z" stroke="black"/>
<path d="M81.4965 19.4397H82.6493V11.5709H85.1551V10.469H78.9907V11.5709H81.4965V19.4397Z" stroke="black"/>
<path d="M89.6166 19.4397V10.469H90.7693V19.4397H89.6166Z" stroke="black"/>
<path d="M94.7269 19.4397H95.8797V11.5709H98.3855V10.469H92.2211V11.5709H94.7269V19.4397Z" stroke="black"/>
<path d="M112.996 10.469V19.4397H114.146V13.8509L114.096 12.1226H114.146L118.707 19.4397H119.911V10.469H118.758V15.7199L118.807 17.4482H118.758L114.398 10.469H112.996Z" stroke="black"/>
<rect y="67.8047" width="202.267" height="67.6117" rx="8.45147" fill="black"/>
<path d="M71.5064 113.684H63.5055L61.5841 119.357H58.1953L65.7736 98.3672H69.2945L76.8727 119.357H73.4261L71.5064 113.684ZM64.3342 111.066H70.6762L67.5498 101.858H67.4622L64.3342 111.066Z" fill="white"/>
<path d="M93.2357 111.706C93.2357 116.462 90.6904 119.517 86.8493 119.517C85.8762 119.568 84.9085 119.344 84.057 118.87C83.2054 118.397 82.5044 117.693 82.0342 116.84H81.9616V124.42H78.8203V104.054H81.8609V106.599H81.9186C82.4104 105.75 83.1233 105.049 83.9813 104.573C84.8394 104.097 85.8105 103.862 86.7914 103.893C90.6755 103.893 93.2357 106.964 93.2357 111.706ZM90.007 111.706C90.007 108.608 88.4058 106.571 85.9628 106.571C83.5627 106.571 81.9484 108.651 81.9484 111.706C81.9484 114.79 83.5627 116.855 85.9628 116.855C88.4058 116.855 90.0069 114.832 90.0069 111.706H90.007Z" fill="white"/>
<path d="M110.08 111.706C110.08 116.462 107.534 119.517 103.693 119.517C102.72 119.568 101.752 119.344 100.901 118.87C100.049 118.397 99.3482 117.693 98.878 116.84H98.8053V124.42H95.6641V104.054H98.7046V106.599H98.7624C99.2542 105.75 99.967 105.049 100.825 104.573C101.683 104.097 102.654 103.862 103.635 103.893C107.519 103.893 110.08 106.964 110.08 111.706ZM106.851 111.706C106.851 108.608 105.25 106.571 102.807 106.571C100.407 106.571 98.7921 108.651 98.7921 111.706C98.7921 114.79 100.407 116.855 102.807 116.855C105.25 116.855 106.851 114.832 106.851 111.706V111.706Z" fill="white"/>
<path d="M121.216 113.507C121.448 115.589 123.47 116.956 126.234 116.956C128.881 116.956 130.786 115.589 130.786 113.712C130.786 112.083 129.637 111.107 126.917 110.439L124.197 109.783C120.342 108.852 118.553 107.05 118.553 104.125C118.553 100.503 121.709 98.0156 126.189 98.0156C130.626 98.0156 133.667 100.503 133.769 104.125H130.598C130.408 102.03 128.677 100.766 126.146 100.766C123.616 100.766 121.884 102.045 121.884 103.907C121.884 105.391 122.99 106.264 125.696 106.933L128.008 107.5C132.315 108.519 134.102 110.249 134.102 113.319C134.102 117.246 130.976 119.705 126.001 119.705C121.346 119.705 118.203 117.304 118 113.507L121.216 113.507Z" fill="white"/>
<path d="M140.889 100.43V104.051H143.799V106.539H140.889V114.975C140.889 116.286 141.472 116.897 142.751 116.897C143.096 116.891 143.441 116.867 143.784 116.824V119.297C143.209 119.404 142.625 119.453 142.04 119.442C138.941 119.442 137.733 118.278 137.733 115.31V106.539H135.508V104.051H137.733V100.43H140.889Z" fill="white"/>
<path d="M145.477 111.7C145.477 106.885 148.312 103.859 152.735 103.859C157.172 103.859 159.994 106.885 159.994 111.7C159.994 116.528 157.186 119.541 152.735 119.541C148.284 119.541 145.477 116.528 145.477 111.7ZM156.794 111.7C156.794 108.397 155.28 106.448 152.735 106.448C150.189 106.448 148.676 108.412 148.676 111.7C148.676 115.016 150.189 116.951 152.735 116.951C155.28 116.951 156.794 115.016 156.794 111.7H156.794Z" fill="white"/>
<path d="M162.586 104.053H165.582V106.658H165.655C165.857 105.845 166.334 105.126 167.004 104.622C167.675 104.119 168.498 103.861 169.336 103.893C169.698 103.892 170.059 103.931 170.412 104.01V106.949C169.955 106.809 169.478 106.745 169 106.759C168.544 106.74 168.089 106.821 167.667 106.995C167.245 107.169 166.865 107.432 166.554 107.766C166.243 108.101 166.008 108.499 165.865 108.933C165.723 109.366 165.676 109.826 165.727 110.28V119.357H162.586L162.586 104.053Z" fill="white"/>
<path d="M184.898 114.856C184.476 117.634 181.77 119.541 178.309 119.541C173.857 119.541 171.094 116.558 171.094 111.773C171.094 106.973 173.872 103.859 178.177 103.859C182.411 103.859 185.073 106.768 185.073 111.408V112.484H174.265V112.674C174.215 113.237 174.285 113.805 174.472 114.338C174.658 114.872 174.955 115.36 175.345 115.77C175.734 116.18 176.206 116.503 176.73 116.716C177.253 116.93 177.816 117.029 178.382 117.009C179.124 117.078 179.869 116.906 180.505 116.518C181.142 116.131 181.637 115.548 181.916 114.856L184.898 114.856ZM174.28 110.289H181.93C181.959 109.782 181.882 109.276 181.705 108.8C181.528 108.325 181.255 107.891 180.902 107.527C180.55 107.162 180.126 106.874 179.657 106.681C179.188 106.488 178.684 106.394 178.177 106.405C177.665 106.402 177.158 106.5 176.685 106.694C176.211 106.888 175.781 107.174 175.419 107.535C175.057 107.896 174.769 108.325 174.574 108.798C174.378 109.27 174.278 109.777 174.28 110.289V110.289Z" fill="white"/>
<path d="M63.9321 82.5583C64.5907 82.5111 65.2515 82.6106 65.867 82.8496C66.4824 83.0887 67.0371 83.4614 67.4911 83.9408C67.9451 84.4202 68.287 84.9944 68.4923 85.6219C68.6975 86.2495 68.7608 86.9148 68.6778 87.5698C68.6778 90.7919 66.9363 92.644 63.9321 92.644H60.2891V82.5583H63.9321ZM61.8555 91.2177H63.7571C64.2277 91.2458 64.6986 91.1687 65.1356 90.9918C65.5727 90.815 65.9647 90.543 66.2833 90.1955C66.602 89.848 66.8391 89.4339 66.9774 88.9832C67.1158 88.5326 67.152 88.0567 67.0832 87.5903C67.147 87.1258 67.1072 86.6529 66.9667 86.2055C66.8262 85.7582 66.5885 85.3474 66.2706 85.0027C65.9527 84.658 65.5625 84.3879 65.128 84.2117C64.6934 84.0355 64.2253 83.9576 63.7571 83.9836H61.8555V91.2177Z" fill="white"/>
<path d="M70.4467 88.8398C70.3988 88.3396 70.456 87.8349 70.6147 87.3582C70.7733 86.8814 71.0298 86.443 71.3677 86.0712C71.7057 85.6993 72.1177 85.4022 72.5772 85.1989C73.0367 84.9956 73.5336 84.8906 74.0361 84.8906C74.5385 84.8906 75.0355 84.9956 75.495 85.1989C75.9545 85.4022 76.3664 85.6993 76.7044 86.0712C77.0423 86.443 77.2989 86.8814 77.4575 87.3582C77.6161 87.8349 77.6733 88.3396 77.6255 88.8398C77.6742 89.3405 77.6177 89.8459 77.4595 90.3234C77.3013 90.801 77.0449 91.2401 76.7069 91.6127C76.3688 91.9853 75.9566 92.283 75.4966 92.4867C75.0366 92.6905 74.5391 92.7957 74.0361 92.7957C73.533 92.7957 73.0355 92.6905 72.5755 92.4867C72.1155 92.283 71.7033 91.9853 71.3652 91.6127C71.0272 91.2401 70.7708 90.801 70.6126 90.3234C70.4544 89.8459 70.3979 89.3405 70.4467 88.8398V88.8398ZM76.0804 88.8398C76.0804 87.1899 75.3393 86.2251 74.0385 86.2251C72.7329 86.2251 71.9984 87.1899 71.9984 88.8398C71.9984 90.5029 72.7329 91.4603 74.0385 91.4603C75.3393 91.4602 76.0804 90.4962 76.0804 88.8398H76.0804Z" fill="white"/>
<path d="M87.169 92.6425H85.6108L84.0377 87.0368H83.9188L82.3523 92.6425H80.8089L78.7109 85.0312H80.2345L81.598 90.8391H81.7102L83.2751 85.0312H84.7161L86.2809 90.8391H86.3998L87.7566 85.0312H89.2588L87.169 92.6425Z" fill="white"/>
<path d="M91.0235 85.0294H92.4694V86.2385H92.5817C92.7721 85.8043 93.0933 85.4402 93.5004 85.1971C93.9076 84.9541 94.3804 84.8441 94.853 84.8825C95.2234 84.8546 95.5952 84.9105 95.941 85.0459C96.2869 85.1813 96.5978 85.3927 96.8508 85.6646C97.1038 85.9365 97.2924 86.2618 97.4026 86.6164C97.5128 86.9711 97.5418 87.346 97.4875 87.7134V92.6406H95.9854V88.0906C95.9854 86.8675 95.4539 86.2592 94.343 86.2592C94.0915 86.2475 93.8405 86.2903 93.6071 86.3846C93.3738 86.479 93.1636 86.6227 92.991 86.8059C92.8184 86.9891 92.6874 87.2075 92.6071 87.446C92.5267 87.6846 92.4989 87.9377 92.5255 88.188V92.6407H91.0234L91.0235 85.0294Z" fill="white"/>
<path d="M99.8828 82.0625H101.385V92.645H99.8828V82.0625Z" fill="white"/>
<path d="M103.47 88.8399C103.422 88.3397 103.48 87.835 103.638 87.3582C103.797 86.8814 104.053 86.443 104.391 86.0712C104.729 85.6994 105.141 85.4023 105.601 85.1989C106.06 84.9956 106.557 84.8906 107.06 84.8906C107.562 84.8906 108.059 84.9956 108.519 85.1989C108.978 85.4023 109.39 85.6994 109.728 86.0712C110.066 86.443 110.323 86.8814 110.482 87.3582C110.64 87.835 110.697 88.3397 110.65 88.8399C110.698 89.3407 110.642 89.846 110.484 90.3236C110.325 90.8011 110.069 91.2403 109.731 91.6128C109.393 91.9854 108.98 92.2831 108.52 92.4868C108.06 92.6906 107.563 92.7958 107.06 92.7958C106.557 92.7958 106.059 92.6906 105.599 92.4868C105.139 92.2831 104.727 91.9854 104.389 91.6128C104.051 91.2403 103.794 90.8011 103.636 90.3236C103.478 89.846 103.421 89.3407 103.47 88.8399V88.8399ZM109.104 88.8399C109.104 87.1901 108.363 86.2253 107.062 86.2253C105.756 86.2253 105.022 87.1901 105.022 88.8399C105.022 90.503 105.756 91.4604 107.062 91.4604C108.363 91.4604 109.104 90.4964 109.104 88.8399H109.104Z" fill="white"/>
<path d="M112.234 90.4963C112.234 89.1262 113.254 88.3364 115.065 88.2242L117.127 88.1053V87.4483C117.127 86.6445 116.595 86.1905 115.569 86.1905C114.73 86.1905 114.149 86.4984 113.982 87.0365H112.528C112.682 85.7292 113.911 84.8906 115.638 84.8906C117.546 84.8906 118.622 85.8406 118.622 87.4483V92.6488H117.177V91.5792H117.058C116.816 91.9628 116.478 92.2756 116.076 92.4856C115.674 92.6955 115.224 92.7951 114.771 92.7742C114.452 92.8074 114.129 92.7734 113.823 92.6741C113.518 92.5749 113.237 92.4128 112.998 92.1982C112.758 91.9835 112.567 91.7212 112.436 91.4281C112.304 91.135 112.236 90.8176 112.234 90.4963V90.4963ZM117.127 89.8459V89.2096L115.268 89.3285C114.22 89.3986 113.745 89.7552 113.745 90.4261C113.745 91.1112 114.339 91.5098 115.156 91.5098C115.396 91.534 115.637 91.5099 115.867 91.4387C116.097 91.3676 116.31 91.2509 116.494 91.0957C116.678 90.9404 116.829 90.7498 116.938 90.5351C117.046 90.3204 117.111 90.086 117.127 89.8459V89.8459Z" fill="white"/>
<path d="M120.594 88.8361C120.594 86.431 121.83 84.9075 123.753 84.9075C124.229 84.8855 124.701 84.9995 125.114 85.2359C125.528 85.4724 125.865 85.8216 126.087 86.2428H126.199V82.0625H127.702V92.645H126.262V91.4425H126.143C125.904 91.8608 125.555 92.2057 125.133 92.4397C124.712 92.6738 124.235 92.7882 123.753 92.7704C121.817 92.7705 120.594 91.2469 120.594 88.8361ZM122.145 88.8361C122.145 90.4504 122.906 91.4219 124.179 91.4219C125.445 91.4219 126.228 90.4364 126.228 88.8427C126.228 87.2564 125.437 86.2569 124.179 86.2569C122.915 86.2569 122.145 87.2349 122.145 88.8361H122.145Z" fill="white"/>
<path d="M133.915 88.8398C133.868 88.3396 133.925 87.8349 134.083 87.3582C134.242 86.8814 134.499 86.443 134.836 86.0712C135.174 85.6993 135.586 85.4022 136.046 85.1989C136.505 84.9956 137.002 84.8906 137.505 84.8906C138.007 84.8906 138.504 84.9956 138.964 85.1989C139.423 85.4022 139.835 85.6993 140.173 86.0712C140.511 86.443 140.768 86.8814 140.926 87.3582C141.085 87.8349 141.142 88.3396 141.094 88.8398C141.143 89.3405 141.086 89.8459 140.928 90.3234C140.77 90.801 140.514 91.2401 140.176 91.6127C139.838 91.9853 139.425 92.283 138.965 92.4867C138.505 92.6905 138.008 92.7957 137.505 92.7957C137.002 92.7957 136.504 92.6905 136.044 92.4867C135.584 92.283 135.172 91.9853 134.834 91.6127C134.496 91.2401 134.24 90.801 134.081 90.3234C133.923 89.8459 133.867 89.3405 133.915 88.8398V88.8398ZM139.549 88.8398C139.549 87.1899 138.808 86.2251 137.507 86.2251C136.202 86.2251 135.467 87.1899 135.467 88.8398C135.467 90.5029 136.202 91.4603 137.507 91.4603C138.808 91.4602 139.549 90.4962 139.549 88.8398Z" fill="white"/>
<path d="M143.109 85.0294H144.555V86.2385H144.668C144.858 85.8043 145.179 85.4402 145.586 85.1971C145.993 84.9541 146.466 84.8441 146.939 84.8825C147.309 84.8546 147.681 84.9105 148.027 85.0459C148.373 85.1813 148.684 85.3927 148.937 85.6646C149.19 85.9365 149.378 86.2618 149.489 86.6164C149.599 86.9711 149.628 87.346 149.573 87.7134V92.6406H148.071V88.0906C148.071 86.8675 147.54 86.2592 146.429 86.2592C146.177 86.2475 145.926 86.2903 145.693 86.3846C145.46 86.479 145.25 86.6227 145.077 86.8059C144.904 86.9891 144.773 87.2075 144.693 87.446C144.613 87.6846 144.585 87.9377 144.611 88.188V92.6407H143.109V85.0294Z" fill="white"/>
<path d="M158.064 83.1406V85.0703H159.713V86.3355H158.064V90.2493C158.064 91.0465 158.392 91.3957 159.14 91.3957C159.331 91.395 159.523 91.3835 159.713 91.361V92.6122C159.443 92.6605 159.17 92.6861 158.896 92.689C157.225 92.689 156.56 92.1013 156.56 90.6339V86.3354H155.352V85.0702H156.56V83.1406H158.064Z" fill="white"/>
<path d="M161.766 82.0625H163.255V86.2569H163.373C163.573 85.8185 163.903 85.4524 164.318 85.2085C164.734 84.9645 165.214 84.8545 165.694 84.8934C166.063 84.8734 166.431 84.9349 166.773 85.0736C167.115 85.2122 167.422 85.4247 167.672 85.6957C167.923 85.9667 168.11 86.2896 168.221 86.6414C168.332 86.9932 168.365 87.3653 168.315 87.7309V92.645H166.812V88.1015C166.812 86.8858 166.246 86.2701 165.184 86.2701C164.926 86.2489 164.666 86.2844 164.423 86.3741C164.18 86.4637 163.96 86.6054 163.777 86.7892C163.595 86.973 163.455 87.1945 163.367 87.4381C163.279 87.6818 163.245 87.9417 163.268 88.1997V92.645H161.766L161.766 82.0625Z" fill="white"/>
<path d="M177.073 90.5938C176.869 91.2895 176.427 91.8912 175.824 92.2937C175.221 92.6963 174.496 92.874 173.775 92.7958C173.274 92.8091 172.775 92.713 172.315 92.5144C171.854 92.3157 171.442 92.0192 171.108 91.6454C170.773 91.2716 170.524 90.8295 170.377 90.3498C170.231 89.87 170.19 89.3641 170.259 88.8672C170.192 88.3688 170.233 87.8618 170.38 87.3806C170.526 86.8995 170.774 86.4553 171.106 86.0782C171.439 85.7012 171.849 85.4 172.308 85.1951C172.768 84.9903 173.265 84.8865 173.768 84.8908C175.886 84.8908 177.164 86.3376 177.164 88.7277V89.2519H171.789V89.336C171.766 89.6154 171.801 89.8965 171.892 90.1615C171.984 90.4264 172.13 90.6693 172.32 90.8746C172.511 91.0799 172.743 91.2431 173.001 91.3536C173.258 91.4641 173.536 91.5196 173.816 91.5165C174.176 91.5597 174.54 91.495 174.862 91.3306C175.184 91.1663 175.451 90.9098 175.627 90.5938L177.073 90.5938ZM171.789 88.1409H175.634C175.653 87.8855 175.618 87.6289 175.532 87.3877C175.446 87.1464 175.31 86.9259 175.133 86.7402C174.957 86.5545 174.744 86.4078 174.507 86.3094C174.271 86.2111 174.016 86.1633 173.76 86.1692C173.5 86.1659 173.242 86.2147 173.002 86.3127C172.761 86.4106 172.543 86.5557 172.359 86.7395C172.175 86.9232 172.03 87.1419 171.932 87.3826C171.834 87.6233 171.786 87.8811 171.789 88.1409H171.789Z" fill="white"/>
<path d="M42.2518 101.419C42.2707 99.9521 42.6604 98.5136 43.3847 97.2376C44.1089 95.9615 45.1441 94.8894 46.394 94.121C45.6 92.987 44.5525 92.0537 43.3347 91.3954C42.1169 90.737 40.7624 90.3717 39.3787 90.3284C36.427 90.0186 33.5655 92.0946 32.0614 92.0946C30.5282 92.0946 28.2124 90.3592 25.7186 90.4105C24.1056 90.4626 22.5336 90.9316 21.1557 91.7719C19.7779 92.6122 18.6412 93.7951 17.8564 95.2053C14.4571 101.091 16.9927 109.741 20.2491 114.498C21.8783 116.828 23.7824 119.43 26.2739 119.338C28.712 119.237 29.6226 117.783 32.5655 117.783C35.4812 117.783 36.3355 119.338 38.8775 119.279C41.4937 119.237 43.142 116.939 44.7141 114.588C45.8847 112.928 46.7855 111.093 47.3831 109.152C45.8632 108.509 44.5661 107.433 43.6536 106.058C42.7411 104.683 42.2536 103.069 42.2518 101.419Z" fill="white"/>
<path d="M37.4487 87.2059C38.8752 85.4935 39.578 83.2925 39.4078 81.0703C37.2285 81.2992 35.2154 82.3408 33.7697 83.9875C33.0629 84.7919 32.5215 85.7278 32.1765 86.7416C31.8316 87.7554 31.6898 88.8273 31.7594 89.8959C32.8494 89.9071 33.9278 89.6708 34.9133 89.2049C35.8988 88.7389 36.7657 88.0554 37.4487 87.2059V87.2059Z" fill="white"/>
<path d="M215.266 0H220.024V4.75862H215.266V0ZM220.024 0H224.783V4.75862H220.024V0ZM224.783 0H229.541V4.75862H224.783V0ZM229.541 0H234.3V4.75862H229.541V0ZM234.3 0H239.059V4.75862H234.3V0ZM239.059 0H243.817V4.75862H239.059V0ZM243.817 0H248.576V4.75862H243.817V0ZM253.335 0H258.093V4.75862H253.335V0ZM258.093 0H262.852V4.75862H258.093V0ZM262.852 0H267.61V4.75862H262.852V0ZM267.61 0H272.369V4.75862H267.61V0ZM281.886 0H286.645V4.75862H281.886V0ZM286.645 0H291.404V4.75862H286.645V0ZM291.404 0H296.162V4.75862H291.404V0ZM296.162 0H300.921V4.75862H296.162V0ZM300.921 0H305.679V4.75862H300.921V0ZM305.679 0H310.438V4.75862H305.679V0ZM319.955 0H324.714V4.75862H319.955V0ZM324.714 0H329.473V4.75862H324.714V0ZM329.473 0H334.231V4.75862H329.473V0ZM334.231 0H338.99V4.75862H334.231V0ZM338.99 0H343.748V4.75862H338.99V0ZM343.748 0H348.507V4.75862H343.748V0ZM348.507 0H353.266V4.75862H348.507V0ZM215.266 4.75862H220.024V9.51724H215.266V4.75862ZM243.817 4.75862H248.576V9.51724H243.817V4.75862ZM253.335 4.75862H258.093V9.51724H253.335V4.75862ZM258.093 4.75862H262.852V9.51724H258.093V4.75862ZM300.921 4.75862H305.679V9.51724H300.921V4.75862ZM305.679 4.75862H310.438V9.51724H305.679V4.75862ZM319.955 4.75862H324.714V9.51724H319.955V4.75862ZM348.507 4.75862H353.266V9.51724H348.507V4.75862ZM215.266 9.51724H220.024V14.2759H215.266V9.51724ZM224.783 9.51724H229.541V14.2759H224.783V9.51724ZM229.541 9.51724H234.3V14.2759H229.541V9.51724ZM234.3 9.51724H239.059V14.2759H234.3V9.51724ZM243.817 9.51724H248.576V14.2759H243.817V9.51724ZM258.093 9.51724H262.852V14.2759H258.093V9.51724ZM262.852 9.51724H267.61V14.2759H262.852V9.51724ZM267.61 9.51724H272.369V14.2759H267.61V9.51724ZM272.369 9.51724H277.128V14.2759H272.369V9.51724ZM277.128 9.51724H281.886V14.2759H277.128V9.51724ZM281.886 9.51724H286.645V14.2759H281.886V9.51724ZM305.679 9.51724H310.438V14.2759H305.679V9.51724ZM310.438 9.51724H315.197V14.2759H310.438V9.51724ZM319.955 9.51724H324.714V14.2759H319.955V9.51724ZM329.473 9.51724H334.231V14.2759H329.473V9.51724ZM334.231 9.51724H338.99V14.2759H334.231V9.51724ZM338.99 9.51724H343.748V14.2759H338.99V9.51724ZM348.507 9.51724H353.266V14.2759H348.507V9.51724ZM215.266 14.2759H220.024V19.0345H215.266V14.2759ZM224.783 14.2759H229.541V19.0345H224.783V14.2759ZM229.541 14.2759H234.3V19.0345H229.541V14.2759ZM234.3 14.2759H239.059V19.0345H234.3V14.2759ZM243.817 14.2759H248.576V19.0345H243.817V14.2759ZM258.093 14.2759H262.852V19.0345H258.093V14.2759ZM272.369 14.2759H277.128V19.0345H272.369V14.2759ZM277.128 14.2759H281.886V19.0345H277.128V14.2759ZM291.404 14.2759H296.162V19.0345H291.404V14.2759ZM296.162 14.2759H300.921V19.0345H296.162V14.2759ZM305.679 14.2759H310.438V19.0345H305.679V14.2759ZM310.438 14.2759H315.197V19.0345H310.438V14.2759ZM319.955 14.2759H324.714V19.0345H319.955V14.2759ZM329.473 14.2759H334.231V19.0345H329.473V14.2759ZM334.231 14.2759H338.99V19.0345H334.231V14.2759ZM338.99 14.2759H343.748V19.0345H338.99V14.2759ZM348.507 14.2759H353.266V19.0345H348.507V14.2759ZM215.266 19.0345H220.024V23.7931H215.266V19.0345ZM224.783 19.0345H229.541V23.7931H224.783V19.0345ZM229.541 19.0345H234.3V23.7931H229.541V19.0345ZM234.3 19.0345H239.059V23.7931H234.3V19.0345ZM243.817 19.0345H248.576V23.7931H243.817V19.0345ZM267.61 19.0345H272.369V23.7931H267.61V19.0345ZM277.128 19.0345H281.886V23.7931H277.128V19.0345ZM300.921 19.0345H305.679V23.7931H300.921V19.0345ZM305.679 19.0345H310.438V23.7931H305.679V19.0345ZM310.438 19.0345H315.197V23.7931H310.438V19.0345ZM319.955 19.0345H324.714V23.7931H319.955V19.0345ZM329.473 19.0345H334.231V23.7931H329.473V19.0345ZM334.231 19.0345H338.99V23.7931H334.231V19.0345ZM338.99 19.0345H343.748V23.7931H338.99V19.0345ZM348.507 19.0345H353.266V23.7931H348.507V19.0345ZM215.266 23.7931H220.024V28.5517H215.266V23.7931ZM243.817 23.7931H248.576V28.5517H243.817V23.7931ZM258.093 23.7931H262.852V28.5517H258.093V23.7931ZM262.852 23.7931H267.61V28.5517H262.852V23.7931ZM277.128 23.7931H281.886V28.5517H277.128V23.7931ZM286.645 23.7931H291.404V28.5517H286.645V23.7931ZM300.921 23.7931H305.679V28.5517H300.921V23.7931ZM310.438 23.7931H315.197V28.5517H310.438V23.7931ZM319.955 23.7931H324.714V28.5517H319.955V23.7931ZM348.507 23.7931H353.266V28.5517H348.507V23.7931ZM215.266 28.5517H220.024V33.3103H215.266V28.5517ZM220.024 28.5517H224.783V33.3103H220.024V28.5517ZM224.783 28.5517H229.541V33.3103H224.783V28.5517ZM229.541 28.5517H234.3V33.3103H229.541V28.5517ZM234.3 28.5517H239.059V33.3103H234.3V28.5517ZM239.059 28.5517H243.817V33.3103H239.059V28.5517ZM243.817 28.5517H248.576V33.3103H243.817V28.5517ZM253.335 28.5517H258.093V33.3103H253.335V28.5517ZM262.852 28.5517H267.61V33.3103H262.852V28.5517ZM272.369 28.5517H277.128V33.3103H272.369V28.5517ZM281.886 28.5517H286.645V33.3103H281.886V28.5517ZM291.404 28.5517H296.162V33.3103H291.404V28.5517ZM300.921 28.5517H305.679V33.3103H300.921V28.5517ZM310.438 28.5517H315.197V33.3103H310.438V28.5517ZM319.955 28.5517H324.714V33.3103H319.955V28.5517ZM324.714 28.5517H329.473V33.3103H324.714V28.5517ZM329.473 28.5517H334.231V33.3103H329.473V28.5517ZM334.231 28.5517H338.99V33.3103H334.231V28.5517ZM338.99 28.5517H343.748V33.3103H338.99V28.5517ZM343.748 28.5517H348.507V33.3103H343.748V28.5517ZM348.507 28.5517H353.266V33.3103H348.507V28.5517ZM258.093 33.3103H262.852V38.069H258.093V33.3103ZM272.369 33.3103H277.128V38.069H272.369V33.3103ZM277.128 33.3103H281.886V38.069H277.128V33.3103ZM310.438 33.3103H315.197V38.069H310.438V33.3103ZM220.024 38.069H224.783V42.8276H220.024V38.069ZM243.817 38.069H248.576V42.8276H243.817V38.069ZM248.576 38.069H253.335V42.8276H248.576V38.069ZM253.335 38.069H258.093V42.8276H253.335V38.069ZM258.093 38.069H262.852V42.8276H258.093V38.069ZM262.852 38.069H267.61V42.8276H262.852V38.069ZM300.921 38.069H305.679V42.8276H300.921V38.069ZM315.197 38.069H319.955V42.8276H315.197V38.069ZM343.748 38.069H348.507V42.8276H343.748V38.069ZM348.507 38.069H353.266V42.8276H348.507V38.069ZM215.266 42.8276H220.024V47.5862H215.266V42.8276ZM220.024 42.8276H224.783V47.5862H220.024V42.8276ZM239.059 42.8276H243.817V47.5862H239.059V42.8276ZM253.335 42.8276H258.093V47.5862H253.335V42.8276ZM258.093 42.8276H262.852V47.5862H258.093V42.8276ZM262.852 42.8276H267.61V47.5862H262.852V42.8276ZM272.369 42.8276H277.128V47.5862H272.369V42.8276ZM277.128 42.8276H281.886V47.5862H277.128V42.8276ZM281.886 42.8276H286.645V47.5862H281.886V42.8276ZM286.645 42.8276H291.404V47.5862H286.645V42.8276ZM296.162 42.8276H300.921V47.5862H296.162V42.8276ZM310.438 42.8276H315.197V47.5862H310.438V42.8276ZM324.714 42.8276H329.473V47.5862H324.714V42.8276ZM329.473 42.8276H334.231V47.5862H329.473V42.8276ZM338.99 42.8276H343.748V47.5862H338.99V42.8276ZM343.748 42.8276H348.507V47.5862H343.748V42.8276ZM220.024 47.5862H224.783V52.3448H220.024V47.5862ZM229.541 47.5862H234.3V52.3448H229.541V47.5862ZM239.059 47.5862H243.817V52.3448H239.059V47.5862ZM243.817 47.5862H248.576V52.3448H243.817V47.5862ZM262.852 47.5862H267.61V52.3448H262.852V47.5862ZM267.61 47.5862H272.369V52.3448H267.61V47.5862ZM281.886 47.5862H286.645V52.3448H281.886V47.5862ZM291.404 47.5862H296.162V52.3448H291.404V47.5862ZM310.438 47.5862H315.197V52.3448H310.438V47.5862ZM315.197 47.5862H319.955V52.3448H315.197V47.5862ZM319.955 47.5862H324.714V52.3448H319.955V47.5862ZM329.473 47.5862H334.231V52.3448H329.473V47.5862ZM334.231 47.5862H338.99V52.3448H334.231V47.5862ZM215.266 52.3448H220.024V57.1034H215.266V52.3448ZM220.024 52.3448H224.783V57.1034H220.024V52.3448ZM229.541 52.3448H234.3V57.1034H229.541V52.3448ZM253.335 52.3448H258.093V57.1034H253.335V52.3448ZM262.852 52.3448H267.61V57.1034H262.852V52.3448ZM272.369 52.3448H277.128V57.1034H272.369V52.3448ZM277.128 52.3448H281.886V57.1034H277.128V52.3448ZM281.886 52.3448H286.645V57.1034H281.886V52.3448ZM286.645 52.3448H291.404V57.1034H286.645V52.3448ZM300.921 52.3448H305.679V57.1034H300.921V52.3448ZM305.679 52.3448H310.438V57.1034H305.679V52.3448ZM310.438 52.3448H315.197V57.1034H310.438V52.3448ZM319.955 52.3448H324.714V57.1034H319.955V52.3448ZM324.714 52.3448H329.473V57.1034H324.714V52.3448ZM334.231 52.3448H338.99V57.1034H334.231V52.3448ZM215.266 57.1034H220.024V61.8621H215.266V57.1034ZM220.024 57.1034H224.783V61.8621H220.024V57.1034ZM224.783 57.1034H229.541V61.8621H224.783V57.1034ZM229.541 57.1034H234.3V61.8621H229.541V57.1034ZM234.3 57.1034H239.059V61.8621H234.3V57.1034ZM239.059 57.1034H243.817V61.8621H239.059V57.1034ZM243.817 57.1034H248.576V61.8621H243.817V57.1034ZM248.576 57.1034H253.335V61.8621H248.576V57.1034ZM277.128 57.1034H281.886V61.8621H277.128V57.1034ZM310.438 57.1034H315.197V61.8621H310.438V57.1034ZM315.197 57.1034H319.955V61.8621H315.197V57.1034ZM319.955 57.1034H324.714V61.8621H319.955V57.1034ZM343.748 57.1034H348.507V61.8621H343.748V57.1034ZM215.266 61.8621H220.024V66.6207H215.266V61.8621ZM224.783 61.8621H229.541V66.6207H224.783V61.8621ZM229.541 61.8621H234.3V66.6207H229.541V61.8621ZM234.3 61.8621H239.059V66.6207H234.3V61.8621ZM239.059 61.8621H243.817V66.6207H239.059V61.8621ZM258.093 61.8621H262.852V66.6207H258.093V61.8621ZM272.369 61.8621H277.128V66.6207H272.369V61.8621ZM277.128 61.8621H281.886V66.6207H277.128V61.8621ZM281.886 61.8621H286.645V66.6207H281.886V61.8621ZM286.645 61.8621H291.404V66.6207H286.645V61.8621ZM291.404 61.8621H296.162V66.6207H291.404V61.8621ZM296.162 61.8621H300.921V66.6207H296.162V61.8621ZM305.679 61.8621H310.438V66.6207H305.679V61.8621ZM310.438 61.8621H315.197V66.6207H310.438V61.8621ZM319.955 61.8621H324.714V66.6207H319.955V61.8621ZM329.473 61.8621H334.231V66.6207H329.473V61.8621ZM334.231 61.8621H338.99V66.6207H334.231V61.8621ZM348.507 61.8621H353.266V66.6207H348.507V61.8621ZM215.266 66.6207H220.024V71.3793H215.266V66.6207ZM220.024 66.6207H224.783V71.3793H220.024V66.6207ZM224.783 66.6207H229.541V71.3793H224.783V66.6207ZM243.817 66.6207H248.576V71.3793H243.817V66.6207ZM253.335 66.6207H258.093V71.3793H253.335V66.6207ZM258.093 66.6207H262.852V71.3793H258.093V66.6207ZM262.852 66.6207H267.61V71.3793H262.852V66.6207ZM272.369 66.6207H277.128V71.3793H272.369V66.6207ZM277.128 66.6207H281.886V71.3793H277.128V66.6207ZM286.645 66.6207H291.404V71.3793H286.645V66.6207ZM296.162 66.6207H300.921V71.3793H296.162V66.6207ZM310.438 66.6207H315.197V71.3793H310.438V66.6207ZM315.197 66.6207H319.955V71.3793H315.197V66.6207ZM319.955 66.6207H324.714V71.3793H319.955V66.6207ZM324.714 66.6207H329.473V71.3793H324.714V66.6207ZM215.266 71.3793H220.024V76.1379H215.266V71.3793ZM220.024 71.3793H224.783V76.1379H220.024V71.3793ZM234.3 71.3793H239.059V76.1379H234.3V71.3793ZM248.576 71.3793H253.335V76.1379H248.576V71.3793ZM262.852 71.3793H267.61V76.1379H262.852V71.3793ZM277.128 71.3793H281.886V76.1379H277.128V71.3793ZM286.645 71.3793H291.404V76.1379H286.645V71.3793ZM291.404 71.3793H296.162V76.1379H291.404V71.3793ZM296.162 71.3793H300.921V76.1379H296.162V71.3793ZM300.921 71.3793H305.679V76.1379H300.921V71.3793ZM305.679 71.3793H310.438V76.1379H305.679V71.3793ZM315.197 71.3793H319.955V76.1379H315.197V71.3793ZM319.955 71.3793H324.714V76.1379H319.955V71.3793ZM329.473 71.3793H334.231V76.1379H329.473V71.3793ZM334.231 71.3793H338.99V76.1379H334.231V71.3793ZM338.99 71.3793H343.748V76.1379H338.99V71.3793ZM215.266 76.1379H220.024V80.8965H215.266V76.1379ZM224.783 76.1379H229.541V80.8965H224.783V76.1379ZM234.3 76.1379H239.059V80.8965H234.3V76.1379ZM239.059 76.1379H243.817V80.8965H239.059V76.1379ZM243.817 76.1379H248.576V80.8965H243.817V76.1379ZM248.576 76.1379H253.335V80.8965H248.576V76.1379ZM262.852 76.1379H267.61V80.8965H262.852V76.1379ZM272.369 76.1379H277.128V80.8965H272.369V76.1379ZM281.886 76.1379H286.645V80.8965H281.886V76.1379ZM286.645 76.1379H291.404V80.8965H286.645V76.1379ZM291.404 76.1379H296.162V80.8965H291.404V76.1379ZM334.231 76.1379H338.99V80.8965H334.231V76.1379ZM338.99 76.1379H343.748V80.8965H338.99V76.1379ZM348.507 76.1379H353.266V80.8965H348.507V76.1379ZM215.266 80.8965H220.024V85.6552H215.266V80.8965ZM229.541 80.8965H234.3V85.6552H229.541V80.8965ZM239.059 80.8965H243.817V85.6552H239.059V80.8965ZM262.852 80.8965H267.61V85.6552H262.852V80.8965ZM267.61 80.8965H272.369V85.6552H267.61V80.8965ZM277.128 80.8965H281.886V85.6552H277.128V80.8965ZM300.921 80.8965H305.679V85.6552H300.921V80.8965ZM305.679 80.8965H310.438V85.6552H305.679V80.8965ZM319.955 80.8965H324.714V85.6552H319.955V80.8965ZM324.714 80.8965H329.473V85.6552H324.714V80.8965ZM329.473 80.8965H334.231V85.6552H329.473V80.8965ZM348.507 80.8965H353.266V85.6552H348.507V80.8965ZM215.266 85.6552H220.024V90.4138H215.266V85.6552ZM220.024 85.6552H224.783V90.4138H220.024V85.6552ZM224.783 85.6552H229.541V90.4138H224.783V85.6552ZM229.541 85.6552H234.3V90.4138H229.541V85.6552ZM239.059 85.6552H243.817V90.4138H239.059V85.6552ZM243.817 85.6552H248.576V90.4138H243.817V85.6552ZM253.335 85.6552H258.093V90.4138H253.335V85.6552ZM258.093 85.6552H262.852V90.4138H258.093V85.6552ZM267.61 85.6552H272.369V90.4138H267.61V85.6552ZM272.369 85.6552H277.128V90.4138H272.369V85.6552ZM277.128 85.6552H281.886V90.4138H277.128V85.6552ZM281.886 85.6552H286.645V90.4138H281.886V85.6552ZM286.645 85.6552H291.404V90.4138H286.645V85.6552ZM296.162 85.6552H300.921V90.4138H296.162V85.6552ZM305.679 85.6552H310.438V90.4138H305.679V85.6552ZM324.714 85.6552H329.473V90.4138H324.714V85.6552ZM334.231 85.6552H338.99V90.4138H334.231V85.6552ZM338.99 85.6552H343.748V90.4138H338.99V85.6552ZM348.507 85.6552H353.266V90.4138H348.507V85.6552ZM215.266 90.4138H220.024V95.1724H215.266V90.4138ZM229.541 90.4138H234.3V95.1724H229.541V90.4138ZM239.059 90.4138H243.817V95.1724H239.059V90.4138ZM262.852 90.4138H267.61V95.1724H262.852V90.4138ZM277.128 90.4138H281.886V95.1724H277.128V90.4138ZM281.886 90.4138H286.645V95.1724H281.886V90.4138ZM300.921 90.4138H305.679V95.1724H300.921V90.4138ZM305.679 90.4138H310.438V95.1724H305.679V90.4138ZM315.197 90.4138H319.955V95.1724H315.197V90.4138ZM319.955 90.4138H324.714V95.1724H319.955V90.4138ZM324.714 90.4138H329.473V95.1724H324.714V90.4138ZM334.231 90.4138H338.99V95.1724H334.231V90.4138ZM348.507 90.4138H353.266V95.1724H348.507V90.4138ZM215.266 95.1724H220.024V99.931H215.266V95.1724ZM224.783 95.1724H229.541V99.931H224.783V95.1724ZM243.817 95.1724H248.576V99.931H243.817V95.1724ZM262.852 95.1724H267.61V99.931H262.852V95.1724ZM272.369 95.1724H277.128V99.931H272.369V95.1724ZM286.645 95.1724H291.404V99.931H286.645V95.1724ZM296.162 95.1724H300.921V99.931H296.162V95.1724ZM305.679 95.1724H310.438V99.931H305.679V95.1724ZM310.438 95.1724H315.197V99.931H310.438V95.1724ZM315.197 95.1724H319.955V99.931H315.197V95.1724ZM319.955 95.1724H324.714V99.931H319.955V95.1724ZM324.714 95.1724H329.473V99.931H324.714V95.1724ZM329.473 95.1724H334.231V99.931H329.473V95.1724ZM334.231 95.1724H338.99V99.931H334.231V95.1724ZM338.99 95.1724H343.748V99.931H338.99V95.1724ZM343.748 95.1724H348.507V99.931H343.748V95.1724ZM348.507 95.1724H353.266V99.931H348.507V95.1724ZM253.335 99.931H258.093V104.69H253.335V99.931ZM258.093 99.931H262.852V104.69H258.093V99.931ZM272.369 99.931H277.128V104.69H272.369V99.931ZM277.128 99.931H281.886V104.69H277.128V99.931ZM286.645 99.931H291.404V104.69H286.645V99.931ZM300.921 99.931H305.679V104.69H300.921V99.931ZM305.679 99.931H310.438V104.69H305.679V99.931ZM310.438 99.931H315.197V104.69H310.438V99.931ZM329.473 99.931H334.231V104.69H329.473V99.931ZM334.231 99.931H338.99V104.69H334.231V99.931ZM338.99 99.931H343.748V104.69H338.99V99.931ZM215.266 104.69H220.024V109.448H215.266V104.69ZM220.024 104.69H224.783V109.448H220.024V104.69ZM224.783 104.69H229.541V109.448H224.783V104.69ZM229.541 104.69H234.3V109.448H229.541V104.69ZM234.3 104.69H239.059V109.448H234.3V104.69ZM239.059 104.69H243.817V109.448H239.059V104.69ZM243.817 104.69H248.576V109.448H243.817V104.69ZM253.335 104.69H258.093V109.448H253.335V104.69ZM258.093 104.69H262.852V109.448H258.093V104.69ZM262.852 104.69H267.61V109.448H262.852V104.69ZM267.61 104.69H272.369V109.448H267.61V104.69ZM286.645 104.69H291.404V109.448H286.645V104.69ZM300.921 104.69H305.679V109.448H300.921V104.69ZM305.679 104.69H310.438V109.448H305.679V104.69ZM310.438 104.69H315.197V109.448H310.438V104.69ZM319.955 104.69H324.714V109.448H319.955V104.69ZM329.473 104.69H334.231V109.448H329.473V104.69ZM343.748 104.69H348.507V109.448H343.748V104.69ZM215.266 109.448H220.024V114.207H215.266V109.448ZM243.817 109.448H248.576V114.207H243.817V109.448ZM262.852 109.448H267.61V114.207H262.852V109.448ZM267.61 109.448H272.369V114.207H267.61V109.448ZM277.128 109.448H281.886V114.207H277.128V109.448ZM286.645 109.448H291.404V114.207H286.645V109.448ZM305.679 109.448H310.438V114.207H305.679V109.448ZM310.438 109.448H315.197V114.207H310.438V109.448ZM329.473 109.448H334.231V114.207H329.473V109.448ZM334.231 109.448H338.99V114.207H334.231V109.448ZM343.748 109.448H348.507V114.207H343.748V109.448ZM215.266 114.207H220.024V118.966H215.266V114.207ZM224.783 114.207H229.541V118.966H224.783V114.207ZM229.541 114.207H234.3V118.966H229.541V114.207ZM234.3 114.207H239.059V118.966H234.3V114.207ZM243.817 114.207H248.576V118.966H243.817V114.207ZM258.093 114.207H262.852V118.966H258.093V114.207ZM267.61 114.207H272.369V118.966H267.61V114.207ZM272.369 114.207H277.128V118.966H272.369V114.207ZM291.404 114.207H296.162V118.966H291.404V114.207ZM296.162 114.207H300.921V118.966H296.162V114.207ZM300.921 114.207H305.679V118.966H300.921V114.207ZM305.679 114.207H310.438V118.966H305.679V114.207ZM310.438 114.207H315.197V118.966H310.438V114.207ZM315.197 114.207H319.955V118.966H315.197V114.207ZM319.955 114.207H324.714V118.966H319.955V114.207ZM324.714 114.207H329.473V118.966H324.714V114.207ZM329.473 114.207H334.231V118.966H329.473V114.207ZM343.748 114.207H348.507V118.966H343.748V114.207ZM215.266 118.966H220.024V123.724H215.266V118.966ZM224.783 118.966H229.541V123.724H224.783V118.966ZM229.541 118.966H234.3V123.724H229.541V118.966ZM234.3 118.966H239.059V123.724H234.3V118.966ZM243.817 118.966H248.576V123.724H243.817V118.966ZM262.852 118.966H267.61V123.724H262.852V118.966ZM272.369 118.966H277.128V123.724H272.369V118.966ZM291.404 118.966H296.162V123.724H291.404V118.966ZM296.162 118.966H300.921V123.724H296.162V118.966ZM305.679 118.966H310.438V123.724H305.679V118.966ZM310.438 118.966H315.197V123.724H310.438V118.966ZM324.714 118.966H329.473V123.724H324.714V118.966ZM343.748 118.966H348.507V123.724H343.748V118.966ZM215.266 123.724H220.024V128.483H215.266V123.724ZM224.783 123.724H229.541V128.483H224.783V123.724ZM229.541 123.724H234.3V128.483H229.541V123.724ZM234.3 123.724H239.059V128.483H234.3V123.724ZM243.817 123.724H248.576V128.483H243.817V123.724ZM272.369 123.724H277.128V128.483H272.369V123.724ZM281.886 123.724H286.645V128.483H281.886V123.724ZM300.921 123.724H305.679V128.483H300.921V123.724ZM305.679 123.724H310.438V128.483H305.679V123.724ZM310.438 123.724H315.197V128.483H310.438V123.724ZM315.197 123.724H319.955V128.483H315.197V123.724ZM319.955 123.724H324.714V128.483H319.955V123.724ZM324.714 123.724H329.473V128.483H324.714V123.724ZM329.473 123.724H334.231V128.483H329.473V123.724ZM343.748 123.724H348.507V128.483H343.748V123.724ZM215.266 128.483H220.024V133.241H215.266V128.483ZM243.817 128.483H248.576V133.241H243.817V128.483ZM253.335 128.483H258.093V133.241H253.335V128.483ZM272.369 128.483H277.128V133.241H272.369V128.483ZM286.645 128.483H291.404V133.241H286.645V128.483ZM300.921 128.483H305.679V133.241H300.921V128.483ZM315.197 128.483H319.955V133.241H315.197V128.483ZM329.473 128.483H334.231V133.241H329.473V128.483ZM338.99 128.483H343.748V133.241H338.99V128.483ZM348.507 128.483H353.266V133.241H348.507V128.483ZM215.266 133.241H220.024V138H215.266V133.241ZM220.024 133.241H224.783V138H220.024V133.241ZM224.783 133.241H229.541V138H224.783V133.241ZM229.541 133.241H234.3V138H229.541V133.241ZM234.3 133.241H239.059V138H234.3V133.241ZM239.059 133.241H243.817V138H239.059V133.241ZM243.817 133.241H248.576V138H243.817V133.241ZM258.093 133.241H262.852V138H258.093V133.241ZM262.852 133.241H267.61V138H262.852V133.241ZM267.61 133.241H272.369V138H267.61V133.241ZM291.404 133.241H296.162V138H291.404V133.241ZM296.162 133.241H300.921V138H296.162V133.241ZM305.679 133.241H310.438V138H305.679V133.241ZM315.197 133.241H319.955V138H315.197V133.241ZM319.955 133.241H324.714V138H319.955V133.241ZM329.473 133.241H334.231V138H329.473V133.241ZM338.99 133.241H343.748V138H338.99V133.241Z" fill="black"/>
</svg>
