<svg width="73" height="73" viewBox="0 0 73 73" fill="none" xmlns="http://www.w3.org/2000/svg">
<path d="M29.4636 72.6738L25.6163 68.8265L30.5628 63.8799H12.6086V58.3838H30.5628L25.6163 53.4372L29.4636 49.5899L41.0056 61.1318L29.4636 72.6738ZM12.6086 53.8036V7.26925C12.6086 5.43719 13.2499 3.87994 14.5323 2.59749C15.8147 1.31505 17.372 0.673828 19.2041 0.673828H53.6468C55.4789 0.673828 57.0361 1.31505 58.3186 2.59749C59.601 3.87994 60.2422 5.43719 60.2422 7.26925V53.8036H54.746V45.8341C52.3644 44.2463 49.5552 43.0091 46.3186 42.1224C43.0819 41.2381 39.7842 40.796 36.4254 40.796C33.0667 40.796 29.7689 41.2381 26.5323 42.1224C23.2957 43.0091 20.4865 44.2463 18.1048 45.8341V53.6204L17.9216 53.8036H12.6086ZM18.1048 40.7044C20.914 39.3609 23.9222 38.3227 27.1296 37.5899C30.3344 36.857 33.4331 36.4906 36.4254 36.4906C39.4178 36.4906 42.5177 36.857 45.725 37.5899C48.9299 38.3227 51.9369 39.3609 54.746 40.7044V7.26925C54.746 7.02497 54.6239 6.7807 54.3796 6.53642C54.1354 6.29215 53.8911 6.17001 53.6468 6.17001H19.2041C18.9598 6.17001 18.7155 6.29215 18.4712 6.53642C18.227 6.7807 18.1048 7.02497 18.1048 7.26925V40.7044ZM43.7537 63.8799V58.3838H60.2422V63.8799H43.7537ZM36.4254 31.7273C33.6163 31.7273 31.2346 30.7502 29.2804 28.796C27.3262 26.8418 26.3491 24.4601 26.3491 21.6509C26.3491 18.8418 27.3262 16.4601 29.2804 14.5059C31.2346 12.5517 33.6163 11.5746 36.4254 11.5746C39.2346 11.5746 41.6163 12.5517 43.5705 14.5059C45.5247 16.4601 46.5018 18.8418 46.5018 21.6509C46.5018 24.4601 45.5247 26.8418 43.5705 28.796C41.6163 30.7502 39.2346 31.7273 36.4254 31.7273ZM36.4254 26.2311C37.7079 26.2311 38.7912 25.7889 39.6755 24.9047C40.5622 24.018 41.0056 22.9334 41.0056 21.6509C41.0056 20.3685 40.5622 19.2839 39.6755 18.3972C38.7912 17.5129 37.7079 17.0708 36.4254 17.0708C35.143 17.0708 34.0596 17.5129 33.1754 18.3972C32.2886 19.2839 31.8453 20.3685 31.8453 21.6509C31.8453 22.9334 32.2886 24.018 33.1754 24.9047C34.0596 25.7889 35.143 26.2311 36.4254 26.2311Z" fill="#4CA771"/>
</svg>
