<svg width="37" height="32" viewBox="0 0 37 32" fill="none" xmlns="http://www.w3.org/2000/svg">
<path fillRule="evenodd" clipRule="evenodd" d="M32.4524 7.9175C32.466 8.26727 32.4705 8.6169 32.4705 8.96667C32.4705 19.5711 25.0108 31.8132 11.3697 31.8132C7.17933 31.8132 3.28293 30.4777 0 28.2042C0.580315 28.2678 1.16968 28.3156 1.76808 28.3156C5.24244 28.3156 8.44246 27.0275 10.9808 24.8653C7.73553 24.8176 4.99525 22.4805 4.05017 19.3008C4.50387 19.3962 4.9711 19.444 5.44892 19.444C6.12269 19.444 6.77686 19.3487 7.4039 19.158C4.00792 18.4266 1.45004 15.1834 1.45004 11.2882C1.45004 11.2405 1.45004 11.2245 1.45004 11.1927C2.4509 11.781 3.59644 12.1464 4.81284 12.1941C2.82017 10.7474 1.5103 8.28314 1.5103 5.50087C1.5103 4.0382 1.87507 2.65495 2.51719 1.46255C6.17392 6.32754 11.641 9.52322 17.8044 9.85709C17.6778 9.26884 17.6129 8.64895 17.6129 8.0289C17.6129 3.59317 20.9335 0 25.0304 0C27.1633 0 29.0896 0.969958 30.4417 2.52803C32.1344 2.17826 33.7201 1.51056 35.155 0.588437C34.5988 2.46448 33.4246 4.03812 31.8902 5.02383C33.3915 4.83305 34.8234 4.40411 36.1514 3.76817C35.1551 5.37393 33.901 6.78869 32.4524 7.9175Z" fill="white"/>
</svg>
