<svg width="52" height="48" viewBox="0 0 52 48" fill="none" xmlns="http://www.w3.org/2000/svg">
<path fillRule="evenodd" clipRule="evenodd" d="M17.1266 0.47054C15.6397 1.05381 13.3193 2.33513 11.6402 3.49991C9.63131 4.8935 6.87119 7.55139 5.49666 9.41598C3.02774 12.765 1.73616 16.1712 0.993997 21.2914C0.494862 24.7344 0.459368 25.6085 0.413315 35.6019C0.364345 46.2301 0.319701 45.563 1.13577 46.4051C1.92318 47.2178 1.45733 47.1813 11.0485 47.1813C20.3119 47.1813 19.9876 47.2008 20.7529 46.5983C20.9484 46.4445 21.2304 46.1042 21.3799 45.842L21.6514 45.3653L21.6786 36.3101L21.706 27.2549L21.4887 26.7337C21.2336 26.1217 20.5334 25.4398 20.0046 25.2882C19.7878 25.2261 17.9814 25.1836 15.5429 25.1833L11.4454 25.1827L11.4454 24.5302C11.4454 23.0445 11.8559 20.5233 12.3697 18.8529C13.0528 16.632 14.095 14.8414 15.6046 13.295C16.8363 12.0333 18.2625 11.0313 20.2674 10.019C21.7334 9.2788 21.9533 9.09513 22.3561 8.27423C22.4628 8.05684 22.5339 7.66938 22.5374 7.28637C22.5424 6.73194 22.4755 6.50677 21.9803 5.41296C20.0957 1.25077 19.9416 0.986678 19.1544 0.572232C18.5771 0.268299 17.7482 0.226792 17.1266 0.47054ZM46.8606 0.394482C46.3034 0.500635 43.6831 1.82387 42.2643 2.71565C37.9597 5.42116 34.5996 9.04585 32.6333 13.1049C31.1955 16.0729 30.4833 19.0712 29.9818 24.2685C29.8485 25.6496 29.8102 27.7147 29.7742 35.4973C29.7245 46.2422 29.6794 45.5618 30.4966 46.4051C31.284 47.2177 30.8188 47.1813 40.4041 47.1813C49.747 47.1813 49.4195 47.2022 50.1792 46.556C50.3785 46.3864 50.6587 46.005 50.802 45.7083L51.0625 45.1689L51.0603 36.1876C51.058 27.3763 51.0541 27.1973 50.8532 26.7392C50.6178 26.2024 50.2588 25.7843 49.7553 25.4607C49.4115 25.2397 49.3035 25.2333 45.0811 25.1827L40.7588 25.1308L40.7895 24.3006C40.8688 22.1565 41.3704 19.6048 42.067 17.8021C42.7832 15.9486 43.641 14.5967 44.9427 13.2697C46.1274 12.062 47.337 11.2015 49.2356 10.2157C51.0556 9.27071 51.5643 8.8352 51.7703 8.04574C52.0142 7.11132 51.8858 6.64053 50.6857 4.06607C50.0159 2.62931 49.4216 1.49804 49.1923 1.22368C48.6099 0.526681 47.7577 0.223577 46.8606 0.394482Z" fill="#BFE3FF"/>
</svg>
