<svg width="136" height="37" viewBox="0 0 136 37" fill="none" xmlns="http://www.w3.org/2000/svg">
<path d="M34.8875 0H1.45365C0.65082 0 0 0.723133 0 1.61516V34.726C0 35.618 0.65082 36.3412 1.45365 36.3412H34.8875C35.6904 36.3412 36.3412 35.618 36.3412 34.726V1.61516C36.3412 0.723133 35.6904 0 34.8875 0Z" fill="#4CA771"/>
<path d="M9.15858 28.3065H14.8278L17.9742 15.4374L21.0923 28.3065H27.1584L31.8922 8.03906H26.5064L23.7568 20.7948L20.8088 8.03906H15.6498L12.9286 20.6814L10.3208 8.03906H4.45312L9.15858 28.3065Z" fill="white"/>
<path d="M46.7824 28.4261C51.2611 28.4261 53.8406 26.5269 54.2941 23.1821H49.532C49.3335 24.1742 48.6249 24.9395 46.9525 24.9395C45.1383 24.9395 44.0045 23.8057 43.8627 21.8498H54.2941V20.5175C54.2941 15.1885 50.8075 12.8641 46.754 12.8641C42.2754 12.8641 38.7321 15.8688 38.7321 20.6309V20.8577C38.7321 25.7049 42.1336 28.4261 46.7824 28.4261ZM43.9194 18.9868C44.1745 17.201 45.2233 16.2089 46.754 16.2089C48.3981 16.2089 49.2768 17.201 49.3619 18.9868H43.9194ZM60.7723 28.4261C63.1534 28.4261 64.4573 27.434 65.1659 26.3568V28.0859H70.0982V18.4766C70.0982 14.5365 67.4903 12.8641 63.4085 12.8641C59.355 12.8641 56.5487 14.6215 56.322 18.1931H61.0841C61.1975 17.2577 61.7077 16.4357 63.0967 16.4357C64.7124 16.4357 65.0526 17.3711 65.0526 18.7884V19.1286H63.6353C58.703 19.1286 55.755 20.4892 55.755 23.9758C55.755 27.1222 58.1078 28.4261 60.7723 28.4261ZM62.5298 24.9962C61.3392 24.9962 60.7723 24.4576 60.7723 23.6073C60.7723 22.3884 61.6794 21.9915 63.7203 21.9915H65.0526V22.8986C65.0526 24.1742 63.9754 24.9962 62.5298 24.9962ZM73.1347 28.0859H78.1804V6.74132H73.1347V28.0859ZM87.2212 28.4261C88.4118 28.4261 89.3755 28.171 90.0275 28.0009V24.1458C89.5739 24.3159 89.1488 24.4009 88.5818 24.4009C87.6181 24.4009 87.0795 23.9191 87.0795 22.8419V16.7191H89.9991V13.2609H87.0795V10.1712H82.0055V13.2609H80.2197V16.7191H82.0055V23.3238C82.0055 26.8104 83.8764 28.4261 87.2212 28.4261ZM92.3426 28.0859H97.4165V19.7805C97.4165 17.8813 98.437 16.9743 99.9393 16.9743C101.413 16.9743 102.065 17.7963 102.065 19.4687V28.0859H107.139V18.4483C107.139 14.6499 105.155 12.8641 102.292 12.8641C99.8259 12.8641 98.2102 14.1113 97.4165 15.642V6.74132H92.3426V28.0859ZM108.812 28.0859H122.22V24.2592H115.899L122.56 13.7995V13.2609H109.493V17.0876H115.304L108.812 27.5757V28.0859ZM124.567 28.0859H129.641V13.2609H124.567V28.0859ZM127.09 11.8436C128.678 11.8436 129.897 10.7381 129.897 9.23577C129.897 7.73343 128.678 6.59958 127.09 6.59958C125.503 6.59958 124.312 7.73343 124.312 9.23577C124.312 10.7381 125.503 11.8436 127.09 11.8436Z" fill="white"/>
</svg>
