<svg width="16" height="16" viewBox="0 0 16 16" fill="none" xmlns="http://www.w3.org/2000/svg">
<path d="M8 16C6.90667 16 5.87333 15.7899 4.9 15.3696C3.92667 14.9499 3.0768 14.3765 2.3504 13.6496C1.62347 12.9232 1.05013 12.0733 0.6304 11.1C0.210133 10.1267 0 9.09333 0 8C0 6.89333 0.210133 5.8568 0.6304 4.8904C1.05013 3.92347 1.62347 3.0768 2.3504 2.3504C3.0768 1.62347 3.92667 1.04987 4.9 0.6296C5.87333 0.209867 6.90667 0 8 0C9.10667 0 10.1432 0.209867 11.1096 0.6296C12.0765 1.04987 12.9232 1.62347 13.6496 2.3504C14.3765 3.0768 14.9499 3.92347 15.3696 4.8904C15.7899 5.8568 16 6.89333 16 8C16 9.09333 15.7899 10.1267 15.3696 11.1C14.9499 12.0733 14.3765 12.9232 13.6496 13.6496C12.9232 14.3765 12.0765 14.9499 11.1096 15.3696C10.1432 15.7899 9.10667 16 8 16ZM8 14.36C8.34667 13.88 8.64667 13.38 8.9 12.86C9.15333 12.34 9.36 11.7867 9.52 11.2H6.48C6.64 11.7867 6.84667 12.34 7.1 12.86C7.35333 13.38 7.65333 13.88 8 14.36ZM5.92 14.04C5.68 13.6 5.47013 13.1432 5.2904 12.6696C5.11013 12.1965 4.96 11.7067 4.84 11.2H2.48C2.86667 11.8667 3.34987 12.4467 3.9296 12.94C4.50987 13.4333 5.17333 13.8 5.92 14.04ZM10.08 14.04C10.8267 13.8 11.4899 13.4333 12.0696 12.94C12.6499 12.4467 13.1333 11.8667 13.52 11.2H11.16C11.04 11.7067 10.8901 12.1965 10.7104 12.6696C10.5301 13.1432 10.32 13.6 10.08 14.04ZM1.8 9.6H4.52C4.48 9.33333 4.44987 9.06987 4.4296 8.8096C4.40987 8.54987 4.4 8.28 4.4 8C4.4 7.72 4.40987 7.45013 4.4296 7.1904C4.44987 6.93013 4.48 6.66667 4.52 6.4H1.8C1.73333 6.66667 1.6832 6.93013 1.6496 7.1904C1.61653 7.45013 1.6 7.72 1.6 8C1.6 8.28 1.61653 8.54987 1.6496 8.8096C1.6832 9.06987 1.73333 9.33333 1.8 9.6ZM6.12 9.6H9.88C9.92 9.33333 9.95013 9.06987 9.9704 8.8096C9.99013 8.54987 10 8.28 10 8C10 7.72 9.99013 7.45013 9.9704 7.1904C9.95013 6.93013 9.92 6.66667 9.88 6.4H6.12C6.08 6.66667 6.05013 6.93013 6.0304 7.1904C6.01013 7.45013 6 7.72 6 8C6 8.28 6.01013 8.54987 6.0304 8.8096C6.05013 9.06987 6.08 9.33333 6.12 9.6ZM11.48 9.6H14.2C14.2667 9.33333 14.3168 9.06987 14.3504 8.8096C14.3835 8.54987 14.4 8.28 14.4 8C14.4 7.72 14.3835 7.45013 14.3504 7.1904C14.3168 6.93013 14.2667 6.66667 14.2 6.4H11.48C11.52 6.66667 11.5499 6.93013 11.5696 7.1904C11.5899 7.45013 11.6 7.72 11.6 8C11.6 8.28 11.5899 8.54987 11.5696 8.8096C11.5499 9.06987 11.52 9.33333 11.48 9.6ZM11.16 4.8H13.52C13.1333 4.13333 12.6499 3.55333 12.0696 3.06C11.4899 2.56667 10.8267 2.2 10.08 1.96C10.32 2.4 10.5301 2.85653 10.7104 3.3296C10.8901 3.8032 11.04 4.29333 11.16 4.8ZM6.48 4.8H9.52C9.36 4.21333 9.15333 3.66 8.9 3.14C8.64667 2.62 8.34667 2.12 8 1.64C7.65333 2.12 7.35333 2.62 7.1 3.14C6.84667 3.66 6.64 4.21333 6.48 4.8ZM2.48 4.8H4.84C4.96 4.29333 5.11013 3.8032 5.2904 3.3296C5.47013 2.85653 5.68 2.4 5.92 1.96C5.17333 2.2 4.50987 2.56667 3.9296 3.06C3.34987 3.55333 2.86667 4.13333 2.48 4.8Z" fill="#4CA771"/>
</svg>
