<svg width="72" height="72" viewBox="0 0 72 72" fill="none" xmlns="http://www.w3.org/2000/svg">
<path d="M15.2469 56.6018L15.2465 56.6013C9.65908 49.4183 6.88937 41.4876 6.88937 32.76V12.0033L35.9999 1.79824L65.1105 12.0033V32.76C65.1105 41.4878 62.3419 49.4185 56.757 56.6015C51.2618 63.6682 44.356 68.2004 35.9999 70.2546C27.6439 68.2005 20.7396 63.6683 15.2469 56.6018Z" stroke="#4CA771" stroke-width="3.39397"/>
<path d="M19.623 48.1447V44.5172L34.0483 24.2765H19.5947V19.2375H41.7268V22.865L27.2873 43.1057H41.7551V48.1447H19.623Z" fill="#4CA771"/>
<path d="M46.3318 48.1447V26.4643H52.3447V48.1447H46.3318ZM49.3524 23.6696C48.4584 23.6696 47.6915 23.3732 47.0517 22.7803C46.4212 22.1781 46.106 21.4582 46.106 20.6208C46.106 19.7927 46.4212 19.0822 47.0517 18.4894C47.6915 17.8872 48.4584 17.5861 49.3524 17.5861C50.2463 17.5861 51.0085 17.8872 51.639 18.4894C52.2789 19.0822 52.5988 19.7927 52.5988 20.6208C52.5988 21.4582 52.2789 22.1781 51.639 22.7803C51.0085 23.3732 50.2463 23.6696 49.3524 23.6696Z" fill="#4CA771"/>
</svg>
